<?xml version="1.0" encoding="UTF-8" standalone="no"?>
<!DOCTYPE svg PUBLIC "-//W3C//DTD SVG 1.1//EN"
 "http://www.w3.org/Graphics/SVG/1.1/DTD/svg11.dtd">
<!-- Generated by graphviz version 2.47.2 (20210527.0053)
 -->
<!-- Title: G Pages: 1 -->
<svg width="430pt" height="107pt"
 viewBox="0.00 0.00 430.20 107.20" xmlns="http://www.w3.org/2000/svg" xmlns:xlink="http://www.w3.org/1999/xlink">
<g id="graph0" class="graph" transform="scale(1 1) rotate(0) translate(21.6 85.6)">
<title>G</title>
<polygon fill="#111111" stroke="transparent" points="-21.6,21.6 -21.6,-85.6 408.6,-85.6 408.6,21.6 -21.6,21.6"/>
<!-- service/site&#45;adder.ts -->
<g id="node1" class="node">
<title>service/site&#45;adder.ts</title>
<path fill="none" stroke="#ff6c60" d="M137.33,-23C137.33,-23 7.67,-23 7.67,-23 3.83,-23 0,-19.17 0,-15.33 0,-15.33 0,-7.67 0,-7.67 0,-3.83 3.83,0 7.67,0 7.67,0 137.33,0 137.33,0 141.17,0 145,-3.83 145,-7.67 145,-7.67 145,-15.33 145,-15.33 145,-19.17 141.17,-23 137.33,-23"/>
<text text-anchor="middle" x="72.5" y="-7.8" font-family="Arial" font-size="14.00" fill="#ff6c60">service/site&#45;adder.ts</text>
</g>
<!-- service/woirld&#45;map&#45;resolver.ts -->
<g id="node2" class="node">
<title>service/woirld&#45;map&#45;resolver.ts</title>
<path fill="none" stroke="#ff6c60" d="M379.33,-23C379.33,-23 188.67,-23 188.67,-23 184.83,-23 181,-19.17 181,-15.33 181,-15.33 181,-7.67 181,-7.67 181,-3.83 184.83,0 188.67,0 188.67,0 379.33,0 379.33,0 383.17,0 387,-3.83 387,-7.67 387,-7.67 387,-15.33 387,-15.33 387,-19.17 383.17,-23 379.33,-23"/>
<text text-anchor="middle" x="284" y="-7.8" font-family="Arial" font-size="14.00" fill="#ff6c60">service/woirld&#45;map&#45;resolver.ts</text>
</g>
<!-- service/site&#45;adder.ts&#45;&gt;service/woirld&#45;map&#45;resolver.ts -->
<g id="edge1" class="edge">
<title>service/site&#45;adder.ts&#45;&gt;service/woirld&#45;map&#45;resolver.ts</title>
<path fill="none" stroke="#757575" d="M145.01,-5.06C153.28,-4.9 161.85,-4.8 170.49,-4.77"/>
<polygon fill="#757575" stroke="#757575" points="170.66,-8.27 180.66,-4.75 170.65,-1.27 170.66,-8.27"/>
</g>
<!-- service/woirld&#45;map&#45;resolver.ts&#45;&gt;service/site&#45;adder.ts -->
<g id="edge2" class="edge">
<title>service/woirld&#45;map&#45;resolver.ts&#45;&gt;service/site&#45;adder.ts</title>
<path fill="none" stroke="#757575" d="M180.66,-18.25C172.09,-18.26 163.5,-18.21 155.12,-18.1"/>
<polygon fill="#757575" stroke="#757575" points="155.07,-14.6 145.01,-17.94 154.95,-21.6 155.07,-14.6"/>
</g>
<!-- user/friendship.ts -->
<g id="node3" class="node">
<title>user/friendship.ts</title>
<path fill="none" stroke="#ff6c60" d="M127.33,-64C127.33,-64 17.67,-64 17.67,-64 13.83,-64 10,-60.17 10,-56.33 10,-56.33 10,-48.67 10,-48.67 10,-44.83 13.83,-41 17.67,-41 17.67,-41 127.33,-41 127.33,-41 131.17,-41 135,-44.83 135,-48.67 135,-48.67 135,-56.33 135,-56.33 135,-60.17 131.17,-64 127.33,-64"/>
<text text-anchor="middle" x="72.5" y="-48.8" font-family="Arial" font-size="14.00" fill="#ff6c60">user/friendship.ts</text>
</g>
<!-- user/user.ts -->
<g id="node4" class="node">
<title>user/user.ts</title>
<path fill="none" stroke="#ff6c60" d="M321.83,-64C321.83,-64 246.17,-64 246.17,-64 242.33,-64 238.5,-60.17 238.5,-56.33 238.5,-56.33 238.5,-48.67 238.5,-48.67 238.5,-44.83 242.33,-41 246.17,-41 246.17,-41 321.83,-41 321.83,-41 325.67,-41 329.5,-44.83 329.5,-48.67 329.5,-48.67 329.5,-56.33 329.5,-56.33 329.5,-60.17 325.67,-64 321.83,-64"/>
<text text-anchor="middle" x="284" y="-48.8" font-family="Arial" font-size="14.00" fill="#ff6c60">user/user.ts</text>
</g>
<!-- user/friendship.ts&#45;&gt;user/user.ts -->
<g id="edge3" class="edge">
<title>user/friendship.ts&#45;&gt;user/user.ts</title>
<path fill="none" stroke="#757575" d="M135.22,-46.28C164.68,-45.51 199.63,-45.58 228.14,-46.48"/>
<polygon fill="#757575" stroke="#757575" points="228.21,-49.99 238.33,-46.85 228.46,-42.99 228.21,-49.99"/>
</g>
<!-- user/user.ts&#45;&gt;user/friendship.ts -->
<g id="edge4" class="edge">
<title>user/user.ts&#45;&gt;user/friendship.ts</title>
<path fill="none" stroke="#757575" d="M238.33,-58.15C211.34,-59.27 176.32,-59.53 145.5,-58.95"/>
<polygon fill="#757575" stroke="#757575" points="145.3,-55.44 135.22,-58.72 145.14,-62.44 145.3,-55.44"/>
</g>
</g>
</svg>
