<?xml version="1.0" encoding="UTF-8" standalone="no"?>
<!DOCTYPE svg PUBLIC "-//W3C//DTD SVG 1.1//EN"
 "http://www.w3.org/Graphics/SVG/1.1/DTD/svg11.dtd">
<!-- Generated by graphviz version 2.47.2 (20210527.0053)
 -->
<!-- Title: G Pages: 1 -->
<svg width="572pt" height="107pt"
 viewBox="0.00 0.00 572.20 107.20" xmlns="http://www.w3.org/2000/svg" xmlns:xlink="http://www.w3.org/1999/xlink">
<g id="graph0" class="graph" transform="scale(1 1) rotate(0) translate(21.6 85.6)">
<title>G</title>
<polygon fill="#111111" stroke="transparent" points="-21.6,21.6 -21.6,-85.6 550.6,-85.6 550.6,21.6 -21.6,21.6"/>
<!-- mapserver/service/site&#45;adder.ts -->
<g id="node1" class="node">
<title>mapserver/service/site&#45;adder.ts</title>
<path fill="none" stroke="#ff6c60" d="M208.33,-23C208.33,-23 7.67,-23 7.67,-23 3.83,-23 0,-19.17 0,-15.33 0,-15.33 0,-7.67 0,-7.67 0,-3.83 3.83,0 7.67,0 7.67,0 208.33,0 208.33,0 212.17,0 216,-3.83 216,-7.67 216,-7.67 216,-15.33 216,-15.33 216,-19.17 212.17,-23 208.33,-23"/>
<text text-anchor="middle" x="108" y="-7.8" font-family="Arial" font-size="14.00" fill="#ff6c60">mapserver/service/site&#45;adder.ts</text>
</g>
<!-- mapserver/service/woirld&#45;map&#45;resolver.ts -->
<g id="node2" class="node">
<title>mapserver/service/woirld&#45;map&#45;resolver.ts</title>
<path fill="none" stroke="#ff6c60" d="M521.33,-23C521.33,-23 259.67,-23 259.67,-23 255.83,-23 252,-19.17 252,-15.33 252,-15.33 252,-7.67 252,-7.67 252,-3.83 255.83,0 259.67,0 259.67,0 521.33,0 521.33,0 525.17,0 529,-3.83 529,-7.67 529,-7.67 529,-15.33 529,-15.33 529,-19.17 525.17,-23 521.33,-23"/>
<text text-anchor="middle" x="390.5" y="-7.8" font-family="Arial" font-size="14.00" fill="#ff6c60">mapserver/service/woirld&#45;map&#45;resolver.ts</text>
</g>
<!-- mapserver/service/site&#45;adder.ts&#45;&gt;mapserver/service/woirld&#45;map&#45;resolver.ts -->
<g id="edge1" class="edge">
<title>mapserver/service/site&#45;adder.ts&#45;&gt;mapserver/service/woirld&#45;map&#45;resolver.ts</title>
<path fill="none" stroke="#757575" d="M216.25,-4.92C224.58,-4.83 233.08,-4.78 241.62,-4.76"/>
<polygon fill="#757575" stroke="#757575" points="241.66,-8.26 251.66,-4.75 241.66,-1.26 241.66,-8.26"/>
</g>
<!-- mapserver/service/woirld&#45;map&#45;resolver.ts&#45;&gt;mapserver/service/site&#45;adder.ts -->
<g id="edge2" class="edge">
<title>mapserver/service/woirld&#45;map&#45;resolver.ts&#45;&gt;mapserver/service/site&#45;adder.ts</title>
<path fill="none" stroke="#757575" d="M251.66,-18.25C243.2,-18.26 234.73,-18.23 226.38,-18.17"/>
<polygon fill="#757575" stroke="#757575" points="226.28,-14.67 216.25,-18.08 226.21,-21.67 226.28,-14.67"/>
</g>
<!-- mapserver/user/friendship.ts -->
<g id="node3" class="node">
<title>mapserver/user/friendship.ts</title>
<path fill="none" stroke="#ff6c60" d="M198.83,-64C198.83,-64 17.17,-64 17.17,-64 13.33,-64 9.5,-60.17 9.5,-56.33 9.5,-56.33 9.5,-48.67 9.5,-48.67 9.5,-44.83 13.33,-41 17.17,-41 17.17,-41 198.83,-41 198.83,-41 202.67,-41 206.5,-44.83 206.5,-48.67 206.5,-48.67 206.5,-56.33 206.5,-56.33 206.5,-60.17 202.67,-64 198.83,-64"/>
<text text-anchor="middle" x="108" y="-48.8" font-family="Arial" font-size="14.00" fill="#ff6c60">mapserver/user/friendship.ts</text>
</g>
<!-- mapserver/user/user.ts -->
<g id="node4" class="node">
<title>mapserver/user/user.ts</title>
<path fill="none" stroke="#ff6c60" d="M463.83,-64C463.83,-64 317.17,-64 317.17,-64 313.33,-64 309.5,-60.17 309.5,-56.33 309.5,-56.33 309.5,-48.67 309.5,-48.67 309.5,-44.83 313.33,-41 317.17,-41 317.17,-41 463.83,-41 463.83,-41 467.67,-41 471.5,-44.83 471.5,-48.67 471.5,-48.67 471.5,-56.33 471.5,-56.33 471.5,-60.17 467.67,-64 463.83,-64"/>
<text text-anchor="middle" x="390.5" y="-48.8" font-family="Arial" font-size="14.00" fill="#ff6c60">mapserver/user/user.ts</text>
</g>
<!-- mapserver/user/friendship.ts&#45;&gt;mapserver/user/user.ts -->
<g id="edge3" class="edge">
<title>mapserver/user/friendship.ts&#45;&gt;mapserver/user/user.ts</title>
<path fill="none" stroke="#757575" d="M206.71,-46.03C236.7,-45.62 269.54,-45.66 299.02,-46.14"/>
<polygon fill="#757575" stroke="#757575" points="299.24,-49.65 309.3,-46.33 299.37,-42.65 299.24,-49.65"/>
</g>
<!-- mapserver/user/user.ts&#45;&gt;mapserver/user/friendship.ts -->
<g id="edge4" class="edge">
<title>mapserver/user/user.ts&#45;&gt;mapserver/user/friendship.ts</title>
<path fill="none" stroke="#757575" d="M309.3,-58.67C280.58,-59.26 247.71,-59.4 217.03,-59.09"/>
<polygon fill="#757575" stroke="#757575" points="216.75,-55.59 206.71,-58.97 216.67,-62.59 216.75,-55.59"/>
</g>
</g>
</svg>
