<?xml version="1.0" encoding="UTF-8" standalone="no"?>
<!DOCTYPE svg PUBLIC "-//W3C//DTD SVG 1.1//EN"
 "http://www.w3.org/Graphics/SVG/1.1/DTD/svg11.dtd">
<!-- Generated by graphviz version 2.47.2 (20210527.0053)
 -->
<!-- Title: G Pages: 1 -->
<svg width="862pt" height="148pt"
 viewBox="0.00 0.00 862.20 148.20" xmlns="http://www.w3.org/2000/svg" xmlns:xlink="http://www.w3.org/1999/xlink">
<g id="graph0" class="graph" transform="scale(1 1) rotate(0) translate(21.6 126.6)">
<title>G</title>
<polygon fill="#111111" stroke="transparent" points="-21.6,21.6 -21.6,-126.6 840.6,-126.6 840.6,21.6 -21.6,21.6"/>
<!-- service/generic&#45;map&#45;factory/layer&#45;factory/layer&#45;factory.ts -->
<g id="node1" class="node">
<title>service/generic&#45;map&#45;factory/layer&#45;factory/layer&#45;factory.ts</title>
<path fill="none" stroke="#ff6c60" d="M362.33,-23C362.33,-23 7.67,-23 7.67,-23 3.83,-23 0,-19.17 0,-15.33 0,-15.33 0,-7.67 0,-7.67 0,-3.83 3.83,0 7.67,0 7.67,0 362.33,0 362.33,0 366.17,0 370,-3.83 370,-7.67 370,-7.67 370,-15.33 370,-15.33 370,-19.17 366.17,-23 362.33,-23"/>
<text text-anchor="middle" x="185" y="-7.8" font-family="Arial" font-size="14.00" fill="#ff6c60">service/generic&#45;map&#45;factory/layer&#45;factory/layer&#45;factory.ts</text>
</g>
<!-- service/generic&#45;map&#45;factory/layer&#45;factory/object&#45;layer&#45;factory.ts -->
<g id="node2" class="node">
<title>service/generic&#45;map&#45;factory/layer&#45;factory/object&#45;layer&#45;factory.ts</title>
<path fill="none" stroke="#ff6c60" d="M811.33,-23C811.33,-23 413.67,-23 413.67,-23 409.83,-23 406,-19.17 406,-15.33 406,-15.33 406,-7.67 406,-7.67 406,-3.83 409.83,0 413.67,0 413.67,0 811.33,0 811.33,0 815.17,0 819,-3.83 819,-7.67 819,-7.67 819,-15.33 819,-15.33 819,-19.17 815.17,-23 811.33,-23"/>
<text text-anchor="middle" x="612.5" y="-7.8" font-family="Arial" font-size="14.00" fill="#ff6c60">service/generic&#45;map&#45;factory/layer&#45;factory/object&#45;layer&#45;factory.ts</text>
</g>
<!-- service/generic&#45;map&#45;factory/layer&#45;factory/layer&#45;factory.ts&#45;&gt;service/generic&#45;map&#45;factory/layer&#45;factory/object&#45;layer&#45;factory.ts -->
<g id="edge1" class="edge">
<title>service/generic&#45;map&#45;factory/layer&#45;factory/layer&#45;factory.ts&#45;&gt;service/generic&#45;map&#45;factory/layer&#45;factory/object&#45;layer&#45;factory.ts</title>
<path fill="none" stroke="#757575" d="M370.16,-4.8C378.63,-4.77 387.17,-4.75 395.71,-4.75"/>
<polygon fill="#757575" stroke="#757575" points="395.74,-8.25 405.74,-4.75 395.74,-1.25 395.74,-8.25"/>
</g>
<!-- service/generic&#45;map&#45;factory/layer&#45;factory/object&#45;layer&#45;factory.ts&#45;&gt;service/generic&#45;map&#45;factory/layer&#45;factory/layer&#45;factory.ts -->
<g id="edge2" class="edge">
<title>service/generic&#45;map&#45;factory/layer&#45;factory/object&#45;layer&#45;factory.ts&#45;&gt;service/generic&#45;map&#45;factory/layer&#45;factory/layer&#45;factory.ts</title>
<path fill="none" stroke="#757575" d="M405.74,-18.25C397.29,-18.25 388.83,-18.25 380.41,-18.23"/>
<polygon fill="#757575" stroke="#757575" points="380.17,-14.73 370.16,-18.2 380.14,-21.73 380.17,-14.73"/>
</g>
<!-- service/site&#45;adder.ts -->
<g id="node3" class="node">
<title>service/site&#45;adder.ts</title>
<path fill="none" stroke="#ff6c60" d="M249.83,-64C249.83,-64 120.17,-64 120.17,-64 116.33,-64 112.5,-60.17 112.5,-56.33 112.5,-56.33 112.5,-48.67 112.5,-48.67 112.5,-44.83 116.33,-41 120.17,-41 120.17,-41 249.83,-41 249.83,-41 253.67,-41 257.5,-44.83 257.5,-48.67 257.5,-48.67 257.5,-56.33 257.5,-56.33 257.5,-60.17 253.67,-64 249.83,-64"/>
<text text-anchor="middle" x="185" y="-48.8" font-family="Arial" font-size="14.00" fill="#ff6c60">service/site&#45;adder.ts</text>
</g>
<!-- service/woirld&#45;map&#45;resolver.ts -->
<g id="node4" class="node">
<title>service/woirld&#45;map&#45;resolver.ts</title>
<path fill="none" stroke="#ff6c60" d="M707.83,-64C707.83,-64 517.17,-64 517.17,-64 513.33,-64 509.5,-60.17 509.5,-56.33 509.5,-56.33 509.5,-48.67 509.5,-48.67 509.5,-44.83 513.33,-41 517.17,-41 517.17,-41 707.83,-41 707.83,-41 711.67,-41 715.5,-44.83 715.5,-48.67 715.5,-48.67 715.5,-56.33 715.5,-56.33 715.5,-60.17 711.67,-64 707.83,-64"/>
<text text-anchor="middle" x="612.5" y="-48.8" font-family="Arial" font-size="14.00" fill="#ff6c60">service/woirld&#45;map&#45;resolver.ts</text>
</g>
<!-- service/site&#45;adder.ts&#45;&gt;service/woirld&#45;map&#45;resolver.ts -->
<g id="edge3" class="edge">
<title>service/site&#45;adder.ts&#45;&gt;service/woirld&#45;map&#45;resolver.ts</title>
<path fill="none" stroke="#757575" d="M257.7,-47.3C323.66,-45.56 422.54,-45.29 499.02,-46.47"/>
<polygon fill="#757575" stroke="#757575" points="499.12,-49.97 509.18,-46.63 499.23,-42.97 499.12,-49.97"/>
</g>
<!-- service/woirld&#45;map&#45;resolver.ts&#45;&gt;service/site&#45;adder.ts -->
<g id="edge4" class="edge">
<title>service/woirld&#45;map&#45;resolver.ts&#45;&gt;service/site&#45;adder.ts</title>
<path fill="none" stroke="#757575" d="M509.18,-58.37C435.28,-59.67 336.8,-59.53 268.04,-57.96"/>
<polygon fill="#757575" stroke="#757575" points="267.78,-54.45 257.7,-57.7 267.61,-61.45 267.78,-54.45"/>
</g>
<!-- user/friendship.ts -->
<g id="node5" class="node">
<title>user/friendship.ts</title>
<path fill="none" stroke="#ff6c60" d="M239.83,-105C239.83,-105 130.17,-105 130.17,-105 126.33,-105 122.5,-101.17 122.5,-97.33 122.5,-97.33 122.5,-89.67 122.5,-89.67 122.5,-85.83 126.33,-82 130.17,-82 130.17,-82 239.83,-82 239.83,-82 243.67,-82 247.5,-85.83 247.5,-89.67 247.5,-89.67 247.5,-97.33 247.5,-97.33 247.5,-101.17 243.67,-105 239.83,-105"/>
<text text-anchor="middle" x="185" y="-89.8" font-family="Arial" font-size="14.00" fill="#ff6c60">user/friendship.ts</text>
</g>
<!-- user/user.ts -->
<g id="node6" class="node">
<title>user/user.ts</title>
<path fill="none" stroke="#ff6c60" d="M650.33,-105C650.33,-105 574.67,-105 574.67,-105 570.83,-105 567,-101.17 567,-97.33 567,-97.33 567,-89.67 567,-89.67 567,-85.83 570.83,-82 574.67,-82 574.67,-82 650.33,-82 650.33,-82 654.17,-82 658,-85.83 658,-89.67 658,-89.67 658,-97.33 658,-97.33 658,-101.17 654.17,-105 650.33,-105"/>
<text text-anchor="middle" x="612.5" y="-89.8" font-family="Arial" font-size="14.00" fill="#ff6c60">user/user.ts</text>
</g>
<!-- user/friendship.ts&#45;&gt;user/user.ts -->
<g id="edge5" class="edge">
<title>user/friendship.ts&#45;&gt;user/user.ts</title>
<path fill="none" stroke="#757575" d="M247.87,-88.57C330.92,-86.07 477.17,-86.14 556.54,-88.79"/>
<polygon fill="#757575" stroke="#757575" points="556.69,-92.3 566.81,-89.16 556.94,-85.3 556.69,-92.3"/>
</g>
<!-- user/user.ts&#45;&gt;user/friendship.ts -->
<g id="edge6" class="edge">
<title>user/user.ts&#45;&gt;user/friendship.ts</title>
<path fill="none" stroke="#757575" d="M566.81,-97.84C493.34,-100.73 346.4,-101.02 258.08,-98.71"/>
<polygon fill="#757575" stroke="#757575" points="257.97,-95.21 247.87,-98.43 257.77,-102.21 257.97,-95.21"/>
</g>
</g>
</svg>
