<?xml version="1.0" encoding="UTF-8" standalone="no"?>
<!DOCTYPE svg PUBLIC "-//W3C//DTD SVG 1.1//EN"
 "http://www.w3.org/Graphics/SVG/1.1/DTD/svg11.dtd">
<!-- Generated by graphviz version 2.47.2 (20210527.0053)
 -->
<!-- Title: G Pages: 1 -->
<svg width="1799pt" height="975pt"
 viewBox="0.00 0.00 1799.20 975.25" xmlns="http://www.w3.org/2000/svg" xmlns:xlink="http://www.w3.org/1999/xlink">
<g id="graph0" class="graph" transform="scale(1 1) rotate(0) translate(21.6 953.65)">
<title>G</title>
<polygon fill="#111111" stroke="transparent" points="-21.6,21.6 -21.6,-953.65 1777.6,-953.65 1777.6,21.6 -21.6,21.6"/>
<!-- ../../public/users.d.ts -->
<g id="node1" class="node">
<title>../../public/users.d.ts</title>
<path fill="none" stroke="#cfffac" d="M294.33,-932.05C294.33,-932.05 166.67,-932.05 166.67,-932.05 162.83,-932.05 159,-928.21 159,-924.38 159,-924.38 159,-916.71 159,-916.71 159,-912.88 162.83,-909.05 166.67,-909.05 166.67,-909.05 294.33,-909.05 294.33,-909.05 298.17,-909.05 302,-912.88 302,-916.71 302,-916.71 302,-924.38 302,-924.38 302,-928.21 298.17,-932.05 294.33,-932.05"/>
<text text-anchor="middle" x="230.5" y="-916.85" font-family="Arial" font-size="14.00" fill="#cfffac">../../public/users.d.ts</text>
</g>
<!-- ../../util/memory&#45;cache.ts -->
<g id="node2" class="node">
<title>../../util/memory&#45;cache.ts</title>
<path fill="none" stroke="#cfffac" d="M307.83,-891.05C307.83,-891.05 153.17,-891.05 153.17,-891.05 149.33,-891.05 145.5,-887.21 145.5,-883.38 145.5,-883.38 145.5,-875.71 145.5,-875.71 145.5,-871.88 149.33,-868.05 153.17,-868.05 153.17,-868.05 307.83,-868.05 307.83,-868.05 311.67,-868.05 315.5,-871.88 315.5,-875.71 315.5,-875.71 315.5,-883.38 315.5,-883.38 315.5,-887.21 311.67,-891.05 307.83,-891.05"/>
<text text-anchor="middle" x="230.5" y="-875.85" font-family="Arial" font-size="14.00" fill="#cfffac">../../util/memory&#45;cache.ts</text>
</g>
<!-- api.proxy.ts -->
<g id="node3" class="node">
<title>api.proxy.ts</title>
<path fill="none" stroke="#c6c5fe" d="M86.33,-891.05C86.33,-891.05 12.67,-891.05 12.67,-891.05 8.83,-891.05 5,-887.21 5,-883.38 5,-883.38 5,-875.71 5,-875.71 5,-871.88 8.83,-868.05 12.67,-868.05 12.67,-868.05 86.33,-868.05 86.33,-868.05 90.17,-868.05 94,-871.88 94,-875.71 94,-875.71 94,-883.38 94,-883.38 94,-887.21 90.17,-891.05 86.33,-891.05"/>
<text text-anchor="middle" x="49.5" y="-875.85" font-family="Arial" font-size="14.00" fill="#c6c5fe">api.proxy.ts</text>
</g>
<!-- api.proxy.ts&#45;&gt;../../public/users.d.ts -->
<g id="edge1" class="edge">
<title>api.proxy.ts&#45;&gt;../../public/users.d.ts</title>
<path fill="none" stroke="#757575" d="M94.29,-890.74C107.36,-894 121.74,-897.5 135,-900.55 144.22,-902.67 153.96,-904.82 163.55,-906.9"/>
<polygon fill="#757575" stroke="#757575" points="162.95,-910.35 173.46,-909.03 164.42,-903.51 162.95,-910.35"/>
</g>
<!-- api.proxy.ts&#45;&gt;../../util/memory&#45;cache.ts -->
<g id="edge2" class="edge">
<title>api.proxy.ts&#45;&gt;../../util/memory&#45;cache.ts</title>
<path fill="none" stroke="#757575" d="M94.29,-879.55C106.7,-879.55 120.71,-879.55 134.89,-879.55"/>
<polygon fill="#757575" stroke="#757575" points="135.23,-883.05 145.23,-879.55 135.23,-876.05 135.23,-883.05"/>
</g>
<!-- message&#45;communication.ts -->
<g id="node4" class="node">
<title>message&#45;communication.ts</title>
<path fill="none" stroke="#c6c5fe" d="M318.33,-790.05C318.33,-790.05 142.67,-790.05 142.67,-790.05 138.83,-790.05 135,-786.21 135,-782.38 135,-782.38 135,-774.71 135,-774.71 135,-770.88 138.83,-767.05 142.67,-767.05 142.67,-767.05 318.33,-767.05 318.33,-767.05 322.17,-767.05 326,-770.88 326,-774.71 326,-774.71 326,-782.38 326,-782.38 326,-786.21 322.17,-790.05 318.33,-790.05"/>
<text text-anchor="middle" x="230.5" y="-774.85" font-family="Arial" font-size="14.00" fill="#c6c5fe">message&#45;communication.ts</text>
</g>
<!-- api.proxy.ts&#45;&gt;message&#45;communication.ts -->
<g id="edge3" class="edge">
<title>api.proxy.ts&#45;&gt;message&#45;communication.ts</title>
<path fill="none" stroke="#757575" d="M71.03,-867.96C102.65,-850.12 163.38,-815.85 199.79,-795.31"/>
<polygon fill="#757575" stroke="#757575" points="201.94,-798.12 208.93,-790.15 198.5,-792.02 201.94,-798.12"/>
</g>
<!-- user/user.ts -->
<g id="node15" class="node">
<title>user/user.ts</title>
<path fill="none" stroke="#ff6c60" d="M514.83,-729.05C514.83,-729.05 439.17,-729.05 439.17,-729.05 435.33,-729.05 431.5,-725.21 431.5,-721.38 431.5,-721.38 431.5,-713.71 431.5,-713.71 431.5,-709.88 435.33,-706.05 439.17,-706.05 439.17,-706.05 514.83,-706.05 514.83,-706.05 518.67,-706.05 522.5,-709.88 522.5,-713.71 522.5,-713.71 522.5,-721.38 522.5,-721.38 522.5,-725.21 518.67,-729.05 514.83,-729.05"/>
<text text-anchor="middle" x="477" y="-713.85" font-family="Arial" font-size="14.00" fill="#ff6c60">user/user.ts</text>
</g>
<!-- message&#45;communication.ts&#45;&gt;user/user.ts -->
<g id="edge14" class="edge">
<title>message&#45;communication.ts&#45;&gt;user/user.ts</title>
<path fill="none" stroke="#757575" d="M277.78,-767C318.62,-756.81 378.21,-741.95 421.38,-731.18"/>
<polygon fill="#757575" stroke="#757575" points="422.3,-734.55 431.15,-728.74 420.6,-727.76 422.3,-734.55"/>
</g>
<!-- mapserver.ts -->
<g id="node5" class="node">
<title>mapserver.ts</title>
<path fill="none" stroke="#c6c5fe" d="M91.33,-287.05C91.33,-287.05 7.67,-287.05 7.67,-287.05 3.83,-287.05 0,-283.21 0,-279.38 0,-279.38 0,-271.71 0,-271.71 0,-267.88 3.83,-264.05 7.67,-264.05 7.67,-264.05 91.33,-264.05 91.33,-264.05 95.17,-264.05 99,-267.88 99,-271.71 99,-271.71 99,-279.38 99,-279.38 99,-283.21 95.17,-287.05 91.33,-287.05"/>
<text text-anchor="middle" x="49.5" y="-271.85" font-family="Arial" font-size="14.00" fill="#c6c5fe">mapserver.ts</text>
</g>
<!-- models/location.ts -->
<g id="node6" class="node">
<title>models/location.ts</title>
<path fill="none" stroke="#c6c5fe" d="M1301.83,-172.05C1301.83,-172.05 1186.17,-172.05 1186.17,-172.05 1182.33,-172.05 1178.5,-168.21 1178.5,-164.38 1178.5,-164.38 1178.5,-156.71 1178.5,-156.71 1178.5,-152.88 1182.33,-149.05 1186.17,-149.05 1186.17,-149.05 1301.83,-149.05 1301.83,-149.05 1305.67,-149.05 1309.5,-152.88 1309.5,-156.71 1309.5,-156.71 1309.5,-164.38 1309.5,-164.38 1309.5,-168.21 1305.67,-172.05 1301.83,-172.05"/>
<text text-anchor="middle" x="1244" y="-156.85" font-family="Arial" font-size="14.00" fill="#c6c5fe">models/location.ts</text>
</g>
<!-- mapserver.ts&#45;&gt;models/location.ts -->
<g id="edge4" class="edge">
<title>mapserver.ts&#45;&gt;models/location.ts</title>
<path fill="none" stroke="#757575" d="M52.15,-263.67C57.36,-231.32 76.73,-141.66 135,-105.55 309.25,2.43 959.83,-107.19 1174.09,-147.2"/>
<polygon fill="#757575" stroke="#757575" points="1173.48,-150.64 1183.96,-149.05 1174.77,-143.76 1173.48,-150.64"/>
</g>
<!-- models/site.ts -->
<g id="node7" class="node">
<title>models/site.ts</title>
<path fill="none" stroke="#c6c5fe" d="M1040.83,-257.05C1040.83,-257.05 951.17,-257.05 951.17,-257.05 947.33,-257.05 943.5,-253.21 943.5,-249.38 943.5,-249.38 943.5,-241.71 943.5,-241.71 943.5,-237.88 947.33,-234.05 951.17,-234.05 951.17,-234.05 1040.83,-234.05 1040.83,-234.05 1044.67,-234.05 1048.5,-237.88 1048.5,-241.71 1048.5,-241.71 1048.5,-249.38 1048.5,-249.38 1048.5,-253.21 1044.67,-257.05 1040.83,-257.05"/>
<text text-anchor="middle" x="996" y="-241.85" font-family="Arial" font-size="14.00" fill="#c6c5fe">models/site.ts</text>
</g>
<!-- mapserver.ts&#45;&gt;models/site.ts -->
<g id="edge5" class="edge">
<title>mapserver.ts&#45;&gt;models/site.ts</title>
<path fill="none" stroke="#757575" d="M99.29,-274C257.72,-268.97 757.6,-253.09 933.24,-247.51"/>
<polygon fill="#757575" stroke="#757575" points="933.46,-251 943.35,-247.19 933.24,-244.01 933.46,-251"/>
</g>
<!-- models/tile.ts -->
<g id="node8" class="node">
<title>models/tile.ts</title>
<path fill="none" stroke="#cfffac" d="M1480.83,-62.05C1480.83,-62.05 1395.17,-62.05 1395.17,-62.05 1391.33,-62.05 1387.5,-58.21 1387.5,-54.38 1387.5,-54.38 1387.5,-46.71 1387.5,-46.71 1387.5,-42.88 1391.33,-39.05 1395.17,-39.05 1395.17,-39.05 1480.83,-39.05 1480.83,-39.05 1484.67,-39.05 1488.5,-42.88 1488.5,-46.71 1488.5,-46.71 1488.5,-54.38 1488.5,-54.38 1488.5,-58.21 1484.67,-62.05 1480.83,-62.05"/>
<text text-anchor="middle" x="1438" y="-46.85" font-family="Arial" font-size="14.00" fill="#cfffac">models/tile.ts</text>
</g>
<!-- mapserver.ts&#45;&gt;models/tile.ts -->
<g id="edge6" class="edge">
<title>mapserver.ts&#45;&gt;models/tile.ts</title>
<path fill="none" stroke="#757575" d="M51.11,-264.01C53.71,-227.2 67.17,-111.93 135,-58.55 255.17,36.03 323.07,-12.55 476,-12.55 476,-12.55 476,-12.55 997,-12.55 1133.49,-12.55 1292.91,-30.92 1377.38,-42.12"/>
<polygon fill="#757575" stroke="#757575" points="1376.93,-45.59 1387.3,-43.44 1377.85,-38.65 1376.93,-45.59"/>
</g>
<!-- service/address&#45;from&#45;geo.ts -->
<g id="node9" class="node">
<title>service/address&#45;from&#45;geo.ts</title>
<path fill="none" stroke="#c6c5fe" d="M1086.33,-216.05C1086.33,-216.05 905.67,-216.05 905.67,-216.05 901.83,-216.05 898,-212.21 898,-208.38 898,-208.38 898,-200.71 898,-200.71 898,-196.88 901.83,-193.05 905.67,-193.05 905.67,-193.05 1086.33,-193.05 1086.33,-193.05 1090.17,-193.05 1094,-196.88 1094,-200.71 1094,-200.71 1094,-208.38 1094,-208.38 1094,-212.21 1090.17,-216.05 1086.33,-216.05"/>
<text text-anchor="middle" x="996" y="-200.85" font-family="Arial" font-size="14.00" fill="#c6c5fe">service/address&#45;from&#45;geo.ts</text>
</g>
<!-- mapserver.ts&#45;&gt;service/address&#45;from&#45;geo.ts -->
<g id="edge7" class="edge">
<title>mapserver.ts&#45;&gt;service/address&#45;from&#45;geo.ts</title>
<path fill="none" stroke="#757575" d="M99.11,-267.34C110.84,-265.57 123.35,-263.83 135,-262.55 405.07,-232.72 724.67,-216.03 887.68,-208.84"/>
<polygon fill="#757575" stroke="#757575" points="887.87,-212.34 897.71,-208.4 887.57,-205.34 887.87,-212.34"/>
</g>
<!-- service/image&#45;resolver.ts -->
<g id="node10" class="node">
<title>service/image&#45;resolver.ts</title>
<path fill="none" stroke="#c6c5fe" d="M310.83,-138.05C310.83,-138.05 150.17,-138.05 150.17,-138.05 146.33,-138.05 142.5,-134.21 142.5,-130.38 142.5,-130.38 142.5,-122.71 142.5,-122.71 142.5,-118.88 146.33,-115.05 150.17,-115.05 150.17,-115.05 310.83,-115.05 310.83,-115.05 314.67,-115.05 318.5,-118.88 318.5,-122.71 318.5,-122.71 318.5,-130.38 318.5,-130.38 318.5,-134.21 314.67,-138.05 310.83,-138.05"/>
<text text-anchor="middle" x="230.5" y="-122.85" font-family="Arial" font-size="14.00" fill="#c6c5fe">service/image&#45;resolver.ts</text>
</g>
<!-- mapserver.ts&#45;&gt;service/image&#45;resolver.ts -->
<g id="edge8" class="edge">
<title>mapserver.ts&#45;&gt;service/image&#45;resolver.ts</title>
<path fill="none" stroke="#757575" d="M55.27,-263.68C65.8,-239.03 93.42,-182.15 135,-152.55 140.91,-148.34 147.47,-144.81 154.3,-141.86"/>
<polygon fill="#757575" stroke="#757575" points="155.71,-145.07 163.75,-138.17 153.16,-138.55 155.71,-145.07"/>
</g>
<!-- service/map&#45;attributes&#45;holder.ts -->
<g id="node11" class="node">
<title>service/map&#45;attributes&#45;holder.ts</title>
<path fill="none" stroke="#cfffac" d="M1748.33,-568.05C1748.33,-568.05 1548.67,-568.05 1548.67,-568.05 1544.83,-568.05 1541,-564.21 1541,-560.38 1541,-560.38 1541,-552.71 1541,-552.71 1541,-548.88 1544.83,-545.05 1548.67,-545.05 1548.67,-545.05 1748.33,-545.05 1748.33,-545.05 1752.17,-545.05 1756,-548.88 1756,-552.71 1756,-552.71 1756,-560.38 1756,-560.38 1756,-564.21 1752.17,-568.05 1748.33,-568.05"/>
<text text-anchor="middle" x="1648.5" y="-552.85" font-family="Arial" font-size="14.00" fill="#cfffac">service/map&#45;attributes&#45;holder.ts</text>
</g>
<!-- mapserver.ts&#45;&gt;service/map&#45;attributes&#45;holder.ts -->
<g id="edge9" class="edge">
<title>mapserver.ts&#45;&gt;service/map&#45;attributes&#45;holder.ts</title>
<path fill="none" stroke="#757575" d="M50.56,-287.46C51.19,-358.52 58.14,-725.93 135,-799.55 190.1,-852.32 399.7,-839.55 476,-839.55 476,-839.55 476,-839.55 1245,-839.55 1428.16,-839.55 1586.86,-641.02 1633.59,-576.52"/>
<polygon fill="#757575" stroke="#757575" points="1636.46,-578.52 1639.43,-568.35 1630.77,-574.45 1636.46,-578.52"/>
</g>
<!-- service/site&#45;adder.ts -->
<g id="node12" class="node">
<title>service/site&#45;adder.ts</title>
<path fill="none" stroke="#ff6c60" d="M798.33,-415.05C798.33,-415.05 668.67,-415.05 668.67,-415.05 664.83,-415.05 661,-411.21 661,-407.38 661,-407.38 661,-399.71 661,-399.71 661,-395.88 664.83,-392.05 668.67,-392.05 668.67,-392.05 798.33,-392.05 798.33,-392.05 802.17,-392.05 806,-395.88 806,-399.71 806,-399.71 806,-407.38 806,-407.38 806,-411.21 802.17,-415.05 798.33,-415.05"/>
<text text-anchor="middle" x="733.5" y="-399.85" font-family="Arial" font-size="14.00" fill="#ff6c60">service/site&#45;adder.ts</text>
</g>
<!-- mapserver.ts&#45;&gt;service/site&#45;adder.ts -->
<g id="edge10" class="edge">
<title>mapserver.ts&#45;&gt;service/site&#45;adder.ts</title>
<path fill="none" stroke="#757575" d="M72.17,-287.07C88.91,-295.52 112.88,-306.69 135,-313.55 313.72,-368.96 533.45,-390.85 650.29,-399.02"/>
<polygon fill="#757575" stroke="#757575" points="650.37,-402.54 660.58,-399.73 650.84,-395.55 650.37,-402.54"/>
</g>
<!-- service/user&#45;map&#45;loader.ts -->
<g id="node13" class="node">
<title>service/user&#45;map&#45;loader.ts</title>
<path fill="none" stroke="#c6c5fe" d="M315.33,-648.05C315.33,-648.05 145.67,-648.05 145.67,-648.05 141.83,-648.05 138,-644.21 138,-640.38 138,-640.38 138,-632.71 138,-632.71 138,-628.88 141.83,-625.05 145.67,-625.05 145.67,-625.05 315.33,-625.05 315.33,-625.05 319.17,-625.05 323,-628.88 323,-632.71 323,-632.71 323,-640.38 323,-640.38 323,-644.21 319.17,-648.05 315.33,-648.05"/>
<text text-anchor="middle" x="230.5" y="-632.85" font-family="Arial" font-size="14.00" fill="#c6c5fe">service/user&#45;map&#45;loader.ts</text>
</g>
<!-- mapserver.ts&#45;&gt;service/user&#45;map&#45;loader.ts -->
<g id="edge11" class="edge">
<title>mapserver.ts&#45;&gt;service/user&#45;map&#45;loader.ts</title>
<path fill="none" stroke="#757575" d="M56.25,-287.15C81.87,-338.81 185.73,-548.28 219.12,-615.6"/>
<polygon fill="#757575" stroke="#757575" points="216.1,-617.4 223.68,-624.81 222.37,-614.29 216.1,-617.4"/>
</g>
<!-- service/woirld&#45;map&#45;resolver.ts -->
<g id="node14" class="node">
<title>service/woirld&#45;map&#45;resolver.ts</title>
<path fill="none" stroke="#ff6c60" d="M572.33,-345.05C572.33,-345.05 381.67,-345.05 381.67,-345.05 377.83,-345.05 374,-341.21 374,-337.38 374,-337.38 374,-329.71 374,-329.71 374,-325.88 377.83,-322.05 381.67,-322.05 381.67,-322.05 572.33,-322.05 572.33,-322.05 576.17,-322.05 580,-325.88 580,-329.71 580,-329.71 580,-337.38 580,-337.38 580,-341.21 576.17,-345.05 572.33,-345.05"/>
<text text-anchor="middle" x="477" y="-329.85" font-family="Arial" font-size="14.00" fill="#ff6c60">service/woirld&#45;map&#45;resolver.ts</text>
</g>
<!-- mapserver.ts&#45;&gt;service/woirld&#45;map&#45;resolver.ts -->
<g id="edge12" class="edge">
<title>mapserver.ts&#45;&gt;service/woirld&#45;map&#45;resolver.ts</title>
<path fill="none" stroke="#757575" d="M99.31,-282.2C167.94,-291.56 294.31,-308.78 381.64,-320.69"/>
<polygon fill="#757575" stroke="#757575" points="381.18,-324.15 391.56,-322.04 382.12,-317.22 381.18,-324.15"/>
</g>
<!-- mapserver.ts&#45;&gt;user/user.ts -->
<g id="edge13" class="edge">
<title>mapserver.ts&#45;&gt;user/user.ts</title>
<path fill="none" stroke="#757575" d="M51.36,-287.09C55.95,-345.11 79.32,-604.23 135,-657.55 212.02,-731.3 346.05,-731.65 421.09,-724.91"/>
<polygon fill="#757575" stroke="#757575" points="421.66,-728.37 431.28,-723.92 420.98,-721.4 421.66,-728.37"/>
</g>
<!-- models/location.ts&#45;&gt;models/tile.ts -->
<g id="edge17" class="edge">
<title>models/location.ts&#45;&gt;models/tile.ts</title>
<path fill="none" stroke="#757575" d="M1265.18,-148.98C1299.32,-129.43 1368.58,-89.75 1407.94,-67.2"/>
<polygon fill="#757575" stroke="#757575" points="1409.86,-70.13 1416.8,-62.12 1406.38,-64.06 1409.86,-70.13"/>
</g>
<!-- models/vector.ts -->
<g id="node18" class="node">
<title>models/vector.ts</title>
<path fill="none" stroke="#cfffac" d="M1701.83,-334.05C1701.83,-334.05 1595.17,-334.05 1595.17,-334.05 1591.33,-334.05 1587.5,-330.21 1587.5,-326.38 1587.5,-326.38 1587.5,-318.71 1587.5,-318.71 1587.5,-314.88 1591.33,-311.05 1595.17,-311.05 1595.17,-311.05 1701.83,-311.05 1701.83,-311.05 1705.67,-311.05 1709.5,-314.88 1709.5,-318.71 1709.5,-318.71 1709.5,-326.38 1709.5,-326.38 1709.5,-330.21 1705.67,-334.05 1701.83,-334.05"/>
<text text-anchor="middle" x="1648.5" y="-318.85" font-family="Arial" font-size="14.00" fill="#cfffac">models/vector.ts</text>
</g>
<!-- models/location.ts&#45;&gt;models/vector.ts -->
<g id="edge18" class="edge">
<title>models/location.ts&#45;&gt;models/vector.ts</title>
<path fill="none" stroke="#757575" d="M1305.02,-172.06C1315.13,-174.52 1325.44,-177.35 1335,-180.55 1442.39,-216.44 1562.52,-277.28 1617.32,-306.26"/>
<polygon fill="#757575" stroke="#757575" points="1615.68,-309.36 1626.16,-310.96 1618.97,-303.17 1615.68,-309.36"/>
</g>
<!-- models/tile&#45;pixel.ts -->
<g id="node19" class="node">
<title>models/tile&#45;pixel.ts</title>
<path fill="none" stroke="#c6c5fe" d="M1497.33,-452.05C1497.33,-452.05 1378.67,-452.05 1378.67,-452.05 1374.83,-452.05 1371,-448.21 1371,-444.38 1371,-444.38 1371,-436.71 1371,-436.71 1371,-432.88 1374.83,-429.05 1378.67,-429.05 1378.67,-429.05 1497.33,-429.05 1497.33,-429.05 1501.17,-429.05 1505,-432.88 1505,-436.71 1505,-436.71 1505,-444.38 1505,-444.38 1505,-448.21 1501.17,-452.05 1497.33,-452.05"/>
<text text-anchor="middle" x="1438" y="-436.85" font-family="Arial" font-size="14.00" fill="#c6c5fe">models/tile&#45;pixel.ts</text>
</g>
<!-- models/location.ts&#45;&gt;models/tile&#45;pixel.ts -->
<g id="edge16" class="edge">
<title>models/location.ts&#45;&gt;models/tile&#45;pixel.ts</title>
<path fill="none" stroke="#757575" d="M1309.65,-166.79C1318.88,-169.89 1327.7,-174.3 1335,-180.55 1409.32,-244.15 1429.85,-368.98 1435.21,-419.03"/>
<polygon fill="#757575" stroke="#757575" points="1431.73,-419.43 1436.19,-429.05 1438.7,-418.76 1431.73,-419.43"/>
</g>
<!-- models/site.ts&#45;&gt;models/location.ts -->
<g id="edge21" class="edge">
<title>models/site.ts&#45;&gt;models/location.ts</title>
<path fill="none" stroke="#757575" d="M1048.53,-245.07C1070.85,-242.89 1096.51,-237.57 1117,-225.55 1139.09,-212.59 1131.26,-194.1 1153,-180.55 1157.96,-177.46 1163.34,-174.84 1168.91,-172.63"/>
<polygon fill="#757575" stroke="#757575" points="1170.17,-175.89 1178.43,-169.27 1167.84,-169.29 1170.17,-175.89"/>
</g>
<!-- models/address.ts -->
<g id="node16" class="node">
<title>models/address.ts</title>
<path fill="none" stroke="#cfffac" d="M1303.33,-254.05C1303.33,-254.05 1184.67,-254.05 1184.67,-254.05 1180.83,-254.05 1177,-250.21 1177,-246.38 1177,-246.38 1177,-238.71 1177,-238.71 1177,-234.88 1180.83,-231.05 1184.67,-231.05 1184.67,-231.05 1303.33,-231.05 1303.33,-231.05 1307.17,-231.05 1311,-234.88 1311,-238.71 1311,-238.71 1311,-246.38 1311,-246.38 1311,-250.21 1307.17,-254.05 1303.33,-254.05"/>
<text text-anchor="middle" x="1244" y="-238.85" font-family="Arial" font-size="14.00" fill="#cfffac">models/address.ts</text>
</g>
<!-- models/site.ts&#45;&gt;models/address.ts -->
<g id="edge20" class="edge">
<title>models/site.ts&#45;&gt;models/address.ts</title>
<path fill="none" stroke="#757575" d="M1048.57,-244.92C1082.84,-244.5 1128.44,-243.94 1166.86,-243.48"/>
<polygon fill="#757575" stroke="#757575" points="1167.02,-246.97 1176.98,-243.35 1166.93,-239.98 1167.02,-246.97"/>
</g>
<!-- models/site&#45;tile&#45;position.ts -->
<g id="node21" class="node">
<title>models/site&#45;tile&#45;position.ts</title>
<path fill="none" stroke="#c6c5fe" d="M1327.33,-452.05C1327.33,-452.05 1160.67,-452.05 1160.67,-452.05 1156.83,-452.05 1153,-448.21 1153,-444.38 1153,-444.38 1153,-436.71 1153,-436.71 1153,-432.88 1156.83,-429.05 1160.67,-429.05 1160.67,-429.05 1327.33,-429.05 1327.33,-429.05 1331.17,-429.05 1335,-432.88 1335,-436.71 1335,-436.71 1335,-444.38 1335,-444.38 1335,-448.21 1331.17,-452.05 1327.33,-452.05"/>
<text text-anchor="middle" x="1244" y="-436.85" font-family="Arial" font-size="14.00" fill="#c6c5fe">models/site&#45;tile&#45;position.ts</text>
</g>
<!-- models/site.ts&#45;&gt;models/site&#45;tile&#45;position.ts -->
<g id="edge22" class="edge">
<title>models/site.ts&#45;&gt;models/site&#45;tile&#45;position.ts</title>
<path fill="none" stroke="#757575" d="M1011.65,-257.16C1053.01,-289.95 1170.88,-383.38 1220.52,-422.73"/>
<polygon fill="#757575" stroke="#757575" points="1218.41,-425.53 1228.43,-428.99 1222.76,-420.04 1218.41,-425.53"/>
</g>
<!-- service/address&#45;from&#45;geo.ts&#45;&gt;models/location.ts -->
<g id="edge27" class="edge">
<title>service/address&#45;from&#45;geo.ts&#45;&gt;models/location.ts</title>
<path fill="none" stroke="#757575" d="M1061.31,-193.04C1094.22,-187.16 1134.45,-179.96 1168.69,-173.84"/>
<polygon fill="#757575" stroke="#757575" points="1169.41,-177.27 1178.64,-172.06 1168.18,-170.38 1169.41,-177.27"/>
</g>
<!-- service/address&#45;from&#45;geo.ts&#45;&gt;models/address.ts -->
<g id="edge25" class="edge">
<title>service/address&#45;from&#45;geo.ts&#45;&gt;models/address.ts</title>
<path fill="none" stroke="#757575" d="M1071.48,-216.05C1101.59,-220.7 1136.32,-226.07 1166.62,-230.75"/>
<polygon fill="#757575" stroke="#757575" points="1166.3,-234.24 1176.71,-232.31 1167.37,-227.32 1166.3,-234.24"/>
</g>
<!-- models/bounding&#45;box.ts -->
<g id="node17" class="node">
<title>models/bounding&#45;box.ts</title>
<path fill="none" stroke="#c6c5fe" d="M1320.83,-334.05C1320.83,-334.05 1167.17,-334.05 1167.17,-334.05 1163.33,-334.05 1159.5,-330.21 1159.5,-326.38 1159.5,-326.38 1159.5,-318.71 1159.5,-318.71 1159.5,-314.88 1163.33,-311.05 1167.17,-311.05 1167.17,-311.05 1320.83,-311.05 1320.83,-311.05 1324.67,-311.05 1328.5,-314.88 1328.5,-318.71 1328.5,-318.71 1328.5,-326.38 1328.5,-326.38 1328.5,-330.21 1324.67,-334.05 1320.83,-334.05"/>
<text text-anchor="middle" x="1244" y="-318.85" font-family="Arial" font-size="14.00" fill="#c6c5fe">models/bounding&#45;box.ts</text>
</g>
<!-- service/address&#45;from&#45;geo.ts&#45;&gt;models/bounding&#45;box.ts -->
<g id="edge26" class="edge">
<title>service/address&#45;from&#45;geo.ts&#45;&gt;models/bounding&#45;box.ts</title>
<path fill="none" stroke="#757575" d="M1094.14,-215.92C1102.1,-218.53 1109.83,-221.7 1117,-225.55 1137.5,-236.55 1135.15,-248.63 1153,-263.55 1171.92,-279.37 1195.25,-294.56 1213.42,-305.56"/>
<polygon fill="#757575" stroke="#757575" points="1212.02,-308.8 1222.4,-310.92 1215.61,-302.79 1212.02,-308.8"/>
</g>
<!-- service/json&#45;assign.ts -->
<g id="node22" class="node">
<title>service/json&#45;assign.ts</title>
<path fill="none" stroke="#cfffac" d="M1312.83,-213.05C1312.83,-213.05 1175.17,-213.05 1175.17,-213.05 1171.33,-213.05 1167.5,-209.21 1167.5,-205.38 1167.5,-205.38 1167.5,-197.71 1167.5,-197.71 1167.5,-193.88 1171.33,-190.05 1175.17,-190.05 1175.17,-190.05 1312.83,-190.05 1312.83,-190.05 1316.67,-190.05 1320.5,-193.88 1320.5,-197.71 1320.5,-197.71 1320.5,-205.38 1320.5,-205.38 1320.5,-209.21 1316.67,-213.05 1312.83,-213.05"/>
<text text-anchor="middle" x="1244" y="-197.85" font-family="Arial" font-size="14.00" fill="#cfffac">service/json&#45;assign.ts</text>
</g>
<!-- service/address&#45;from&#45;geo.ts&#45;&gt;service/json&#45;assign.ts -->
<g id="edge28" class="edge">
<title>service/address&#45;from&#45;geo.ts&#45;&gt;service/json&#45;assign.ts</title>
<path fill="none" stroke="#757575" d="M1094.23,-203.36C1115.02,-203.11 1136.84,-202.84 1157.17,-202.59"/>
<polygon fill="#757575" stroke="#757575" points="1157.38,-206.09 1167.34,-202.47 1157.29,-199.09 1157.38,-206.09"/>
</g>
<!-- service/image&#45;resolver.ts&#45;&gt;models/location.ts -->
<g id="edge29" class="edge">
<title>service/image&#45;resolver.ts&#45;&gt;models/location.ts</title>
<path fill="none" stroke="#757575" d="M318.62,-129.48C514.15,-136.05 985.12,-151.88 1168.32,-158.04"/>
<polygon fill="#757575" stroke="#757575" points="1168.29,-161.54 1178.4,-158.38 1168.53,-154.54 1168.29,-161.54"/>
</g>
<!-- service/image&#45;resolver.ts&#45;&gt;models/tile.ts -->
<g id="edge30" class="edge">
<title>service/image&#45;resolver.ts&#45;&gt;models/tile.ts</title>
<path fill="none" stroke="#757575" d="M318.68,-121.05C550.87,-106.41 1179.97,-66.75 1377.09,-54.32"/>
<polygon fill="#757575" stroke="#757575" points="1377.5,-57.81 1387.26,-53.68 1377.05,-50.82 1377.5,-57.81"/>
</g>
<!-- service/image&#45;resolver.ts&#45;&gt;service/woirld&#45;map&#45;resolver.ts -->
<g id="edge31" class="edge">
<title>service/image&#45;resolver.ts&#45;&gt;service/woirld&#45;map&#45;resolver.ts</title>
<path fill="none" stroke="#757575" d="M245.35,-138.27C286.03,-172.71 405.4,-273.78 454.52,-315.36"/>
<polygon fill="#757575" stroke="#757575" points="452.41,-318.16 462.31,-321.95 456.94,-312.82 452.41,-318.16"/>
</g>
<!-- service/site&#45;adder.ts&#45;&gt;models/site.ts -->
<g id="edge34" class="edge">
<title>service/site&#45;adder.ts&#45;&gt;models/site.ts</title>
<path fill="none" stroke="#757575" d="M758.75,-391.98C780.61,-381.07 813.18,-363.59 839,-344.55 856.71,-331.49 857.17,-323.45 875,-310.55 901.77,-291.17 934.99,-273.61 959.69,-261.64"/>
<polygon fill="#757575" stroke="#757575" points="961.52,-264.65 969.04,-257.18 958.51,-258.33 961.52,-264.65"/>
</g>
<!-- service/site&#45;adder.ts&#45;&gt;service/map&#45;attributes&#45;holder.ts -->
<g id="edge37" class="edge">
<title>service/site&#45;adder.ts&#45;&gt;service/map&#45;attributes&#45;holder.ts</title>
<path fill="none" stroke="#757575" d="M755.17,-415.25C781.92,-429.81 830.41,-454.27 875,-466.55 936.69,-483.54 1330.54,-524.71 1530.84,-544.94"/>
<polygon fill="#757575" stroke="#757575" points="1530.52,-548.42 1540.82,-545.94 1531.22,-541.46 1530.52,-548.42"/>
</g>
<!-- service/site&#45;adder.ts&#45;&gt;service/woirld&#45;map&#45;resolver.ts -->
<g id="edge39" class="edge">
<title>service/site&#45;adder.ts&#45;&gt;service/woirld&#45;map&#45;resolver.ts</title>
<path fill="none" stroke="#757575" d="M660.73,-395C649.74,-392.32 638.56,-389.41 628,-386.55 585.4,-375.01 536.4,-360.37 506.31,-348.93"/>
<polygon fill="#757575" stroke="#757575" points="507.46,-345.62 496.87,-345.18 504.87,-352.12 507.46,-345.62"/>
</g>
<!-- service/site&#45;adder.ts&#45;&gt;models/bounding&#45;box.ts -->
<g id="edge32" class="edge">
<title>service/site&#45;adder.ts&#45;&gt;models/bounding&#45;box.ts</title>
<path fill="none" stroke="#757575" d="M806.01,-392.16C899.37,-377.29 1062.42,-351.31 1160.78,-335.64"/>
<polygon fill="#757575" stroke="#757575" points="1161.36,-339.1 1170.68,-334.07 1160.26,-332.18 1161.36,-339.1"/>
</g>
<!-- service/site&#45;adder.ts&#45;&gt;models/vector.ts -->
<g id="edge36" class="edge">
<title>service/site&#45;adder.ts&#45;&gt;models/vector.ts</title>
<path fill="none" stroke="#757575" d="M806.1,-398.88C882.98,-393.72 1008.71,-384.92 1117,-375.55 1282.16,-361.26 1475.88,-341.02 1577.36,-330.15"/>
<polygon fill="#757575" stroke="#757575" points="1577.91,-333.61 1587.48,-329.07 1577.17,-326.65 1577.91,-333.61"/>
</g>
<!-- service/site&#45;adder.ts&#45;&gt;models/tile&#45;pixel.ts -->
<g id="edge35" class="edge">
<title>service/site&#45;adder.ts&#45;&gt;models/tile&#45;pixel.ts</title>
<path fill="none" stroke="#757575" d="M776.61,-415.08C804.36,-422.27 841.61,-431.15 875,-436.55 1077.12,-469.21 1131.31,-482.3 1335,-461.55 1350.05,-460.01 1366.16,-457.24 1381.03,-454.2"/>
<polygon fill="#757575" stroke="#757575" points="1382.05,-457.56 1391.1,-452.06 1380.59,-450.71 1382.05,-457.56"/>
</g>
<!-- service/site&#45;adder.ts&#45;&gt;models/site&#45;tile&#45;position.ts -->
<g id="edge33" class="edge">
<title>service/site&#45;adder.ts&#45;&gt;models/site&#45;tile&#45;position.ts</title>
<path fill="none" stroke="#757575" d="M806.33,-409.28C828.36,-411.01 852.67,-412.89 875,-414.55 965.44,-421.28 1068.41,-428.52 1142.38,-433.65"/>
<polygon fill="#757575" stroke="#757575" points="1142.41,-437.16 1152.62,-434.35 1142.89,-430.17 1142.41,-437.16"/>
</g>
<!-- service/map.d.ts -->
<g id="node23" class="node">
<title>service/map.d.ts</title>
<path fill="none" stroke="#cfffac" d="M1048.83,-608.05C1048.83,-608.05 943.17,-608.05 943.17,-608.05 939.33,-608.05 935.5,-604.21 935.5,-600.38 935.5,-600.38 935.5,-592.71 935.5,-592.71 935.5,-588.88 939.33,-585.05 943.17,-585.05 943.17,-585.05 1048.83,-585.05 1048.83,-585.05 1052.67,-585.05 1056.5,-588.88 1056.5,-592.71 1056.5,-592.71 1056.5,-600.38 1056.5,-600.38 1056.5,-604.21 1052.67,-608.05 1048.83,-608.05"/>
<text text-anchor="middle" x="996" y="-592.85" font-family="Arial" font-size="14.00" fill="#cfffac">service/map.d.ts</text>
</g>
<!-- service/site&#45;adder.ts&#45;&gt;service/map.d.ts -->
<g id="edge38" class="edge">
<title>service/site&#45;adder.ts&#45;&gt;service/map.d.ts</title>
<path fill="none" stroke="#757575" d="M745.31,-415.3C767.82,-439.34 822.04,-495.03 875,-532.55 901.7,-551.47 934.67,-568.66 959.28,-580.45"/>
<polygon fill="#757575" stroke="#757575" points="958.08,-583.75 968.61,-584.85 961.06,-577.42 958.08,-583.75"/>
</g>
<!-- service/user&#45;map&#45;loader.ts&#45;&gt;service/map&#45;attributes&#45;holder.ts -->
<g id="edge40" class="edge">
<title>service/user&#45;map&#45;loader.ts&#45;&gt;service/map&#45;attributes&#45;holder.ts</title>
<path fill="none" stroke="#757575" d="M323.38,-636.55C423.86,-636.55 589.64,-636.55 732.5,-636.55 732.5,-636.55 732.5,-636.55 1245,-636.55 1377.52,-636.55 1529.95,-594.32 1603.4,-571.22"/>
<polygon fill="#757575" stroke="#757575" points="1604.76,-574.46 1613.23,-568.1 1602.64,-567.79 1604.76,-574.46"/>
</g>
<!-- service/user&#45;map&#45;loader.ts&#45;&gt;user/user.ts -->
<g id="edge43" class="edge">
<title>service/user&#45;map&#45;loader.ts&#45;&gt;user/user.ts</title>
<path fill="none" stroke="#757575" d="M254.29,-648.09C285.66,-663.83 340.71,-690.84 362,-697.55 380.92,-703.52 402.21,-707.85 421.22,-710.93"/>
<polygon fill="#757575" stroke="#757575" points="420.81,-714.41 431.23,-712.48 421.88,-707.49 420.81,-714.41"/>
</g>
<!-- service/user&#45;map&#45;loader.ts&#45;&gt;service/map.d.ts -->
<g id="edge41" class="edge">
<title>service/user&#45;map&#45;loader.ts&#45;&gt;service/map.d.ts</title>
<path fill="none" stroke="#757575" d="M323.05,-625.96C336.11,-624.67 349.39,-623.48 362,-622.55 566.16,-607.42 808.07,-600.55 924.91,-597.92"/>
<polygon fill="#757575" stroke="#757575" points="925.22,-601.41 935.14,-597.69 925.07,-594.42 925.22,-601.41"/>
</g>
<!-- user/user&#45;map&#45;attributes&#45;loader.ts -->
<g id="node24" class="node">
<title>user/user&#45;map&#45;attributes&#45;loader.ts</title>
<path fill="none" stroke="#c6c5fe" d="M584.33,-688.05C584.33,-688.05 369.67,-688.05 369.67,-688.05 365.83,-688.05 362,-684.21 362,-680.38 362,-680.38 362,-672.71 362,-672.71 362,-668.88 365.83,-665.05 369.67,-665.05 369.67,-665.05 584.33,-665.05 584.33,-665.05 588.17,-665.05 592,-668.88 592,-672.71 592,-672.71 592,-680.38 592,-680.38 592,-684.21 588.17,-688.05 584.33,-688.05"/>
<text text-anchor="middle" x="477" y="-672.85" font-family="Arial" font-size="14.00" fill="#c6c5fe">user/user&#45;map&#45;attributes&#45;loader.ts</text>
</g>
<!-- service/user&#45;map&#45;loader.ts&#45;&gt;user/user&#45;map&#45;attributes&#45;loader.ts -->
<g id="edge42" class="edge">
<title>service/user&#45;map&#45;loader.ts&#45;&gt;user/user&#45;map&#45;attributes&#45;loader.ts</title>
<path fill="none" stroke="#757575" d="M301.89,-648.06C331.17,-652.85 365.32,-658.44 395.58,-663.39"/>
<polygon fill="#757575" stroke="#757575" points="395.25,-666.88 405.68,-665.04 396.38,-659.98 395.25,-666.88"/>
</g>
<!-- service/woirld&#45;map&#45;resolver.ts&#45;&gt;models/location.ts -->
<g id="edge44" class="edge">
<title>service/woirld&#45;map&#45;resolver.ts&#45;&gt;models/location.ts</title>
<path fill="none" stroke="#757575" d="M503.53,-322.03C533.2,-308.78 583.77,-286.66 628,-269.55 736.41,-227.6 761.05,-206.5 875,-183.55 975.09,-163.39 1093.31,-159.42 1168.22,-159.3"/>
<polygon fill="#757575" stroke="#757575" points="1168.49,-162.8 1178.49,-159.3 1168.49,-155.8 1168.49,-162.8"/>
</g>
<!-- service/woirld&#45;map&#45;resolver.ts&#45;&gt;service/map&#45;attributes&#45;holder.ts -->
<g id="edge48" class="edge">
<title>service/woirld&#45;map&#45;resolver.ts&#45;&gt;service/map&#45;attributes&#45;holder.ts</title>
<path fill="none" stroke="#757575" d="M493.88,-345.12C520.46,-364.03 576.14,-401.73 628,-424.55 934.05,-559.2 1037.19,-523.38 1371,-542.55 1423.41,-545.56 1481.43,-548.55 1530.74,-550.99"/>
<polygon fill="#757575" stroke="#757575" points="1530.64,-554.49 1540.8,-551.48 1530.98,-547.49 1530.64,-554.49"/>
</g>
<!-- service/woirld&#45;map&#45;resolver.ts&#45;&gt;service/site&#45;adder.ts -->
<g id="edge50" class="edge">
<title>service/woirld&#45;map&#45;resolver.ts&#45;&gt;service/site&#45;adder.ts</title>
<path fill="none" stroke="#757575" d="M543.55,-345.05C569.74,-352.19 600.23,-361.02 628,-368.55 652.97,-375.31 681.47,-382.36 702.4,-388.83"/>
<polygon fill="#757575" stroke="#757575" points="701.42,-392.19 712.01,-391.95 703.58,-385.53 701.42,-392.19"/>
</g>
<!-- service/woirld&#45;map&#45;resolver.ts&#45;&gt;models/vector.ts -->
<g id="edge47" class="edge">
<title>service/woirld&#45;map&#45;resolver.ts&#45;&gt;models/vector.ts</title>
<path fill="none" stroke="#757575" d="M523.6,-322.01C553.15,-315.14 592.59,-307.09 628,-303.55 940.66,-272.29 1020.94,-292.51 1335,-302.55 1418.25,-305.21 1513.8,-311.85 1577.09,-316.75"/>
<polygon fill="#757575" stroke="#757575" points="1577.11,-320.26 1587.35,-317.55 1577.66,-313.29 1577.11,-320.26"/>
</g>
<!-- service/woirld&#45;map&#45;resolver.ts&#45;&gt;models/tile&#45;pixel.ts -->
<g id="edge46" class="edge">
<title>service/woirld&#45;map&#45;resolver.ts&#45;&gt;models/tile&#45;pixel.ts</title>
<path fill="none" stroke="#757575" d="M580.29,-340.86C741.37,-353.06 1063.74,-380.27 1335,-420.55 1347.39,-422.39 1360.57,-424.7 1373.19,-427.1"/>
<polygon fill="#757575" stroke="#757575" points="1372.68,-430.56 1383.17,-429.03 1374.01,-423.69 1372.68,-430.56"/>
</g>
<!-- models/map&#45;cache.ts -->
<g id="node20" class="node">
<title>models/map&#45;cache.ts</title>
<path fill="none" stroke="#cfffac" d="M802.33,-335.05C802.33,-335.05 664.67,-335.05 664.67,-335.05 660.83,-335.05 657,-331.21 657,-327.38 657,-327.38 657,-319.71 657,-319.71 657,-315.88 660.83,-312.05 664.67,-312.05 664.67,-312.05 802.33,-312.05 802.33,-312.05 806.17,-312.05 810,-315.88 810,-319.71 810,-319.71 810,-327.38 810,-327.38 810,-331.21 806.17,-335.05 802.33,-335.05"/>
<text text-anchor="middle" x="733.5" y="-319.85" font-family="Arial" font-size="14.00" fill="#cfffac">models/map&#45;cache.ts</text>
</g>
<!-- service/woirld&#45;map&#45;resolver.ts&#45;&gt;models/map&#45;cache.ts -->
<g id="edge45" class="edge">
<title>service/woirld&#45;map&#45;resolver.ts&#45;&gt;models/map&#45;cache.ts</title>
<path fill="none" stroke="#757575" d="M580.05,-329.54C602.13,-328.67 625.27,-327.76 646.66,-326.92"/>
<polygon fill="#757575" stroke="#757575" points="646.83,-330.42 656.68,-326.53 646.55,-323.42 646.83,-330.42"/>
</g>
<!-- service/woirld&#45;map&#45;resolver.ts&#45;&gt;service/map.d.ts -->
<g id="edge49" class="edge">
<title>service/woirld&#45;map&#45;resolver.ts&#45;&gt;service/map.d.ts</title>
<path fill="none" stroke="#757575" d="M482.74,-345.19C497.88,-380.69 548.72,-488.13 628,-536.55 676.66,-566.26 832.88,-583.54 925.07,-591.39"/>
<polygon fill="#757575" stroke="#757575" points="924.9,-594.89 935.16,-592.23 925.49,-587.91 924.9,-594.89"/>
</g>
<!-- user/friendship.ts -->
<g id="node25" class="node">
<title>user/friendship.ts</title>
<path fill="none" stroke="#ff6c60" d="M788.33,-729.05C788.33,-729.05 678.67,-729.05 678.67,-729.05 674.83,-729.05 671,-725.21 671,-721.38 671,-721.38 671,-713.71 671,-713.71 671,-709.88 674.83,-706.05 678.67,-706.05 678.67,-706.05 788.33,-706.05 788.33,-706.05 792.17,-706.05 796,-709.88 796,-713.71 796,-713.71 796,-721.38 796,-721.38 796,-725.21 792.17,-729.05 788.33,-729.05"/>
<text text-anchor="middle" x="733.5" y="-713.85" font-family="Arial" font-size="14.00" fill="#ff6c60">user/friendship.ts</text>
</g>
<!-- user/user.ts&#45;&gt;user/friendship.ts -->
<g id="edge55" class="edge">
<title>user/user.ts&#45;&gt;user/friendship.ts</title>
<path fill="none" stroke="#757575" d="M522.62,-712.27C560.71,-710.66 616.2,-710.37 660.56,-711.4"/>
<polygon fill="#757575" stroke="#757575" points="660.62,-714.9 670.71,-711.66 660.8,-707.9 660.62,-714.9"/>
</g>
<!-- user/inventory/inventory&#45;item.ts -->
<g id="node27" class="node">
<title>user/inventory/inventory&#45;item.ts</title>
<path fill="none" stroke="#c6c5fe" d="M831.33,-811.05C831.33,-811.05 635.67,-811.05 635.67,-811.05 631.83,-811.05 628,-807.21 628,-803.38 628,-803.38 628,-795.71 628,-795.71 628,-791.88 631.83,-788.05 635.67,-788.05 635.67,-788.05 831.33,-788.05 831.33,-788.05 835.17,-788.05 839,-791.88 839,-795.71 839,-795.71 839,-803.38 839,-803.38 839,-807.21 835.17,-811.05 831.33,-811.05"/>
<text text-anchor="middle" x="733.5" y="-795.85" font-family="Arial" font-size="14.00" fill="#c6c5fe">user/inventory/inventory&#45;item.ts</text>
</g>
<!-- user/user.ts&#45;&gt;user/inventory/inventory&#45;item.ts -->
<g id="edge56" class="edge">
<title>user/user.ts&#45;&gt;user/inventory/inventory&#45;item.ts</title>
<path fill="none" stroke="#757575" d="M501.62,-729.07C530.72,-742.85 581.97,-765.79 628,-779.55 635.67,-781.84 643.75,-783.93 651.87,-785.82"/>
<polygon fill="#757575" stroke="#757575" points="651.24,-789.27 661.76,-788.03 652.76,-782.44 651.24,-789.27"/>
</g>
<!-- user/user&#45;attribute.ts -->
<g id="node29" class="node">
<title>user/user&#45;attribute.ts</title>
<path fill="none" stroke="#cfffac" d="M798.83,-770.05C798.83,-770.05 668.17,-770.05 668.17,-770.05 664.33,-770.05 660.5,-766.21 660.5,-762.38 660.5,-762.38 660.5,-754.71 660.5,-754.71 660.5,-750.88 664.33,-747.05 668.17,-747.05 668.17,-747.05 798.83,-747.05 798.83,-747.05 802.67,-747.05 806.5,-750.88 806.5,-754.71 806.5,-754.71 806.5,-762.38 806.5,-762.38 806.5,-766.21 802.67,-770.05 798.83,-770.05"/>
<text text-anchor="middle" x="733.5" y="-754.85" font-family="Arial" font-size="14.00" fill="#cfffac">user/user&#45;attribute.ts</text>
</g>
<!-- user/user.ts&#45;&gt;user/user&#45;attribute.ts -->
<g id="edge57" class="edge">
<title>user/user.ts&#45;&gt;user/user&#45;attribute.ts</title>
<path fill="none" stroke="#757575" d="M522.62,-724.74C557.99,-730.43 608.37,-738.55 650.9,-745.4"/>
<polygon fill="#757575" stroke="#757575" points="650.54,-748.89 660.96,-747.02 651.65,-741.98 650.54,-748.89"/>
</g>
<!-- models/bounding&#45;box.ts&#45;&gt;models/vector.ts -->
<g id="edge15" class="edge">
<title>models/bounding&#45;box.ts&#45;&gt;models/vector.ts</title>
<path fill="none" stroke="#757575" d="M1328.89,-322.55C1402.3,-322.55 1507.74,-322.55 1576.91,-322.55"/>
<polygon fill="#757575" stroke="#757575" points="1577.27,-326.05 1587.27,-322.55 1577.27,-319.05 1577.27,-326.05"/>
</g>
<!-- models/tile&#45;pixel.ts&#45;&gt;service/map&#45;attributes&#45;holder.ts -->
<g id="edge24" class="edge">
<title>models/tile&#45;pixel.ts&#45;&gt;service/map&#45;attributes&#45;holder.ts</title>
<path fill="none" stroke="#757575" d="M1459.75,-452.09C1496.89,-472.76 1574.83,-516.11 1617.68,-539.96"/>
<polygon fill="#757575" stroke="#757575" points="1616.08,-543.07 1626.52,-544.88 1619.48,-536.96 1616.08,-543.07"/>
</g>
<!-- models/tile&#45;pixel.ts&#45;&gt;models/vector.ts -->
<g id="edge23" class="edge">
<title>models/tile&#45;pixel.ts&#45;&gt;models/vector.ts</title>
<path fill="none" stroke="#757575" d="M1472.13,-428.97C1482.82,-424.85 1494.59,-419.89 1505,-414.55 1548.73,-392.1 1596.02,-359.81 1623.64,-340.05"/>
<polygon fill="#757575" stroke="#757575" points="1625.82,-342.8 1631.88,-334.11 1621.72,-337.12 1625.82,-342.8"/>
</g>
<!-- models/site&#45;tile&#45;position.ts&#45;&gt;models/tile&#45;pixel.ts -->
<g id="edge19" class="edge">
<title>models/site&#45;tile&#45;position.ts&#45;&gt;models/tile&#45;pixel.ts</title>
<path fill="none" stroke="#757575" d="M1335.1,-440.55C1343.69,-440.55 1352.34,-440.55 1360.78,-440.55"/>
<polygon fill="#757575" stroke="#757575" points="1360.95,-444.05 1370.95,-440.55 1360.95,-437.05 1360.95,-444.05"/>
</g>
<!-- user/user&#45;map&#45;attributes.ts -->
<g id="node30" class="node">
<title>user/user&#45;map&#45;attributes.ts</title>
<path fill="none" stroke="#c6c5fe" d="M818.33,-688.05C818.33,-688.05 648.67,-688.05 648.67,-688.05 644.83,-688.05 641,-684.21 641,-680.38 641,-680.38 641,-672.71 641,-672.71 641,-668.88 644.83,-665.05 648.67,-665.05 648.67,-665.05 818.33,-665.05 818.33,-665.05 822.17,-665.05 826,-668.88 826,-672.71 826,-672.71 826,-680.38 826,-680.38 826,-684.21 822.17,-688.05 818.33,-688.05"/>
<text text-anchor="middle" x="733.5" y="-672.85" font-family="Arial" font-size="14.00" fill="#c6c5fe">user/user&#45;map&#45;attributes.ts</text>
</g>
<!-- user/user&#45;map&#45;attributes&#45;loader.ts&#45;&gt;user/user&#45;map&#45;attributes.ts -->
<g id="edge53" class="edge">
<title>user/user&#45;map&#45;attributes&#45;loader.ts&#45;&gt;user/user&#45;map&#45;attributes.ts</title>
<path fill="none" stroke="#757575" d="M592.22,-676.55C605.05,-676.55 618.05,-676.55 630.7,-676.55"/>
<polygon fill="#757575" stroke="#757575" points="630.77,-680.05 640.77,-676.55 630.77,-673.05 630.77,-680.05"/>
</g>
<!-- user/friendship.ts&#45;&gt;user/user.ts -->
<g id="edge51" class="edge">
<title>user/friendship.ts&#45;&gt;user/user.ts</title>
<path fill="none" stroke="#757575" d="M670.71,-723.43C628.62,-724.66 573.39,-724.58 532.86,-723.21"/>
<polygon fill="#757575" stroke="#757575" points="532.75,-719.71 522.62,-722.83 532.48,-726.7 532.75,-719.71"/>
</g>
<!-- user/inventory/inventory&#45;item&#45;type.ts -->
<g id="node26" class="node">
<title>user/inventory/inventory&#45;item&#45;type.ts</title>
<path fill="none" stroke="#cfffac" d="M1109.33,-811.05C1109.33,-811.05 882.67,-811.05 882.67,-811.05 878.83,-811.05 875,-807.21 875,-803.38 875,-803.38 875,-795.71 875,-795.71 875,-791.88 878.83,-788.05 882.67,-788.05 882.67,-788.05 1109.33,-788.05 1109.33,-788.05 1113.17,-788.05 1117,-791.88 1117,-795.71 1117,-795.71 1117,-803.38 1117,-803.38 1117,-807.21 1113.17,-811.05 1109.33,-811.05"/>
<text text-anchor="middle" x="996" y="-795.85" font-family="Arial" font-size="14.00" fill="#cfffac">user/inventory/inventory&#45;item&#45;type.ts</text>
</g>
<!-- user/inventory/inventory&#45;item.ts&#45;&gt;user/inventory/inventory&#45;item&#45;type.ts -->
<g id="edge52" class="edge">
<title>user/inventory/inventory&#45;item.ts&#45;&gt;user/inventory/inventory&#45;item&#45;type.ts</title>
<path fill="none" stroke="#757575" d="M839.33,-799.55C847.76,-799.55 856.35,-799.55 864.93,-799.55"/>
<polygon fill="#757575" stroke="#757575" points="864.99,-803.05 874.99,-799.55 864.99,-796.05 864.99,-803.05"/>
</g>
<!-- user/private&#45;map&#45;override.ts -->
<g id="node28" class="node">
<title>user/private&#45;map&#45;override.ts</title>
<path fill="none" stroke="#cfffac" d="M1085.33,-688.05C1085.33,-688.05 906.67,-688.05 906.67,-688.05 902.83,-688.05 899,-684.21 899,-680.38 899,-680.38 899,-672.71 899,-672.71 899,-668.88 902.83,-665.05 906.67,-665.05 906.67,-665.05 1085.33,-665.05 1085.33,-665.05 1089.17,-665.05 1093,-668.88 1093,-672.71 1093,-672.71 1093,-680.38 1093,-680.38 1093,-684.21 1089.17,-688.05 1085.33,-688.05"/>
<text text-anchor="middle" x="996" y="-672.85" font-family="Arial" font-size="14.00" fill="#cfffac">user/private&#45;map&#45;override.ts</text>
</g>
<!-- user/user&#45;map&#45;attributes.ts&#45;&gt;user/private&#45;map&#45;override.ts -->
<g id="edge54" class="edge">
<title>user/user&#45;map&#45;attributes.ts&#45;&gt;user/private&#45;map&#45;override.ts</title>
<path fill="none" stroke="#757575" d="M826.34,-676.55C846.48,-676.55 867.97,-676.55 888.63,-676.55"/>
<polygon fill="#757575" stroke="#757575" points="888.69,-680.05 898.69,-676.55 888.69,-673.05 888.69,-680.05"/>
</g>
</g>
</svg>
