<?xml version="1.0" encoding="UTF-8" standalone="no"?>
<!DOCTYPE svg PUBLIC "-//W3C//DTD SVG 1.1//EN"
 "http://www.w3.org/Graphics/SVG/1.1/DTD/svg11.dtd">
<!-- Generated by graphviz version 2.47.2 (20210527.0053)
 -->
<!-- Title: G Pages: 1 -->
<svg width="1799pt" height="889pt"
 viewBox="0.00 0.00 1799.20 889.14" xmlns="http://www.w3.org/2000/svg" xmlns:xlink="http://www.w3.org/1999/xlink">
<g id="graph0" class="graph" transform="scale(1 1) rotate(0) translate(21.6 867.54)">
<title>G</title>
<polygon fill="#111111" stroke="transparent" points="-21.6,21.6 -21.6,-867.54 1777.6,-867.54 1777.6,21.6 -21.6,21.6"/>
<!-- ../../public/users.d.ts -->
<g id="node1" class="node">
<title>../../public/users.d.ts</title>
<path fill="none" stroke="#cfffac" d="M294.33,-804.94C294.33,-804.94 166.67,-804.94 166.67,-804.94 162.83,-804.94 159,-801.1 159,-797.27 159,-797.27 159,-789.6 159,-789.6 159,-785.77 162.83,-781.94 166.67,-781.94 166.67,-781.94 294.33,-781.94 294.33,-781.94 298.17,-781.94 302,-785.77 302,-789.6 302,-789.6 302,-797.27 302,-797.27 302,-801.1 298.17,-804.94 294.33,-804.94"/>
<text text-anchor="middle" x="230.5" y="-789.74" font-family="Arial" font-size="14.00" fill="#cfffac">../../public/users.d.ts</text>
</g>
<!-- api.proxy.ts -->
<g id="node2" class="node">
<title>api.proxy.ts</title>
<path fill="none" stroke="#c6c5fe" d="M86.33,-783.94C86.33,-783.94 12.67,-783.94 12.67,-783.94 8.83,-783.94 5,-780.1 5,-776.27 5,-776.27 5,-768.6 5,-768.6 5,-764.77 8.83,-760.94 12.67,-760.94 12.67,-760.94 86.33,-760.94 86.33,-760.94 90.17,-760.94 94,-764.77 94,-768.6 94,-768.6 94,-776.27 94,-776.27 94,-780.1 90.17,-783.94 86.33,-783.94"/>
<text text-anchor="middle" x="49.5" y="-768.74" font-family="Arial" font-size="14.00" fill="#c6c5fe">api.proxy.ts</text>
</g>
<!-- api.proxy.ts&#45;&gt;../../public/users.d.ts -->
<g id="edge1" class="edge">
<title>api.proxy.ts&#45;&gt;../../public/users.d.ts</title>
<path fill="none" stroke="#757575" d="M94.29,-777.57C110.78,-779.51 130.11,-781.78 148.9,-783.98"/>
<polygon fill="#757575" stroke="#757575" points="148.63,-787.47 158.97,-785.16 149.44,-780.52 148.63,-787.47"/>
</g>
<!-- message&#45;communication.ts -->
<g id="node3" class="node">
<title>message&#45;communication.ts</title>
<path fill="none" stroke="#c6c5fe" d="M318.33,-763.94C318.33,-763.94 142.67,-763.94 142.67,-763.94 138.83,-763.94 135,-760.1 135,-756.27 135,-756.27 135,-748.6 135,-748.6 135,-744.77 138.83,-740.94 142.67,-740.94 142.67,-740.94 318.33,-740.94 318.33,-740.94 322.17,-740.94 326,-744.77 326,-748.6 326,-748.6 326,-756.27 326,-756.27 326,-760.1 322.17,-763.94 318.33,-763.94"/>
<text text-anchor="middle" x="230.5" y="-748.74" font-family="Arial" font-size="14.00" fill="#c6c5fe">message&#45;communication.ts</text>
</g>
<!-- api.proxy.ts&#45;&gt;message&#45;communication.ts -->
<g id="edge2" class="edge">
<title>api.proxy.ts&#45;&gt;message&#45;communication.ts</title>
<path fill="none" stroke="#757575" d="M94.29,-767.54C103.7,-766.49 114.03,-765.34 124.67,-764.15"/>
<polygon fill="#757575" stroke="#757575" points="125.38,-767.59 134.93,-763 124.6,-760.64 125.38,-767.59"/>
</g>
<!-- user/user.ts -->
<g id="node14" class="node">
<title>user/user.ts</title>
<path fill="none" stroke="#ff6c60" d="M514.83,-763.94C514.83,-763.94 439.17,-763.94 439.17,-763.94 435.33,-763.94 431.5,-760.1 431.5,-756.27 431.5,-756.27 431.5,-748.6 431.5,-748.6 431.5,-744.77 435.33,-740.94 439.17,-740.94 439.17,-740.94 514.83,-740.94 514.83,-740.94 518.67,-740.94 522.5,-744.77 522.5,-748.6 522.5,-748.6 522.5,-756.27 522.5,-756.27 522.5,-760.1 518.67,-763.94 514.83,-763.94"/>
<text text-anchor="middle" x="477" y="-748.74" font-family="Arial" font-size="14.00" fill="#ff6c60">user/user.ts</text>
</g>
<!-- message&#45;communication.ts&#45;&gt;user/user.ts -->
<g id="edge13" class="edge">
<title>message&#45;communication.ts&#45;&gt;user/user.ts</title>
<path fill="none" stroke="#757575" d="M326.03,-752.44C358.34,-752.44 393.39,-752.44 421.46,-752.44"/>
<polygon fill="#757575" stroke="#757575" points="421.48,-755.94 431.48,-752.44 421.48,-748.94 421.48,-755.94"/>
</g>
<!-- mapserver.ts -->
<g id="node4" class="node">
<title>mapserver.ts</title>
<path fill="none" stroke="#c6c5fe" d="M91.33,-268.94C91.33,-268.94 7.67,-268.94 7.67,-268.94 3.83,-268.94 0,-265.1 0,-261.27 0,-261.27 0,-253.6 0,-253.6 0,-249.77 3.83,-245.94 7.67,-245.94 7.67,-245.94 91.33,-245.94 91.33,-245.94 95.17,-245.94 99,-249.77 99,-253.6 99,-253.6 99,-261.27 99,-261.27 99,-265.1 95.17,-268.94 91.33,-268.94"/>
<text text-anchor="middle" x="49.5" y="-253.74" font-family="Arial" font-size="14.00" fill="#c6c5fe">mapserver.ts</text>
</g>
<!-- models/location.ts -->
<g id="node5" class="node">
<title>models/location.ts</title>
<path fill="none" stroke="#c6c5fe" d="M1301.83,-168.94C1301.83,-168.94 1186.17,-168.94 1186.17,-168.94 1182.33,-168.94 1178.5,-165.1 1178.5,-161.27 1178.5,-161.27 1178.5,-153.6 1178.5,-153.6 1178.5,-149.77 1182.33,-145.94 1186.17,-145.94 1186.17,-145.94 1301.83,-145.94 1301.83,-145.94 1305.67,-145.94 1309.5,-149.77 1309.5,-153.6 1309.5,-153.6 1309.5,-161.27 1309.5,-161.27 1309.5,-165.1 1305.67,-168.94 1301.83,-168.94"/>
<text text-anchor="middle" x="1244" y="-153.74" font-family="Arial" font-size="14.00" fill="#c6c5fe">models/location.ts</text>
</g>
<!-- mapserver.ts&#45;&gt;models/location.ts -->
<g id="edge3" class="edge">
<title>mapserver.ts&#45;&gt;models/location.ts</title>
<path fill="none" stroke="#757575" d="M71.46,-245.78C132.09,-213.18 313.75,-123.44 476,-123.44 476,-123.44 476,-123.44 734.5,-123.44 888.96,-123.44 1069.22,-139.25 1168.27,-149.31"/>
<polygon fill="#757575" stroke="#757575" points="1168.17,-152.81 1178.48,-150.35 1168.88,-145.85 1168.17,-152.81"/>
</g>
<!-- models/site.ts -->
<g id="node6" class="node">
<title>models/site.ts</title>
<path fill="none" stroke="#c6c5fe" d="M1040.83,-253.94C1040.83,-253.94 951.17,-253.94 951.17,-253.94 947.33,-253.94 943.5,-250.1 943.5,-246.27 943.5,-246.27 943.5,-238.6 943.5,-238.6 943.5,-234.77 947.33,-230.94 951.17,-230.94 951.17,-230.94 1040.83,-230.94 1040.83,-230.94 1044.67,-230.94 1048.5,-234.77 1048.5,-238.6 1048.5,-238.6 1048.5,-246.27 1048.5,-246.27 1048.5,-250.1 1044.67,-253.94 1040.83,-253.94"/>
<text text-anchor="middle" x="996" y="-238.74" font-family="Arial" font-size="14.00" fill="#c6c5fe">models/site.ts</text>
</g>
<!-- mapserver.ts&#45;&gt;models/site.ts -->
<g id="edge4" class="edge">
<title>mapserver.ts&#45;&gt;models/site.ts</title>
<path fill="none" stroke="#757575" d="M99.29,-256.66C257.72,-254.15 757.6,-246.21 933.24,-243.42"/>
<polygon fill="#757575" stroke="#757575" points="933.4,-246.92 943.35,-243.26 933.29,-239.92 933.4,-246.92"/>
</g>
<!-- models/tile.ts -->
<g id="node7" class="node">
<title>models/tile.ts</title>
<path fill="none" stroke="#cfffac" d="M1480.83,-58.94C1480.83,-58.94 1395.17,-58.94 1395.17,-58.94 1391.33,-58.94 1387.5,-55.1 1387.5,-51.27 1387.5,-51.27 1387.5,-43.6 1387.5,-43.6 1387.5,-39.77 1391.33,-35.94 1395.17,-35.94 1395.17,-35.94 1480.83,-35.94 1480.83,-35.94 1484.67,-35.94 1488.5,-39.77 1488.5,-43.6 1488.5,-43.6 1488.5,-51.27 1488.5,-51.27 1488.5,-55.1 1484.67,-58.94 1480.83,-58.94"/>
<text text-anchor="middle" x="1438" y="-43.74" font-family="Arial" font-size="14.00" fill="#cfffac">models/tile.ts</text>
</g>
<!-- mapserver.ts&#45;&gt;models/tile.ts -->
<g id="edge5" class="edge">
<title>mapserver.ts&#45;&gt;models/tile.ts</title>
<path fill="none" stroke="#757575" d="M51.71,-245.89C55.94,-211.65 73.41,-110.05 135,-62.44 256.35,31.36 322.62,-9.44 476,-9.44 476,-9.44 476,-9.44 997,-9.44 1133.49,-9.44 1292.91,-27.81 1377.38,-39.01"/>
<polygon fill="#757575" stroke="#757575" points="1376.93,-42.48 1387.3,-40.33 1377.85,-35.54 1376.93,-42.48"/>
</g>
<!-- service/address&#45;from&#45;geo.ts -->
<g id="node8" class="node">
<title>service/address&#45;from&#45;geo.ts</title>
<path fill="none" stroke="#c6c5fe" d="M1086.33,-212.94C1086.33,-212.94 905.67,-212.94 905.67,-212.94 901.83,-212.94 898,-209.1 898,-205.27 898,-205.27 898,-197.6 898,-197.6 898,-193.77 901.83,-189.94 905.67,-189.94 905.67,-189.94 1086.33,-189.94 1086.33,-189.94 1090.17,-189.94 1094,-193.77 1094,-197.6 1094,-197.6 1094,-205.27 1094,-205.27 1094,-209.1 1090.17,-212.94 1086.33,-212.94"/>
<text text-anchor="middle" x="996" y="-197.74" font-family="Arial" font-size="14.00" fill="#c6c5fe">service/address&#45;from&#45;geo.ts</text>
</g>
<!-- mapserver.ts&#45;&gt;service/address&#45;from&#45;geo.ts -->
<g id="edge6" class="edge">
<title>mapserver.ts&#45;&gt;service/address&#45;from&#45;geo.ts</title>
<path fill="none" stroke="#757575" d="M99.16,-251.82C110.89,-250.59 123.38,-249.37 135,-248.44 405.63,-226.64 724.99,-212.12 887.82,-205.52"/>
<polygon fill="#757575" stroke="#757575" points="887.99,-209.02 897.84,-205.11 887.71,-202.02 887.99,-209.02"/>
</g>
<!-- service/image&#45;resolver.ts -->
<g id="node9" class="node">
<title>service/image&#45;resolver.ts</title>
<path fill="none" stroke="#c6c5fe" d="M310.83,-94.94C310.83,-94.94 150.17,-94.94 150.17,-94.94 146.33,-94.94 142.5,-91.1 142.5,-87.27 142.5,-87.27 142.5,-79.6 142.5,-79.6 142.5,-75.77 146.33,-71.94 150.17,-71.94 150.17,-71.94 310.83,-71.94 310.83,-71.94 314.67,-71.94 318.5,-75.77 318.5,-79.6 318.5,-79.6 318.5,-87.27 318.5,-87.27 318.5,-91.1 314.67,-94.94 310.83,-94.94"/>
<text text-anchor="middle" x="230.5" y="-79.74" font-family="Arial" font-size="14.00" fill="#c6c5fe">service/image&#45;resolver.ts</text>
</g>
<!-- mapserver.ts&#45;&gt;service/image&#45;resolver.ts -->
<g id="edge7" class="edge">
<title>mapserver.ts&#45;&gt;service/image&#45;resolver.ts</title>
<path fill="none" stroke="#757575" d="M53.77,-245.77C62.22,-217.75 87.56,-146.27 135,-109.44 140.33,-105.3 146.27,-101.82 152.51,-98.9"/>
<polygon fill="#757575" stroke="#757575" points="153.96,-102.08 161.83,-94.99 151.26,-95.63 153.96,-102.08"/>
</g>
<!-- service/map&#45;attributes&#45;holder.ts -->
<g id="node10" class="node">
<title>service/map&#45;attributes&#45;holder.ts</title>
<path fill="none" stroke="#cfffac" d="M1748.33,-563.94C1748.33,-563.94 1548.67,-563.94 1548.67,-563.94 1544.83,-563.94 1541,-560.1 1541,-556.27 1541,-556.27 1541,-548.6 1541,-548.6 1541,-544.77 1544.83,-540.94 1548.67,-540.94 1548.67,-540.94 1748.33,-540.94 1748.33,-540.94 1752.17,-540.94 1756,-544.77 1756,-548.6 1756,-548.6 1756,-556.27 1756,-556.27 1756,-560.1 1752.17,-563.94 1748.33,-563.94"/>
<text text-anchor="middle" x="1648.5" y="-548.74" font-family="Arial" font-size="14.00" fill="#cfffac">service/map&#45;attributes&#45;holder.ts</text>
</g>
<!-- mapserver.ts&#45;&gt;service/map&#45;attributes&#45;holder.ts -->
<g id="edge8" class="edge">
<title>mapserver.ts&#45;&gt;service/map&#45;attributes&#45;holder.ts</title>
<path fill="none" stroke="#757575" d="M58.91,-269.2C72.88,-288.04 102.56,-325.23 135,-348.44 462.35,-582.67 592.48,-632.44 995,-632.44 995,-632.44 995,-632.44 1245,-632.44 1377.52,-632.44 1529.95,-590.21 1603.4,-567.11"/>
<polygon fill="#757575" stroke="#757575" points="1604.76,-570.35 1613.23,-563.98 1602.64,-563.68 1604.76,-570.35"/>
</g>
<!-- service/site&#45;adder.ts -->
<g id="node11" class="node">
<title>service/site&#45;adder.ts</title>
<path fill="none" stroke="#ff6c60" d="M798.33,-411.94C798.33,-411.94 668.67,-411.94 668.67,-411.94 664.83,-411.94 661,-408.1 661,-404.27 661,-404.27 661,-396.6 661,-396.6 661,-392.77 664.83,-388.94 668.67,-388.94 668.67,-388.94 798.33,-388.94 798.33,-388.94 802.17,-388.94 806,-392.77 806,-396.6 806,-396.6 806,-404.27 806,-404.27 806,-408.1 802.17,-411.94 798.33,-411.94"/>
<text text-anchor="middle" x="733.5" y="-396.74" font-family="Arial" font-size="14.00" fill="#ff6c60">service/site&#45;adder.ts</text>
</g>
<!-- mapserver.ts&#45;&gt;service/site&#45;adder.ts -->
<g id="edge9" class="edge">
<title>mapserver.ts&#45;&gt;service/site&#45;adder.ts</title>
<path fill="none" stroke="#757575" d="M66.92,-269.05C83.44,-280.26 109.98,-297.03 135,-307.44 308.76,-379.74 532.18,-396.38 650.49,-399.87"/>
<polygon fill="#757575" stroke="#757575" points="650.47,-403.37 660.56,-400.14 650.66,-396.37 650.47,-403.37"/>
</g>
<!-- service/user&#45;map&#45;loader.ts -->
<g id="node12" class="node">
<title>service/user&#45;map&#45;loader.ts</title>
<path fill="none" stroke="#c6c5fe" d="M315.33,-683.94C315.33,-683.94 145.67,-683.94 145.67,-683.94 141.83,-683.94 138,-680.1 138,-676.27 138,-676.27 138,-668.6 138,-668.6 138,-664.77 141.83,-660.94 145.67,-660.94 145.67,-660.94 315.33,-660.94 315.33,-660.94 319.17,-660.94 323,-664.77 323,-668.6 323,-668.6 323,-676.27 323,-676.27 323,-680.1 319.17,-683.94 315.33,-683.94"/>
<text text-anchor="middle" x="230.5" y="-668.74" font-family="Arial" font-size="14.00" fill="#c6c5fe">service/user&#45;map&#45;loader.ts</text>
</g>
<!-- mapserver.ts&#45;&gt;service/user&#45;map&#45;loader.ts -->
<g id="edge10" class="edge">
<title>mapserver.ts&#45;&gt;service/user&#45;map&#45;loader.ts</title>
<path fill="none" stroke="#757575" d="M51,-268.97C53.43,-313.62 66.8,-478.12 135,-589.44 151.84,-616.93 180.69,-640.32 202.1,-655.19"/>
<polygon fill="#757575" stroke="#757575" points="200.22,-658.15 210.47,-660.85 204.14,-652.35 200.22,-658.15"/>
</g>
<!-- service/woirld&#45;map&#45;resolver.ts -->
<g id="node13" class="node">
<title>service/woirld&#45;map&#45;resolver.ts</title>
<path fill="none" stroke="#ff6c60" d="M572.33,-356.94C572.33,-356.94 381.67,-356.94 381.67,-356.94 377.83,-356.94 374,-353.1 374,-349.27 374,-349.27 374,-341.6 374,-341.6 374,-337.77 377.83,-333.94 381.67,-333.94 381.67,-333.94 572.33,-333.94 572.33,-333.94 576.17,-333.94 580,-337.77 580,-341.6 580,-341.6 580,-349.27 580,-349.27 580,-353.1 576.17,-356.94 572.33,-356.94"/>
<text text-anchor="middle" x="477" y="-341.74" font-family="Arial" font-size="14.00" fill="#ff6c60">service/woirld&#45;map&#45;resolver.ts</text>
</g>
<!-- mapserver.ts&#45;&gt;service/woirld&#45;map&#45;resolver.ts -->
<g id="edge11" class="edge">
<title>mapserver.ts&#45;&gt;service/woirld&#45;map&#45;resolver.ts</title>
<path fill="none" stroke="#757575" d="M99.31,-267.53C175.95,-283.38 324.62,-314.13 410.48,-331.89"/>
<polygon fill="#757575" stroke="#757575" points="409.88,-335.34 420.38,-333.93 411.3,-328.48 409.88,-335.34"/>
</g>
<!-- mapserver.ts&#45;&gt;user/user.ts -->
<g id="edge12" class="edge">
<title>mapserver.ts&#45;&gt;user/user.ts</title>
<path fill="none" stroke="#757575" d="M51.04,-269.32C54.16,-332.83 72.09,-631.78 135,-693.44 145.17,-703.41 327.4,-730.98 421.19,-744.61"/>
<polygon fill="#757575" stroke="#757575" points="420.95,-748.11 431.35,-746.08 421.96,-741.18 420.95,-748.11"/>
</g>
<!-- models/location.ts&#45;&gt;models/tile.ts -->
<g id="edge16" class="edge">
<title>models/location.ts&#45;&gt;models/tile.ts</title>
<path fill="none" stroke="#757575" d="M1265.18,-145.87C1299.32,-126.31 1368.58,-86.64 1407.94,-64.09"/>
<polygon fill="#757575" stroke="#757575" points="1409.86,-67.02 1416.8,-59.01 1406.38,-60.95 1409.86,-67.02"/>
</g>
<!-- models/vector.ts -->
<g id="node17" class="node">
<title>models/vector.ts</title>
<path fill="none" stroke="#cfffac" d="M1701.83,-331.94C1701.83,-331.94 1595.17,-331.94 1595.17,-331.94 1591.33,-331.94 1587.5,-328.1 1587.5,-324.27 1587.5,-324.27 1587.5,-316.6 1587.5,-316.6 1587.5,-312.77 1591.33,-308.94 1595.17,-308.94 1595.17,-308.94 1701.83,-308.94 1701.83,-308.94 1705.67,-308.94 1709.5,-312.77 1709.5,-316.6 1709.5,-316.6 1709.5,-324.27 1709.5,-324.27 1709.5,-328.1 1705.67,-331.94 1701.83,-331.94"/>
<text text-anchor="middle" x="1648.5" y="-316.74" font-family="Arial" font-size="14.00" fill="#cfffac">models/vector.ts</text>
</g>
<!-- models/location.ts&#45;&gt;models/vector.ts -->
<g id="edge17" class="edge">
<title>models/location.ts&#45;&gt;models/vector.ts</title>
<path fill="none" stroke="#757575" d="M1305.51,-169.04C1315.46,-171.48 1325.59,-174.28 1335,-177.44 1442.47,-213.52 1562.56,-274.82 1617.33,-304.02"/>
<polygon fill="#757575" stroke="#757575" points="1615.7,-307.12 1626.17,-308.76 1619.01,-300.95 1615.7,-307.12"/>
</g>
<!-- models/tile&#45;pixel.ts -->
<g id="node18" class="node">
<title>models/tile&#45;pixel.ts</title>
<path fill="none" stroke="#c6c5fe" d="M1497.33,-447.94C1497.33,-447.94 1378.67,-447.94 1378.67,-447.94 1374.83,-447.94 1371,-444.1 1371,-440.27 1371,-440.27 1371,-432.6 1371,-432.6 1371,-428.77 1374.83,-424.94 1378.67,-424.94 1378.67,-424.94 1497.33,-424.94 1497.33,-424.94 1501.17,-424.94 1505,-428.77 1505,-432.6 1505,-432.6 1505,-440.27 1505,-440.27 1505,-444.1 1501.17,-447.94 1497.33,-447.94"/>
<text text-anchor="middle" x="1438" y="-432.74" font-family="Arial" font-size="14.00" fill="#c6c5fe">models/tile&#45;pixel.ts</text>
</g>
<!-- models/location.ts&#45;&gt;models/tile&#45;pixel.ts -->
<g id="edge15" class="edge">
<title>models/location.ts&#45;&gt;models/tile&#45;pixel.ts</title>
<path fill="none" stroke="#757575" d="M1309.65,-163.68C1318.88,-166.78 1327.7,-171.2 1335,-177.44 1408.95,-240.63 1429.67,-364.56 1435.15,-414.66"/>
<polygon fill="#757575" stroke="#757575" points="1431.67,-415.09 1436.15,-424.7 1438.64,-414.4 1431.67,-415.09"/>
</g>
<!-- models/site.ts&#45;&gt;models/location.ts -->
<g id="edge20" class="edge">
<title>models/site.ts&#45;&gt;models/location.ts</title>
<path fill="none" stroke="#757575" d="M1048.53,-241.96C1070.85,-239.78 1096.51,-234.46 1117,-222.44 1139.09,-209.48 1131.26,-190.98 1153,-177.44 1157.96,-174.35 1163.34,-171.73 1168.91,-169.52"/>
<polygon fill="#757575" stroke="#757575" points="1170.17,-172.78 1178.43,-166.16 1167.84,-166.18 1170.17,-172.78"/>
</g>
<!-- models/address.ts -->
<g id="node15" class="node">
<title>models/address.ts</title>
<path fill="none" stroke="#cfffac" d="M1303.33,-250.94C1303.33,-250.94 1184.67,-250.94 1184.67,-250.94 1180.83,-250.94 1177,-247.1 1177,-243.27 1177,-243.27 1177,-235.6 1177,-235.6 1177,-231.77 1180.83,-227.94 1184.67,-227.94 1184.67,-227.94 1303.33,-227.94 1303.33,-227.94 1307.17,-227.94 1311,-231.77 1311,-235.6 1311,-235.6 1311,-243.27 1311,-243.27 1311,-247.1 1307.17,-250.94 1303.33,-250.94"/>
<text text-anchor="middle" x="1244" y="-235.74" font-family="Arial" font-size="14.00" fill="#cfffac">models/address.ts</text>
</g>
<!-- models/site.ts&#45;&gt;models/address.ts -->
<g id="edge19" class="edge">
<title>models/site.ts&#45;&gt;models/address.ts</title>
<path fill="none" stroke="#757575" d="M1048.57,-241.81C1082.84,-241.39 1128.44,-240.83 1166.86,-240.37"/>
<polygon fill="#757575" stroke="#757575" points="1167.02,-243.86 1176.98,-240.24 1166.93,-236.86 1167.02,-243.86"/>
</g>
<!-- models/site&#45;tile&#45;position.ts -->
<g id="node20" class="node">
<title>models/site&#45;tile&#45;position.ts</title>
<path fill="none" stroke="#c6c5fe" d="M1327.33,-447.94C1327.33,-447.94 1160.67,-447.94 1160.67,-447.94 1156.83,-447.94 1153,-444.1 1153,-440.27 1153,-440.27 1153,-432.6 1153,-432.6 1153,-428.77 1156.83,-424.94 1160.67,-424.94 1160.67,-424.94 1327.33,-424.94 1327.33,-424.94 1331.17,-424.94 1335,-428.77 1335,-432.6 1335,-432.6 1335,-440.27 1335,-440.27 1335,-444.1 1331.17,-447.94 1327.33,-447.94"/>
<text text-anchor="middle" x="1244" y="-432.74" font-family="Arial" font-size="14.00" fill="#c6c5fe">models/site&#45;tile&#45;position.ts</text>
</g>
<!-- models/site.ts&#45;&gt;models/site&#45;tile&#45;position.ts -->
<g id="edge21" class="edge">
<title>models/site.ts&#45;&gt;models/site&#45;tile&#45;position.ts</title>
<path fill="none" stroke="#757575" d="M1011.65,-253.99C1052.91,-286.53 1170.32,-379.12 1220.17,-418.43"/>
<polygon fill="#757575" stroke="#757575" points="1218.09,-421.25 1228.11,-424.7 1222.43,-415.76 1218.09,-421.25"/>
</g>
<!-- service/address&#45;from&#45;geo.ts&#45;&gt;models/location.ts -->
<g id="edge26" class="edge">
<title>service/address&#45;from&#45;geo.ts&#45;&gt;models/location.ts</title>
<path fill="none" stroke="#757575" d="M1061.31,-189.93C1094.22,-184.05 1134.45,-176.85 1168.69,-170.73"/>
<polygon fill="#757575" stroke="#757575" points="1169.41,-174.16 1178.64,-168.95 1168.18,-167.26 1169.41,-174.16"/>
</g>
<!-- service/address&#45;from&#45;geo.ts&#45;&gt;models/address.ts -->
<g id="edge24" class="edge">
<title>service/address&#45;from&#45;geo.ts&#45;&gt;models/address.ts</title>
<path fill="none" stroke="#757575" d="M1071.48,-212.94C1101.59,-217.59 1136.32,-222.96 1166.62,-227.64"/>
<polygon fill="#757575" stroke="#757575" points="1166.3,-231.13 1176.71,-229.2 1167.37,-224.21 1166.3,-231.13"/>
</g>
<!-- models/bounding&#45;box.ts -->
<g id="node16" class="node">
<title>models/bounding&#45;box.ts</title>
<path fill="none" stroke="#c6c5fe" d="M1320.83,-291.94C1320.83,-291.94 1167.17,-291.94 1167.17,-291.94 1163.33,-291.94 1159.5,-288.1 1159.5,-284.27 1159.5,-284.27 1159.5,-276.6 1159.5,-276.6 1159.5,-272.77 1163.33,-268.94 1167.17,-268.94 1167.17,-268.94 1320.83,-268.94 1320.83,-268.94 1324.67,-268.94 1328.5,-272.77 1328.5,-276.6 1328.5,-276.6 1328.5,-284.27 1328.5,-284.27 1328.5,-288.1 1324.67,-291.94 1320.83,-291.94"/>
<text text-anchor="middle" x="1244" y="-276.74" font-family="Arial" font-size="14.00" fill="#c6c5fe">models/bounding&#45;box.ts</text>
</g>
<!-- service/address&#45;from&#45;geo.ts&#45;&gt;models/bounding&#45;box.ts -->
<g id="edge25" class="edge">
<title>service/address&#45;from&#45;geo.ts&#45;&gt;models/bounding&#45;box.ts</title>
<path fill="none" stroke="#757575" d="M1094.14,-212.81C1102.1,-215.42 1109.83,-218.58 1117,-222.44 1137.5,-233.44 1132.76,-248.97 1153,-260.44 1156.02,-262.15 1159.17,-263.71 1162.4,-265.14"/>
<polygon fill="#757575" stroke="#757575" points="1161.15,-268.4 1171.73,-268.82 1163.72,-261.89 1161.15,-268.4"/>
</g>
<!-- service/json&#45;assign.ts -->
<g id="node21" class="node">
<title>service/json&#45;assign.ts</title>
<path fill="none" stroke="#cfffac" d="M1312.83,-209.94C1312.83,-209.94 1175.17,-209.94 1175.17,-209.94 1171.33,-209.94 1167.5,-206.1 1167.5,-202.27 1167.5,-202.27 1167.5,-194.6 1167.5,-194.6 1167.5,-190.77 1171.33,-186.94 1175.17,-186.94 1175.17,-186.94 1312.83,-186.94 1312.83,-186.94 1316.67,-186.94 1320.5,-190.77 1320.5,-194.6 1320.5,-194.6 1320.5,-202.27 1320.5,-202.27 1320.5,-206.1 1316.67,-209.94 1312.83,-209.94"/>
<text text-anchor="middle" x="1244" y="-194.74" font-family="Arial" font-size="14.00" fill="#cfffac">service/json&#45;assign.ts</text>
</g>
<!-- service/address&#45;from&#45;geo.ts&#45;&gt;service/json&#45;assign.ts -->
<g id="edge27" class="edge">
<title>service/address&#45;from&#45;geo.ts&#45;&gt;service/json&#45;assign.ts</title>
<path fill="none" stroke="#757575" d="M1094.23,-200.25C1115.02,-200 1136.84,-199.73 1157.17,-199.48"/>
<polygon fill="#757575" stroke="#757575" points="1157.38,-202.98 1167.34,-199.36 1157.29,-195.98 1157.38,-202.98"/>
</g>
<!-- service/image&#45;resolver.ts&#45;&gt;models/location.ts -->
<g id="edge28" class="edge">
<title>service/image&#45;resolver.ts&#45;&gt;models/location.ts</title>
<path fill="none" stroke="#757575" d="M318.68,-76.47C478.7,-65.78 829.28,-52.11 1117,-109.44 1149.83,-115.98 1185.3,-130.19 1210.22,-141.46"/>
<polygon fill="#757575" stroke="#757575" points="1209.01,-144.76 1219.55,-145.77 1211.94,-138.4 1209.01,-144.76"/>
</g>
<!-- service/image&#45;resolver.ts&#45;&gt;models/tile.ts -->
<g id="edge29" class="edge">
<title>service/image&#45;resolver.ts&#45;&gt;models/tile.ts</title>
<path fill="none" stroke="#757575" d="M297.38,-71.91C318.01,-68.69 340.9,-65.5 362,-63.44 526.04,-47.37 567.68,-47.44 732.5,-47.44 732.5,-47.44 732.5,-47.44 997,-47.44 1132.84,-47.44 1292.28,-47.44 1376.98,-47.44"/>
<polygon fill="#757575" stroke="#757575" points="1377.18,-50.94 1387.18,-47.44 1377.18,-43.94 1377.18,-50.94"/>
</g>
<!-- service/image&#45;resolver.ts&#45;&gt;service/woirld&#45;map&#45;resolver.ts -->
<g id="edge30" class="edge">
<title>service/image&#45;resolver.ts&#45;&gt;service/woirld&#45;map&#45;resolver.ts</title>
<path fill="none" stroke="#757575" d="M242.32,-95.03C280.66,-136.11 410.26,-274.99 458.08,-326.23"/>
<polygon fill="#757575" stroke="#757575" points="455.64,-328.75 465.03,-333.68 460.76,-323.98 455.64,-328.75"/>
</g>
<!-- service/site&#45;adder.ts&#45;&gt;models/site.ts -->
<g id="edge33" class="edge">
<title>service/site&#45;adder.ts&#45;&gt;models/site.ts</title>
<path fill="none" stroke="#757575" d="M765.64,-388.75C788.32,-378.96 818.53,-363.08 839,-341.44 863.86,-315.15 846.49,-290.7 875,-268.44 891.53,-255.53 913.07,-248.7 933.34,-245.19"/>
<polygon fill="#757575" stroke="#757575" points="934.1,-248.62 943.47,-243.68 933.07,-241.69 934.1,-248.62"/>
</g>
<!-- service/site&#45;adder.ts&#45;&gt;service/map&#45;attributes&#45;holder.ts -->
<g id="edge36" class="edge">
<title>service/site&#45;adder.ts&#45;&gt;service/map&#45;attributes&#45;holder.ts</title>
<path fill="none" stroke="#757575" d="M755.2,-411.94C781.98,-426.27 830.49,-450.32 875,-462.44 936.74,-479.24 1330.56,-520.5 1530.85,-540.79"/>
<polygon fill="#757575" stroke="#757575" points="1530.53,-544.28 1540.83,-541.8 1531.23,-537.31 1530.53,-544.28"/>
</g>
<!-- service/site&#45;adder.ts&#45;&gt;service/woirld&#45;map&#45;resolver.ts -->
<g id="edge38" class="edge">
<title>service/site&#45;adder.ts&#45;&gt;service/woirld&#45;map&#45;resolver.ts</title>
<path fill="none" stroke="#757575" d="M660.92,-391.11C615.37,-382.33 557.98,-369.6 519.74,-359.61"/>
<polygon fill="#757575" stroke="#757575" points="520.54,-356.2 509.97,-357.01 518.73,-362.97 520.54,-356.2"/>
</g>
<!-- service/site&#45;adder.ts&#45;&gt;models/bounding&#45;box.ts -->
<g id="edge31" class="edge">
<title>service/site&#45;adder.ts&#45;&gt;models/bounding&#45;box.ts</title>
<path fill="none" stroke="#757575" d="M783.26,-388.93C877.2,-366.76 1082.94,-318.21 1184.25,-294.3"/>
<polygon fill="#757575" stroke="#757575" points="1185.09,-297.7 1194.02,-292 1183.48,-290.89 1185.09,-297.7"/>
</g>
<!-- service/site&#45;adder.ts&#45;&gt;models/vector.ts -->
<g id="edge35" class="edge">
<title>service/site&#45;adder.ts&#45;&gt;models/vector.ts</title>
<path fill="none" stroke="#757575" d="M806.23,-394.59C942.45,-383.43 1247.97,-358.07 1505,-334.44 1528.5,-332.28 1554.18,-329.79 1577.17,-327.52"/>
<polygon fill="#757575" stroke="#757575" points="1577.59,-331 1587.19,-326.53 1576.9,-324.03 1577.59,-331"/>
</g>
<!-- service/site&#45;adder.ts&#45;&gt;models/tile&#45;pixel.ts -->
<g id="edge34" class="edge">
<title>service/site&#45;adder.ts&#45;&gt;models/tile&#45;pixel.ts</title>
<path fill="none" stroke="#757575" d="M778.19,-411.98C805.77,-418.87 842.26,-427.26 875,-432.44 1077.23,-464.41 1131.31,-478.19 1335,-457.44 1350.05,-455.9 1366.16,-453.13 1381.03,-450.09"/>
<polygon fill="#757575" stroke="#757575" points="1382.05,-453.45 1391.1,-447.95 1380.59,-446.6 1382.05,-453.45"/>
</g>
<!-- service/site&#45;adder.ts&#45;&gt;models/site&#45;tile&#45;position.ts -->
<g id="edge32" class="edge">
<title>service/site&#45;adder.ts&#45;&gt;models/site&#45;tile&#45;position.ts</title>
<path fill="none" stroke="#757575" d="M806.34,-405.56C828.37,-407.13 852.68,-408.85 875,-410.44 965.46,-416.85 1068.43,-424.12 1142.4,-429.34"/>
<polygon fill="#757575" stroke="#757575" points="1142.42,-432.85 1152.64,-430.07 1142.91,-425.87 1142.42,-432.85"/>
</g>
<!-- service/map.d.ts -->
<g id="node22" class="node">
<title>service/map.d.ts</title>
<path fill="none" stroke="#cfffac" d="M1048.83,-603.94C1048.83,-603.94 943.17,-603.94 943.17,-603.94 939.33,-603.94 935.5,-600.1 935.5,-596.27 935.5,-596.27 935.5,-588.6 935.5,-588.6 935.5,-584.77 939.33,-580.94 943.17,-580.94 943.17,-580.94 1048.83,-580.94 1048.83,-580.94 1052.67,-580.94 1056.5,-584.77 1056.5,-588.6 1056.5,-588.6 1056.5,-596.27 1056.5,-596.27 1056.5,-600.1 1052.67,-603.94 1048.83,-603.94"/>
<text text-anchor="middle" x="996" y="-588.74" font-family="Arial" font-size="14.00" fill="#cfffac">service/map.d.ts</text>
</g>
<!-- service/site&#45;adder.ts&#45;&gt;service/map.d.ts -->
<g id="edge37" class="edge">
<title>service/site&#45;adder.ts&#45;&gt;service/map.d.ts</title>
<path fill="none" stroke="#757575" d="M745.33,-412.09C767.87,-435.93 822.15,-491.15 875,-528.44 901.91,-547.42 935.12,-564.72 959.78,-576.53"/>
<polygon fill="#757575" stroke="#757575" points="958.57,-579.83 969.11,-580.94 961.56,-573.5 958.57,-579.83"/>
</g>
<!-- service/user&#45;map&#45;loader.ts&#45;&gt;service/map&#45;attributes&#45;holder.ts -->
<g id="edge39" class="edge">
<title>service/user&#45;map&#45;loader.ts&#45;&gt;service/map&#45;attributes&#45;holder.ts</title>
<path fill="none" stroke="#757575" d="M294.37,-683.97C315.77,-687.51 339.86,-691.1 362,-693.44 525.97,-710.78 567.62,-712.44 732.5,-712.44 732.5,-712.44 732.5,-712.44 1245,-712.44 1364.22,-712.44 1395.94,-694.6 1505,-646.44 1550.99,-626.13 1598.6,-591.46 1625.49,-570.38"/>
<polygon fill="#757575" stroke="#757575" points="1627.81,-573.01 1633.47,-564.05 1623.46,-567.52 1627.81,-573.01"/>
</g>
<!-- service/user&#45;map&#45;loader.ts&#45;&gt;user/user.ts -->
<g id="edge42" class="edge">
<title>service/user&#45;map&#45;loader.ts&#45;&gt;user/user.ts</title>
<path fill="none" stroke="#757575" d="M287.82,-684.04C300.73,-687.75 314.14,-692.49 326,-698.44 344.12,-707.52 343.68,-717.76 362,-726.44 380.51,-735.21 402.14,-741.11 421.56,-745.03"/>
<polygon fill="#757575" stroke="#757575" points="421,-748.49 431.48,-746.91 422.3,-741.61 421,-748.49"/>
</g>
<!-- service/user&#45;map&#45;loader.ts&#45;&gt;service/map.d.ts -->
<g id="edge40" class="edge">
<title>service/user&#45;map&#45;loader.ts&#45;&gt;service/map.d.ts</title>
<path fill="none" stroke="#757575" d="M301.83,-660.9C321.29,-657.91 342.44,-654.86 362,-652.44 565.91,-627.17 807.93,-606.93 924.85,-597.76"/>
<polygon fill="#757575" stroke="#757575" points="925.4,-601.23 935.09,-596.96 924.85,-594.25 925.4,-601.23"/>
</g>
<!-- user/user&#45;map&#45;attributes&#45;loader.ts -->
<g id="node23" class="node">
<title>user/user&#45;map&#45;attributes&#45;loader.ts</title>
<path fill="none" stroke="#c6c5fe" d="M584.33,-683.94C584.33,-683.94 369.67,-683.94 369.67,-683.94 365.83,-683.94 362,-680.1 362,-676.27 362,-676.27 362,-668.6 362,-668.6 362,-664.77 365.83,-660.94 369.67,-660.94 369.67,-660.94 584.33,-660.94 584.33,-660.94 588.17,-660.94 592,-664.77 592,-668.6 592,-668.6 592,-676.27 592,-676.27 592,-680.1 588.17,-683.94 584.33,-683.94"/>
<text text-anchor="middle" x="477" y="-668.74" font-family="Arial" font-size="14.00" fill="#c6c5fe">user/user&#45;map&#45;attributes&#45;loader.ts</text>
</g>
<!-- service/user&#45;map&#45;loader.ts&#45;&gt;user/user&#45;map&#45;attributes&#45;loader.ts -->
<g id="edge41" class="edge">
<title>service/user&#45;map&#45;loader.ts&#45;&gt;user/user&#45;map&#45;attributes&#45;loader.ts</title>
<path fill="none" stroke="#757575" d="M323.24,-672.44C332.59,-672.44 342.2,-672.44 351.82,-672.44"/>
<polygon fill="#757575" stroke="#757575" points="351.85,-675.94 361.85,-672.44 351.85,-668.94 351.85,-675.94"/>
</g>
<!-- service/woirld&#45;map&#45;resolver.ts&#45;&gt;models/location.ts -->
<g id="edge43" class="edge">
<title>service/woirld&#45;map&#45;resolver.ts&#45;&gt;models/location.ts</title>
<path fill="none" stroke="#757575" d="M497.91,-333.72C526.2,-317.35 579.95,-287.32 628,-266.44 734.61,-220.11 761.05,-203.39 875,-180.44 975.09,-160.28 1093.31,-156.31 1168.22,-156.18"/>
<polygon fill="#757575" stroke="#757575" points="1168.49,-159.69 1178.49,-156.19 1168.49,-152.69 1168.49,-159.69"/>
</g>
<!-- service/woirld&#45;map&#45;resolver.ts&#45;&gt;service/map&#45;attributes&#45;holder.ts -->
<g id="edge47" class="edge">
<title>service/woirld&#45;map&#45;resolver.ts&#45;&gt;service/map&#45;attributes&#45;holder.ts</title>
<path fill="none" stroke="#757575" d="M497.82,-357.01C526.01,-373.11 579.64,-402.43 628,-421.44 939.13,-543.7 1037.26,-519.27 1371,-538.44 1423.41,-541.45 1481.43,-544.44 1530.74,-546.88"/>
<polygon fill="#757575" stroke="#757575" points="1530.64,-550.38 1540.8,-547.37 1530.98,-543.38 1530.64,-550.38"/>
</g>
<!-- service/woirld&#45;map&#45;resolver.ts&#45;&gt;service/site&#45;adder.ts -->
<g id="edge49" class="edge">
<title>service/woirld&#45;map&#45;resolver.ts&#45;&gt;service/site&#45;adder.ts</title>
<path fill="none" stroke="#757575" d="M560.98,-357C604.42,-365.62 655.71,-377.11 690.82,-386.28"/>
<polygon fill="#757575" stroke="#757575" points="690.15,-389.72 700.72,-388.92 691.96,-382.96 690.15,-389.72"/>
</g>
<!-- service/woirld&#45;map&#45;resolver.ts&#45;&gt;models/vector.ts -->
<g id="edge46" class="edge">
<title>service/woirld&#45;map&#45;resolver.ts&#45;&gt;models/vector.ts</title>
<path fill="none" stroke="#757575" d="M507.3,-333.86C537.13,-322.75 584.96,-306.75 628,-300.44 721.01,-286.79 1361.46,-309.55 1576.94,-317.71"/>
<polygon fill="#757575" stroke="#757575" points="1577.05,-321.21 1587.18,-318.09 1577.32,-314.22 1577.05,-321.21"/>
</g>
<!-- service/woirld&#45;map&#45;resolver.ts&#45;&gt;models/tile&#45;pixel.ts -->
<g id="edge45" class="edge">
<title>service/woirld&#45;map&#45;resolver.ts&#45;&gt;models/tile&#45;pixel.ts</title>
<path fill="none" stroke="#757575" d="M580.31,-350.24C741.42,-358.62 1063.84,-378.74 1335,-416.44 1347.69,-418.2 1361.19,-420.53 1374.08,-422.96"/>
<polygon fill="#757575" stroke="#757575" points="1373.76,-426.47 1384.25,-424.94 1375.1,-419.6 1373.76,-426.47"/>
</g>
<!-- models/map&#45;cache.ts -->
<g id="node19" class="node">
<title>models/map&#45;cache.ts</title>
<path fill="none" stroke="#cfffac" d="M802.33,-331.94C802.33,-331.94 664.67,-331.94 664.67,-331.94 660.83,-331.94 657,-328.1 657,-324.27 657,-324.27 657,-316.6 657,-316.6 657,-312.77 660.83,-308.94 664.67,-308.94 664.67,-308.94 802.33,-308.94 802.33,-308.94 806.17,-308.94 810,-312.77 810,-316.6 810,-316.6 810,-324.27 810,-324.27 810,-328.1 806.17,-331.94 802.33,-331.94"/>
<text text-anchor="middle" x="733.5" y="-316.74" font-family="Arial" font-size="14.00" fill="#cfffac">models/map&#45;cache.ts</text>
</g>
<!-- service/woirld&#45;map&#45;resolver.ts&#45;&gt;models/map&#45;cache.ts -->
<g id="edge44" class="edge">
<title>service/woirld&#45;map&#45;resolver.ts&#45;&gt;models/map&#45;cache.ts</title>
<path fill="none" stroke="#757575" d="M580.05,-335.41C602.13,-333.24 625.27,-330.97 646.66,-328.87"/>
<polygon fill="#757575" stroke="#757575" points="647.07,-332.35 656.68,-327.88 646.39,-325.38 647.07,-332.35"/>
</g>
<!-- service/woirld&#45;map&#45;resolver.ts&#45;&gt;service/map.d.ts -->
<g id="edge48" class="edge">
<title>service/woirld&#45;map&#45;resolver.ts&#45;&gt;service/map.d.ts</title>
<path fill="none" stroke="#757575" d="M483.48,-357.11C499.94,-390.77 552.52,-488.37 628,-532.44 677.24,-561.18 833.24,-578.82 925.24,-587"/>
<polygon fill="#757575" stroke="#757575" points="925.04,-590.5 935.31,-587.88 925.65,-583.52 925.04,-590.5"/>
</g>
<!-- user/friendship.ts -->
<g id="node24" class="node">
<title>user/friendship.ts</title>
<path fill="none" stroke="#ff6c60" d="M788.33,-763.94C788.33,-763.94 678.67,-763.94 678.67,-763.94 674.83,-763.94 671,-760.1 671,-756.27 671,-756.27 671,-748.6 671,-748.6 671,-744.77 674.83,-740.94 678.67,-740.94 678.67,-740.94 788.33,-740.94 788.33,-740.94 792.17,-740.94 796,-744.77 796,-748.6 796,-748.6 796,-756.27 796,-756.27 796,-760.1 792.17,-763.94 788.33,-763.94"/>
<text text-anchor="middle" x="733.5" y="-748.74" font-family="Arial" font-size="14.00" fill="#ff6c60">user/friendship.ts</text>
</g>
<!-- user/user.ts&#45;&gt;user/friendship.ts -->
<g id="edge54" class="edge">
<title>user/user.ts&#45;&gt;user/friendship.ts</title>
<path fill="none" stroke="#757575" d="M522.62,-747.16C560.71,-745.55 616.2,-745.26 660.56,-746.29"/>
<polygon fill="#757575" stroke="#757575" points="660.62,-749.79 670.71,-746.55 660.8,-742.79 660.62,-749.79"/>
</g>
<!-- user/inventory/inventory&#45;item.ts -->
<g id="node26" class="node">
<title>user/inventory/inventory&#45;item.ts</title>
<path fill="none" stroke="#c6c5fe" d="M831.33,-845.94C831.33,-845.94 635.67,-845.94 635.67,-845.94 631.83,-845.94 628,-842.1 628,-838.27 628,-838.27 628,-830.6 628,-830.6 628,-826.77 631.83,-822.94 635.67,-822.94 635.67,-822.94 831.33,-822.94 831.33,-822.94 835.17,-822.94 839,-826.77 839,-830.6 839,-830.6 839,-838.27 839,-838.27 839,-842.1 835.17,-845.94 831.33,-845.94"/>
<text text-anchor="middle" x="733.5" y="-830.74" font-family="Arial" font-size="14.00" fill="#c6c5fe">user/inventory/inventory&#45;item.ts</text>
</g>
<!-- user/user.ts&#45;&gt;user/inventory/inventory&#45;item.ts -->
<g id="edge55" class="edge">
<title>user/user.ts&#45;&gt;user/inventory/inventory&#45;item.ts</title>
<path fill="none" stroke="#757575" d="M501.62,-763.96C530.72,-777.74 581.97,-800.67 628,-814.44 635.67,-816.73 643.75,-818.82 651.87,-820.71"/>
<polygon fill="#757575" stroke="#757575" points="651.24,-824.16 661.76,-822.92 652.76,-817.33 651.24,-824.16"/>
</g>
<!-- user/user&#45;attribute.ts -->
<g id="node28" class="node">
<title>user/user&#45;attribute.ts</title>
<path fill="none" stroke="#cfffac" d="M798.83,-804.94C798.83,-804.94 668.17,-804.94 668.17,-804.94 664.33,-804.94 660.5,-801.1 660.5,-797.27 660.5,-797.27 660.5,-789.6 660.5,-789.6 660.5,-785.77 664.33,-781.94 668.17,-781.94 668.17,-781.94 798.83,-781.94 798.83,-781.94 802.67,-781.94 806.5,-785.77 806.5,-789.6 806.5,-789.6 806.5,-797.27 806.5,-797.27 806.5,-801.1 802.67,-804.94 798.83,-804.94"/>
<text text-anchor="middle" x="733.5" y="-789.74" font-family="Arial" font-size="14.00" fill="#cfffac">user/user&#45;attribute.ts</text>
</g>
<!-- user/user.ts&#45;&gt;user/user&#45;attribute.ts -->
<g id="edge56" class="edge">
<title>user/user.ts&#45;&gt;user/user&#45;attribute.ts</title>
<path fill="none" stroke="#757575" d="M522.62,-759.63C557.99,-765.32 608.37,-773.44 650.9,-780.29"/>
<polygon fill="#757575" stroke="#757575" points="650.54,-783.78 660.96,-781.91 651.65,-776.87 650.54,-783.78"/>
</g>
<!-- models/bounding&#45;box.ts&#45;&gt;models/vector.ts -->
<g id="edge14" class="edge">
<title>models/bounding&#45;box.ts&#45;&gt;models/vector.ts</title>
<path fill="none" stroke="#757575" d="M1328.89,-288.77C1402.3,-296.07 1507.74,-306.55 1576.91,-313.42"/>
<polygon fill="#757575" stroke="#757575" points="1576.97,-316.95 1587.27,-314.45 1577.66,-309.98 1576.97,-316.95"/>
</g>
<!-- models/tile&#45;pixel.ts&#45;&gt;service/map&#45;attributes&#45;holder.ts -->
<g id="edge23" class="edge">
<title>models/tile&#45;pixel.ts&#45;&gt;service/map&#45;attributes&#45;holder.ts</title>
<path fill="none" stroke="#757575" d="M1459.75,-447.98C1496.89,-468.65 1574.83,-512 1617.68,-535.85"/>
<polygon fill="#757575" stroke="#757575" points="1616.08,-538.96 1626.52,-540.77 1619.48,-532.84 1616.08,-538.96"/>
</g>
<!-- models/tile&#45;pixel.ts&#45;&gt;models/vector.ts -->
<g id="edge22" class="edge">
<title>models/tile&#45;pixel.ts&#45;&gt;models/vector.ts</title>
<path fill="none" stroke="#757575" d="M1471.76,-424.93C1482.54,-420.78 1494.46,-415.78 1505,-410.44 1548.33,-388.47 1595.4,-357.14 1623.13,-337.83"/>
<polygon fill="#757575" stroke="#757575" points="1625.24,-340.62 1631.42,-332.01 1621.22,-334.89 1625.24,-340.62"/>
</g>
<!-- models/site&#45;tile&#45;position.ts&#45;&gt;models/tile&#45;pixel.ts -->
<g id="edge18" class="edge">
<title>models/site&#45;tile&#45;position.ts&#45;&gt;models/tile&#45;pixel.ts</title>
<path fill="none" stroke="#757575" d="M1335.1,-436.44C1343.69,-436.44 1352.34,-436.44 1360.78,-436.44"/>
<polygon fill="#757575" stroke="#757575" points="1360.95,-439.94 1370.95,-436.44 1360.95,-432.94 1360.95,-439.94"/>
</g>
<!-- user/user&#45;map&#45;attributes.ts -->
<g id="node29" class="node">
<title>user/user&#45;map&#45;attributes.ts</title>
<path fill="none" stroke="#c6c5fe" d="M818.33,-683.94C818.33,-683.94 648.67,-683.94 648.67,-683.94 644.83,-683.94 641,-680.1 641,-676.27 641,-676.27 641,-668.6 641,-668.6 641,-664.77 644.83,-660.94 648.67,-660.94 648.67,-660.94 818.33,-660.94 818.33,-660.94 822.17,-660.94 826,-664.77 826,-668.6 826,-668.6 826,-676.27 826,-676.27 826,-680.1 822.17,-683.94 818.33,-683.94"/>
<text text-anchor="middle" x="733.5" y="-668.74" font-family="Arial" font-size="14.00" fill="#c6c5fe">user/user&#45;map&#45;attributes.ts</text>
</g>
<!-- user/user&#45;map&#45;attributes&#45;loader.ts&#45;&gt;user/user&#45;map&#45;attributes.ts -->
<g id="edge52" class="edge">
<title>user/user&#45;map&#45;attributes&#45;loader.ts&#45;&gt;user/user&#45;map&#45;attributes.ts</title>
<path fill="none" stroke="#757575" d="M592.22,-672.44C605.05,-672.44 618.05,-672.44 630.7,-672.44"/>
<polygon fill="#757575" stroke="#757575" points="630.77,-675.94 640.77,-672.44 630.77,-668.94 630.77,-675.94"/>
</g>
<!-- user/friendship.ts&#45;&gt;user/user.ts -->
<g id="edge50" class="edge">
<title>user/friendship.ts&#45;&gt;user/user.ts</title>
<path fill="none" stroke="#757575" d="M670.71,-758.32C628.62,-759.54 573.39,-759.47 532.86,-758.1"/>
<polygon fill="#757575" stroke="#757575" points="532.75,-754.6 522.62,-757.72 532.48,-761.59 532.75,-754.6"/>
</g>
<!-- user/inventory/inventory&#45;item&#45;type.ts -->
<g id="node25" class="node">
<title>user/inventory/inventory&#45;item&#45;type.ts</title>
<path fill="none" stroke="#cfffac" d="M1109.33,-845.94C1109.33,-845.94 882.67,-845.94 882.67,-845.94 878.83,-845.94 875,-842.1 875,-838.27 875,-838.27 875,-830.6 875,-830.6 875,-826.77 878.83,-822.94 882.67,-822.94 882.67,-822.94 1109.33,-822.94 1109.33,-822.94 1113.17,-822.94 1117,-826.77 1117,-830.6 1117,-830.6 1117,-838.27 1117,-838.27 1117,-842.1 1113.17,-845.94 1109.33,-845.94"/>
<text text-anchor="middle" x="996" y="-830.74" font-family="Arial" font-size="14.00" fill="#cfffac">user/inventory/inventory&#45;item&#45;type.ts</text>
</g>
<!-- user/inventory/inventory&#45;item.ts&#45;&gt;user/inventory/inventory&#45;item&#45;type.ts -->
<g id="edge51" class="edge">
<title>user/inventory/inventory&#45;item.ts&#45;&gt;user/inventory/inventory&#45;item&#45;type.ts</title>
<path fill="none" stroke="#757575" d="M839.33,-834.44C847.76,-834.44 856.35,-834.44 864.93,-834.44"/>
<polygon fill="#757575" stroke="#757575" points="864.99,-837.94 874.99,-834.44 864.99,-830.94 864.99,-837.94"/>
</g>
<!-- user/private&#45;map&#45;override.ts -->
<g id="node27" class="node">
<title>user/private&#45;map&#45;override.ts</title>
<path fill="none" stroke="#cfffac" d="M1085.33,-683.94C1085.33,-683.94 906.67,-683.94 906.67,-683.94 902.83,-683.94 899,-680.1 899,-676.27 899,-676.27 899,-668.6 899,-668.6 899,-664.77 902.83,-660.94 906.67,-660.94 906.67,-660.94 1085.33,-660.94 1085.33,-660.94 1089.17,-660.94 1093,-664.77 1093,-668.6 1093,-668.6 1093,-676.27 1093,-676.27 1093,-680.1 1089.17,-683.94 1085.33,-683.94"/>
<text text-anchor="middle" x="996" y="-668.74" font-family="Arial" font-size="14.00" fill="#cfffac">user/private&#45;map&#45;override.ts</text>
</g>
<!-- user/user&#45;map&#45;attributes.ts&#45;&gt;user/private&#45;map&#45;override.ts -->
<g id="edge53" class="edge">
<title>user/user&#45;map&#45;attributes.ts&#45;&gt;user/private&#45;map&#45;override.ts</title>
<path fill="none" stroke="#757575" d="M826.34,-672.44C846.48,-672.44 867.97,-672.44 888.63,-672.44"/>
<polygon fill="#757575" stroke="#757575" points="888.69,-675.94 898.69,-672.44 888.69,-668.94 888.69,-675.94"/>
</g>
</g>
</svg>
