<?xml version="1.0" encoding="UTF-8" standalone="no"?>
<!DOCTYPE svg PUBLIC "-//W3C//DTD SVG 1.1//EN"
 "http://www.w3.org/Graphics/SVG/1.1/DTD/svg11.dtd">
<!-- Generated by graphviz version 2.47.2 (20210527.0053)
 -->
<!-- Title: G Pages: 1 -->
<svg width="777pt" height="202pt"
 viewBox="0.00 0.00 777.20 202.20" xmlns="http://www.w3.org/2000/svg" xmlns:xlink="http://www.w3.org/1999/xlink">
<g id="graph0" class="graph" transform="scale(1 1) rotate(0) translate(21.6 180.6)">
<title>G</title>
<polygon fill="#111111" stroke="transparent" points="-21.6,21.6 -21.6,-180.6 755.6,-180.6 755.6,21.6 -21.6,21.6"/>
<!-- mapserver.ts -->
<g id="node1" class="node">
<title>mapserver.ts</title>
<path fill="none" stroke="#ff6c60" d="M91.33,-72C91.33,-72 7.67,-72 7.67,-72 3.83,-72 0,-68.17 0,-64.33 0,-64.33 0,-56.67 0,-56.67 0,-52.83 3.83,-49 7.67,-49 7.67,-49 91.33,-49 91.33,-49 95.17,-49 99,-52.83 99,-56.67 99,-56.67 99,-64.33 99,-64.33 99,-68.17 95.17,-72 91.33,-72"/>
<text text-anchor="middle" x="49.5" y="-56.8" font-family="Arial" font-size="14.00" fill="#ff6c60">mapserver.ts</text>
</g>
<!-- service/image&#45;resolver.ts -->
<g id="node2" class="node">
<title>service/image&#45;resolver.ts</title>
<path fill="none" stroke="#ff6c60" d="M303.33,-159C303.33,-159 142.67,-159 142.67,-159 138.83,-159 135,-155.17 135,-151.33 135,-151.33 135,-143.67 135,-143.67 135,-139.83 138.83,-136 142.67,-136 142.67,-136 303.33,-136 303.33,-136 307.17,-136 311,-139.83 311,-143.67 311,-143.67 311,-151.33 311,-151.33 311,-155.17 307.17,-159 303.33,-159"/>
<text text-anchor="middle" x="223" y="-143.8" font-family="Arial" font-size="14.00" fill="#ff6c60">service/image&#45;resolver.ts</text>
</g>
<!-- mapserver.ts&#45;&gt;service/image&#45;resolver.ts -->
<g id="edge1" class="edge">
<title>mapserver.ts&#45;&gt;service/image&#45;resolver.ts</title>
<path fill="none" stroke="#757575" d="M63.64,-72.16C79.53,-85.73 107.57,-107.98 135,-121.5 143.91,-125.89 153.7,-129.69 163.4,-132.93"/>
<polygon fill="#757575" stroke="#757575" points="162.45,-136.3 173.04,-135.99 164.56,-129.63 162.45,-136.3"/>
</g>
<!-- service/site&#45;adder.ts -->
<g id="node3" class="node">
<title>service/site&#45;adder.ts</title>
<path fill="none" stroke="#ff6c60" d="M726.33,-96C726.33,-96 596.67,-96 596.67,-96 592.83,-96 589,-92.17 589,-88.33 589,-88.33 589,-80.67 589,-80.67 589,-76.83 592.83,-73 596.67,-73 596.67,-73 726.33,-73 726.33,-73 730.17,-73 734,-76.83 734,-80.67 734,-80.67 734,-88.33 734,-88.33 734,-92.17 730.17,-96 726.33,-96"/>
<text text-anchor="middle" x="661.5" y="-80.8" font-family="Arial" font-size="14.00" fill="#ff6c60">service/site&#45;adder.ts</text>
</g>
<!-- mapserver.ts&#45;&gt;service/site&#45;adder.ts -->
<g id="edge2" class="edge">
<title>mapserver.ts&#45;&gt;service/site&#45;adder.ts</title>
<path fill="none" stroke="#757575" d="M99.13,-58.54C203.42,-59.14 449.55,-68.52 578.48,-76.49"/>
<polygon fill="#757575" stroke="#757575" points="578.49,-80 588.69,-77.13 578.93,-73.01 578.49,-80"/>
</g>
<!-- service/woirld&#45;map&#45;resolver.ts -->
<g id="node4" class="node">
<title>service/woirld&#45;map&#45;resolver.ts</title>
<path fill="none" stroke="#ff6c60" d="M545.33,-121C545.33,-121 354.67,-121 354.67,-121 350.83,-121 347,-117.17 347,-113.33 347,-113.33 347,-105.67 347,-105.67 347,-101.83 350.83,-98 354.67,-98 354.67,-98 545.33,-98 545.33,-98 549.17,-98 553,-101.83 553,-105.67 553,-105.67 553,-113.33 553,-113.33 553,-117.17 549.17,-121 545.33,-121"/>
<text text-anchor="middle" x="450" y="-105.8" font-family="Arial" font-size="14.00" fill="#ff6c60">service/woirld&#45;map&#45;resolver.ts</text>
</g>
<!-- mapserver.ts&#45;&gt;service/woirld&#45;map&#45;resolver.ts -->
<g id="edge3" class="edge">
<title>mapserver.ts&#45;&gt;service/woirld&#45;map&#45;resolver.ts</title>
<path fill="none" stroke="#757575" d="M87.19,-72.06C101.91,-76.28 119.13,-80.71 135,-83.5 201.33,-95.17 276.49,-101.63 336.65,-105.19"/>
<polygon fill="#757575" stroke="#757575" points="336.75,-108.7 346.93,-105.78 337.15,-101.71 336.75,-108.7"/>
</g>
<!-- user/user.ts -->
<g id="node5" class="node">
<title>user/user.ts</title>
<path fill="none" stroke="#ff6c60" d="M260.83,-23C260.83,-23 185.17,-23 185.17,-23 181.33,-23 177.5,-19.17 177.5,-15.33 177.5,-15.33 177.5,-7.67 177.5,-7.67 177.5,-3.83 181.33,0 185.17,0 185.17,0 260.83,0 260.83,0 264.67,0 268.5,-3.83 268.5,-7.67 268.5,-7.67 268.5,-15.33 268.5,-15.33 268.5,-19.17 264.67,-23 260.83,-23"/>
<text text-anchor="middle" x="223" y="-7.8" font-family="Arial" font-size="14.00" fill="#ff6c60">user/user.ts</text>
</g>
<!-- mapserver.ts&#45;&gt;user/user.ts -->
<g id="edge4" class="edge">
<title>mapserver.ts&#45;&gt;user/user.ts</title>
<path fill="none" stroke="#757575" d="M91.14,-48.89C115.28,-41.99 146.08,-33.19 171.73,-25.86"/>
<polygon fill="#757575" stroke="#757575" points="172.99,-29.14 181.65,-23.03 171.07,-22.41 172.99,-29.14"/>
</g>
<!-- service/image&#45;resolver.ts&#45;&gt;service/woirld&#45;map&#45;resolver.ts -->
<g id="edge5" class="edge">
<title>service/image&#45;resolver.ts&#45;&gt;service/woirld&#45;map&#45;resolver.ts</title>
<path fill="none" stroke="#757575" d="M292.12,-136C316.9,-131.81 345.1,-127.05 370.69,-122.73"/>
<polygon fill="#757575" stroke="#757575" points="371.45,-126.15 380.73,-121.03 370.28,-119.25 371.45,-126.15"/>
</g>
<!-- service/site&#45;adder.ts&#45;&gt;mapserver.ts -->
<g id="edge6" class="edge">
<title>service/site&#45;adder.ts&#45;&gt;mapserver.ts</title>
<path fill="none" stroke="#757575" d="M588.69,-86.22C466.79,-84.48 221.67,-74.72 109.26,-67"/>
<polygon fill="#757575" stroke="#757575" points="109.35,-63.5 99.13,-66.28 108.86,-70.48 109.35,-63.5"/>
</g>
<!-- service/site&#45;adder.ts&#45;&gt;service/woirld&#45;map&#45;resolver.ts -->
<g id="edge7" class="edge">
<title>service/site&#45;adder.ts&#45;&gt;service/woirld&#45;map&#45;resolver.ts</title>
<path fill="none" stroke="#757575" d="M612.47,-96.01C597.67,-98.34 580.71,-100.68 563.46,-102.81"/>
<polygon fill="#757575" stroke="#757575" points="562.8,-99.37 553.3,-104.04 563.64,-106.32 562.8,-99.37"/>
</g>
<!-- service/woirld&#45;map&#45;resolver.ts&#45;&gt;service/site&#45;adder.ts -->
<g id="edge8" class="edge">
<title>service/woirld&#45;map&#45;resolver.ts&#45;&gt;service/site&#45;adder.ts</title>
<path fill="none" stroke="#757575" d="M499.06,-97.98C522.63,-94.28 551.67,-90.53 578.6,-87.67"/>
<polygon fill="#757575" stroke="#757575" points="579.21,-91.12 588.8,-86.61 578.49,-84.16 579.21,-91.12"/>
</g>
<!-- user/friendship.ts -->
<g id="node6" class="node">
<title>user/friendship.ts</title>
<path fill="none" stroke="#ff6c60" d="M504.83,-23C504.83,-23 395.17,-23 395.17,-23 391.33,-23 387.5,-19.17 387.5,-15.33 387.5,-15.33 387.5,-7.67 387.5,-7.67 387.5,-3.83 391.33,0 395.17,0 395.17,0 504.83,0 504.83,0 508.67,0 512.5,-3.83 512.5,-7.67 512.5,-7.67 512.5,-15.33 512.5,-15.33 512.5,-19.17 508.67,-23 504.83,-23"/>
<text text-anchor="middle" x="450" y="-7.8" font-family="Arial" font-size="14.00" fill="#ff6c60">user/friendship.ts</text>
</g>
<!-- user/user.ts&#45;&gt;user/friendship.ts -->
<g id="edge10" class="edge">
<title>user/user.ts&#45;&gt;user/friendship.ts</title>
<path fill="none" stroke="#757575" d="M268.72,-5.98C299.63,-4.69 341.43,-4.41 376.99,-5.15"/>
<polygon fill="#757575" stroke="#757575" points="377.24,-8.66 387.32,-5.4 377.41,-1.66 377.24,-8.66"/>
</g>
<!-- user/friendship.ts&#45;&gt;user/user.ts -->
<g id="edge9" class="edge">
<title>user/friendship.ts&#45;&gt;user/user.ts</title>
<path fill="none" stroke="#757575" d="M387.32,-17.6C353.45,-18.53 311.79,-18.46 279.03,-17.4"/>
<polygon fill="#757575" stroke="#757575" points="278.84,-13.89 268.72,-17.02 278.59,-20.88 278.84,-13.89"/>
</g>
</g>
</svg>
