<?xml version="1.0" encoding="UTF-8" standalone="no"?>
<!DOCTYPE svg PUBLIC "-//W3C//DTD SVG 1.1//EN"
 "http://www.w3.org/Graphics/SVG/1.1/DTD/svg11.dtd">
<!-- Generated by graphviz version 2.47.2 (20210527.0053)
 -->
<!-- Title: G Pages: 1 -->
<svg width="2864pt" height="1127pt"
 viewBox="0.00 0.00 2864.20 1127.19" xmlns="http://www.w3.org/2000/svg" xmlns:xlink="http://www.w3.org/1999/xlink">
<g id="graph0" class="graph" transform="scale(1 1) rotate(0) translate(21.6 1105.59)">
<title>G</title>
<polygon fill="#111111" stroke="transparent" points="-21.6,21.6 -21.6,-1105.59 2842.6,-1105.59 2842.6,21.6 -21.6,21.6"/>
<!-- ../../../jonny&#45;maps/scripts/index.d.ts -->
<g id="node1" class="node">
<title>../../../jonny&#45;maps/scripts/index.d.ts</title>
<path fill="none" stroke="#cfffac" d="M650.33,-605.99C650.33,-605.99 432.67,-605.99 432.67,-605.99 428.83,-605.99 425,-602.15 425,-598.32 425,-598.32 425,-590.65 425,-590.65 425,-586.82 428.83,-582.99 432.67,-582.99 432.67,-582.99 650.33,-582.99 650.33,-582.99 654.17,-582.99 658,-586.82 658,-590.65 658,-590.65 658,-598.32 658,-598.32 658,-602.15 654.17,-605.99 650.33,-605.99"/>
<text text-anchor="middle" x="541.5" y="-590.79" font-family="Arial" font-size="14.00" fill="#cfffac">../../../jonny&#45;maps/scripts/index.d.ts</text>
</g>
<!-- ../../public/users.d.ts -->
<g id="node2" class="node">
<title>../../public/users.d.ts</title>
<path fill="none" stroke="#cfffac" d="M605.33,-726.99C605.33,-726.99 477.67,-726.99 477.67,-726.99 473.83,-726.99 470,-723.15 470,-719.32 470,-719.32 470,-711.65 470,-711.65 470,-707.82 473.83,-703.99 477.67,-703.99 477.67,-703.99 605.33,-703.99 605.33,-703.99 609.17,-703.99 613,-707.82 613,-711.65 613,-711.65 613,-719.32 613,-719.32 613,-723.15 609.17,-726.99 605.33,-726.99"/>
<text text-anchor="middle" x="541.5" y="-711.79" font-family="Arial" font-size="14.00" fill="#cfffac">../../public/users.d.ts</text>
</g>
<!-- ../../util/memory&#45;cache.ts -->
<g id="node3" class="node">
<title>../../util/memory&#45;cache.ts</title>
<path fill="none" stroke="#cfffac" d="M307.83,-1083.99C307.83,-1083.99 153.17,-1083.99 153.17,-1083.99 149.33,-1083.99 145.5,-1080.15 145.5,-1076.32 145.5,-1076.32 145.5,-1068.65 145.5,-1068.65 145.5,-1064.82 149.33,-1060.99 153.17,-1060.99 153.17,-1060.99 307.83,-1060.99 307.83,-1060.99 311.67,-1060.99 315.5,-1064.82 315.5,-1068.65 315.5,-1068.65 315.5,-1076.32 315.5,-1076.32 315.5,-1080.15 311.67,-1083.99 307.83,-1083.99"/>
<text text-anchor="middle" x="230.5" y="-1068.79" font-family="Arial" font-size="14.00" fill="#cfffac">../../util/memory&#45;cache.ts</text>
</g>
<!-- api.proxy.ts -->
<g id="node4" class="node">
<title>api.proxy.ts</title>
<path fill="none" stroke="#c6c5fe" d="M86.33,-804.99C86.33,-804.99 12.67,-804.99 12.67,-804.99 8.83,-804.99 5,-801.15 5,-797.32 5,-797.32 5,-789.65 5,-789.65 5,-785.82 8.83,-781.99 12.67,-781.99 12.67,-781.99 86.33,-781.99 86.33,-781.99 90.17,-781.99 94,-785.82 94,-789.65 94,-789.65 94,-797.32 94,-797.32 94,-801.15 90.17,-804.99 86.33,-804.99"/>
<text text-anchor="middle" x="49.5" y="-789.79" font-family="Arial" font-size="14.00" fill="#c6c5fe">api.proxy.ts</text>
</g>
<!-- api.proxy.ts&#45;&gt;../../public/users.d.ts -->
<g id="edge1" class="edge">
<title>api.proxy.ts&#45;&gt;../../public/users.d.ts</title>
<path fill="none" stroke="#757575" d="M94.2,-782.35C107.27,-779.23 121.67,-776.01 135,-773.49 247.02,-752.27 377.76,-734.88 459.84,-724.84"/>
<polygon fill="#757575" stroke="#757575" points="460.35,-728.31 469.86,-723.63 459.51,-721.36 460.35,-728.31"/>
</g>
<!-- api.proxy.ts&#45;&gt;../../util/memory&#45;cache.ts -->
<g id="edge2" class="edge">
<title>api.proxy.ts&#45;&gt;../../util/memory&#45;cache.ts</title>
<path fill="none" stroke="#757575" d="M50.73,-805.05C52.15,-844.87 62.39,-977.69 135,-1046.49 139.01,-1050.29 143.53,-1053.55 148.36,-1056.34"/>
<polygon fill="#757575" stroke="#757575" points="146.84,-1059.49 157.35,-1060.86 149.99,-1053.24 146.84,-1059.49"/>
</g>
<!-- message&#45;communication.ts -->
<g id="node5" class="node">
<title>message&#45;communication.ts</title>
<path fill="none" stroke="#c6c5fe" d="M318.33,-804.99C318.33,-804.99 142.67,-804.99 142.67,-804.99 138.83,-804.99 135,-801.15 135,-797.32 135,-797.32 135,-789.65 135,-789.65 135,-785.82 138.83,-781.99 142.67,-781.99 142.67,-781.99 318.33,-781.99 318.33,-781.99 322.17,-781.99 326,-785.82 326,-789.65 326,-789.65 326,-797.32 326,-797.32 326,-801.15 322.17,-804.99 318.33,-804.99"/>
<text text-anchor="middle" x="230.5" y="-789.79" font-family="Arial" font-size="14.00" fill="#c6c5fe">message&#45;communication.ts</text>
</g>
<!-- api.proxy.ts&#45;&gt;message&#45;communication.ts -->
<g id="edge3" class="edge">
<title>api.proxy.ts&#45;&gt;message&#45;communication.ts</title>
<path fill="none" stroke="#757575" d="M94.29,-793.49C103.7,-793.49 114.03,-793.49 124.67,-793.49"/>
<polygon fill="#757575" stroke="#757575" points="124.93,-796.99 134.93,-793.49 124.93,-789.99 124.93,-796.99"/>
</g>
<!-- user/user.ts -->
<g id="node17" class="node">
<title>user/user.ts</title>
<path fill="none" stroke="#ff6c60" d="M579.33,-803.99C579.33,-803.99 503.67,-803.99 503.67,-803.99 499.83,-803.99 496,-800.15 496,-796.32 496,-796.32 496,-788.65 496,-788.65 496,-784.82 499.83,-780.99 503.67,-780.99 503.67,-780.99 579.33,-780.99 579.33,-780.99 583.17,-780.99 587,-784.82 587,-788.65 587,-788.65 587,-796.32 587,-796.32 587,-800.15 583.17,-803.99 579.33,-803.99"/>
<text text-anchor="middle" x="541.5" y="-788.79" font-family="Arial" font-size="14.00" fill="#ff6c60">user/user.ts</text>
</g>
<!-- message&#45;communication.ts&#45;&gt;user/user.ts -->
<g id="edge15" class="edge">
<title>message&#45;communication.ts&#45;&gt;user/user.ts</title>
<path fill="none" stroke="#757575" d="M326.31,-793.18C378.54,-793.01 441.52,-792.81 485.62,-792.67"/>
<polygon fill="#757575" stroke="#757575" points="485.86,-796.16 495.85,-792.63 485.84,-789.16 485.86,-796.16"/>
</g>
<!-- mapserver.ts -->
<g id="node6" class="node">
<title>mapserver.ts</title>
<path fill="none" stroke="#c6c5fe" d="M91.33,-459.99C91.33,-459.99 7.67,-459.99 7.67,-459.99 3.83,-459.99 0,-456.15 0,-452.32 0,-452.32 0,-444.65 0,-444.65 0,-440.82 3.83,-436.99 7.67,-436.99 7.67,-436.99 91.33,-436.99 91.33,-436.99 95.17,-436.99 99,-440.82 99,-444.65 99,-444.65 99,-452.32 99,-452.32 99,-456.15 95.17,-459.99 91.33,-459.99"/>
<text text-anchor="middle" x="49.5" y="-444.79" font-family="Arial" font-size="14.00" fill="#c6c5fe">mapserver.ts</text>
</g>
<!-- models/location.ts -->
<g id="node7" class="node">
<title>models/location.ts</title>
<path fill="none" stroke="#c6c5fe" d="M2366.83,-267.99C2366.83,-267.99 2251.17,-267.99 2251.17,-267.99 2247.33,-267.99 2243.5,-264.15 2243.5,-260.32 2243.5,-260.32 2243.5,-252.65 2243.5,-252.65 2243.5,-248.82 2247.33,-244.99 2251.17,-244.99 2251.17,-244.99 2366.83,-244.99 2366.83,-244.99 2370.67,-244.99 2374.5,-248.82 2374.5,-252.65 2374.5,-252.65 2374.5,-260.32 2374.5,-260.32 2374.5,-264.15 2370.67,-267.99 2366.83,-267.99"/>
<text text-anchor="middle" x="2309" y="-252.79" font-family="Arial" font-size="14.00" fill="#c6c5fe">models/location.ts</text>
</g>
<!-- mapserver.ts&#45;&gt;models/location.ts -->
<g id="edge4" class="edge">
<title>mapserver.ts&#45;&gt;models/location.ts</title>
<path fill="none" stroke="#757575" d="M57.44,-436.9C70.53,-415.75 100.67,-370.3 135,-340.49 292.1,-204.05 332.42,-106.49 540.5,-106.49 540.5,-106.49 540.5,-106.49 1744.5,-106.49 1951.64,-106.49 2187.64,-202.31 2274.04,-240.78"/>
<polygon fill="#757575" stroke="#757575" points="2272.8,-244.06 2283.35,-244.97 2275.67,-237.68 2272.8,-244.06"/>
</g>
<!-- models/site.ts -->
<g id="node8" class="node">
<title>models/site.ts</title>
<path fill="none" stroke="#c6c5fe" d="M2128.83,-537.99C2128.83,-537.99 2039.17,-537.99 2039.17,-537.99 2035.33,-537.99 2031.5,-534.15 2031.5,-530.32 2031.5,-530.32 2031.5,-522.65 2031.5,-522.65 2031.5,-518.82 2035.33,-514.99 2039.17,-514.99 2039.17,-514.99 2128.83,-514.99 2128.83,-514.99 2132.67,-514.99 2136.5,-518.82 2136.5,-522.65 2136.5,-522.65 2136.5,-530.32 2136.5,-530.32 2136.5,-534.15 2132.67,-537.99 2128.83,-537.99"/>
<text text-anchor="middle" x="2084" y="-522.79" font-family="Arial" font-size="14.00" fill="#c6c5fe">models/site.ts</text>
</g>
<!-- mapserver.ts&#45;&gt;models/site.ts -->
<g id="edge5" class="edge">
<title>mapserver.ts&#45;&gt;models/site.ts</title>
<path fill="none" stroke="#757575" d="M99.09,-457.39C110.81,-459.3 123.33,-461.15 135,-462.49 314.42,-483.05 359.91,-488.49 540.5,-488.49 540.5,-488.49 540.5,-488.49 1317,-488.49 1598.54,-488.49 1669.18,-492.41 1950,-512.49 1973.3,-514.15 1998.82,-516.67 2021.22,-519.12"/>
<polygon fill="#757575" stroke="#757575" points="2020.95,-522.61 2031.28,-520.23 2021.73,-515.65 2020.95,-522.61"/>
</g>
<!-- models/tile.ts -->
<g id="node9" class="node">
<title>models/tile.ts</title>
<path fill="none" stroke="#cfffac" d="M2545.83,-153.99C2545.83,-153.99 2460.17,-153.99 2460.17,-153.99 2456.33,-153.99 2452.5,-150.15 2452.5,-146.32 2452.5,-146.32 2452.5,-138.65 2452.5,-138.65 2452.5,-134.82 2456.33,-130.99 2460.17,-130.99 2460.17,-130.99 2545.83,-130.99 2545.83,-130.99 2549.67,-130.99 2553.5,-134.82 2553.5,-138.65 2553.5,-138.65 2553.5,-146.32 2553.5,-146.32 2553.5,-150.15 2549.67,-153.99 2545.83,-153.99"/>
<text text-anchor="middle" x="2503" y="-138.79" font-family="Arial" font-size="14.00" fill="#cfffac">models/tile.ts</text>
</g>
<!-- mapserver.ts&#45;&gt;models/tile.ts -->
<g id="edge6" class="edge">
<title>mapserver.ts&#45;&gt;models/tile.ts</title>
<path fill="none" stroke="#757575" d="M50.21,-436.7C49.8,-393.47 54.43,-242.01 135,-163.49 267.56,-34.29 355.4,-68.49 540.5,-68.49 540.5,-68.49 540.5,-68.49 2085,-68.49 2220.11,-68.49 2376.1,-106.61 2453.39,-128.13"/>
<polygon fill="#757575" stroke="#757575" points="2452.74,-131.59 2463.31,-130.92 2454.64,-124.85 2452.74,-131.59"/>
</g>
<!-- service/address&#45;from&#45;geo.ts -->
<g id="node10" class="node">
<title>service/address&#45;from&#45;geo.ts</title>
<path fill="none" stroke="#c6c5fe" d="M2174.33,-734.99C2174.33,-734.99 1993.67,-734.99 1993.67,-734.99 1989.83,-734.99 1986,-731.15 1986,-727.32 1986,-727.32 1986,-719.65 1986,-719.65 1986,-715.82 1989.83,-711.99 1993.67,-711.99 1993.67,-711.99 2174.33,-711.99 2174.33,-711.99 2178.17,-711.99 2182,-715.82 2182,-719.65 2182,-719.65 2182,-727.32 2182,-727.32 2182,-731.15 2178.17,-734.99 2174.33,-734.99"/>
<text text-anchor="middle" x="2084" y="-719.79" font-family="Arial" font-size="14.00" fill="#c6c5fe">service/address&#45;from&#45;geo.ts</text>
</g>
<!-- mapserver.ts&#45;&gt;service/address&#45;from&#45;geo.ts -->
<g id="edge7" class="edge">
<title>mapserver.ts&#45;&gt;service/address&#45;from&#45;geo.ts</title>
<path fill="none" stroke="#757575" d="M52.16,-460.03C62.57,-531.97 118.86,-916.55 135,-935.49 255.2,-1076.52 355.19,-1032.49 540.5,-1032.49 540.5,-1032.49 540.5,-1032.49 927,-1032.49 1390.02,-1032.49 1552.55,-1073.01 1950,-835.49 1995.13,-808.52 2040.41,-766.41 2064.75,-742.24"/>
<polygon fill="#757575" stroke="#757575" points="2067.31,-744.62 2071.89,-735.07 2062.35,-739.69 2067.31,-744.62"/>
</g>
<!-- service/image&#45;resolver.ts -->
<g id="node11" class="node">
<title>service/image&#45;resolver.ts</title>
<path fill="none" stroke="#c6c5fe" d="M1006.33,-302.99C1006.33,-302.99 845.67,-302.99 845.67,-302.99 841.83,-302.99 838,-299.15 838,-295.32 838,-295.32 838,-287.65 838,-287.65 838,-283.82 841.83,-279.99 845.67,-279.99 845.67,-279.99 1006.33,-279.99 1006.33,-279.99 1010.17,-279.99 1014,-283.82 1014,-287.65 1014,-287.65 1014,-295.32 1014,-295.32 1014,-299.15 1010.17,-302.99 1006.33,-302.99"/>
<text text-anchor="middle" x="926" y="-287.79" font-family="Arial" font-size="14.00" fill="#c6c5fe">service/image&#45;resolver.ts</text>
</g>
<!-- mapserver.ts&#45;&gt;service/image&#45;resolver.ts -->
<g id="edge8" class="edge">
<title>mapserver.ts&#45;&gt;service/image&#45;resolver.ts</title>
<path fill="none" stroke="#757575" d="M64.75,-436.83C80.78,-424.39 108.12,-405.17 135,-395.49 373.41,-309.66 675.08,-293.41 827.44,-291.11"/>
<polygon fill="#757575" stroke="#757575" points="827.75,-294.61 837.71,-290.97 827.66,-287.61 827.75,-294.61"/>
</g>
<!-- service/map&#45;attributes&#45;holder.ts -->
<g id="node12" class="node">
<title>service/map&#45;attributes&#45;holder.ts</title>
<path fill="none" stroke="#cfffac" d="M2813.33,-377.99C2813.33,-377.99 2613.67,-377.99 2613.67,-377.99 2609.83,-377.99 2606,-374.15 2606,-370.32 2606,-370.32 2606,-362.65 2606,-362.65 2606,-358.82 2609.83,-354.99 2613.67,-354.99 2613.67,-354.99 2813.33,-354.99 2813.33,-354.99 2817.17,-354.99 2821,-358.82 2821,-362.65 2821,-362.65 2821,-370.32 2821,-370.32 2821,-374.15 2817.17,-377.99 2813.33,-377.99"/>
<text text-anchor="middle" x="2713.5" y="-362.79" font-family="Arial" font-size="14.00" fill="#cfffac">service/map&#45;attributes&#45;holder.ts</text>
</g>
<!-- mapserver.ts&#45;&gt;service/map&#45;attributes&#45;holder.ts -->
<g id="edge9" class="edge">
<title>mapserver.ts&#45;&gt;service/map&#45;attributes&#45;holder.ts</title>
<path fill="none" stroke="#757575" d="M51.26,-436.75C55.31,-377.78 76.5,-114.58 135,-63.49 271.18,55.47 359.68,-30.49 540.5,-30.49 540.5,-30.49 540.5,-30.49 2310,-30.49 2432.43,-30.49 2475.6,-43.53 2570,-121.49 2645.68,-183.99 2689.93,-297.83 2705.79,-345.06"/>
<polygon fill="#757575" stroke="#757575" points="2702.55,-346.41 2708.98,-354.83 2709.21,-344.24 2702.55,-346.41"/>
</g>
<!-- service/minesweeper.ts -->
<g id="node13" class="node">
<title>service/minesweeper.ts</title>
<path fill="none" stroke="#c6c5fe" d="M306.33,-645.99C306.33,-645.99 154.67,-645.99 154.67,-645.99 150.83,-645.99 147,-642.15 147,-638.32 147,-638.32 147,-630.65 147,-630.65 147,-626.82 150.83,-622.99 154.67,-622.99 154.67,-622.99 306.33,-622.99 306.33,-622.99 310.17,-622.99 314,-626.82 314,-630.65 314,-630.65 314,-638.32 314,-638.32 314,-642.15 310.17,-645.99 306.33,-645.99"/>
<text text-anchor="middle" x="230.5" y="-630.79" font-family="Arial" font-size="14.00" fill="#c6c5fe">service/minesweeper.ts</text>
</g>
<!-- mapserver.ts&#45;&gt;service/minesweeper.ts -->
<g id="edge10" class="edge">
<title>mapserver.ts&#45;&gt;service/minesweeper.ts</title>
<path fill="none" stroke="#757575" d="M61.7,-460.12C91.71,-491.31 174.17,-576.99 211.14,-615.41"/>
<polygon fill="#757575" stroke="#757575" points="208.85,-618.08 218.31,-622.86 213.89,-613.22 208.85,-618.08"/>
</g>
<!-- service/site&#45;adder.ts -->
<g id="node14" class="node">
<title>service/site&#45;adder.ts</title>
<path fill="none" stroke="#ff6c60" d="M1808.33,-459.99C1808.33,-459.99 1678.67,-459.99 1678.67,-459.99 1674.83,-459.99 1671,-456.15 1671,-452.32 1671,-452.32 1671,-444.65 1671,-444.65 1671,-440.82 1674.83,-436.99 1678.67,-436.99 1678.67,-436.99 1808.33,-436.99 1808.33,-436.99 1812.17,-436.99 1816,-440.82 1816,-444.65 1816,-444.65 1816,-452.32 1816,-452.32 1816,-456.15 1812.17,-459.99 1808.33,-459.99"/>
<text text-anchor="middle" x="1743.5" y="-444.79" font-family="Arial" font-size="14.00" fill="#ff6c60">service/site&#45;adder.ts</text>
</g>
<!-- mapserver.ts&#45;&gt;service/site&#45;adder.ts -->
<g id="edge11" class="edge">
<title>mapserver.ts&#45;&gt;service/site&#45;adder.ts</title>
<path fill="none" stroke="#757575" d="M99.18,-448.49C187.25,-448.49 378.87,-448.49 540.5,-448.49 540.5,-448.49 540.5,-448.49 927,-448.49 1195.4,-448.49 1513.49,-448.49 1660.49,-448.49"/>
<polygon fill="#757575" stroke="#757575" points="1660.78,-451.99 1670.78,-448.49 1660.78,-444.99 1660.78,-451.99"/>
</g>
<!-- service/user&#45;map&#45;loader.ts -->
<g id="node15" class="node">
<title>service/user&#45;map&#45;loader.ts</title>
<path fill="none" stroke="#c6c5fe" d="M315.33,-925.99C315.33,-925.99 145.67,-925.99 145.67,-925.99 141.83,-925.99 138,-922.15 138,-918.32 138,-918.32 138,-910.65 138,-910.65 138,-906.82 141.83,-902.99 145.67,-902.99 145.67,-902.99 315.33,-902.99 315.33,-902.99 319.17,-902.99 323,-906.82 323,-910.65 323,-910.65 323,-918.32 323,-918.32 323,-922.15 319.17,-925.99 315.33,-925.99"/>
<text text-anchor="middle" x="230.5" y="-910.79" font-family="Arial" font-size="14.00" fill="#c6c5fe">service/user&#45;map&#45;loader.ts</text>
</g>
<!-- mapserver.ts&#45;&gt;service/user&#45;map&#45;loader.ts -->
<g id="edge12" class="edge">
<title>mapserver.ts&#45;&gt;service/user&#45;map&#45;loader.ts</title>
<path fill="none" stroke="#757575" d="M50.99,-460.02C53.41,-506.99 66.92,-687.46 135,-814.49 152.81,-847.72 184.58,-877.98 206.33,-896.31"/>
<polygon fill="#757575" stroke="#757575" points="204.18,-899.07 214.12,-902.73 208.63,-893.67 204.18,-899.07"/>
</g>
<!-- service/woirld&#45;map&#45;resolver.ts -->
<g id="node16" class="node">
<title>service/woirld&#45;map&#45;resolver.ts</title>
<path fill="none" stroke="#ff6c60" d="M1411.33,-419.99C1411.33,-419.99 1220.67,-419.99 1220.67,-419.99 1216.83,-419.99 1213,-416.15 1213,-412.32 1213,-412.32 1213,-404.65 1213,-404.65 1213,-400.82 1216.83,-396.99 1220.67,-396.99 1220.67,-396.99 1411.33,-396.99 1411.33,-396.99 1415.17,-396.99 1419,-400.82 1419,-404.65 1419,-404.65 1419,-412.32 1419,-412.32 1419,-416.15 1415.17,-419.99 1411.33,-419.99"/>
<text text-anchor="middle" x="1316" y="-404.79" font-family="Arial" font-size="14.00" fill="#ff6c60">service/woirld&#45;map&#45;resolver.ts</text>
</g>
<!-- mapserver.ts&#45;&gt;service/woirld&#45;map&#45;resolver.ts -->
<g id="edge13" class="edge">
<title>mapserver.ts&#45;&gt;service/woirld&#45;map&#45;resolver.ts</title>
<path fill="none" stroke="#757575" d="M99.05,-439.23C110.78,-437.33 123.3,-435.58 135,-434.49 525.93,-397.98 992.72,-401.56 1202.8,-405.67"/>
<polygon fill="#757575" stroke="#757575" points="1202.85,-409.17 1212.91,-405.87 1202.99,-402.17 1202.85,-409.17"/>
</g>
<!-- mapserver.ts&#45;&gt;user/user.ts -->
<g id="edge14" class="edge">
<title>mapserver.ts&#45;&gt;user/user.ts</title>
<path fill="none" stroke="#757575" d="M51.93,-460.18C56.78,-494.97 75.8,-598.89 135,-655.49 233.83,-749.99 400.11,-779.42 485.79,-788.5"/>
<polygon fill="#757575" stroke="#757575" points="485.53,-791.99 495.83,-789.51 486.23,-785.02 485.53,-791.99"/>
</g>
<!-- models/location.ts&#45;&gt;models/tile.ts -->
<g id="edge18" class="edge">
<title>models/location.ts&#45;&gt;models/tile.ts</title>
<path fill="none" stroke="#757575" d="M2329.47,-244.93C2363.54,-224.7 2434.09,-182.81 2473.61,-159.34"/>
<polygon fill="#757575" stroke="#757575" points="2475.67,-162.19 2482.48,-154.08 2472.1,-156.17 2475.67,-162.19"/>
</g>
<!-- models/vector.ts -->
<g id="node20" class="node">
<title>models/vector.ts</title>
<path fill="none" stroke="#cfffac" d="M2766.83,-573.99C2766.83,-573.99 2660.17,-573.99 2660.17,-573.99 2656.33,-573.99 2652.5,-570.15 2652.5,-566.32 2652.5,-566.32 2652.5,-558.65 2652.5,-558.65 2652.5,-554.82 2656.33,-550.99 2660.17,-550.99 2660.17,-550.99 2766.83,-550.99 2766.83,-550.99 2770.67,-550.99 2774.5,-554.82 2774.5,-558.65 2774.5,-558.65 2774.5,-566.32 2774.5,-566.32 2774.5,-570.15 2770.67,-573.99 2766.83,-573.99"/>
<text text-anchor="middle" x="2713.5" y="-558.79" font-family="Arial" font-size="14.00" fill="#cfffac">models/vector.ts</text>
</g>
<!-- models/location.ts&#45;&gt;models/vector.ts -->
<g id="edge19" class="edge">
<title>models/location.ts&#45;&gt;models/vector.ts</title>
<path fill="none" stroke="#757575" d="M2374.66,-266.32C2431.17,-277.64 2512.89,-300.88 2570,-346.49 2605.55,-374.88 2674.05,-493.56 2701.11,-541.88"/>
<polygon fill="#757575" stroke="#757575" points="2698.16,-543.78 2706.08,-550.81 2704.27,-540.38 2698.16,-543.78"/>
</g>
<!-- models/tile&#45;pixel.ts -->
<g id="node21" class="node">
<title>models/tile&#45;pixel.ts</title>
<path fill="none" stroke="#c6c5fe" d="M2562.33,-377.99C2562.33,-377.99 2443.67,-377.99 2443.67,-377.99 2439.83,-377.99 2436,-374.15 2436,-370.32 2436,-370.32 2436,-362.65 2436,-362.65 2436,-358.82 2439.83,-354.99 2443.67,-354.99 2443.67,-354.99 2562.33,-354.99 2562.33,-354.99 2566.17,-354.99 2570,-358.82 2570,-362.65 2570,-362.65 2570,-370.32 2570,-370.32 2570,-374.15 2566.17,-377.99 2562.33,-377.99"/>
<text text-anchor="middle" x="2503" y="-362.79" font-family="Arial" font-size="14.00" fill="#c6c5fe">models/tile&#45;pixel.ts</text>
</g>
<!-- models/location.ts&#45;&gt;models/tile&#45;pixel.ts -->
<g id="edge17" class="edge">
<title>models/location.ts&#45;&gt;models/tile&#45;pixel.ts</title>
<path fill="none" stroke="#757575" d="M2363.28,-268C2375.71,-271.73 2388.63,-276.5 2400,-282.49 2432.82,-299.79 2464.88,-328.75 2484.04,-347.74"/>
<polygon fill="#757575" stroke="#757575" points="2481.67,-350.32 2491.19,-354.96 2486.64,-345.39 2481.67,-350.32"/>
</g>
<!-- models/site.ts&#45;&gt;models/location.ts -->
<g id="edge22" class="edge">
<title>models/site.ts&#45;&gt;models/location.ts</title>
<path fill="none" stroke="#757575" d="M2094.58,-514.89C2129.25,-472.91 2248.39,-328.66 2291.92,-275.96"/>
<polygon fill="#757575" stroke="#757575" points="2294.78,-277.98 2298.45,-268.05 2289.39,-273.53 2294.78,-277.98"/>
</g>
<!-- models/address.ts -->
<g id="node18" class="node">
<title>models/address.ts</title>
<path fill="none" stroke="#cfffac" d="M2368.33,-613.99C2368.33,-613.99 2249.67,-613.99 2249.67,-613.99 2245.83,-613.99 2242,-610.15 2242,-606.32 2242,-606.32 2242,-598.65 2242,-598.65 2242,-594.82 2245.83,-590.99 2249.67,-590.99 2249.67,-590.99 2368.33,-590.99 2368.33,-590.99 2372.17,-590.99 2376,-594.82 2376,-598.65 2376,-598.65 2376,-606.32 2376,-606.32 2376,-610.15 2372.17,-613.99 2368.33,-613.99"/>
<text text-anchor="middle" x="2309" y="-598.79" font-family="Arial" font-size="14.00" fill="#cfffac">models/address.ts</text>
</g>
<!-- models/site.ts&#45;&gt;models/address.ts -->
<g id="edge21" class="edge">
<title>models/site.ts&#45;&gt;models/address.ts</title>
<path fill="none" stroke="#757575" d="M2132.69,-538.09C2148.5,-542.25 2166.11,-547.23 2182,-552.49 2212.77,-562.68 2246.9,-576.37 2271.87,-586.86"/>
<polygon fill="#757575" stroke="#757575" points="2270.72,-590.17 2281.3,-590.84 2273.45,-583.72 2270.72,-590.17"/>
</g>
<!-- models/site&#45;tile&#45;position.ts -->
<g id="node23" class="node">
<title>models/site&#45;tile&#45;position.ts</title>
<path fill="none" stroke="#c6c5fe" d="M2392.33,-495.99C2392.33,-495.99 2225.67,-495.99 2225.67,-495.99 2221.83,-495.99 2218,-492.15 2218,-488.32 2218,-488.32 2218,-480.65 2218,-480.65 2218,-476.82 2221.83,-472.99 2225.67,-472.99 2225.67,-472.99 2392.33,-472.99 2392.33,-472.99 2396.17,-472.99 2400,-476.82 2400,-480.65 2400,-480.65 2400,-488.32 2400,-488.32 2400,-492.15 2396.17,-495.99 2392.33,-495.99"/>
<text text-anchor="middle" x="2309" y="-480.79" font-family="Arial" font-size="14.00" fill="#c6c5fe">models/site&#45;tile&#45;position.ts</text>
</g>
<!-- models/site.ts&#45;&gt;models/site&#45;tile&#45;position.ts -->
<g id="edge23" class="edge">
<title>models/site.ts&#45;&gt;models/site&#45;tile&#45;position.ts</title>
<path fill="none" stroke="#757575" d="M2136.72,-516.75C2166.45,-511.15 2204.24,-504.03 2236.75,-497.91"/>
<polygon fill="#757575" stroke="#757575" points="2237.48,-501.33 2246.66,-496.04 2236.18,-494.45 2237.48,-501.33"/>
</g>
<!-- service/address&#45;from&#45;geo.ts&#45;&gt;models/location.ts -->
<g id="edge28" class="edge">
<title>service/address&#45;from&#45;geo.ts&#45;&gt;models/location.ts</title>
<path fill="none" stroke="#757575" d="M2171.76,-711.92C2175.47,-709.52 2178.93,-706.73 2182,-703.49 2218.94,-664.5 2203.21,-516.12 2218,-464.49 2238.4,-393.26 2277.48,-314.28 2296.73,-277.49"/>
<polygon fill="#757575" stroke="#757575" points="2300.02,-278.75 2301.6,-268.27 2293.83,-275.48 2300.02,-278.75"/>
</g>
<!-- service/address&#45;from&#45;geo.ts&#45;&gt;models/address.ts -->
<g id="edge26" class="edge">
<title>service/address&#45;from&#45;geo.ts&#45;&gt;models/address.ts</title>
<path fill="none" stroke="#757575" d="M2163.94,-711.83C2170.24,-709.52 2176.35,-706.77 2182,-703.49 2202.96,-691.3 2199.75,-678.46 2218,-662.49 2236.73,-646.08 2260.21,-630.58 2278.48,-619.44"/>
<polygon fill="#757575" stroke="#757575" points="2280.47,-622.32 2287.25,-614.18 2276.88,-616.32 2280.47,-622.32"/>
</g>
<!-- models/bounding&#45;box.ts -->
<g id="node19" class="node">
<title>models/bounding&#45;box.ts</title>
<path fill="none" stroke="#c6c5fe" d="M2385.83,-693.99C2385.83,-693.99 2232.17,-693.99 2232.17,-693.99 2228.33,-693.99 2224.5,-690.15 2224.5,-686.32 2224.5,-686.32 2224.5,-678.65 2224.5,-678.65 2224.5,-674.82 2228.33,-670.99 2232.17,-670.99 2232.17,-670.99 2385.83,-670.99 2385.83,-670.99 2389.67,-670.99 2393.5,-674.82 2393.5,-678.65 2393.5,-678.65 2393.5,-686.32 2393.5,-686.32 2393.5,-690.15 2389.67,-693.99 2385.83,-693.99"/>
<text text-anchor="middle" x="2309" y="-678.79" font-family="Arial" font-size="14.00" fill="#c6c5fe">models/bounding&#45;box.ts</text>
</g>
<!-- service/address&#45;from&#45;geo.ts&#45;&gt;models/bounding&#45;box.ts -->
<g id="edge27" class="edge">
<title>service/address&#45;from&#45;geo.ts&#45;&gt;models/bounding&#45;box.ts</title>
<path fill="none" stroke="#757575" d="M2147.71,-711.96C2175.02,-706.94 2207.2,-701.02 2235.53,-695.81"/>
<polygon fill="#757575" stroke="#757575" points="2236.17,-699.25 2245.37,-694 2234.91,-692.37 2236.17,-699.25"/>
</g>
<!-- service/json&#45;assign.ts -->
<g id="node24" class="node">
<title>service/json&#45;assign.ts</title>
<path fill="none" stroke="#cfffac" d="M2377.83,-734.99C2377.83,-734.99 2240.17,-734.99 2240.17,-734.99 2236.33,-734.99 2232.5,-731.15 2232.5,-727.32 2232.5,-727.32 2232.5,-719.65 2232.5,-719.65 2232.5,-715.82 2236.33,-711.99 2240.17,-711.99 2240.17,-711.99 2377.83,-711.99 2377.83,-711.99 2381.67,-711.99 2385.5,-715.82 2385.5,-719.65 2385.5,-719.65 2385.5,-727.32 2385.5,-727.32 2385.5,-731.15 2381.67,-734.99 2377.83,-734.99"/>
<text text-anchor="middle" x="2309" y="-719.79" font-family="Arial" font-size="14.00" fill="#cfffac">service/json&#45;assign.ts</text>
</g>
<!-- service/address&#45;from&#45;geo.ts&#45;&gt;service/json&#45;assign.ts -->
<g id="edge29" class="edge">
<title>service/address&#45;from&#45;geo.ts&#45;&gt;service/json&#45;assign.ts</title>
<path fill="none" stroke="#757575" d="M2182.16,-723.49C2195.41,-723.49 2208.92,-723.49 2221.95,-723.49"/>
<polygon fill="#757575" stroke="#757575" points="2222.28,-726.99 2232.28,-723.49 2222.28,-719.99 2222.28,-726.99"/>
</g>
<!-- service/image&#45;resolver.ts&#45;&gt;models/location.ts -->
<g id="edge44" class="edge">
<title>service/image&#45;resolver.ts&#45;&gt;models/location.ts</title>
<path fill="none" stroke="#757575" d="M1014.17,-289.04C1195.21,-284 1625.16,-272.18 1986,-263.49 2070.63,-261.45 2167.78,-259.37 2233.05,-258.02"/>
<polygon fill="#757575" stroke="#757575" points="2233.31,-261.51 2243.24,-257.81 2233.17,-254.51 2233.31,-261.51"/>
</g>
<!-- service/image&#45;resolver.ts&#45;&gt;models/tile.ts -->
<g id="edge45" class="edge">
<title>service/image&#45;resolver.ts&#45;&gt;models/tile.ts</title>
<path fill="none" stroke="#757575" d="M963.96,-279.95C1078.4,-245.3 1437.51,-144.49 1742.5,-144.49 1742.5,-144.49 1742.5,-144.49 2085,-144.49 2212.23,-144.49 2361.28,-143.55 2442.25,-142.95"/>
<polygon fill="#757575" stroke="#757575" points="2442.28,-146.45 2452.25,-142.88 2442.23,-139.45 2442.28,-146.45"/>
</g>
<!-- service/image&#45;resolver.ts&#45;&gt;service/woirld&#45;map&#45;resolver.ts -->
<g id="edge46" class="edge">
<title>service/image&#45;resolver.ts&#45;&gt;service/woirld&#45;map&#45;resolver.ts</title>
<path fill="none" stroke="#757575" d="M965.26,-303.03C1036.49,-324.5 1189.25,-370.57 1267.16,-394.06"/>
<polygon fill="#757575" stroke="#757575" points="1266.15,-397.41 1276.74,-396.95 1268.17,-390.71 1266.15,-397.41"/>
</g>
<!-- service/minesweeper.ts&#45;&gt;../../../jonny&#45;maps/scripts/index.d.ts -->
<g id="edge47" class="edge">
<title>service/minesweeper.ts&#45;&gt;../../../jonny&#45;maps/scripts/index.d.ts</title>
<path fill="none" stroke="#757575" d="M314.31,-623.77C353.45,-618.7 400.48,-612.61 441.49,-607.3"/>
<polygon fill="#757575" stroke="#757575" points="442.04,-610.76 451.5,-606.01 441.14,-603.82 442.04,-610.76"/>
</g>
<!-- service/minesweeper.ts&#45;&gt;../../public/users.d.ts -->
<g id="edge48" class="edge">
<title>service/minesweeper.ts&#45;&gt;../../public/users.d.ts</title>
<path fill="none" stroke="#757575" d="M251.06,-646.12C275.92,-660.3 320.59,-683.83 362,-695.49 393.28,-704.29 428.68,-709.25 459.65,-712.02"/>
<polygon fill="#757575" stroke="#757575" points="459.72,-715.54 469.98,-712.88 460.3,-708.56 459.72,-715.54"/>
</g>
<!-- service/minesweeper.ts&#45;&gt;user/user.ts -->
<g id="edge52" class="edge">
<title>service/minesweeper.ts&#45;&gt;user/user.ts</title>
<path fill="none" stroke="#757575" d="M243.4,-646.26C265.18,-667.2 313.63,-711.08 362,-736.49 401.29,-757.13 449.5,-771.69 485.9,-780.78"/>
<polygon fill="#757575" stroke="#757575" points="485.3,-784.24 495.84,-783.2 486.96,-777.43 485.3,-784.24"/>
</g>
<!-- service/minesweeper.ts&#45;&gt;models/vector.ts -->
<g id="edge49" class="edge">
<title>service/minesweeper.ts&#45;&gt;models/vector.ts</title>
<path fill="none" stroke="#757575" d="M251.04,-622.88C275.88,-608.75 320.53,-585.43 362,-574.49 604.82,-510.41 673.87,-526.49 925,-526.49 925,-526.49 925,-526.49 1317,-526.49 1614.48,-526.49 1688.62,-539.75 1986,-547.49 2226.66,-553.75 2512.23,-559.01 2642.02,-561.28"/>
<polygon fill="#757575" stroke="#757575" points="2642.16,-564.79 2652.22,-561.46 2642.28,-557.79 2642.16,-564.79"/>
</g>
<!-- service/generic&#45;map&#45;factory/game&#45;map&#45;map&#45;factory.ts -->
<g id="node25" class="node">
<title>service/generic&#45;map&#45;factory/game&#45;map&#45;map&#45;factory.ts</title>
<path fill="none" stroke="#c6c5fe" d="M713.33,-685.99C713.33,-685.99 369.67,-685.99 369.67,-685.99 365.83,-685.99 362,-682.15 362,-678.32 362,-678.32 362,-670.65 362,-670.65 362,-666.82 365.83,-662.99 369.67,-662.99 369.67,-662.99 713.33,-662.99 713.33,-662.99 717.17,-662.99 721,-666.82 721,-670.65 721,-670.65 721,-678.32 721,-678.32 721,-682.15 717.17,-685.99 713.33,-685.99"/>
<text text-anchor="middle" x="541.5" y="-670.79" font-family="Arial" font-size="14.00" fill="#c6c5fe">service/generic&#45;map&#45;factory/game&#45;map&#45;map&#45;factory.ts</text>
</g>
<!-- service/minesweeper.ts&#45;&gt;service/generic&#45;map&#45;factory/game&#45;map&#45;map&#45;factory.ts -->
<g id="edge50" class="edge">
<title>service/minesweeper.ts&#45;&gt;service/generic&#45;map&#45;factory/game&#45;map&#45;map&#45;factory.ts</title>
<path fill="none" stroke="#757575" d="M314.31,-645.21C353.45,-650.27 400.48,-656.36 441.49,-661.67"/>
<polygon fill="#757575" stroke="#757575" points="441.14,-665.15 451.5,-662.97 442.04,-658.21 441.14,-665.15"/>
</g>
<!-- service/generic&#45;map&#45;factory/layer&#45;factory/layer&#45;factory.ts -->
<g id="node27" class="node">
<title>service/generic&#45;map&#45;factory/layer&#45;factory/layer&#45;factory.ts</title>
<path fill="none" stroke="#ff6c60" d="M1493.33,-683.99C1493.33,-683.99 1138.67,-683.99 1138.67,-683.99 1134.83,-683.99 1131,-680.15 1131,-676.32 1131,-676.32 1131,-668.65 1131,-668.65 1131,-664.82 1134.83,-660.99 1138.67,-660.99 1138.67,-660.99 1493.33,-660.99 1493.33,-660.99 1497.17,-660.99 1501,-664.82 1501,-668.65 1501,-668.65 1501,-676.32 1501,-676.32 1501,-680.15 1497.17,-683.99 1493.33,-683.99"/>
<text text-anchor="middle" x="1316" y="-668.79" font-family="Arial" font-size="14.00" fill="#ff6c60">service/generic&#45;map&#45;factory/layer&#45;factory/layer&#45;factory.ts</text>
</g>
<!-- service/minesweeper.ts&#45;&gt;service/generic&#45;map&#45;factory/layer&#45;factory/layer&#45;factory.ts -->
<g id="edge51" class="edge">
<title>service/minesweeper.ts&#45;&gt;service/generic&#45;map&#45;factory/layer&#45;factory/layer&#45;factory.ts</title>
<path fill="none" stroke="#757575" d="M314.27,-637.39C485.21,-643.39 881.21,-657.27 1120.64,-665.67"/>
<polygon fill="#757575" stroke="#757575" points="1120.75,-669.18 1130.86,-666.03 1120.99,-662.18 1120.75,-669.18"/>
</g>
<!-- service/site&#45;adder.ts&#45;&gt;models/site.ts -->
<g id="edge55" class="edge">
<title>service/site&#45;adder.ts&#45;&gt;models/site.ts</title>
<path fill="none" stroke="#757575" d="M1816.09,-448.88C1856.61,-451.2 1907.51,-457.73 1950,-474.49 1968.36,-481.73 1968.17,-492.02 1986,-500.49 1997.18,-505.8 2009.63,-510.17 2021.77,-513.71"/>
<polygon fill="#757575" stroke="#757575" points="2020.84,-517.08 2031.41,-516.37 2022.7,-510.33 2020.84,-517.08"/>
</g>
<!-- service/site&#45;adder.ts&#45;&gt;service/map&#45;attributes&#45;holder.ts -->
<g id="edge58" class="edge">
<title>service/site&#45;adder.ts&#45;&gt;service/map&#45;attributes&#45;holder.ts</title>
<path fill="none" stroke="#757575" d="M1816.16,-444.95C1959.57,-437.47 2292,-418.2 2570,-387.49 2589.88,-385.29 2611.25,-382.42 2631.24,-379.5"/>
<polygon fill="#757575" stroke="#757575" points="2631.85,-382.95 2641.23,-378.03 2630.83,-376.03 2631.85,-382.95"/>
</g>
<!-- service/site&#45;adder.ts&#45;&gt;service/woirld&#45;map&#45;resolver.ts -->
<g id="edge60" class="edge">
<title>service/site&#45;adder.ts&#45;&gt;service/woirld&#45;map&#45;resolver.ts</title>
<path fill="none" stroke="#757575" d="M1670.75,-446.95C1594.56,-441.78 1474.46,-430.55 1395.71,-421.27"/>
<polygon fill="#757575" stroke="#757575" points="1395.71,-417.74 1385.36,-420.03 1394.88,-424.69 1395.71,-417.74"/>
</g>
<!-- service/site&#45;adder.ts&#45;&gt;models/bounding&#45;box.ts -->
<g id="edge53" class="edge">
<title>service/site&#45;adder.ts&#45;&gt;models/bounding&#45;box.ts</title>
<path fill="none" stroke="#757575" d="M1772.44,-460.09C1865.58,-498.77 2165.5,-623.31 2270.93,-667.09"/>
<polygon fill="#757575" stroke="#757575" points="2269.64,-670.35 2280.22,-670.95 2272.33,-663.88 2269.64,-670.35"/>
</g>
<!-- service/site&#45;adder.ts&#45;&gt;models/vector.ts -->
<g id="edge57" class="edge">
<title>service/site&#45;adder.ts&#45;&gt;models/vector.ts</title>
<path fill="none" stroke="#757575" d="M1816.28,-457.24C1909.04,-468.53 2075.54,-488.7 2218,-505.49 2369.12,-523.29 2546.31,-543.57 2642.2,-554.5"/>
<polygon fill="#757575" stroke="#757575" points="2642.02,-558 2652.35,-555.65 2642.81,-551.04 2642.02,-558"/>
</g>
<!-- service/site&#45;adder.ts&#45;&gt;models/tile&#45;pixel.ts -->
<g id="edge56" class="edge">
<title>service/site&#45;adder.ts&#45;&gt;models/tile&#45;pixel.ts</title>
<path fill="none" stroke="#757575" d="M1788.21,-436.95C1836.31,-424.75 1916.09,-405.99 1986,-396.49 2141.17,-375.4 2324.56,-369.12 2425.59,-367.26"/>
<polygon fill="#757575" stroke="#757575" points="2425.77,-370.76 2435.71,-367.08 2425.65,-363.76 2425.77,-370.76"/>
</g>
<!-- service/site&#45;adder.ts&#45;&gt;models/site&#45;tile&#45;position.ts -->
<g id="edge54" class="edge">
<title>service/site&#45;adder.ts&#45;&gt;models/site&#45;tile&#45;position.ts</title>
<path fill="none" stroke="#757575" d="M1816.17,-451.54C1902.87,-455.43 2053.23,-462.83 2182,-472.49 2190.35,-473.11 2199,-473.82 2207.68,-474.57"/>
<polygon fill="#757575" stroke="#757575" points="2207.61,-478.07 2217.87,-475.46 2208.22,-471.1 2207.61,-478.07"/>
</g>
<!-- service/map.d.ts -->
<g id="node29" class="node">
<title>service/map.d.ts</title>
<path fill="none" stroke="#cfffac" d="M2136.83,-693.99C2136.83,-693.99 2031.17,-693.99 2031.17,-693.99 2027.33,-693.99 2023.5,-690.15 2023.5,-686.32 2023.5,-686.32 2023.5,-678.65 2023.5,-678.65 2023.5,-674.82 2027.33,-670.99 2031.17,-670.99 2031.17,-670.99 2136.83,-670.99 2136.83,-670.99 2140.67,-670.99 2144.5,-674.82 2144.5,-678.65 2144.5,-678.65 2144.5,-686.32 2144.5,-686.32 2144.5,-690.15 2140.67,-693.99 2136.83,-693.99"/>
<text text-anchor="middle" x="2084" y="-678.79" font-family="Arial" font-size="14.00" fill="#cfffac">service/map.d.ts</text>
</g>
<!-- service/site&#45;adder.ts&#45;&gt;service/map.d.ts -->
<g id="edge59" class="edge">
<title>service/site&#45;adder.ts&#45;&gt;service/map.d.ts</title>
<path fill="none" stroke="#757575" d="M1775.11,-460.05C1816.81,-476.59 1892.83,-509.57 1950,-550.49 1974.88,-568.29 2034.98,-631.17 2065.13,-663.29"/>
<polygon fill="#757575" stroke="#757575" points="2062.72,-665.84 2072.11,-670.75 2067.83,-661.06 2062.72,-665.84"/>
</g>
<!-- service/user&#45;map&#45;loader.ts&#45;&gt;service/map&#45;attributes&#45;holder.ts -->
<g id="edge61" class="edge">
<title>service/user&#45;map&#45;loader.ts&#45;&gt;service/map&#45;attributes&#45;holder.ts</title>
<path fill="none" stroke="#757575" d="M296.36,-926C317.25,-929.29 340.55,-932.51 362,-934.49 611.29,-957.49 674.65,-952.49 925,-952.49 925,-952.49 925,-952.49 1744.5,-952.49 2050.15,-952.49 2146.64,-915.46 2400,-744.49 2549.74,-643.44 2665.91,-450.28 2701.31,-387.07"/>
<polygon fill="#757575" stroke="#757575" points="2704.51,-388.51 2706.3,-378.07 2698.39,-385.12 2704.51,-388.51"/>
</g>
<!-- service/user&#45;map&#45;loader.ts&#45;&gt;user/user.ts -->
<g id="edge64" class="edge">
<title>service/user&#45;map&#45;loader.ts&#45;&gt;user/user.ts</title>
<path fill="none" stroke="#757575" d="M260.85,-902.9C316.9,-880.77 439.18,-832.49 501.83,-807.76"/>
<polygon fill="#757575" stroke="#757575" points="503.33,-810.93 511.35,-804 500.76,-804.41 503.33,-810.93"/>
</g>
<!-- service/user&#45;map&#45;loader.ts&#45;&gt;service/map.d.ts -->
<g id="edge62" class="edge">
<title>service/user&#45;map&#45;loader.ts&#45;&gt;service/map.d.ts</title>
<path fill="none" stroke="#757575" d="M323.43,-916.87C596.84,-923.43 1392.7,-938.55 1501,-895.49 1521.17,-887.47 1517.63,-872.27 1537,-862.49 1703.96,-778.14 1802.92,-897.06 1950,-781.49 1980.02,-757.9 1956.21,-727.37 1986,-703.49 1994.1,-696.99 2003.76,-692.39 2013.79,-689.16"/>
<polygon fill="#757575" stroke="#757575" points="2014.8,-692.51 2023.49,-686.45 2012.92,-685.77 2014.8,-692.51"/>
</g>
<!-- user/user&#45;map&#45;attributes&#45;loader.ts -->
<g id="node31" class="node">
<title>user/user&#45;map&#45;attributes&#45;loader.ts</title>
<path fill="none" stroke="#c6c5fe" d="M648.83,-1003.99C648.83,-1003.99 434.17,-1003.99 434.17,-1003.99 430.33,-1003.99 426.5,-1000.15 426.5,-996.32 426.5,-996.32 426.5,-988.65 426.5,-988.65 426.5,-984.82 430.33,-980.99 434.17,-980.99 434.17,-980.99 648.83,-980.99 648.83,-980.99 652.67,-980.99 656.5,-984.82 656.5,-988.65 656.5,-988.65 656.5,-996.32 656.5,-996.32 656.5,-1000.15 652.67,-1003.99 648.83,-1003.99"/>
<text text-anchor="middle" x="541.5" y="-988.79" font-family="Arial" font-size="14.00" fill="#c6c5fe">user/user&#45;map&#45;attributes&#45;loader.ts</text>
</g>
<!-- service/user&#45;map&#45;loader.ts&#45;&gt;user/user&#45;map&#45;attributes&#45;loader.ts -->
<g id="edge63" class="edge">
<title>service/user&#45;map&#45;loader.ts&#45;&gt;user/user&#45;map&#45;attributes&#45;loader.ts</title>
<path fill="none" stroke="#757575" d="M255.45,-926.01C281.2,-937.93 323.6,-956.19 362,-966.49 381.37,-971.68 402.21,-975.9 422.58,-979.31"/>
<polygon fill="#757575" stroke="#757575" points="422.1,-982.78 432.54,-980.92 423.22,-975.87 422.1,-982.78"/>
</g>
<!-- service/woirld&#45;map&#45;resolver.ts&#45;&gt;models/location.ts -->
<g id="edge65" class="edge">
<title>service/woirld&#45;map&#45;resolver.ts&#45;&gt;models/location.ts</title>
<path fill="none" stroke="#757575" d="M1419.1,-400.93C1591.97,-387.91 1925.98,-361.65 1950,-351.49 1969.44,-343.26 1967.02,-329.74 1986,-320.49 2064.95,-282.01 2165.52,-266.66 2233.07,-260.54"/>
<polygon fill="#757575" stroke="#757575" points="2233.55,-264.02 2243.21,-259.67 2232.95,-257.04 2233.55,-264.02"/>
</g>
<!-- service/woirld&#45;map&#45;resolver.ts&#45;&gt;service/map&#45;attributes&#45;holder.ts -->
<g id="edge69" class="edge">
<title>service/woirld&#45;map&#45;resolver.ts&#45;&gt;service/map&#45;attributes&#45;holder.ts</title>
<path fill="none" stroke="#757575" d="M1330.76,-396.9C1363.76,-369.9 1451.05,-303.1 1537,-276.49 1903.81,-162.91 2018.95,-188.04 2400,-235.49 2477.34,-245.12 2498.23,-248.1 2570,-278.49 2614.7,-297.41 2661.7,-329.07 2688.99,-348.82"/>
<polygon fill="#757575" stroke="#757575" points="2686.99,-351.69 2697.13,-354.77 2691.13,-346.04 2686.99,-351.69"/>
</g>
<!-- service/woirld&#45;map&#45;resolver.ts&#45;&gt;service/site&#45;adder.ts -->
<g id="edge71" class="edge">
<title>service/woirld&#45;map&#45;resolver.ts&#45;&gt;service/site&#45;adder.ts</title>
<path fill="none" stroke="#757575" d="M1419.19,-412.23C1494.53,-417.98 1595.5,-427.64 1664.43,-435.78"/>
<polygon fill="#757575" stroke="#757575" points="1664.02,-439.26 1674.36,-436.97 1664.85,-432.31 1664.02,-439.26"/>
</g>
<!-- service/woirld&#45;map&#45;resolver.ts&#45;&gt;models/vector.ts -->
<g id="edge68" class="edge">
<title>service/woirld&#45;map&#45;resolver.ts&#45;&gt;models/vector.ts</title>
<path fill="none" stroke="#757575" d="M1419.31,-404.32C1612.83,-398.53 2044.92,-395.51 2400,-464.49 2501.04,-484.11 2615.45,-524.99 2673.79,-547.24"/>
<polygon fill="#757575" stroke="#757575" points="2672.75,-550.59 2683.34,-550.91 2675.26,-544.06 2672.75,-550.59"/>
</g>
<!-- service/woirld&#45;map&#45;resolver.ts&#45;&gt;models/tile&#45;pixel.ts -->
<g id="edge67" class="edge">
<title>service/woirld&#45;map&#45;resolver.ts&#45;&gt;models/tile&#45;pixel.ts</title>
<path fill="none" stroke="#757575" d="M1335.48,-396.88C1372.18,-374.6 1457.56,-326.54 1537,-309.49 1875.45,-236.84 2294.96,-318.26 2445.2,-352.64"/>
<polygon fill="#757575" stroke="#757575" points="2444.59,-356.09 2455.12,-354.93 2446.17,-349.27 2444.59,-356.09"/>
</g>
<!-- models/map&#45;cache.ts -->
<g id="node22" class="node">
<title>models/map&#45;cache.ts</title>
<path fill="none" stroke="#cfffac" d="M1812.33,-341.99C1812.33,-341.99 1674.67,-341.99 1674.67,-341.99 1670.83,-341.99 1667,-338.15 1667,-334.32 1667,-334.32 1667,-326.65 1667,-326.65 1667,-322.82 1670.83,-318.99 1674.67,-318.99 1674.67,-318.99 1812.33,-318.99 1812.33,-318.99 1816.17,-318.99 1820,-322.82 1820,-326.65 1820,-326.65 1820,-334.32 1820,-334.32 1820,-338.15 1816.17,-341.99 1812.33,-341.99"/>
<text text-anchor="middle" x="1743.5" y="-326.79" font-family="Arial" font-size="14.00" fill="#cfffac">models/map&#45;cache.ts</text>
</g>
<!-- service/woirld&#45;map&#45;resolver.ts&#45;&gt;models/map&#45;cache.ts -->
<g id="edge66" class="edge">
<title>service/woirld&#45;map&#45;resolver.ts&#45;&gt;models/map&#45;cache.ts</title>
<path fill="none" stroke="#757575" d="M1359.72,-396.97C1403.84,-385.4 1474.82,-367.74 1537,-356.49 1575.98,-349.44 1619.46,-343.64 1656.35,-339.32"/>
<polygon fill="#757575" stroke="#757575" points="1657.03,-342.77 1666.57,-338.15 1656.23,-335.81 1657.03,-342.77"/>
</g>
<!-- service/woirld&#45;map&#45;resolver.ts&#45;&gt;service/map.d.ts -->
<g id="edge70" class="edge">
<title>service/woirld&#45;map&#45;resolver.ts&#45;&gt;service/map.d.ts</title>
<path fill="none" stroke="#757575" d="M1349.42,-420.09C1471.52,-463.76 1903.58,-618.31 2040.83,-667.4"/>
<polygon fill="#757575" stroke="#757575" points="2039.97,-670.81 2050.57,-670.89 2042.33,-664.22 2039.97,-670.81"/>
</g>
<!-- user/friendship.ts -->
<g id="node32" class="node">
<title>user/friendship.ts</title>
<path fill="none" stroke="#ff6c60" d="M980.83,-803.99C980.83,-803.99 871.17,-803.99 871.17,-803.99 867.33,-803.99 863.5,-800.15 863.5,-796.32 863.5,-796.32 863.5,-788.65 863.5,-788.65 863.5,-784.82 867.33,-780.99 871.17,-780.99 871.17,-780.99 980.83,-780.99 980.83,-780.99 984.67,-780.99 988.5,-784.82 988.5,-788.65 988.5,-788.65 988.5,-796.32 988.5,-796.32 988.5,-800.15 984.67,-803.99 980.83,-803.99"/>
<text text-anchor="middle" x="926" y="-788.79" font-family="Arial" font-size="14.00" fill="#ff6c60">user/friendship.ts</text>
</g>
<!-- user/user.ts&#45;&gt;user/friendship.ts -->
<g id="edge76" class="edge">
<title>user/user.ts&#45;&gt;user/friendship.ts</title>
<path fill="none" stroke="#757575" d="M587.13,-787.96C652.48,-785.33 774.91,-785.03 853.07,-787.08"/>
<polygon fill="#757575" stroke="#757575" points="853.22,-790.58 863.32,-787.37 853.42,-783.58 853.22,-790.58"/>
</g>
<!-- user/inventory/inventory&#45;item.ts -->
<g id="node34" class="node">
<title>user/inventory/inventory&#45;item.ts</title>
<path fill="none" stroke="#c6c5fe" d="M1023.83,-885.99C1023.83,-885.99 828.17,-885.99 828.17,-885.99 824.33,-885.99 820.5,-882.15 820.5,-878.32 820.5,-878.32 820.5,-870.65 820.5,-870.65 820.5,-866.82 824.33,-862.99 828.17,-862.99 828.17,-862.99 1023.83,-862.99 1023.83,-862.99 1027.67,-862.99 1031.5,-866.82 1031.5,-870.65 1031.5,-870.65 1031.5,-878.32 1031.5,-878.32 1031.5,-882.15 1027.67,-885.99 1023.83,-885.99"/>
<text text-anchor="middle" x="926" y="-870.79" font-family="Arial" font-size="14.00" fill="#c6c5fe">user/inventory/inventory&#45;item.ts</text>
</g>
<!-- user/user.ts&#45;&gt;user/inventory/inventory&#45;item.ts -->
<g id="edge77" class="edge">
<title>user/user.ts&#45;&gt;user/inventory/inventory&#45;item.ts</title>
<path fill="none" stroke="#757575" d="M576.25,-804.1C618.15,-818.08 692.03,-841.32 757,-854.49 773.97,-857.93 792.02,-860.84 809.77,-863.29"/>
<polygon fill="#757575" stroke="#757575" points="809.8,-866.83 820.17,-864.68 810.73,-859.89 809.8,-866.83"/>
</g>
<!-- user/user&#45;attribute.ts -->
<g id="node36" class="node">
<title>user/user&#45;attribute.ts</title>
<path fill="none" stroke="#cfffac" d="M991.33,-844.99C991.33,-844.99 860.67,-844.99 860.67,-844.99 856.83,-844.99 853,-841.15 853,-837.32 853,-837.32 853,-829.65 853,-829.65 853,-825.82 856.83,-821.99 860.67,-821.99 860.67,-821.99 991.33,-821.99 991.33,-821.99 995.17,-821.99 999,-825.82 999,-829.65 999,-829.65 999,-837.32 999,-837.32 999,-841.15 995.17,-844.99 991.33,-844.99"/>
<text text-anchor="middle" x="926" y="-829.79" font-family="Arial" font-size="14.00" fill="#cfffac">user/user&#45;attribute.ts</text>
</g>
<!-- user/user.ts&#45;&gt;user/user&#45;attribute.ts -->
<g id="edge78" class="edge">
<title>user/user.ts&#45;&gt;user/user&#45;attribute.ts</title>
<path fill="none" stroke="#757575" d="M587.13,-797.27C649.65,-803.97 764.42,-816.27 842.68,-824.66"/>
<polygon fill="#757575" stroke="#757575" points="842.67,-828.18 852.99,-825.77 843.42,-821.22 842.67,-828.18"/>
</g>
<!-- models/bounding&#45;box.ts&#45;&gt;models/vector.ts -->
<g id="edge16" class="edge">
<title>models/bounding&#45;box.ts&#45;&gt;models/vector.ts</title>
<path fill="none" stroke="#757575" d="M2393.6,-684.22C2445.7,-682.87 2513.36,-676.61 2570,-656.49 2617.88,-639.48 2665.54,-603.09 2691.8,-580.91"/>
<polygon fill="#757575" stroke="#757575" points="2694.25,-583.42 2699.55,-574.25 2689.68,-578.11 2694.25,-583.42"/>
</g>
<!-- models/tile&#45;pixel.ts&#45;&gt;service/map&#45;attributes&#45;holder.ts -->
<g id="edge25" class="edge">
<title>models/tile&#45;pixel.ts&#45;&gt;service/map&#45;attributes&#45;holder.ts</title>
<path fill="none" stroke="#757575" d="M2570.26,-366.49C2578.4,-366.49 2586.9,-366.49 2595.52,-366.49"/>
<polygon fill="#757575" stroke="#757575" points="2595.67,-369.99 2605.67,-366.49 2595.67,-362.99 2595.67,-369.99"/>
</g>
<!-- models/tile&#45;pixel.ts&#45;&gt;models/vector.ts -->
<g id="edge24" class="edge">
<title>models/tile&#45;pixel.ts&#45;&gt;models/vector.ts</title>
<path fill="none" stroke="#757575" d="M2516.42,-378.16C2551.26,-410.91 2650.14,-503.86 2692.66,-543.84"/>
<polygon fill="#757575" stroke="#757575" points="2690.46,-546.58 2700.15,-550.87 2695.26,-541.48 2690.46,-546.58"/>
</g>
<!-- models/site&#45;tile&#45;position.ts&#45;&gt;models/tile&#45;pixel.ts -->
<g id="edge20" class="edge">
<title>models/site&#45;tile&#45;position.ts&#45;&gt;models/tile&#45;pixel.ts</title>
<path fill="none" stroke="#757575" d="M2328.76,-472.96C2362.81,-452.03 2434.93,-407.71 2474.53,-383.37"/>
<polygon fill="#757575" stroke="#757575" points="2476.48,-386.28 2483.16,-378.06 2472.81,-380.32 2476.48,-386.28"/>
</g>
<!-- service/generic&#45;map&#45;factory/game&#45;map&#45;map&#45;factory.ts&#45;&gt;models/vector.ts -->
<g id="edge30" class="edge">
<title>service/generic&#45;map&#45;factory/game&#45;map&#45;map&#45;factory.ts&#45;&gt;models/vector.ts</title>
<path fill="none" stroke="#757575" d="M698.29,-686.08C706.13,-688.74 713.75,-691.85 721,-695.49 741.8,-705.91 736.19,-723.08 757,-733.49 892.25,-801.11 951.03,-726.21 1095,-772.49 1112.43,-778.09 1113.61,-786.78 1131,-792.49 1232.32,-825.76 1976.36,-914.49 2083,-914.49 2083,-914.49 2083,-914.49 2310,-914.49 2512.56,-914.49 2662.23,-658.76 2702.02,-583.24"/>
<polygon fill="#757575" stroke="#757575" points="2705.21,-584.69 2706.7,-574.2 2698.99,-581.47 2705.21,-584.69"/>
</g>
<!-- service/generic&#45;map&#45;factory/generic&#45;map&#45;factory.ts -->
<g id="node26" class="node">
<title>service/generic&#45;map&#45;factory/generic&#45;map&#45;factory.ts</title>
<path fill="none" stroke="#c6c5fe" d="M1087.33,-723.99C1087.33,-723.99 764.67,-723.99 764.67,-723.99 760.83,-723.99 757,-720.15 757,-716.32 757,-716.32 757,-708.65 757,-708.65 757,-704.82 760.83,-700.99 764.67,-700.99 764.67,-700.99 1087.33,-700.99 1087.33,-700.99 1091.17,-700.99 1095,-704.82 1095,-708.65 1095,-708.65 1095,-716.32 1095,-716.32 1095,-720.15 1091.17,-723.99 1087.33,-723.99"/>
<text text-anchor="middle" x="926" y="-708.79" font-family="Arial" font-size="14.00" fill="#c6c5fe">service/generic&#45;map&#45;factory/generic&#45;map&#45;factory.ts</text>
</g>
<!-- service/generic&#45;map&#45;factory/game&#45;map&#45;map&#45;factory.ts&#45;&gt;service/generic&#45;map&#45;factory/generic&#45;map&#45;factory.ts -->
<g id="edge31" class="edge">
<title>service/generic&#45;map&#45;factory/game&#45;map&#45;map&#45;factory.ts&#45;&gt;service/generic&#45;map&#45;factory/generic&#45;map&#45;factory.ts</title>
<path fill="none" stroke="#757575" d="M658.3,-685.99C702.66,-690.4 753.47,-695.45 798.76,-699.95"/>
<polygon fill="#757575" stroke="#757575" points="798.64,-703.45 808.93,-700.96 799.33,-696.49 798.64,-703.45"/>
</g>
<!-- service/generic&#45;map&#45;factory/game&#45;map&#45;map&#45;factory.ts&#45;&gt;service/generic&#45;map&#45;factory/layer&#45;factory/layer&#45;factory.ts -->
<g id="edge32" class="edge">
<title>service/generic&#45;map&#45;factory/game&#45;map&#45;map&#45;factory.ts&#45;&gt;service/generic&#45;map&#45;factory/layer&#45;factory/layer&#45;factory.ts</title>
<path fill="none" stroke="#757575" d="M721.18,-674.02C840.71,-673.72 997.96,-673.31 1120.61,-672.99"/>
<polygon fill="#757575" stroke="#757575" points="1120.88,-676.49 1130.88,-672.96 1120.87,-669.49 1120.88,-676.49"/>
</g>
<!-- service/generic&#45;map&#45;factory/generic&#45;map&#45;factory.ts&#45;&gt;service/woirld&#45;map&#45;resolver.ts -->
<g id="edge37" class="edge">
<title>service/generic&#45;map&#45;factory/generic&#45;map&#45;factory.ts&#45;&gt;service/woirld&#45;map&#45;resolver.ts</title>
<path fill="none" stroke="#757575" d="M941.74,-700.94C1000.8,-654.67 1220.62,-482.43 1292.27,-426.3"/>
<polygon fill="#757575" stroke="#757575" points="1294.54,-428.97 1300.25,-420.04 1290.22,-423.46 1294.54,-428.97"/>
</g>
<!-- service/generic&#45;map&#45;factory/generic&#45;map&#45;factory.ts&#45;&gt;models/vector.ts -->
<g id="edge33" class="edge">
<title>service/generic&#45;map&#45;factory/generic&#45;map&#45;factory.ts&#45;&gt;models/vector.ts</title>
<path fill="none" stroke="#757575" d="M1036.25,-724C1056.08,-727.6 1076.37,-732.32 1095,-738.49 1112.18,-744.17 1113.58,-752.62 1131,-757.49 1402.62,-833.34 2124.53,-804.9 2400,-744.49 2478.56,-727.26 2500.4,-722.78 2570,-682.49 2619.46,-653.85 2668.54,-607.57 2694.2,-581.65"/>
<polygon fill="#757575" stroke="#757575" points="2696.89,-583.9 2701.38,-574.3 2691.89,-579 2696.89,-583.9"/>
</g>
<!-- service/generic&#45;map&#45;factory/generic&#45;map&#45;factory.ts&#45;&gt;service/generic&#45;map&#45;factory/layer&#45;factory/layer&#45;factory.ts -->
<g id="edge35" class="edge">
<title>service/generic&#45;map&#45;factory/generic&#45;map&#45;factory.ts&#45;&gt;service/generic&#45;map&#45;factory/layer&#45;factory/layer&#45;factory.ts</title>
<path fill="none" stroke="#757575" d="M1038.71,-700.97C1087.09,-695.98 1143.85,-690.13 1193.3,-685.03"/>
<polygon fill="#757575" stroke="#757575" points="1193.82,-688.5 1203.41,-683.99 1193.11,-681.54 1193.82,-688.5"/>
</g>
<!-- service/generic&#45;map&#45;factory/generic&#45;map&#45;validator.ts -->
<g id="node28" class="node">
<title>service/generic&#45;map&#45;factory/generic&#45;map&#45;validator.ts</title>
<path fill="none" stroke="#c6c5fe" d="M1909.83,-771.99C1909.83,-771.99 1577.17,-771.99 1577.17,-771.99 1573.33,-771.99 1569.5,-768.15 1569.5,-764.32 1569.5,-764.32 1569.5,-756.65 1569.5,-756.65 1569.5,-752.82 1573.33,-748.99 1577.17,-748.99 1577.17,-748.99 1909.83,-748.99 1909.83,-748.99 1913.67,-748.99 1917.5,-752.82 1917.5,-756.65 1917.5,-756.65 1917.5,-764.32 1917.5,-764.32 1917.5,-768.15 1913.67,-771.99 1909.83,-771.99"/>
<text text-anchor="middle" x="1743.5" y="-756.79" font-family="Arial" font-size="14.00" fill="#c6c5fe">service/generic&#45;map&#45;factory/generic&#45;map&#45;validator.ts</text>
</g>
<!-- service/generic&#45;map&#45;factory/generic&#45;map&#45;factory.ts&#45;&gt;service/generic&#45;map&#45;factory/generic&#45;map&#45;validator.ts -->
<g id="edge34" class="edge">
<title>service/generic&#45;map&#45;factory/generic&#45;map&#45;factory.ts&#45;&gt;service/generic&#45;map&#45;factory/generic&#45;map&#45;validator.ts</title>
<path fill="none" stroke="#757575" d="M1021.85,-724.01C1056.19,-727.84 1095.3,-731.81 1131,-734.49 1274.64,-745.28 1437.63,-751.93 1559.2,-755.8"/>
<polygon fill="#757575" stroke="#757575" points="1559.24,-759.3 1569.35,-756.12 1559.47,-752.31 1559.24,-759.3"/>
</g>
<!-- service/generic&#45;map&#45;factory/generic&#45;map&#45;factory.ts&#45;&gt;service/map.d.ts -->
<g id="edge36" class="edge">
<title>service/generic&#45;map&#45;factory/generic&#45;map&#45;factory.ts&#45;&gt;service/map.d.ts</title>
<path fill="none" stroke="#757575" d="M1095.2,-717.42C1298.15,-721.82 1649.6,-724.46 1950,-701.49 1970.59,-699.91 1992.85,-697.15 2013.16,-694.22"/>
<polygon fill="#757575" stroke="#757575" points="2013.89,-697.65 2023.27,-692.72 2012.86,-690.73 2013.89,-697.65"/>
</g>
<!-- service/generic&#45;map&#45;factory/layer&#45;factory/layer&#45;factory.ts&#45;&gt;models/vector.ts -->
<g id="edge39" class="edge">
<title>service/generic&#45;map&#45;factory/layer&#45;factory/layer&#45;factory.ts&#45;&gt;models/vector.ts</title>
<path fill="none" stroke="#757575" d="M1407.57,-660.96C1447.23,-656.34 1494.36,-651.43 1537,-648.49 1919.81,-622.1 2018.64,-665.94 2400,-623.49 2490.42,-613.42 2593.75,-591.08 2656.01,-576.42"/>
<polygon fill="#757575" stroke="#757575" points="2657.09,-579.76 2666.01,-574.04 2655.48,-572.94 2657.09,-579.76"/>
</g>
<!-- service/generic&#45;map&#45;factory/layer&#45;factory/layer&#45;factory.ts&#45;&gt;service/map.d.ts -->
<g id="edge41" class="edge">
<title>service/generic&#45;map&#45;factory/layer&#45;factory/layer&#45;factory.ts&#45;&gt;service/map.d.ts</title>
<path fill="none" stroke="#757575" d="M1469.8,-660.98C1598.17,-653.38 1786.36,-647.05 1950,-660.49 1971.55,-662.26 1994.87,-665.62 2015.87,-669.18"/>
<polygon fill="#757575" stroke="#757575" points="2015.52,-672.68 2025.97,-670.95 2016.72,-665.78 2015.52,-672.68"/>
</g>
<!-- service/generic&#45;map&#45;factory/layer&#45;factory/object&#45;layer&#45;factory.ts -->
<g id="node30" class="node">
<title>service/generic&#45;map&#45;factory/layer&#45;factory/object&#45;layer&#45;factory.ts</title>
<path fill="none" stroke="#ff6c60" d="M1942.33,-691.99C1942.33,-691.99 1544.67,-691.99 1544.67,-691.99 1540.83,-691.99 1537,-688.15 1537,-684.32 1537,-684.32 1537,-676.65 1537,-676.65 1537,-672.82 1540.83,-668.99 1544.67,-668.99 1544.67,-668.99 1942.33,-668.99 1942.33,-668.99 1946.17,-668.99 1950,-672.82 1950,-676.65 1950,-676.65 1950,-684.32 1950,-684.32 1950,-688.15 1946.17,-691.99 1942.33,-691.99"/>
<text text-anchor="middle" x="1743.5" y="-676.79" font-family="Arial" font-size="14.00" fill="#ff6c60">service/generic&#45;map&#45;factory/layer&#45;factory/object&#45;layer&#45;factory.ts</text>
</g>
<!-- service/generic&#45;map&#45;factory/layer&#45;factory/layer&#45;factory.ts&#45;&gt;service/generic&#45;map&#45;factory/layer&#45;factory/object&#45;layer&#45;factory.ts -->
<g id="edge40" class="edge">
<title>service/generic&#45;map&#45;factory/layer&#45;factory/layer&#45;factory.ts&#45;&gt;service/generic&#45;map&#45;factory/layer&#45;factory/object&#45;layer&#45;factory.ts</title>
<path fill="none" stroke="#757575" d="M1501.16,-669.25C1509.63,-669.38 1518.17,-669.52 1526.71,-669.68"/>
<polygon fill="#757575" stroke="#757575" points="1526.68,-673.18 1536.74,-669.87 1526.81,-666.18 1526.68,-673.18"/>
</g>
<!-- service/generic&#45;map&#45;factory/generic&#45;map&#45;validator.ts&#45;&gt;service/map.d.ts -->
<g id="edge38" class="edge">
<title>service/generic&#45;map&#45;factory/generic&#45;map&#45;validator.ts&#45;&gt;service/map.d.ts</title>
<path fill="none" stroke="#757575" d="M1907.37,-748.95C1922.1,-745.22 1936.53,-740.48 1950,-734.49 1969.29,-725.91 1967.1,-712.9 1986,-703.49 1994.59,-699.21 2004.02,-695.8 2013.54,-693.09"/>
<polygon fill="#757575" stroke="#757575" points="2014.66,-696.41 2023.45,-690.5 2012.89,-689.64 2014.66,-696.41"/>
</g>
<!-- service/generic&#45;map&#45;factory/layer&#45;factory/object&#45;layer&#45;factory.ts&#45;&gt;service/generic&#45;map&#45;factory/layer&#45;factory/layer&#45;factory.ts -->
<g id="edge42" class="edge">
<title>service/generic&#45;map&#45;factory/layer&#45;factory/object&#45;layer&#45;factory.ts&#45;&gt;service/generic&#45;map&#45;factory/layer&#45;factory/layer&#45;factory.ts</title>
<path fill="none" stroke="#757575" d="M1536.74,-683.37C1528.29,-683.21 1519.83,-683.05 1511.41,-682.87"/>
<polygon fill="#757575" stroke="#757575" points="1511.23,-679.37 1501.16,-682.65 1511.08,-686.36 1511.23,-679.37"/>
</g>
<!-- service/generic&#45;map&#45;factory/layer&#45;factory/object&#45;layer&#45;factory.ts&#45;&gt;service/map.d.ts -->
<g id="edge43" class="edge">
<title>service/generic&#45;map&#45;factory/layer&#45;factory/object&#45;layer&#45;factory.ts&#45;&gt;service/map.d.ts</title>
<path fill="none" stroke="#757575" d="M1950.19,-681.7C1972.61,-681.84 1994.15,-681.96 2013.1,-682.07"/>
<polygon fill="#757575" stroke="#757575" points="2013.34,-685.58 2023.36,-682.14 2013.38,-678.58 2013.34,-685.58"/>
</g>
<!-- user/user&#45;map&#45;attributes.ts -->
<g id="node37" class="node">
<title>user/user&#45;map&#45;attributes.ts</title>
<path fill="none" stroke="#c6c5fe" d="M1010.83,-1003.99C1010.83,-1003.99 841.17,-1003.99 841.17,-1003.99 837.33,-1003.99 833.5,-1000.15 833.5,-996.32 833.5,-996.32 833.5,-988.65 833.5,-988.65 833.5,-984.82 837.33,-980.99 841.17,-980.99 841.17,-980.99 1010.83,-980.99 1010.83,-980.99 1014.67,-980.99 1018.5,-984.82 1018.5,-988.65 1018.5,-988.65 1018.5,-996.32 1018.5,-996.32 1018.5,-1000.15 1014.67,-1003.99 1010.83,-1003.99"/>
<text text-anchor="middle" x="926" y="-988.79" font-family="Arial" font-size="14.00" fill="#c6c5fe">user/user&#45;map&#45;attributes.ts</text>
</g>
<!-- user/user&#45;map&#45;attributes&#45;loader.ts&#45;&gt;user/user&#45;map&#45;attributes.ts -->
<g id="edge74" class="edge">
<title>user/user&#45;map&#45;attributes&#45;loader.ts&#45;&gt;user/user&#45;map&#45;attributes.ts</title>
<path fill="none" stroke="#757575" d="M656.74,-992.49C709.68,-992.49 772.07,-992.49 823.35,-992.49"/>
<polygon fill="#757575" stroke="#757575" points="823.45,-995.99 833.45,-992.49 823.45,-988.99 823.45,-995.99"/>
</g>
<!-- user/friendship.ts&#45;&gt;user/user.ts -->
<g id="edge72" class="edge">
<title>user/friendship.ts&#45;&gt;user/user.ts</title>
<path fill="none" stroke="#757575" d="M863.32,-797.61C789.64,-799.85 667.54,-799.78 597.13,-797.38"/>
<polygon fill="#757575" stroke="#757575" points="597.25,-793.88 587.13,-797.01 596.99,-800.88 597.25,-793.88"/>
</g>
<!-- user/inventory/inventory&#45;item&#45;type.ts -->
<g id="node33" class="node">
<title>user/inventory/inventory&#45;item&#45;type.ts</title>
<path fill="none" stroke="#cfffac" d="M1429.33,-885.99C1429.33,-885.99 1202.67,-885.99 1202.67,-885.99 1198.83,-885.99 1195,-882.15 1195,-878.32 1195,-878.32 1195,-870.65 1195,-870.65 1195,-866.82 1198.83,-862.99 1202.67,-862.99 1202.67,-862.99 1429.33,-862.99 1429.33,-862.99 1433.17,-862.99 1437,-866.82 1437,-870.65 1437,-870.65 1437,-878.32 1437,-878.32 1437,-882.15 1433.17,-885.99 1429.33,-885.99"/>
<text text-anchor="middle" x="1316" y="-870.79" font-family="Arial" font-size="14.00" fill="#cfffac">user/inventory/inventory&#45;item&#45;type.ts</text>
</g>
<!-- user/inventory/inventory&#45;item.ts&#45;&gt;user/inventory/inventory&#45;item&#45;type.ts -->
<g id="edge73" class="edge">
<title>user/inventory/inventory&#45;item.ts&#45;&gt;user/inventory/inventory&#45;item&#45;type.ts</title>
<path fill="none" stroke="#757575" d="M1031.74,-874.49C1078.78,-874.49 1134.76,-874.49 1184.49,-874.49"/>
<polygon fill="#757575" stroke="#757575" points="1184.68,-877.99 1194.68,-874.49 1184.68,-870.99 1184.68,-877.99"/>
</g>
<!-- user/private&#45;map&#45;override.ts -->
<g id="node35" class="node">
<title>user/private&#45;map&#45;override.ts</title>
<path fill="none" stroke="#cfffac" d="M1405.33,-1003.99C1405.33,-1003.99 1226.67,-1003.99 1226.67,-1003.99 1222.83,-1003.99 1219,-1000.15 1219,-996.32 1219,-996.32 1219,-988.65 1219,-988.65 1219,-984.82 1222.83,-980.99 1226.67,-980.99 1226.67,-980.99 1405.33,-980.99 1405.33,-980.99 1409.17,-980.99 1413,-984.82 1413,-988.65 1413,-988.65 1413,-996.32 1413,-996.32 1413,-1000.15 1409.17,-1003.99 1405.33,-1003.99"/>
<text text-anchor="middle" x="1316" y="-988.79" font-family="Arial" font-size="14.00" fill="#cfffac">user/private&#45;map&#45;override.ts</text>
</g>
<!-- user/user&#45;map&#45;attributes.ts&#45;&gt;user/private&#45;map&#45;override.ts -->
<g id="edge75" class="edge">
<title>user/user&#45;map&#45;attributes.ts&#45;&gt;user/private&#45;map&#45;override.ts</title>
<path fill="none" stroke="#757575" d="M1018.95,-992.49C1075.94,-992.49 1149.34,-992.49 1208.8,-992.49"/>
<polygon fill="#757575" stroke="#757575" points="1208.98,-995.99 1218.98,-992.49 1208.98,-988.99 1208.98,-995.99"/>
</g>
</g>
</svg>
