<?xml version="1.0" encoding="UTF-8" standalone="no"?>
<!DOCTYPE svg PUBLIC "-//W3C//DTD SVG 1.1//EN"
 "http://www.w3.org/Graphics/SVG/1.1/DTD/svg11.dtd">
<!-- Generated by graphviz version 2.47.2 (20210527.0053)
 -->
<!-- Title: G Pages: 1 -->
<svg width="2864pt" height="1091pt"
 viewBox="0.00 0.00 2864.20 1090.68" xmlns="http://www.w3.org/2000/svg" xmlns:xlink="http://www.w3.org/1999/xlink">
<g id="graph0" class="graph" transform="scale(1 1) rotate(0) translate(21.6 1069.08)">
<title>G</title>
<polygon fill="#111111" stroke="transparent" points="-21.6,21.6 -21.6,-1069.08 2842.6,-1069.08 2842.6,21.6 -21.6,21.6"/>
<!-- ../../../jonny&#45;maps/scripts/index.d.ts -->
<g id="node1" class="node">
<title>../../../jonny&#45;maps/scripts/index.d.ts</title>
<path fill="none" stroke="#cfffac" d="M650.33,-626.48C650.33,-626.48 432.67,-626.48 432.67,-626.48 428.83,-626.48 425,-622.65 425,-618.81 425,-618.81 425,-611.15 425,-611.15 425,-607.31 428.83,-603.48 432.67,-603.48 432.67,-603.48 650.33,-603.48 650.33,-603.48 654.17,-603.48 658,-607.31 658,-611.15 658,-611.15 658,-618.81 658,-618.81 658,-622.65 654.17,-626.48 650.33,-626.48"/>
<text text-anchor="middle" x="541.5" y="-611.28" font-family="Arial" font-size="14.00" fill="#cfffac">../../../jonny&#45;maps/scripts/index.d.ts</text>
</g>
<!-- ../../public/users.d.ts -->
<g id="node2" class="node">
<title>../../public/users.d.ts</title>
<path fill="none" stroke="#cfffac" d="M605.33,-761.48C605.33,-761.48 477.67,-761.48 477.67,-761.48 473.83,-761.48 470,-757.65 470,-753.81 470,-753.81 470,-746.15 470,-746.15 470,-742.31 473.83,-738.48 477.67,-738.48 477.67,-738.48 605.33,-738.48 605.33,-738.48 609.17,-738.48 613,-742.31 613,-746.15 613,-746.15 613,-753.81 613,-753.81 613,-757.65 609.17,-761.48 605.33,-761.48"/>
<text text-anchor="middle" x="541.5" y="-746.28" font-family="Arial" font-size="14.00" fill="#cfffac">../../public/users.d.ts</text>
</g>
<!-- ../../util/memory&#45;cache.ts -->
<g id="node3" class="node">
<title>../../util/memory&#45;cache.ts</title>
<path fill="none" stroke="#cfffac" d="M307.83,-1047.48C307.83,-1047.48 153.17,-1047.48 153.17,-1047.48 149.33,-1047.48 145.5,-1043.65 145.5,-1039.81 145.5,-1039.81 145.5,-1032.15 145.5,-1032.15 145.5,-1028.31 149.33,-1024.48 153.17,-1024.48 153.17,-1024.48 307.83,-1024.48 307.83,-1024.48 311.67,-1024.48 315.5,-1028.31 315.5,-1032.15 315.5,-1032.15 315.5,-1039.81 315.5,-1039.81 315.5,-1043.65 311.67,-1047.48 307.83,-1047.48"/>
<text text-anchor="middle" x="230.5" y="-1032.28" font-family="Arial" font-size="14.00" fill="#cfffac">../../util/memory&#45;cache.ts</text>
</g>
<!-- api.proxy.ts -->
<g id="node4" class="node">
<title>api.proxy.ts</title>
<path fill="none" stroke="#c6c5fe" d="M86.33,-839.48C86.33,-839.48 12.67,-839.48 12.67,-839.48 8.83,-839.48 5,-835.65 5,-831.81 5,-831.81 5,-824.15 5,-824.15 5,-820.31 8.83,-816.48 12.67,-816.48 12.67,-816.48 86.33,-816.48 86.33,-816.48 90.17,-816.48 94,-820.31 94,-824.15 94,-824.15 94,-831.81 94,-831.81 94,-835.65 90.17,-839.48 86.33,-839.48"/>
<text text-anchor="middle" x="49.5" y="-824.28" font-family="Arial" font-size="14.00" fill="#c6c5fe">api.proxy.ts</text>
</g>
<!-- api.proxy.ts&#45;&gt;../../public/users.d.ts -->
<g id="edge1" class="edge">
<title>api.proxy.ts&#45;&gt;../../public/users.d.ts</title>
<path fill="none" stroke="#757575" d="M94.2,-816.84C107.27,-813.73 121.67,-810.5 135,-807.98 247.02,-786.76 377.76,-769.37 459.84,-759.34"/>
<polygon fill="#757575" stroke="#757575" points="460.35,-762.8 469.86,-758.12 459.51,-755.85 460.35,-762.8"/>
</g>
<!-- api.proxy.ts&#45;&gt;../../util/memory&#45;cache.ts -->
<g id="edge2" class="edge">
<title>api.proxy.ts&#45;&gt;../../util/memory&#45;cache.ts</title>
<path fill="none" stroke="#757575" d="M52.46,-839.84C58.47,-872.28 79.69,-963.17 135,-1009.98 139.77,-1014.02 145.12,-1017.43 150.79,-1020.32"/>
<polygon fill="#757575" stroke="#757575" points="149.35,-1023.51 159.91,-1024.44 152.23,-1017.13 149.35,-1023.51"/>
</g>
<!-- message&#45;communication.ts -->
<g id="node5" class="node">
<title>message&#45;communication.ts</title>
<path fill="none" stroke="#c6c5fe" d="M318.33,-839.48C318.33,-839.48 142.67,-839.48 142.67,-839.48 138.83,-839.48 135,-835.65 135,-831.81 135,-831.81 135,-824.15 135,-824.15 135,-820.31 138.83,-816.48 142.67,-816.48 142.67,-816.48 318.33,-816.48 318.33,-816.48 322.17,-816.48 326,-820.31 326,-824.15 326,-824.15 326,-831.81 326,-831.81 326,-835.65 322.17,-839.48 318.33,-839.48"/>
<text text-anchor="middle" x="230.5" y="-824.28" font-family="Arial" font-size="14.00" fill="#c6c5fe">message&#45;communication.ts</text>
</g>
<!-- api.proxy.ts&#45;&gt;message&#45;communication.ts -->
<g id="edge3" class="edge">
<title>api.proxy.ts&#45;&gt;message&#45;communication.ts</title>
<path fill="none" stroke="#757575" d="M94.29,-827.98C103.7,-827.98 114.03,-827.98 124.67,-827.98"/>
<polygon fill="#757575" stroke="#757575" points="124.93,-831.48 134.93,-827.98 124.93,-824.48 124.93,-831.48"/>
</g>
<!-- user/user.ts -->
<g id="node17" class="node">
<title>user/user.ts</title>
<path fill="none" stroke="#ff6c60" d="M579.33,-809.48C579.33,-809.48 503.67,-809.48 503.67,-809.48 499.83,-809.48 496,-805.65 496,-801.81 496,-801.81 496,-794.15 496,-794.15 496,-790.31 499.83,-786.48 503.67,-786.48 503.67,-786.48 579.33,-786.48 579.33,-786.48 583.17,-786.48 587,-790.31 587,-794.15 587,-794.15 587,-801.81 587,-801.81 587,-805.65 583.17,-809.48 579.33,-809.48"/>
<text text-anchor="middle" x="541.5" y="-794.28" font-family="Arial" font-size="14.00" fill="#ff6c60">user/user.ts</text>
</g>
<!-- message&#45;communication.ts&#45;&gt;user/user.ts -->
<g id="edge15" class="edge">
<title>message&#45;communication.ts&#45;&gt;user/user.ts</title>
<path fill="none" stroke="#757575" d="M326.31,-818.77C378.54,-813.7 441.52,-807.59 485.62,-803.31"/>
<polygon fill="#757575" stroke="#757575" points="486.23,-806.76 495.85,-802.31 485.56,-799.8 486.23,-806.76"/>
</g>
<!-- mapserver.ts -->
<g id="node6" class="node">
<title>mapserver.ts</title>
<path fill="none" stroke="#c6c5fe" d="M91.33,-539.48C91.33,-539.48 7.67,-539.48 7.67,-539.48 3.83,-539.48 0,-535.65 0,-531.81 0,-531.81 0,-524.15 0,-524.15 0,-520.31 3.83,-516.48 7.67,-516.48 7.67,-516.48 91.33,-516.48 91.33,-516.48 95.17,-516.48 99,-520.31 99,-524.15 99,-524.15 99,-531.81 99,-531.81 99,-535.65 95.17,-539.48 91.33,-539.48"/>
<text text-anchor="middle" x="49.5" y="-524.28" font-family="Arial" font-size="14.00" fill="#c6c5fe">mapserver.ts</text>
</g>
<!-- models/location.ts -->
<g id="node7" class="node">
<title>models/location.ts</title>
<path fill="none" stroke="#c6c5fe" d="M2366.83,-374.48C2366.83,-374.48 2251.17,-374.48 2251.17,-374.48 2247.33,-374.48 2243.5,-370.65 2243.5,-366.81 2243.5,-366.81 2243.5,-359.15 2243.5,-359.15 2243.5,-355.31 2247.33,-351.48 2251.17,-351.48 2251.17,-351.48 2366.83,-351.48 2366.83,-351.48 2370.67,-351.48 2374.5,-355.31 2374.5,-359.15 2374.5,-359.15 2374.5,-366.81 2374.5,-366.81 2374.5,-370.65 2370.67,-374.48 2366.83,-374.48"/>
<text text-anchor="middle" x="2309" y="-359.28" font-family="Arial" font-size="14.00" fill="#c6c5fe">models/location.ts</text>
</g>
<!-- mapserver.ts&#45;&gt;models/location.ts -->
<g id="edge4" class="edge">
<title>mapserver.ts&#45;&gt;models/location.ts</title>
<path fill="none" stroke="#757575" d="M50.84,-516.3C52.99,-452.54 66.76,-147.29 135,-90.98 474.63,189.27 1978.62,-260.29 2261.9,-348.43"/>
<polygon fill="#757575" stroke="#757575" points="2260.87,-351.78 2271.46,-351.41 2262.95,-345.1 2260.87,-351.78"/>
</g>
<!-- models/site.ts -->
<g id="node8" class="node">
<title>models/site.ts</title>
<path fill="none" stroke="#c6c5fe" d="M2128.83,-460.48C2128.83,-460.48 2039.17,-460.48 2039.17,-460.48 2035.33,-460.48 2031.5,-456.65 2031.5,-452.81 2031.5,-452.81 2031.5,-445.15 2031.5,-445.15 2031.5,-441.31 2035.33,-437.48 2039.17,-437.48 2039.17,-437.48 2128.83,-437.48 2128.83,-437.48 2132.67,-437.48 2136.5,-441.31 2136.5,-445.15 2136.5,-445.15 2136.5,-452.81 2136.5,-452.81 2136.5,-456.65 2132.67,-460.48 2128.83,-460.48"/>
<text text-anchor="middle" x="2084" y="-445.28" font-family="Arial" font-size="14.00" fill="#c6c5fe">models/site.ts</text>
</g>
<!-- mapserver.ts&#45;&gt;models/site.ts -->
<g id="edge5" class="edge">
<title>mapserver.ts&#45;&gt;models/site.ts</title>
<path fill="none" stroke="#757575" d="M61.94,-516.27C77.21,-501.34 105.72,-475.83 135,-461.98 301.96,-382.99 355.8,-370.98 540.5,-370.98 540.5,-370.98 540.5,-370.98 1317,-370.98 1579.9,-370.98 1890.96,-417.02 2021.01,-438.35"/>
<polygon fill="#757575" stroke="#757575" points="2020.74,-441.86 2031.17,-440.03 2021.88,-434.95 2020.74,-441.86"/>
</g>
<!-- models/tile.ts -->
<g id="node9" class="node">
<title>models/tile.ts</title>
<path fill="none" stroke="#cfffac" d="M2545.83,-232.48C2545.83,-232.48 2460.17,-232.48 2460.17,-232.48 2456.33,-232.48 2452.5,-228.65 2452.5,-224.81 2452.5,-224.81 2452.5,-217.15 2452.5,-217.15 2452.5,-213.31 2456.33,-209.48 2460.17,-209.48 2460.17,-209.48 2545.83,-209.48 2545.83,-209.48 2549.67,-209.48 2553.5,-213.31 2553.5,-217.15 2553.5,-217.15 2553.5,-224.81 2553.5,-224.81 2553.5,-228.65 2549.67,-232.48 2545.83,-232.48"/>
<text text-anchor="middle" x="2503" y="-217.28" font-family="Arial" font-size="14.00" fill="#cfffac">models/tile.ts</text>
</g>
<!-- mapserver.ts&#45;&gt;models/tile.ts -->
<g id="edge6" class="edge">
<title>mapserver.ts&#45;&gt;models/tile.ts</title>
<path fill="none" stroke="#757575" d="M51,-516.28C53.29,-476.53 66.01,-345.04 135,-270.98 267.73,-128.48 345.76,-104.98 540.5,-104.98 540.5,-104.98 540.5,-104.98 2085,-104.98 2232.84,-104.98 2399.74,-173.5 2469.08,-205.21"/>
<polygon fill="#757575" stroke="#757575" points="2467.66,-208.41 2478.21,-209.43 2470.6,-202.06 2467.66,-208.41"/>
</g>
<!-- service/address&#45;from&#45;geo.ts -->
<g id="node10" class="node">
<title>service/address&#45;from&#45;geo.ts</title>
<path fill="none" stroke="#c6c5fe" d="M2174.33,-501.48C2174.33,-501.48 1993.67,-501.48 1993.67,-501.48 1989.83,-501.48 1986,-497.65 1986,-493.81 1986,-493.81 1986,-486.15 1986,-486.15 1986,-482.31 1989.83,-478.48 1993.67,-478.48 1993.67,-478.48 2174.33,-478.48 2174.33,-478.48 2178.17,-478.48 2182,-482.31 2182,-486.15 2182,-486.15 2182,-493.81 2182,-493.81 2182,-497.65 2178.17,-501.48 2174.33,-501.48"/>
<text text-anchor="middle" x="2084" y="-486.28" font-family="Arial" font-size="14.00" fill="#c6c5fe">service/address&#45;from&#45;geo.ts</text>
</g>
<!-- mapserver.ts&#45;&gt;service/address&#45;from&#45;geo.ts -->
<g id="edge7" class="edge">
<title>mapserver.ts&#45;&gt;service/address&#45;from&#45;geo.ts</title>
<path fill="none" stroke="#757575" d="M91.74,-516.46C175.56,-494.1 372.15,-446.98 540.5,-446.98 540.5,-446.98 540.5,-446.98 927,-446.98 1381.76,-446.98 1497.17,-426.1 1950,-467.98 1971.13,-469.93 1993.97,-473.26 2014.67,-476.75"/>
<polygon fill="#757575" stroke="#757575" points="2014.19,-480.22 2024.64,-478.47 2015.38,-473.32 2014.19,-480.22"/>
</g>
<!-- service/image&#45;resolver.ts -->
<g id="node11" class="node">
<title>service/image&#45;resolver.ts</title>
<path fill="none" stroke="#c6c5fe" d="M1006.33,-287.48C1006.33,-287.48 845.67,-287.48 845.67,-287.48 841.83,-287.48 838,-283.65 838,-279.81 838,-279.81 838,-272.15 838,-272.15 838,-268.31 841.83,-264.48 845.67,-264.48 845.67,-264.48 1006.33,-264.48 1006.33,-264.48 1010.17,-264.48 1014,-268.31 1014,-272.15 1014,-272.15 1014,-279.81 1014,-279.81 1014,-283.65 1010.17,-287.48 1006.33,-287.48"/>
<text text-anchor="middle" x="926" y="-272.28" font-family="Arial" font-size="14.00" fill="#c6c5fe">service/image&#45;resolver.ts</text>
</g>
<!-- mapserver.ts&#45;&gt;service/image&#45;resolver.ts -->
<g id="edge8" class="edge">
<title>mapserver.ts&#45;&gt;service/image&#45;resolver.ts</title>
<path fill="none" stroke="#757575" d="M52.33,-516.34C58,-484.6 78.43,-396.27 135,-356.98 359.63,-200.98 710.47,-238.1 857.06,-262.73"/>
<polygon fill="#757575" stroke="#757575" points="856.81,-266.23 867.26,-264.47 857.99,-259.33 856.81,-266.23"/>
</g>
<!-- service/map&#45;attributes&#45;holder.ts -->
<g id="node12" class="node">
<title>service/map&#45;attributes&#45;holder.ts</title>
<path fill="none" stroke="#cfffac" d="M2813.33,-769.48C2813.33,-769.48 2613.67,-769.48 2613.67,-769.48 2609.83,-769.48 2606,-765.65 2606,-761.81 2606,-761.81 2606,-754.15 2606,-754.15 2606,-750.31 2609.83,-746.48 2613.67,-746.48 2613.67,-746.48 2813.33,-746.48 2813.33,-746.48 2817.17,-746.48 2821,-750.31 2821,-754.15 2821,-754.15 2821,-761.81 2821,-761.81 2821,-765.65 2817.17,-769.48 2813.33,-769.48"/>
<text text-anchor="middle" x="2713.5" y="-754.28" font-family="Arial" font-size="14.00" fill="#cfffac">service/map&#45;attributes&#45;holder.ts</text>
</g>
<!-- mapserver.ts&#45;&gt;service/map&#45;attributes&#45;holder.ts -->
<g id="edge9" class="edge">
<title>mapserver.ts&#45;&gt;service/map&#45;attributes&#45;holder.ts</title>
<path fill="none" stroke="#757575" d="M52.42,-539.82C62.35,-600.43 108.44,-874.13 135,-900.98 265.18,-1032.57 355.4,-995.98 540.5,-995.98 540.5,-995.98 540.5,-995.98 2310,-995.98 2359.34,-995.98 2551.68,-926.94 2570,-914.98 2627.47,-877.44 2676.82,-811.29 2699.39,-778.13"/>
<polygon fill="#757575" stroke="#757575" points="2702.38,-779.96 2705.03,-769.7 2696.56,-776.06 2702.38,-779.96"/>
</g>
<!-- service/minesweeper.ts -->
<g id="node13" class="node">
<title>service/minesweeper.ts</title>
<path fill="none" stroke="#c6c5fe" d="M306.33,-667.48C306.33,-667.48 154.67,-667.48 154.67,-667.48 150.83,-667.48 147,-663.65 147,-659.81 147,-659.81 147,-652.15 147,-652.15 147,-648.31 150.83,-644.48 154.67,-644.48 154.67,-644.48 306.33,-644.48 306.33,-644.48 310.17,-644.48 314,-648.31 314,-652.15 314,-652.15 314,-659.81 314,-659.81 314,-663.65 310.17,-667.48 306.33,-667.48"/>
<text text-anchor="middle" x="230.5" y="-652.28" font-family="Arial" font-size="14.00" fill="#c6c5fe">service/minesweeper.ts</text>
</g>
<!-- mapserver.ts&#45;&gt;service/minesweeper.ts -->
<g id="edge10" class="edge">
<title>mapserver.ts&#45;&gt;service/minesweeper.ts</title>
<path fill="none" stroke="#757575" d="M66.7,-539.56C98.17,-562.07 167.73,-611.81 204.92,-638.4"/>
<polygon fill="#757575" stroke="#757575" points="203.04,-641.36 213.21,-644.33 207.11,-635.66 203.04,-641.36"/>
</g>
<!-- service/site&#45;adder.ts -->
<g id="node14" class="node">
<title>service/site&#45;adder.ts</title>
<path fill="none" stroke="#ff6c60" d="M1808.33,-579.48C1808.33,-579.48 1678.67,-579.48 1678.67,-579.48 1674.83,-579.48 1671,-575.65 1671,-571.81 1671,-571.81 1671,-564.15 1671,-564.15 1671,-560.31 1674.83,-556.48 1678.67,-556.48 1678.67,-556.48 1808.33,-556.48 1808.33,-556.48 1812.17,-556.48 1816,-560.31 1816,-564.15 1816,-564.15 1816,-571.81 1816,-571.81 1816,-575.65 1812.17,-579.48 1808.33,-579.48"/>
<text text-anchor="middle" x="1743.5" y="-564.28" font-family="Arial" font-size="14.00" fill="#ff6c60">service/site&#45;adder.ts</text>
</g>
<!-- mapserver.ts&#45;&gt;service/site&#45;adder.ts -->
<g id="edge11" class="edge">
<title>mapserver.ts&#45;&gt;service/site&#45;adder.ts</title>
<path fill="none" stroke="#757575" d="M99.18,-527.98C187.25,-527.98 378.87,-527.98 540.5,-527.98 540.5,-527.98 540.5,-527.98 927,-527.98 1182.27,-527.98 1246.17,-533 1501,-547.98 1554.31,-551.11 1614.13,-556.06 1660.89,-560.24"/>
<polygon fill="#757575" stroke="#757575" points="1660.7,-563.74 1670.97,-561.15 1661.33,-556.77 1660.7,-563.74"/>
</g>
<!-- service/user&#45;map&#45;loader.ts -->
<g id="node15" class="node">
<title>service/user&#45;map&#45;loader.ts</title>
<path fill="none" stroke="#c6c5fe" d="M315.33,-891.48C315.33,-891.48 145.67,-891.48 145.67,-891.48 141.83,-891.48 138,-887.65 138,-883.81 138,-883.81 138,-876.15 138,-876.15 138,-872.31 141.83,-868.48 145.67,-868.48 145.67,-868.48 315.33,-868.48 315.33,-868.48 319.17,-868.48 323,-872.31 323,-876.15 323,-876.15 323,-883.81 323,-883.81 323,-887.65 319.17,-891.48 315.33,-891.48"/>
<text text-anchor="middle" x="230.5" y="-876.28" font-family="Arial" font-size="14.00" fill="#c6c5fe">service/user&#45;map&#45;loader.ts</text>
</g>
<!-- mapserver.ts&#45;&gt;service/user&#45;map&#45;loader.ts -->
<g id="edge12" class="edge">
<title>mapserver.ts&#45;&gt;service/user&#45;map&#45;loader.ts</title>
<path fill="none" stroke="#757575" d="M52.06,-539.57C59.24,-591.47 90.74,-802 135,-848.98 140.87,-855.21 148.02,-860.19 155.72,-864.17"/>
<polygon fill="#757575" stroke="#757575" points="154.42,-867.43 164.97,-868.4 157.33,-861.06 154.42,-867.43"/>
</g>
<!-- service/woirld&#45;map&#45;resolver.ts -->
<g id="node16" class="node">
<title>service/woirld&#45;map&#45;resolver.ts</title>
<path fill="none" stroke="#ff6c60" d="M1411.33,-579.48C1411.33,-579.48 1220.67,-579.48 1220.67,-579.48 1216.83,-579.48 1213,-575.65 1213,-571.81 1213,-571.81 1213,-564.15 1213,-564.15 1213,-560.31 1216.83,-556.48 1220.67,-556.48 1220.67,-556.48 1411.33,-556.48 1411.33,-556.48 1415.17,-556.48 1419,-560.31 1419,-564.15 1419,-564.15 1419,-571.81 1419,-571.81 1419,-575.65 1415.17,-579.48 1411.33,-579.48"/>
<text text-anchor="middle" x="1316" y="-564.28" font-family="Arial" font-size="14.00" fill="#ff6c60">service/woirld&#45;map&#45;resolver.ts</text>
</g>
<!-- mapserver.ts&#45;&gt;service/woirld&#45;map&#45;resolver.ts -->
<g id="edge13" class="edge">
<title>mapserver.ts&#45;&gt;service/woirld&#45;map&#45;resolver.ts</title>
<path fill="none" stroke="#757575" d="M99.05,-537.24C110.78,-539.14 123.3,-540.89 135,-541.98 525.93,-578.48 992.72,-574.91 1202.8,-570.8"/>
<polygon fill="#757575" stroke="#757575" points="1202.99,-574.3 1212.91,-570.6 1202.85,-567.3 1202.99,-574.3"/>
</g>
<!-- mapserver.ts&#45;&gt;user/user.ts -->
<g id="edge14" class="edge">
<title>mapserver.ts&#45;&gt;user/user.ts</title>
<path fill="none" stroke="#757575" d="M54.18,-539.76C63.4,-567.43 89.99,-637.2 135,-676.98 235.94,-766.18 400.3,-789.68 485.45,-795.83"/>
<polygon fill="#757575" stroke="#757575" points="485.47,-799.34 495.69,-796.51 485.94,-792.35 485.47,-799.34"/>
</g>
<!-- models/location.ts&#45;&gt;models/tile.ts -->
<g id="edge18" class="edge">
<title>models/location.ts&#45;&gt;models/tile.ts</title>
<path fill="none" stroke="#757575" d="M2325.71,-351.36C2359.34,-326.49 2438.44,-267.98 2478.25,-238.55"/>
<polygon fill="#757575" stroke="#757575" points="2480.38,-241.32 2486.34,-232.56 2476.22,-235.69 2480.38,-241.32"/>
</g>
<!-- models/vector.ts -->
<g id="node20" class="node">
<title>models/vector.ts</title>
<path fill="none" stroke="#cfffac" d="M2766.83,-374.48C2766.83,-374.48 2660.17,-374.48 2660.17,-374.48 2656.33,-374.48 2652.5,-370.65 2652.5,-366.81 2652.5,-366.81 2652.5,-359.15 2652.5,-359.15 2652.5,-355.31 2656.33,-351.48 2660.17,-351.48 2660.17,-351.48 2766.83,-351.48 2766.83,-351.48 2770.67,-351.48 2774.5,-355.31 2774.5,-359.15 2774.5,-359.15 2774.5,-366.81 2774.5,-366.81 2774.5,-370.65 2770.67,-374.48 2766.83,-374.48"/>
<text text-anchor="middle" x="2713.5" y="-359.28" font-family="Arial" font-size="14.00" fill="#cfffac">models/vector.ts</text>
</g>
<!-- models/location.ts&#45;&gt;models/vector.ts -->
<g id="edge19" class="edge">
<title>models/location.ts&#45;&gt;models/vector.ts</title>
<path fill="none" stroke="#757575" d="M2374.67,-362.98C2447.78,-362.98 2566.44,-362.98 2641.91,-362.98"/>
<polygon fill="#757575" stroke="#757575" points="2642.27,-366.48 2652.27,-362.98 2642.27,-359.48 2642.27,-366.48"/>
</g>
<!-- models/tile&#45;pixel.ts -->
<g id="node21" class="node">
<title>models/tile&#45;pixel.ts</title>
<path fill="none" stroke="#c6c5fe" d="M2562.33,-577.48C2562.33,-577.48 2443.67,-577.48 2443.67,-577.48 2439.83,-577.48 2436,-573.65 2436,-569.81 2436,-569.81 2436,-562.15 2436,-562.15 2436,-558.31 2439.83,-554.48 2443.67,-554.48 2443.67,-554.48 2562.33,-554.48 2562.33,-554.48 2566.17,-554.48 2570,-558.31 2570,-562.15 2570,-562.15 2570,-569.81 2570,-569.81 2570,-573.65 2566.17,-577.48 2562.33,-577.48"/>
<text text-anchor="middle" x="2503" y="-562.28" font-family="Arial" font-size="14.00" fill="#c6c5fe">models/tile&#45;pixel.ts</text>
</g>
<!-- models/location.ts&#45;&gt;models/tile&#45;pixel.ts -->
<g id="edge17" class="edge">
<title>models/location.ts&#45;&gt;models/tile&#45;pixel.ts</title>
<path fill="none" stroke="#757575" d="M2374.88,-371.2C2383.87,-374.25 2392.56,-378.39 2400,-383.98 2455.31,-425.56 2484.87,-506.43 2496.31,-544.8"/>
<polygon fill="#757575" stroke="#757575" points="2492.95,-545.78 2499.07,-554.43 2499.68,-543.85 2492.95,-545.78"/>
</g>
<!-- models/site.ts&#45;&gt;models/location.ts -->
<g id="edge22" class="edge">
<title>models/site.ts&#45;&gt;models/location.ts</title>
<path fill="none" stroke="#757575" d="M2136.52,-440.85C2151.88,-436.97 2168.27,-431.28 2182,-422.98 2202.19,-410.78 2197.62,-395.85 2218,-383.98 2222.85,-381.15 2228.06,-378.71 2233.44,-376.59"/>
<polygon fill="#757575" stroke="#757575" points="2234.99,-379.76 2243.25,-373.13 2232.66,-373.15 2234.99,-379.76"/>
</g>
<!-- models/address.ts -->
<g id="node18" class="node">
<title>models/address.ts</title>
<path fill="none" stroke="#cfffac" d="M2368.33,-415.48C2368.33,-415.48 2249.67,-415.48 2249.67,-415.48 2245.83,-415.48 2242,-411.65 2242,-407.81 2242,-407.81 2242,-400.15 2242,-400.15 2242,-396.31 2245.83,-392.48 2249.67,-392.48 2249.67,-392.48 2368.33,-392.48 2368.33,-392.48 2372.17,-392.48 2376,-396.31 2376,-400.15 2376,-400.15 2376,-407.81 2376,-407.81 2376,-411.65 2372.17,-415.48 2368.33,-415.48"/>
<text text-anchor="middle" x="2309" y="-400.28" font-family="Arial" font-size="14.00" fill="#cfffac">models/address.ts</text>
</g>
<!-- models/site.ts&#45;&gt;models/address.ts -->
<g id="edge21" class="edge">
<title>models/site.ts&#45;&gt;models/address.ts</title>
<path fill="none" stroke="#757575" d="M2136.72,-438.54C2167.62,-432.31 2207.22,-424.32 2240.55,-417.59"/>
<polygon fill="#757575" stroke="#757575" points="2241.57,-420.96 2250.68,-415.55 2240.19,-414.09 2241.57,-420.96"/>
</g>
<!-- models/site&#45;tile&#45;position.ts -->
<g id="node23" class="node">
<title>models/site&#45;tile&#45;position.ts</title>
<path fill="none" stroke="#c6c5fe" d="M2392.33,-577.48C2392.33,-577.48 2225.67,-577.48 2225.67,-577.48 2221.83,-577.48 2218,-573.65 2218,-569.81 2218,-569.81 2218,-562.15 2218,-562.15 2218,-558.31 2221.83,-554.48 2225.67,-554.48 2225.67,-554.48 2392.33,-554.48 2392.33,-554.48 2396.17,-554.48 2400,-558.31 2400,-562.15 2400,-562.15 2400,-569.81 2400,-569.81 2400,-573.65 2396.17,-577.48 2392.33,-577.48"/>
<text text-anchor="middle" x="2309" y="-562.28" font-family="Arial" font-size="14.00" fill="#c6c5fe">models/site&#45;tile&#45;position.ts</text>
</g>
<!-- models/site.ts&#45;&gt;models/site&#45;tile&#45;position.ts -->
<g id="edge23" class="edge">
<title>models/site.ts&#45;&gt;models/site&#45;tile&#45;position.ts</title>
<path fill="none" stroke="#757575" d="M2136.63,-451.38C2152.51,-454.29 2169.18,-459.8 2182,-469.98 2211.28,-493.21 2188.79,-522.67 2218,-545.98 2219.42,-547.11 2220.89,-548.18 2222.4,-549.2"/>
<polygon fill="#757575" stroke="#757575" points="2221.08,-552.47 2231.5,-554.39 2224.55,-546.39 2221.08,-552.47"/>
</g>
<!-- service/address&#45;from&#45;geo.ts&#45;&gt;models/location.ts -->
<g id="edge28" class="edge">
<title>service/address&#45;from&#45;geo.ts&#45;&gt;models/location.ts</title>
<path fill="none" stroke="#757575" d="M2169.01,-478.41C2173.64,-476.04 2178.02,-473.26 2182,-469.98 2213.99,-443.64 2186.36,-410.73 2218,-383.98 2222.82,-379.9 2228.29,-376.58 2234.1,-373.88"/>
<polygon fill="#757575" stroke="#757575" points="2235.47,-377.1 2243.44,-370.13 2232.86,-370.61 2235.47,-377.1"/>
</g>
<!-- service/address&#45;from&#45;geo.ts&#45;&gt;service/map&#45;attributes&#45;holder.ts -->
<g id="edge30" class="edge">
<title>service/address&#45;from&#45;geo.ts&#45;&gt;service/map&#45;attributes&#45;holder.ts</title>
<path fill="none" stroke="#757575" d="M2098.07,-501.64C2120.93,-521.53 2170.3,-562.26 2218,-586.98 2364.63,-662.96 2414.2,-651.23 2570,-705.98 2604.45,-718.09 2643.38,-732.33 2671.84,-742.85"/>
<polygon fill="#757575" stroke="#757575" points="2670.85,-746.21 2681.44,-746.4 2673.28,-739.65 2670.85,-746.21"/>
</g>
<!-- service/address&#45;from&#45;geo.ts&#45;&gt;models/address.ts -->
<g id="edge26" class="edge">
<title>service/address&#45;from&#45;geo.ts&#45;&gt;models/address.ts</title>
<path fill="none" stroke="#757575" d="M2164.6,-478.41C2170.69,-476.08 2176.58,-473.3 2182,-469.98 2203.84,-456.6 2196.34,-438.64 2218,-424.98 2222.38,-422.22 2227.09,-419.81 2231.98,-417.73"/>
<polygon fill="#757575" stroke="#757575" points="2233.44,-420.92 2241.54,-414.09 2230.95,-414.37 2233.44,-420.92"/>
</g>
<!-- models/bounding&#45;box.ts -->
<g id="node19" class="node">
<title>models/bounding&#45;box.ts</title>
<path fill="none" stroke="#c6c5fe" d="M2385.83,-536.48C2385.83,-536.48 2232.17,-536.48 2232.17,-536.48 2228.33,-536.48 2224.5,-532.65 2224.5,-528.81 2224.5,-528.81 2224.5,-521.15 2224.5,-521.15 2224.5,-517.31 2228.33,-513.48 2232.17,-513.48 2232.17,-513.48 2385.83,-513.48 2385.83,-513.48 2389.67,-513.48 2393.5,-517.31 2393.5,-521.15 2393.5,-521.15 2393.5,-528.81 2393.5,-528.81 2393.5,-532.65 2389.67,-536.48 2385.83,-536.48"/>
<text text-anchor="middle" x="2309" y="-521.28" font-family="Arial" font-size="14.00" fill="#c6c5fe">models/bounding&#45;box.ts</text>
</g>
<!-- service/address&#45;from&#45;geo.ts&#45;&gt;models/bounding&#45;box.ts -->
<g id="edge27" class="edge">
<title>service/address&#45;from&#45;geo.ts&#45;&gt;models/bounding&#45;box.ts</title>
<path fill="none" stroke="#757575" d="M2158.33,-501.49C2179.57,-504.82 2202.92,-508.49 2224.73,-511.91"/>
<polygon fill="#757575" stroke="#757575" points="2224.21,-515.37 2234.63,-513.46 2225.29,-508.46 2224.21,-515.37"/>
</g>
<!-- service/json&#45;assign.ts -->
<g id="node24" class="node">
<title>service/json&#45;assign.ts</title>
<path fill="none" stroke="#cfffac" d="M2377.83,-456.48C2377.83,-456.48 2240.17,-456.48 2240.17,-456.48 2236.33,-456.48 2232.5,-452.65 2232.5,-448.81 2232.5,-448.81 2232.5,-441.15 2232.5,-441.15 2232.5,-437.31 2236.33,-433.48 2240.17,-433.48 2240.17,-433.48 2377.83,-433.48 2377.83,-433.48 2381.67,-433.48 2385.5,-437.31 2385.5,-441.15 2385.5,-441.15 2385.5,-448.81 2385.5,-448.81 2385.5,-452.65 2381.67,-456.48 2377.83,-456.48"/>
<text text-anchor="middle" x="2309" y="-441.28" font-family="Arial" font-size="14.00" fill="#cfffac">service/json&#45;assign.ts</text>
</g>
<!-- service/address&#45;from&#45;geo.ts&#45;&gt;service/json&#45;assign.ts -->
<g id="edge29" class="edge">
<title>service/address&#45;from&#45;geo.ts&#45;&gt;service/json&#45;assign.ts</title>
<path fill="none" stroke="#757575" d="M2142.14,-478.45C2172.3,-472.36 2209.48,-464.86 2240.99,-458.5"/>
<polygon fill="#757575" stroke="#757575" points="2241.9,-461.89 2251.01,-456.48 2240.52,-455.03 2241.9,-461.89"/>
</g>
<!-- service/image&#45;resolver.ts&#45;&gt;models/location.ts -->
<g id="edge45" class="edge">
<title>service/image&#45;resolver.ts&#45;&gt;models/location.ts</title>
<path fill="none" stroke="#757575" d="M1014.14,-282.34C1195.13,-295.45 1624.99,-325.98 1986,-346.98 2070.6,-351.9 2167.76,-356.6 2233.03,-359.61"/>
<polygon fill="#757575" stroke="#757575" points="2233.07,-363.12 2243.22,-360.08 2233.4,-356.13 2233.07,-363.12"/>
</g>
<!-- service/image&#45;resolver.ts&#45;&gt;models/tile.ts -->
<g id="edge46" class="edge">
<title>service/image&#45;resolver.ts&#45;&gt;models/tile.ts</title>
<path fill="none" stroke="#757575" d="M1014.06,-265.89C1163.04,-249.52 1476.57,-218.98 1742.5,-218.98 1742.5,-218.98 1742.5,-218.98 2085,-218.98 2212.23,-218.98 2361.28,-219.92 2442.25,-220.51"/>
<polygon fill="#757575" stroke="#757575" points="2442.23,-224.01 2452.25,-220.59 2442.28,-217.01 2442.23,-224.01"/>
</g>
<!-- service/image&#45;resolver.ts&#45;&gt;service/woirld&#45;map&#45;resolver.ts -->
<g id="edge47" class="edge">
<title>service/image&#45;resolver.ts&#45;&gt;service/woirld&#45;map&#45;resolver.ts</title>
<path fill="none" stroke="#757575" d="M942.69,-287.79C1002.91,-333.11 1219.43,-496.05 1291.49,-550.28"/>
<polygon fill="#757575" stroke="#757575" points="1289.44,-553.13 1299.54,-556.34 1293.65,-547.53 1289.44,-553.13"/>
</g>
<!-- service/minesweeper.ts&#45;&gt;../../../jonny&#45;maps/scripts/index.d.ts -->
<g id="edge48" class="edge">
<title>service/minesweeper.ts&#45;&gt;../../../jonny&#45;maps/scripts/index.d.ts</title>
<path fill="none" stroke="#757575" d="M303.57,-644.47C322.56,-641.57 343.03,-638.55 362,-635.98 382.95,-633.14 405.32,-630.34 426.89,-627.74"/>
<polygon fill="#757575" stroke="#757575" points="427.55,-631.19 437.07,-626.53 426.72,-624.24 427.55,-631.19"/>
</g>
<!-- service/minesweeper.ts&#45;&gt;../../public/users.d.ts -->
<g id="edge49" class="edge">
<title>service/minesweeper.ts&#45;&gt;../../public/users.d.ts</title>
<path fill="none" stroke="#757575" d="M249.23,-667.7C273.58,-683.2 319.21,-710.16 362,-723.98 393.06,-734.01 428.41,-740.19 459.42,-743.98"/>
<polygon fill="#757575" stroke="#757575" points="459.41,-747.5 469.75,-745.18 460.22,-740.55 459.41,-747.5"/>
</g>
<!-- service/minesweeper.ts&#45;&gt;user/user.ts -->
<g id="edge53" class="edge">
<title>service/minesweeper.ts&#45;&gt;user/user.ts</title>
<path fill="none" stroke="#757575" d="M240.51,-667.48C259.87,-691.29 308.08,-745.84 362,-770.98 400.78,-789.06 448.97,-795.53 485.49,-797.64"/>
<polygon fill="#757575" stroke="#757575" points="485.79,-801.16 495.95,-798.14 486.13,-794.17 485.79,-801.16"/>
</g>
<!-- service/minesweeper.ts&#45;&gt;models/vector.ts -->
<g id="edge50" class="edge">
<title>service/minesweeper.ts&#45;&gt;models/vector.ts</title>
<path fill="none" stroke="#757575" d="M239.4,-644.39C282.52,-582.2 497.19,-286.82 757,-176.98 985.85,-80.22 1066.54,-142.98 1315,-142.98 1315,-142.98 1315,-142.98 2310,-142.98 2426.05,-142.98 2469.13,-109.61 2570,-166.98 2641.3,-207.53 2686.65,-300.01 2704.22,-341.79"/>
<polygon fill="#757575" stroke="#757575" points="2701.07,-343.32 2708.09,-351.26 2707.55,-340.68 2701.07,-343.32"/>
</g>
<!-- service/generic&#45;map&#45;factory/game&#45;map&#45;map&#45;factory.ts -->
<g id="node25" class="node">
<title>service/generic&#45;map&#45;factory/game&#45;map&#45;map&#45;factory.ts</title>
<path fill="none" stroke="#c6c5fe" d="M713.33,-667.48C713.33,-667.48 369.67,-667.48 369.67,-667.48 365.83,-667.48 362,-663.65 362,-659.81 362,-659.81 362,-652.15 362,-652.15 362,-648.31 365.83,-644.48 369.67,-644.48 369.67,-644.48 713.33,-644.48 713.33,-644.48 717.17,-644.48 721,-648.31 721,-652.15 721,-652.15 721,-659.81 721,-659.81 721,-663.65 717.17,-667.48 713.33,-667.48"/>
<text text-anchor="middle" x="541.5" y="-652.28" font-family="Arial" font-size="14.00" fill="#c6c5fe">service/generic&#45;map&#45;factory/game&#45;map&#45;map&#45;factory.ts</text>
</g>
<!-- service/minesweeper.ts&#45;&gt;service/generic&#45;map&#45;factory/game&#45;map&#45;map&#45;factory.ts -->
<g id="edge51" class="edge">
<title>service/minesweeper.ts&#45;&gt;service/generic&#45;map&#45;factory/game&#45;map&#45;map&#45;factory.ts</title>
<path fill="none" stroke="#757575" d="M314.31,-655.98C326.08,-655.98 338.58,-655.98 351.41,-655.98"/>
<polygon fill="#757575" stroke="#757575" points="351.76,-659.48 361.76,-655.98 351.76,-652.48 351.76,-659.48"/>
</g>
<!-- service/generic&#45;map&#45;factory/layer&#45;factory/layer&#45;factory.ts -->
<g id="node27" class="node">
<title>service/generic&#45;map&#45;factory/layer&#45;factory/layer&#45;factory.ts</title>
<path fill="none" stroke="#ff6c60" d="M1493.33,-721.48C1493.33,-721.48 1138.67,-721.48 1138.67,-721.48 1134.83,-721.48 1131,-717.65 1131,-713.81 1131,-713.81 1131,-706.15 1131,-706.15 1131,-702.31 1134.83,-698.48 1138.67,-698.48 1138.67,-698.48 1493.33,-698.48 1493.33,-698.48 1497.17,-698.48 1501,-702.31 1501,-706.15 1501,-706.15 1501,-713.81 1501,-713.81 1501,-717.65 1497.17,-721.48 1493.33,-721.48"/>
<text text-anchor="middle" x="1316" y="-706.28" font-family="Arial" font-size="14.00" fill="#ff6c60">service/generic&#45;map&#45;factory/layer&#45;factory/layer&#45;factory.ts</text>
</g>
<!-- service/minesweeper.ts&#45;&gt;service/generic&#45;map&#45;factory/layer&#45;factory/layer&#45;factory.ts -->
<g id="edge52" class="edge">
<title>service/minesweeper.ts&#45;&gt;service/generic&#45;map&#45;factory/layer&#45;factory/layer&#45;factory.ts</title>
<path fill="none" stroke="#757575" d="M293.03,-667.49C314.75,-671.13 339.39,-674.77 362,-676.98 623.82,-702.59 927.8,-709.12 1120.71,-710.39"/>
<polygon fill="#757575" stroke="#757575" points="1120.94,-713.89 1130.96,-710.45 1120.98,-706.89 1120.94,-713.89"/>
</g>
<!-- service/site&#45;adder.ts&#45;&gt;models/site.ts -->
<g id="edge56" class="edge">
<title>service/site&#45;adder.ts&#45;&gt;models/site.ts</title>
<path fill="none" stroke="#757575" d="M1816.15,-574.92C1858.65,-575.39 1911.56,-569.22 1950,-541.98 1979.19,-521.29 1957.74,-491.92 1986,-469.98 1996.15,-462.1 2008.61,-457.03 2021.19,-453.8"/>
<polygon fill="#757575" stroke="#757575" points="2022.24,-457.15 2031.25,-451.59 2020.73,-450.32 2022.24,-457.15"/>
</g>
<!-- service/site&#45;adder.ts&#45;&gt;service/map&#45;attributes&#45;holder.ts -->
<g id="edge59" class="edge">
<title>service/site&#45;adder.ts&#45;&gt;service/map&#45;attributes&#45;holder.ts</title>
<path fill="none" stroke="#757575" d="M1803.23,-579.51C1972.79,-612.79 2462.47,-708.9 2643.86,-744.51"/>
<polygon fill="#757575" stroke="#757575" points="2643.32,-747.97 2653.81,-746.46 2644.67,-741.1 2643.32,-747.97"/>
</g>
<!-- service/site&#45;adder.ts&#45;&gt;service/woirld&#45;map&#45;resolver.ts -->
<g id="edge61" class="edge">
<title>service/site&#45;adder.ts&#45;&gt;service/woirld&#45;map&#45;resolver.ts</title>
<path fill="none" stroke="#757575" d="M1670.8,-573.18C1604.8,-574.92 1505.84,-575.19 1429.35,-574.01"/>
<polygon fill="#757575" stroke="#757575" points="1429.24,-570.51 1419.19,-573.84 1429.13,-577.51 1429.24,-570.51"/>
</g>
<!-- service/site&#45;adder.ts&#45;&gt;models/bounding&#45;box.ts -->
<g id="edge54" class="edge">
<title>service/site&#45;adder.ts&#45;&gt;models/bounding&#45;box.ts</title>
<path fill="none" stroke="#757575" d="M1816.28,-566.13C1903.08,-563.41 2053.55,-557.16 2182,-543.98 2197.34,-542.41 2213.68,-540.28 2229.32,-538.02"/>
<polygon fill="#757575" stroke="#757575" points="2230.11,-541.44 2239.49,-536.52 2229.08,-534.52 2230.11,-541.44"/>
</g>
<!-- service/site&#45;adder.ts&#45;&gt;models/vector.ts -->
<g id="edge58" class="edge">
<title>service/site&#45;adder.ts&#45;&gt;models/vector.ts</title>
<path fill="none" stroke="#757575" d="M1816.32,-559.02C1855.78,-554.06 1905.6,-547.75 1950,-541.98 2053.16,-528.56 2079.44,-528.39 2182,-510.98 2279.54,-494.42 2304.42,-491.51 2400,-465.98 2498.87,-439.58 2612.39,-399.69 2671.64,-378.12"/>
<polygon fill="#757575" stroke="#757575" points="2673.17,-381.28 2681.37,-374.57 2670.77,-374.71 2673.17,-381.28"/>
</g>
<!-- service/site&#45;adder.ts&#45;&gt;models/tile&#45;pixel.ts -->
<g id="edge57" class="edge">
<title>service/site&#45;adder.ts&#45;&gt;models/tile&#45;pixel.ts</title>
<path fill="none" stroke="#757575" d="M1816.12,-577.54C1875.09,-585.23 1954.02,-595.07 1986,-596.98 2169.73,-607.97 2217.37,-609.82 2400,-586.98 2414.29,-585.19 2429.57,-582.48 2443.83,-579.6"/>
<polygon fill="#757575" stroke="#757575" points="2444.93,-582.95 2454,-577.48 2443.5,-576.09 2444.93,-582.95"/>
</g>
<!-- service/site&#45;adder.ts&#45;&gt;models/site&#45;tile&#45;position.ts -->
<g id="edge55" class="edge">
<title>service/site&#45;adder.ts&#45;&gt;models/site&#45;tile&#45;position.ts</title>
<path fill="none" stroke="#757575" d="M1816.18,-574.45C1902.89,-581.31 2053.26,-590.12 2182,-581.98 2194.16,-581.21 2206.93,-580.03 2219.49,-578.65"/>
<polygon fill="#757575" stroke="#757575" points="2219.97,-582.12 2229.51,-577.5 2219.17,-575.16 2219.97,-582.12"/>
</g>
<!-- service/map.d.ts -->
<g id="node29" class="node">
<title>service/map.d.ts</title>
<path fill="none" stroke="#cfffac" d="M2136.83,-847.48C2136.83,-847.48 2031.17,-847.48 2031.17,-847.48 2027.33,-847.48 2023.5,-843.65 2023.5,-839.81 2023.5,-839.81 2023.5,-832.15 2023.5,-832.15 2023.5,-828.31 2027.33,-824.48 2031.17,-824.48 2031.17,-824.48 2136.83,-824.48 2136.83,-824.48 2140.67,-824.48 2144.5,-828.31 2144.5,-832.15 2144.5,-832.15 2144.5,-839.81 2144.5,-839.81 2144.5,-843.65 2140.67,-847.48 2136.83,-847.48"/>
<text text-anchor="middle" x="2084" y="-832.28" font-family="Arial" font-size="14.00" fill="#cfffac">service/map.d.ts</text>
</g>
<!-- service/site&#45;adder.ts&#45;&gt;service/map.d.ts -->
<g id="edge60" class="edge">
<title>service/site&#45;adder.ts&#45;&gt;service/map.d.ts</title>
<path fill="none" stroke="#757575" d="M1763.67,-579.52C1800.93,-602.28 1885.16,-655.32 1950,-707.98 1993.96,-743.68 2040.61,-791.09 2065.28,-817.03"/>
<polygon fill="#757575" stroke="#757575" points="2062.79,-819.49 2072.21,-824.35 2067.88,-814.68 2062.79,-819.49"/>
</g>
<!-- service/user&#45;map&#45;loader.ts&#45;&gt;service/map&#45;attributes&#45;holder.ts -->
<g id="edge62" class="edge">
<title>service/user&#45;map&#45;loader.ts&#45;&gt;service/map&#45;attributes&#45;holder.ts</title>
<path fill="none" stroke="#757575" d="M258.92,-891.6C284.94,-902.06 325.39,-916.83 362,-923.98 608.04,-972 674.32,-957.98 925,-957.98 925,-957.98 925,-957.98 2310,-957.98 2472.17,-957.98 2636.31,-826.16 2692.34,-776.56"/>
<polygon fill="#757575" stroke="#757575" points="2694.99,-778.88 2700.1,-769.6 2690.31,-773.67 2694.99,-778.88"/>
</g>
<!-- service/user&#45;map&#45;loader.ts&#45;&gt;user/user.ts -->
<g id="edge65" class="edge">
<title>service/user&#45;map&#45;loader.ts&#45;&gt;user/user.ts</title>
<path fill="none" stroke="#757575" d="M275.12,-868.4C330.79,-853.63 427.05,-828.08 487.07,-812.16"/>
<polygon fill="#757575" stroke="#757575" points="488.34,-815.44 497.11,-809.5 486.54,-808.68 488.34,-815.44"/>
</g>
<!-- service/user&#45;map&#45;loader.ts&#45;&gt;service/map.d.ts -->
<g id="edge63" class="edge">
<title>service/user&#45;map&#45;loader.ts&#45;&gt;service/map.d.ts</title>
<path fill="none" stroke="#757575" d="M293.03,-891.51C314.75,-895.15 339.39,-898.79 362,-900.98 611.2,-925.14 674.64,-919.98 925,-919.98 925,-919.98 925,-919.98 1317,-919.98 1598.46,-919.98 1676.76,-968.51 1950,-900.98 1989.33,-891.26 2030.66,-868.86 2056.6,-853.09"/>
<polygon fill="#757575" stroke="#757575" points="2058.78,-855.86 2065.44,-847.61 2055.09,-849.91 2058.78,-855.86"/>
</g>
<!-- user/user&#45;map&#45;attributes&#45;loader.ts -->
<g id="node31" class="node">
<title>user/user&#45;map&#45;attributes&#45;loader.ts</title>
<path fill="none" stroke="#c6c5fe" d="M648.83,-891.48C648.83,-891.48 434.17,-891.48 434.17,-891.48 430.33,-891.48 426.5,-887.65 426.5,-883.81 426.5,-883.81 426.5,-876.15 426.5,-876.15 426.5,-872.31 430.33,-868.48 434.17,-868.48 434.17,-868.48 648.83,-868.48 648.83,-868.48 652.67,-868.48 656.5,-872.31 656.5,-876.15 656.5,-876.15 656.5,-883.81 656.5,-883.81 656.5,-887.65 652.67,-891.48 648.83,-891.48"/>
<text text-anchor="middle" x="541.5" y="-876.28" font-family="Arial" font-size="14.00" fill="#c6c5fe">user/user&#45;map&#45;attributes&#45;loader.ts</text>
</g>
<!-- service/user&#45;map&#45;loader.ts&#45;&gt;user/user&#45;map&#45;attributes&#45;loader.ts -->
<g id="edge64" class="edge">
<title>service/user&#45;map&#45;loader.ts&#45;&gt;user/user&#45;map&#45;attributes&#45;loader.ts</title>
<path fill="none" stroke="#757575" d="M323.37,-879.98C352.51,-879.98 385.22,-879.98 416.24,-879.98"/>
<polygon fill="#757575" stroke="#757575" points="416.25,-883.48 426.25,-879.98 416.25,-876.48 416.25,-883.48"/>
</g>
<!-- service/woirld&#45;map&#45;resolver.ts&#45;&gt;models/location.ts -->
<g id="edge66" class="edge">
<title>service/woirld&#45;map&#45;resolver.ts&#45;&gt;models/location.ts</title>
<path fill="none" stroke="#757575" d="M1419.15,-558.62C1597.88,-542.22 1948.66,-509.94 1950,-508.98 1981.72,-486.31 1955.56,-453.35 1986,-428.98 1995.73,-421.19 2142.14,-393.3 2234.15,-376.36"/>
<polygon fill="#757575" stroke="#757575" points="2235.05,-379.76 2244.25,-374.51 2233.79,-372.87 2235.05,-379.76"/>
</g>
<!-- service/woirld&#45;map&#45;resolver.ts&#45;&gt;service/map&#45;attributes&#45;holder.ts -->
<g id="edge70" class="edge">
<title>service/woirld&#45;map&#45;resolver.ts&#45;&gt;service/map&#45;attributes&#45;holder.ts</title>
<path fill="none" stroke="#757575" d="M1364.37,-579.56C1408.75,-590.06 1477.04,-605.33 1537,-614.98 1719.3,-644.31 1766.84,-636.63 1950,-659.98 2166.54,-687.58 2219.31,-704.59 2436,-730.98 2488.29,-737.35 2546.3,-743.2 2595.62,-747.81"/>
<polygon fill="#757575" stroke="#757575" points="2595.41,-751.31 2605.69,-748.75 2596.05,-744.34 2595.41,-751.31"/>
</g>
<!-- service/woirld&#45;map&#45;resolver.ts&#45;&gt;service/site&#45;adder.ts -->
<g id="edge72" class="edge">
<title>service/woirld&#45;map&#45;resolver.ts&#45;&gt;service/site&#45;adder.ts</title>
<path fill="none" stroke="#757575" d="M1419.19,-562.12C1493.09,-560.81 1591.65,-560.95 1660.44,-562.52"/>
<polygon fill="#757575" stroke="#757575" points="1660.71,-566.03 1670.8,-562.77 1660.88,-559.03 1660.71,-566.03"/>
</g>
<!-- service/woirld&#45;map&#45;resolver.ts&#45;&gt;models/vector.ts -->
<g id="edge69" class="edge">
<title>service/woirld&#45;map&#45;resolver.ts&#45;&gt;models/vector.ts</title>
<path fill="none" stroke="#757575" d="M1337.88,-556.45C1376.2,-535.75 1460.84,-492.2 1537,-467.98 1906.33,-350.51 2012.64,-330.6 2400,-342.98 2483.25,-345.64 2578.8,-352.28 2642.09,-357.18"/>
<polygon fill="#757575" stroke="#757575" points="2642.11,-360.7 2652.35,-357.99 2642.66,-353.72 2642.11,-360.7"/>
</g>
<!-- service/woirld&#45;map&#45;resolver.ts&#45;&gt;models/tile&#45;pixel.ts -->
<g id="edge68" class="edge">
<title>service/woirld&#45;map&#45;resolver.ts&#45;&gt;models/tile&#45;pixel.ts</title>
<path fill="none" stroke="#757575" d="M1419.07,-578.57C1456.17,-582.2 1498.45,-586.07 1537,-588.98 1823.07,-610.59 1895.14,-617.27 2182,-613.98 2278.91,-612.87 2305.23,-629.27 2400,-608.98 2425.19,-603.58 2451.97,-592.05 2471.77,-582.28"/>
<polygon fill="#757575" stroke="#757575" points="2473.55,-585.3 2480.89,-577.66 2470.38,-579.06 2473.55,-585.3"/>
</g>
<!-- models/map&#45;cache.ts -->
<g id="node22" class="node">
<title>models/map&#45;cache.ts</title>
<path fill="none" stroke="#cfffac" d="M1812.33,-499.48C1812.33,-499.48 1674.67,-499.48 1674.67,-499.48 1670.83,-499.48 1667,-495.65 1667,-491.81 1667,-491.81 1667,-484.15 1667,-484.15 1667,-480.31 1670.83,-476.48 1674.67,-476.48 1674.67,-476.48 1812.33,-476.48 1812.33,-476.48 1816.17,-476.48 1820,-480.31 1820,-484.15 1820,-484.15 1820,-491.81 1820,-491.81 1820,-495.65 1816.17,-499.48 1812.33,-499.48"/>
<text text-anchor="middle" x="1743.5" y="-484.28" font-family="Arial" font-size="14.00" fill="#cfffac">models/map&#45;cache.ts</text>
</g>
<!-- service/woirld&#45;map&#45;resolver.ts&#45;&gt;models/map&#45;cache.ts -->
<g id="edge67" class="edge">
<title>service/woirld&#45;map&#45;resolver.ts&#45;&gt;models/map&#45;cache.ts</title>
<path fill="none" stroke="#757575" d="M1358.05,-556.4C1402.01,-544.36 1473.97,-525.66 1537,-513.98 1575.95,-506.76 1619.42,-500.94 1656.32,-496.65"/>
<polygon fill="#757575" stroke="#757575" points="1657,-500.1 1666.54,-495.48 1656.21,-493.14 1657,-500.1"/>
</g>
<!-- service/woirld&#45;map&#45;resolver.ts&#45;&gt;service/map.d.ts -->
<g id="edge71" class="edge">
<title>service/woirld&#45;map&#45;resolver.ts&#45;&gt;service/map.d.ts</title>
<path fill="none" stroke="#757575" d="M1340.19,-579.5C1379.69,-598.71 1462.95,-637.39 1537,-659.98 1716,-714.57 1781.12,-661.36 1950,-741.98 1968.8,-750.95 1969.28,-759.56 1986,-771.98 2008.75,-788.88 2035.74,-806.51 2055.47,-818.97"/>
<polygon fill="#757575" stroke="#757575" points="2053.65,-821.96 2063.98,-824.31 2057.37,-816.03 2053.65,-821.96"/>
</g>
<!-- user/friendship.ts -->
<g id="node32" class="node">
<title>user/friendship.ts</title>
<path fill="none" stroke="#ff6c60" d="M980.83,-809.48C980.83,-809.48 871.17,-809.48 871.17,-809.48 867.33,-809.48 863.5,-805.65 863.5,-801.81 863.5,-801.81 863.5,-794.15 863.5,-794.15 863.5,-790.31 867.33,-786.48 871.17,-786.48 871.17,-786.48 980.83,-786.48 980.83,-786.48 984.67,-786.48 988.5,-790.31 988.5,-794.15 988.5,-794.15 988.5,-801.81 988.5,-801.81 988.5,-805.65 984.67,-809.48 980.83,-809.48"/>
<text text-anchor="middle" x="926" y="-794.28" font-family="Arial" font-size="14.00" fill="#ff6c60">user/friendship.ts</text>
</g>
<!-- user/user.ts&#45;&gt;user/friendship.ts -->
<g id="edge77" class="edge">
<title>user/user.ts&#45;&gt;user/friendship.ts</title>
<path fill="none" stroke="#757575" d="M587.13,-793.46C652.48,-790.82 774.91,-790.52 853.07,-792.57"/>
<polygon fill="#757575" stroke="#757575" points="853.22,-796.07 863.32,-792.86 853.42,-789.08 853.22,-796.07"/>
</g>
<!-- user/inventory/inventory&#45;item.ts -->
<g id="node34" class="node">
<title>user/inventory/inventory&#45;item.ts</title>
<path fill="none" stroke="#c6c5fe" d="M1023.83,-850.48C1023.83,-850.48 828.17,-850.48 828.17,-850.48 824.33,-850.48 820.5,-846.65 820.5,-842.81 820.5,-842.81 820.5,-835.15 820.5,-835.15 820.5,-831.31 824.33,-827.48 828.17,-827.48 828.17,-827.48 1023.83,-827.48 1023.83,-827.48 1027.67,-827.48 1031.5,-831.31 1031.5,-835.15 1031.5,-835.15 1031.5,-842.81 1031.5,-842.81 1031.5,-846.65 1027.67,-850.48 1023.83,-850.48"/>
<text text-anchor="middle" x="926" y="-835.28" font-family="Arial" font-size="14.00" fill="#c6c5fe">user/inventory/inventory&#45;item.ts</text>
</g>
<!-- user/user.ts&#45;&gt;user/inventory/inventory&#45;item.ts -->
<g id="edge78" class="edge">
<title>user/user.ts&#45;&gt;user/inventory/inventory&#45;item.ts</title>
<path fill="none" stroke="#757575" d="M587.13,-802.76C641.44,-808.59 735.19,-818.63 810.18,-826.67"/>
<polygon fill="#757575" stroke="#757575" points="809.85,-830.16 820.16,-827.74 810.59,-823.2 809.85,-830.16"/>
</g>
<!-- user/user&#45;attribute.ts -->
<g id="node36" class="node">
<title>user/user&#45;attribute.ts</title>
<path fill="none" stroke="#cfffac" d="M991.33,-768.48C991.33,-768.48 860.67,-768.48 860.67,-768.48 856.83,-768.48 853,-764.65 853,-760.81 853,-760.81 853,-753.15 853,-753.15 853,-749.31 856.83,-745.48 860.67,-745.48 860.67,-745.48 991.33,-745.48 991.33,-745.48 995.17,-745.48 999,-749.31 999,-753.15 999,-753.15 999,-760.81 999,-760.81 999,-764.65 995.17,-768.48 991.33,-768.48"/>
<text text-anchor="middle" x="926" y="-753.28" font-family="Arial" font-size="14.00" fill="#cfffac">user/user&#45;attribute.ts</text>
</g>
<!-- user/user.ts&#45;&gt;user/user&#45;attribute.ts -->
<g id="edge79" class="edge">
<title>user/user.ts&#45;&gt;user/user&#45;attribute.ts</title>
<path fill="none" stroke="#757575" d="M587.13,-793.2C649.65,-786.49 764.42,-774.19 842.68,-765.8"/>
<polygon fill="#757575" stroke="#757575" points="843.42,-769.24 852.99,-764.7 842.67,-762.28 843.42,-769.24"/>
</g>
<!-- models/bounding&#45;box.ts&#45;&gt;models/vector.ts -->
<g id="edge16" class="edge">
<title>models/bounding&#45;box.ts&#45;&gt;models/vector.ts</title>
<path fill="none" stroke="#757575" d="M2393.53,-530.19C2446.38,-530.28 2514.87,-524.32 2570,-498.98 2627.13,-472.72 2675.7,-414.03 2698.54,-383.04"/>
<polygon fill="#757575" stroke="#757575" points="2701.52,-384.89 2704.53,-374.73 2695.84,-380.79 2701.52,-384.89"/>
</g>
<!-- models/tile&#45;pixel.ts&#45;&gt;service/map&#45;attributes&#45;holder.ts -->
<g id="edge25" class="edge">
<title>models/tile&#45;pixel.ts&#45;&gt;service/map&#45;attributes&#45;holder.ts</title>
<path fill="none" stroke="#757575" d="M2542.62,-577.57C2552.04,-581.35 2561.77,-586.13 2570,-591.98 2627.99,-633.24 2677.44,-703.03 2699.77,-737.49"/>
<polygon fill="#757575" stroke="#757575" points="2697.01,-739.66 2705.34,-746.21 2702.91,-735.9 2697.01,-739.66"/>
</g>
<!-- models/tile&#45;pixel.ts&#45;&gt;models/vector.ts -->
<g id="edge24" class="edge">
<title>models/tile&#45;pixel.ts&#45;&gt;models/vector.ts</title>
<path fill="none" stroke="#757575" d="M2539.97,-554.42C2550.23,-550.17 2561.04,-544.71 2570,-537.98 2629.24,-493.48 2678.71,-419.23 2700.53,-383.47"/>
<polygon fill="#757575" stroke="#757575" points="2703.55,-385.23 2705.7,-374.85 2697.55,-381.62 2703.55,-385.23"/>
</g>
<!-- models/site&#45;tile&#45;position.ts&#45;&gt;models/tile&#45;pixel.ts -->
<g id="edge20" class="edge">
<title>models/site&#45;tile&#45;position.ts&#45;&gt;models/tile&#45;pixel.ts</title>
<path fill="none" stroke="#757575" d="M2400.1,-565.98C2408.69,-565.98 2417.34,-565.98 2425.78,-565.98"/>
<polygon fill="#757575" stroke="#757575" points="2425.95,-569.48 2435.95,-565.98 2425.95,-562.48 2425.95,-569.48"/>
</g>
<!-- service/generic&#45;map&#45;factory/game&#45;map&#45;map&#45;factory.ts&#45;&gt;models/vector.ts -->
<g id="edge31" class="edge">
<title>service/generic&#45;map&#45;factory/game&#45;map&#45;map&#45;factory.ts&#45;&gt;models/vector.ts</title>
<path fill="none" stroke="#757575" d="M711.62,-644.22C714.91,-641.72 718.05,-638.98 721,-635.98 780.46,-575.49 698.21,-317.12 757,-255.98 843.72,-165.79 1189.88,-180.98 1315,-180.98 1315,-180.98 1315,-180.98 2310,-180.98 2425.9,-180.98 2466.31,-149.21 2570,-200.98 2633.41,-232.64 2680.93,-306 2701.41,-342.12"/>
<polygon fill="#757575" stroke="#757575" points="2698.56,-344.19 2706.46,-351.25 2704.69,-340.81 2698.56,-344.19"/>
</g>
<!-- service/generic&#45;map&#45;factory/generic&#45;map&#45;factory.ts -->
<g id="node26" class="node">
<title>service/generic&#45;map&#45;factory/generic&#45;map&#45;factory.ts</title>
<path fill="none" stroke="#c6c5fe" d="M1087.33,-681.48C1087.33,-681.48 764.67,-681.48 764.67,-681.48 760.83,-681.48 757,-677.65 757,-673.81 757,-673.81 757,-666.15 757,-666.15 757,-662.31 760.83,-658.48 764.67,-658.48 764.67,-658.48 1087.33,-658.48 1087.33,-658.48 1091.17,-658.48 1095,-662.31 1095,-666.15 1095,-666.15 1095,-673.81 1095,-673.81 1095,-677.65 1091.17,-681.48 1087.33,-681.48"/>
<text text-anchor="middle" x="926" y="-666.28" font-family="Arial" font-size="14.00" fill="#c6c5fe">service/generic&#45;map&#45;factory/generic&#45;map&#45;factory.ts</text>
</g>
<!-- service/generic&#45;map&#45;factory/game&#45;map&#45;map&#45;factory.ts&#45;&gt;service/generic&#45;map&#45;factory/generic&#45;map&#45;factory.ts -->
<g id="edge32" class="edge">
<title>service/generic&#45;map&#45;factory/game&#45;map&#45;map&#45;factory.ts&#45;&gt;service/generic&#45;map&#45;factory/generic&#45;map&#45;factory.ts</title>
<path fill="none" stroke="#757575" d="M721.15,-662.52C729.68,-662.83 738.25,-663.14 746.78,-663.46"/>
<polygon fill="#757575" stroke="#757575" points="746.65,-666.95 756.77,-663.82 746.91,-659.96 746.65,-666.95"/>
</g>
<!-- service/generic&#45;map&#45;factory/game&#45;map&#45;map&#45;factory.ts&#45;&gt;service/generic&#45;map&#45;factory/layer&#45;factory/layer&#45;factory.ts -->
<g id="edge33" class="edge">
<title>service/generic&#45;map&#45;factory/game&#45;map&#45;map&#45;factory.ts&#45;&gt;service/generic&#45;map&#45;factory/layer&#45;factory/layer&#45;factory.ts</title>
<path fill="none" stroke="#757575" d="M667.1,-644.46C779.49,-636.49 949.06,-630.43 1095,-649.98 1158.52,-658.49 1229.68,-680.23 1273.42,-695.06"/>
<polygon fill="#757575" stroke="#757575" points="1272.53,-698.46 1283.12,-698.4 1274.8,-691.84 1272.53,-698.46"/>
</g>
<!-- service/generic&#45;map&#45;factory/generic&#45;map&#45;factory.ts&#45;&gt;service/woirld&#45;map&#45;resolver.ts -->
<g id="edge38" class="edge">
<title>service/generic&#45;map&#45;factory/generic&#45;map&#45;factory.ts&#45;&gt;service/woirld&#45;map&#45;resolver.ts</title>
<path fill="none" stroke="#757575" d="M970.75,-658.48C1042.17,-639.7 1183.56,-602.53 1261.07,-582.16"/>
<polygon fill="#757575" stroke="#757575" points="1262.33,-585.45 1271.11,-579.52 1260.55,-578.68 1262.33,-585.45"/>
</g>
<!-- service/generic&#45;map&#45;factory/generic&#45;map&#45;factory.ts&#45;&gt;models/vector.ts -->
<g id="edge34" class="edge">
<title>service/generic&#45;map&#45;factory/generic&#45;map&#45;factory.ts&#45;&gt;models/vector.ts</title>
<path fill="none" stroke="#757575" d="M942.37,-658.44C1008.79,-609.39 1279.42,-417.81 1537,-353.98 1945.04,-252.87 2457.47,-320.29 2642.14,-350.5"/>
<polygon fill="#757575" stroke="#757575" points="2641.82,-354 2652.26,-352.17 2642.96,-347.09 2641.82,-354"/>
</g>
<!-- service/generic&#45;map&#45;factory/generic&#45;map&#45;factory.ts&#45;&gt;service/generic&#45;map&#45;factory/layer&#45;factory/layer&#45;factory.ts -->
<g id="edge36" class="edge">
<title>service/generic&#45;map&#45;factory/generic&#45;map&#45;factory.ts&#45;&gt;service/generic&#45;map&#45;factory/layer&#45;factory/layer&#45;factory.ts</title>
<path fill="none" stroke="#757575" d="M1038.71,-681.5C1087.09,-686.48 1143.85,-692.34 1193.3,-697.43"/>
<polygon fill="#757575" stroke="#757575" points="1193.11,-700.93 1203.41,-698.48 1193.82,-693.97 1193.11,-700.93"/>
</g>
<!-- service/generic&#45;map&#45;factory/generic&#45;map&#45;validator.ts -->
<g id="node28" class="node">
<title>service/generic&#45;map&#45;factory/generic&#45;map&#45;validator.ts</title>
<path fill="none" stroke="#c6c5fe" d="M1909.83,-891.48C1909.83,-891.48 1577.17,-891.48 1577.17,-891.48 1573.33,-891.48 1569.5,-887.65 1569.5,-883.81 1569.5,-883.81 1569.5,-876.15 1569.5,-876.15 1569.5,-872.31 1573.33,-868.48 1577.17,-868.48 1577.17,-868.48 1909.83,-868.48 1909.83,-868.48 1913.67,-868.48 1917.5,-872.31 1917.5,-876.15 1917.5,-876.15 1917.5,-883.81 1917.5,-883.81 1917.5,-887.65 1913.67,-891.48 1909.83,-891.48"/>
<text text-anchor="middle" x="1743.5" y="-876.28" font-family="Arial" font-size="14.00" fill="#c6c5fe">service/generic&#45;map&#45;factory/generic&#45;map&#45;validator.ts</text>
</g>
<!-- service/generic&#45;map&#45;factory/generic&#45;map&#45;factory.ts&#45;&gt;service/generic&#45;map&#45;factory/generic&#45;map&#45;validator.ts -->
<g id="edge35" class="edge">
<title>service/generic&#45;map&#45;factory/generic&#45;map&#45;factory.ts&#45;&gt;service/generic&#45;map&#45;factory/generic&#45;map&#45;validator.ts</title>
<path fill="none" stroke="#757575" d="M970.22,-681.55C1005.72,-692.33 1056.28,-710.72 1095,-736.98 1114.25,-750.04 1110.21,-764.54 1131,-774.98 1278.99,-849.3 1351.51,-747.72 1501,-818.98 1521.14,-828.58 1516.89,-844.3 1537,-853.98 1546.33,-858.47 1556.16,-862.28 1566.27,-865.51"/>
<polygon fill="#757575" stroke="#757575" points="1565.44,-868.91 1576.03,-868.42 1567.45,-862.21 1565.44,-868.91"/>
</g>
<!-- service/generic&#45;map&#45;factory/generic&#45;map&#45;factory.ts&#45;&gt;service/map.d.ts -->
<g id="edge37" class="edge">
<title>service/generic&#45;map&#45;factory/generic&#45;map&#45;factory.ts&#45;&gt;service/map.d.ts</title>
<path fill="none" stroke="#757575" d="M959.41,-681.56C999.29,-695.37 1069.29,-718.18 1131,-730.98 1293.15,-764.6 1354.9,-697 1501,-774.98 1522.69,-786.56 1514.85,-806.32 1537,-816.98 1619.07,-856.47 1885.29,-847.4 2013.17,-840.41"/>
<polygon fill="#757575" stroke="#757575" points="2013.46,-843.9 2023.25,-839.85 2013.07,-836.91 2013.46,-843.9"/>
</g>
<!-- service/generic&#45;map&#45;factory/layer&#45;factory/layer&#45;factory.ts&#45;&gt;models/vector.ts -->
<g id="edge40" class="edge">
<title>service/generic&#45;map&#45;factory/layer&#45;factory/layer&#45;factory.ts&#45;&gt;models/vector.ts</title>
<path fill="none" stroke="#757575" d="M1501.09,-713.85C1807.03,-716.75 2403.05,-706.28 2570,-586.98 2644.12,-534.01 2688.73,-429.31 2705.22,-384.33"/>
<polygon fill="#757575" stroke="#757575" points="2708.58,-385.31 2708.64,-374.72 2701.99,-382.97 2708.58,-385.31"/>
</g>
<!-- service/generic&#45;map&#45;factory/layer&#45;factory/layer&#45;factory.ts&#45;&gt;service/map.d.ts -->
<g id="edge42" class="edge">
<title>service/generic&#45;map&#45;factory/layer&#45;factory/layer&#45;factory.ts&#45;&gt;service/map.d.ts</title>
<path fill="none" stroke="#757575" d="M1428.64,-721.57C1453.43,-727.06 1478.89,-735.13 1501,-746.98 1520.94,-757.67 1516.54,-773.32 1537,-782.98 1558.21,-792.99 1870.32,-819 2012.89,-830.44"/>
<polygon fill="#757575" stroke="#757575" points="2013.02,-833.96 2023.27,-831.27 2013.58,-826.98 2013.02,-833.96"/>
</g>
<!-- service/generic&#45;map&#45;factory/layer&#45;factory/object&#45;layer&#45;factory.ts -->
<g id="node30" class="node">
<title>service/generic&#45;map&#45;factory/layer&#45;factory/object&#45;layer&#45;factory.ts</title>
<path fill="none" stroke="#ff6c60" d="M1942.33,-773.48C1942.33,-773.48 1544.67,-773.48 1544.67,-773.48 1540.83,-773.48 1537,-769.65 1537,-765.81 1537,-765.81 1537,-758.15 1537,-758.15 1537,-754.31 1540.83,-750.48 1544.67,-750.48 1544.67,-750.48 1942.33,-750.48 1942.33,-750.48 1946.17,-750.48 1950,-754.31 1950,-758.15 1950,-758.15 1950,-765.81 1950,-765.81 1950,-769.65 1946.17,-773.48 1942.33,-773.48"/>
<text text-anchor="middle" x="1743.5" y="-758.28" font-family="Arial" font-size="14.00" fill="#ff6c60">service/generic&#45;map&#45;factory/layer&#45;factory/object&#45;layer&#45;factory.ts</text>
</g>
<!-- service/generic&#45;map&#45;factory/layer&#45;factory/layer&#45;factory.ts&#45;&gt;service/generic&#45;map&#45;factory/layer&#45;factory/object&#45;layer&#45;factory.ts -->
<g id="edge41" class="edge">
<title>service/generic&#45;map&#45;factory/layer&#45;factory/layer&#45;factory.ts&#45;&gt;service/generic&#45;map&#45;factory/layer&#45;factory/object&#45;layer&#45;factory.ts</title>
<path fill="none" stroke="#757575" d="M1464.03,-721.49C1536.54,-729.68 1620.35,-740.4 1676.93,-748.93"/>
<polygon fill="#757575" stroke="#757575" points="1676.4,-752.39 1686.82,-750.44 1677.46,-745.47 1676.4,-752.39"/>
</g>
<!-- service/generic&#45;map&#45;factory/generic&#45;map&#45;validator.ts&#45;&gt;service/map.d.ts -->
<g id="edge39" class="edge">
<title>service/generic&#45;map&#45;factory/generic&#45;map&#45;validator.ts&#45;&gt;service/map.d.ts</title>
<path fill="none" stroke="#757575" d="M1836.85,-868.47C1872.24,-864.01 1913.01,-858.82 1950,-853.98 1970.55,-851.29 1992.89,-848.29 2013.28,-845.53"/>
<polygon fill="#757575" stroke="#757575" points="2013.99,-848.97 2023.43,-844.15 2013.05,-842.03 2013.99,-848.97"/>
</g>
<!-- service/generic&#45;map&#45;factory/layer&#45;factory/object&#45;layer&#45;factory.ts&#45;&gt;service/generic&#45;map&#45;factory/layer&#45;factory/layer&#45;factory.ts -->
<g id="edge43" class="edge">
<title>service/generic&#45;map&#45;factory/layer&#45;factory/object&#45;layer&#45;factory.ts&#45;&gt;service/generic&#45;map&#45;factory/layer&#45;factory/layer&#45;factory.ts</title>
<path fill="none" stroke="#757575" d="M1595.3,-750.45C1522.95,-742.27 1439.39,-731.59 1382.86,-723.07"/>
<polygon fill="#757575" stroke="#757575" points="1383.04,-719.56 1372.63,-721.51 1381.98,-726.48 1383.04,-719.56"/>
</g>
<!-- service/generic&#45;map&#45;factory/layer&#45;factory/object&#45;layer&#45;factory.ts&#45;&gt;service/map.d.ts -->
<g id="edge44" class="edge">
<title>service/generic&#45;map&#45;factory/layer&#45;factory/object&#45;layer&#45;factory.ts&#45;&gt;service/map.d.ts</title>
<path fill="none" stroke="#757575" d="M1894.94,-773.52C1913.76,-777.14 1932.52,-781.85 1950,-787.98 1967.7,-794.18 1968.77,-802.59 1986,-809.98 1996.47,-814.47 2007.92,-818.36 2019.16,-821.67"/>
<polygon fill="#757575" stroke="#757575" points="2018.38,-825.09 2028.96,-824.43 2020.28,-818.35 2018.38,-825.09"/>
</g>
<!-- user/user&#45;map&#45;attributes.ts -->
<g id="node37" class="node">
<title>user/user&#45;map&#45;attributes.ts</title>
<path fill="none" stroke="#c6c5fe" d="M1010.83,-891.48C1010.83,-891.48 841.17,-891.48 841.17,-891.48 837.33,-891.48 833.5,-887.65 833.5,-883.81 833.5,-883.81 833.5,-876.15 833.5,-876.15 833.5,-872.31 837.33,-868.48 841.17,-868.48 841.17,-868.48 1010.83,-868.48 1010.83,-868.48 1014.67,-868.48 1018.5,-872.31 1018.5,-876.15 1018.5,-876.15 1018.5,-883.81 1018.5,-883.81 1018.5,-887.65 1014.67,-891.48 1010.83,-891.48"/>
<text text-anchor="middle" x="926" y="-876.28" font-family="Arial" font-size="14.00" fill="#c6c5fe">user/user&#45;map&#45;attributes.ts</text>
</g>
<!-- user/user&#45;map&#45;attributes&#45;loader.ts&#45;&gt;user/user&#45;map&#45;attributes.ts -->
<g id="edge75" class="edge">
<title>user/user&#45;map&#45;attributes&#45;loader.ts&#45;&gt;user/user&#45;map&#45;attributes.ts</title>
<path fill="none" stroke="#757575" d="M656.74,-879.98C709.68,-879.98 772.07,-879.98 823.35,-879.98"/>
<polygon fill="#757575" stroke="#757575" points="823.45,-883.48 833.45,-879.98 823.45,-876.48 823.45,-883.48"/>
</g>
<!-- user/friendship.ts&#45;&gt;user/user.ts -->
<g id="edge73" class="edge">
<title>user/friendship.ts&#45;&gt;user/user.ts</title>
<path fill="none" stroke="#757575" d="M863.32,-803.1C789.64,-805.35 667.54,-805.27 597.13,-802.87"/>
<polygon fill="#757575" stroke="#757575" points="597.25,-799.38 587.13,-802.5 596.99,-806.37 597.25,-799.38"/>
</g>
<!-- user/inventory/inventory&#45;item&#45;type.ts -->
<g id="node33" class="node">
<title>user/inventory/inventory&#45;item&#45;type.ts</title>
<path fill="none" stroke="#cfffac" d="M1429.33,-850.48C1429.33,-850.48 1202.67,-850.48 1202.67,-850.48 1198.83,-850.48 1195,-846.65 1195,-842.81 1195,-842.81 1195,-835.15 1195,-835.15 1195,-831.31 1198.83,-827.48 1202.67,-827.48 1202.67,-827.48 1429.33,-827.48 1429.33,-827.48 1433.17,-827.48 1437,-831.31 1437,-835.15 1437,-835.15 1437,-842.81 1437,-842.81 1437,-846.65 1433.17,-850.48 1429.33,-850.48"/>
<text text-anchor="middle" x="1316" y="-835.28" font-family="Arial" font-size="14.00" fill="#cfffac">user/inventory/inventory&#45;item&#45;type.ts</text>
</g>
<!-- user/inventory/inventory&#45;item.ts&#45;&gt;user/inventory/inventory&#45;item&#45;type.ts -->
<g id="edge74" class="edge">
<title>user/inventory/inventory&#45;item.ts&#45;&gt;user/inventory/inventory&#45;item&#45;type.ts</title>
<path fill="none" stroke="#757575" d="M1031.74,-838.98C1078.78,-838.98 1134.76,-838.98 1184.49,-838.98"/>
<polygon fill="#757575" stroke="#757575" points="1184.68,-842.48 1194.68,-838.98 1184.68,-835.48 1184.68,-842.48"/>
</g>
<!-- user/private&#45;map&#45;override.ts -->
<g id="node35" class="node">
<title>user/private&#45;map&#45;override.ts</title>
<path fill="none" stroke="#cfffac" d="M1405.33,-891.48C1405.33,-891.48 1226.67,-891.48 1226.67,-891.48 1222.83,-891.48 1219,-887.65 1219,-883.81 1219,-883.81 1219,-876.15 1219,-876.15 1219,-872.31 1222.83,-868.48 1226.67,-868.48 1226.67,-868.48 1405.33,-868.48 1405.33,-868.48 1409.17,-868.48 1413,-872.31 1413,-876.15 1413,-876.15 1413,-883.81 1413,-883.81 1413,-887.65 1409.17,-891.48 1405.33,-891.48"/>
<text text-anchor="middle" x="1316" y="-876.28" font-family="Arial" font-size="14.00" fill="#cfffac">user/private&#45;map&#45;override.ts</text>
</g>
<!-- user/user&#45;map&#45;attributes.ts&#45;&gt;user/private&#45;map&#45;override.ts -->
<g id="edge76" class="edge">
<title>user/user&#45;map&#45;attributes.ts&#45;&gt;user/private&#45;map&#45;override.ts</title>
<path fill="none" stroke="#757575" d="M1018.95,-879.98C1075.94,-879.98 1149.34,-879.98 1208.8,-879.98"/>
<polygon fill="#757575" stroke="#757575" points="1208.98,-883.48 1218.98,-879.98 1208.98,-876.48 1208.98,-883.48"/>
</g>
</g>
</svg>
