<?xml version="1.0" encoding="UTF-8" standalone="no"?>
<!DOCTYPE svg PUBLIC "-//W3C//DTD SVG 1.1//EN"
 "http://www.w3.org/Graphics/SVG/1.1/DTD/svg11.dtd">
<!-- Generated by graphviz version 2.47.2 (20210527.0053)
 -->
<!-- Title: G Pages: 1 -->
<svg width="2935pt" height="1057pt"
 viewBox="0.00 0.00 2935.20 1056.83" xmlns="http://www.w3.org/2000/svg" xmlns:xlink="http://www.w3.org/1999/xlink">
<g id="graph0" class="graph" transform="scale(1 1) rotate(0) translate(21.6 1035.23)">
<title>G</title>
<polygon fill="#111111" stroke="transparent" points="-21.6,21.6 -21.6,-1035.23 2913.6,-1035.23 2913.6,21.6 -21.6,21.6"/>
<!-- ../../../jonny&#45;maps/scripts/index.d.ts -->
<g id="node1" class="node">
<title>../../../jonny&#45;maps/scripts/index.d.ts</title>
<path fill="none" stroke="#cfffac" d="M721.33,-826.63C721.33,-826.63 503.67,-826.63 503.67,-826.63 499.83,-826.63 496,-822.8 496,-818.97 496,-818.97 496,-811.3 496,-811.3 496,-807.47 499.83,-803.63 503.67,-803.63 503.67,-803.63 721.33,-803.63 721.33,-803.63 725.17,-803.63 729,-807.47 729,-811.3 729,-811.3 729,-818.97 729,-818.97 729,-822.8 725.17,-826.63 721.33,-826.63"/>
<text text-anchor="middle" x="612.5" y="-811.43" font-family="Arial" font-size="14.00" fill="#cfffac">../../../jonny&#45;maps/scripts/index.d.ts</text>
</g>
<!-- ../../public/users.d.ts -->
<g id="node2" class="node">
<title>../../public/users.d.ts</title>
<path fill="none" stroke="#cfffac" d="M676.33,-1013.63C676.33,-1013.63 548.67,-1013.63 548.67,-1013.63 544.83,-1013.63 541,-1009.8 541,-1005.97 541,-1005.97 541,-998.3 541,-998.3 541,-994.47 544.83,-990.63 548.67,-990.63 548.67,-990.63 676.33,-990.63 676.33,-990.63 680.17,-990.63 684,-994.47 684,-998.3 684,-998.3 684,-1005.97 684,-1005.97 684,-1009.8 680.17,-1013.63 676.33,-1013.63"/>
<text text-anchor="middle" x="612.5" y="-998.43" font-family="Arial" font-size="14.00" fill="#cfffac">../../public/users.d.ts</text>
</g>
<!-- ../../util/memory&#45;cache.ts -->
<g id="node3" class="node">
<title>../../util/memory&#45;cache.ts</title>
<path fill="none" stroke="#cfffac" d="M343.33,-945.63C343.33,-945.63 188.67,-945.63 188.67,-945.63 184.83,-945.63 181,-941.8 181,-937.97 181,-937.97 181,-930.3 181,-930.3 181,-926.47 184.83,-922.63 188.67,-922.63 188.67,-922.63 343.33,-922.63 343.33,-922.63 347.17,-922.63 351,-926.47 351,-930.3 351,-930.3 351,-937.97 351,-937.97 351,-941.8 347.17,-945.63 343.33,-945.63"/>
<text text-anchor="middle" x="266" y="-930.43" font-family="Arial" font-size="14.00" fill="#cfffac">../../util/memory&#45;cache.ts</text>
</g>
<!-- api.proxy.ts -->
<g id="node4" class="node">
<title>api.proxy.ts</title>
<path fill="none" stroke="#c6c5fe" d="M86.33,-945.63C86.33,-945.63 12.67,-945.63 12.67,-945.63 8.83,-945.63 5,-941.8 5,-937.97 5,-937.97 5,-930.3 5,-930.3 5,-926.47 8.83,-922.63 12.67,-922.63 12.67,-922.63 86.33,-922.63 86.33,-922.63 90.17,-922.63 94,-926.47 94,-930.3 94,-930.3 94,-937.97 94,-937.97 94,-941.8 90.17,-945.63 86.33,-945.63"/>
<text text-anchor="middle" x="49.5" y="-930.43" font-family="Arial" font-size="14.00" fill="#c6c5fe">api.proxy.ts</text>
</g>
<!-- api.proxy.ts&#45;&gt;../../public/users.d.ts -->
<g id="edge1" class="edge">
<title>api.proxy.ts&#45;&gt;../../public/users.d.ts</title>
<path fill="none" stroke="#757575" d="M91.94,-945.7C105.56,-949.17 120.85,-952.69 135,-955.13 272.92,-978.94 435.53,-991.76 530.7,-997.75"/>
<polygon fill="#757575" stroke="#757575" points="530.63,-1001.25 540.83,-998.38 531.06,-994.27 530.63,-1001.25"/>
</g>
<!-- api.proxy.ts&#45;&gt;../../util/memory&#45;cache.ts -->
<g id="edge2" class="edge">
<title>api.proxy.ts&#45;&gt;../../util/memory&#45;cache.ts</title>
<path fill="none" stroke="#757575" d="M94.17,-934.13C116.22,-934.13 143.88,-934.13 170.48,-934.13"/>
<polygon fill="#757575" stroke="#757575" points="170.61,-937.63 180.61,-934.13 170.61,-930.63 170.61,-937.63"/>
</g>
<!-- message&#45;communication.ts -->
<g id="node5" class="node">
<title>message&#45;communication.ts</title>
<path fill="none" stroke="#c6c5fe" d="M353.83,-628.63C353.83,-628.63 178.17,-628.63 178.17,-628.63 174.33,-628.63 170.5,-624.8 170.5,-620.97 170.5,-620.97 170.5,-613.3 170.5,-613.3 170.5,-609.47 174.33,-605.63 178.17,-605.63 178.17,-605.63 353.83,-605.63 353.83,-605.63 357.67,-605.63 361.5,-609.47 361.5,-613.3 361.5,-613.3 361.5,-620.97 361.5,-620.97 361.5,-624.8 357.67,-628.63 353.83,-628.63"/>
<text text-anchor="middle" x="266" y="-613.43" font-family="Arial" font-size="14.00" fill="#c6c5fe">message&#45;communication.ts</text>
</g>
<!-- api.proxy.ts&#45;&gt;message&#45;communication.ts -->
<g id="edge3" class="edge">
<title>api.proxy.ts&#45;&gt;message&#45;communication.ts</title>
<path fill="none" stroke="#757575" d="M58.39,-922.47C90.38,-875.19 210.68,-697.4 251.42,-637.2"/>
<polygon fill="#757575" stroke="#757575" points="254.33,-639.14 257.04,-628.9 248.54,-635.22 254.33,-639.14"/>
</g>
<!-- user/user.ts -->
<g id="node18" class="node">
<title>user/user.ts</title>
<path fill="none" stroke="#ff6c60" d="M650.33,-608.63C650.33,-608.63 574.67,-608.63 574.67,-608.63 570.83,-608.63 567,-604.8 567,-600.97 567,-600.97 567,-593.3 567,-593.3 567,-589.47 570.83,-585.63 574.67,-585.63 574.67,-585.63 650.33,-585.63 650.33,-585.63 654.17,-585.63 658,-589.47 658,-593.3 658,-593.3 658,-600.97 658,-600.97 658,-604.8 654.17,-608.63 650.33,-608.63"/>
<text text-anchor="middle" x="612.5" y="-593.43" font-family="Arial" font-size="14.00" fill="#ff6c60">user/user.ts</text>
</g>
<!-- message&#45;communication.ts&#45;&gt;user/user.ts -->
<g id="edge16" class="edge">
<title>message&#45;communication.ts&#45;&gt;user/user.ts</title>
<path fill="none" stroke="#757575" d="M361.59,-611.64C424.34,-608 504.47,-603.35 556.85,-600.3"/>
<polygon fill="#757575" stroke="#757575" points="557.16,-603.79 566.94,-599.72 556.75,-596.8 557.16,-603.79"/>
</g>
<!-- mapserver.ts -->
<g id="node6" class="node">
<title>mapserver.ts</title>
<path fill="none" stroke="#c6c5fe" d="M91.33,-333.63C91.33,-333.63 7.67,-333.63 7.67,-333.63 3.83,-333.63 0,-329.8 0,-325.97 0,-325.97 0,-318.3 0,-318.3 0,-314.47 3.83,-310.63 7.67,-310.63 7.67,-310.63 91.33,-310.63 91.33,-310.63 95.17,-310.63 99,-314.47 99,-318.3 99,-318.3 99,-325.97 99,-325.97 99,-329.8 95.17,-333.63 91.33,-333.63"/>
<text text-anchor="middle" x="49.5" y="-318.43" font-family="Arial" font-size="14.00" fill="#c6c5fe">mapserver.ts</text>
</g>
<!-- models/location.ts -->
<g id="node7" class="node">
<title>models/location.ts</title>
<path fill="none" stroke="#c6c5fe" d="M2437.83,-357.63C2437.83,-357.63 2322.17,-357.63 2322.17,-357.63 2318.33,-357.63 2314.5,-353.8 2314.5,-349.97 2314.5,-349.97 2314.5,-342.3 2314.5,-342.3 2314.5,-338.47 2318.33,-334.63 2322.17,-334.63 2322.17,-334.63 2437.83,-334.63 2437.83,-334.63 2441.67,-334.63 2445.5,-338.47 2445.5,-342.3 2445.5,-342.3 2445.5,-349.97 2445.5,-349.97 2445.5,-353.8 2441.67,-357.63 2437.83,-357.63"/>
<text text-anchor="middle" x="2380" y="-342.43" font-family="Arial" font-size="14.00" fill="#c6c5fe">models/location.ts</text>
</g>
<!-- mapserver.ts&#45;&gt;models/location.ts -->
<g id="edge4" class="edge">
<title>mapserver.ts&#45;&gt;models/location.ts</title>
<path fill="none" stroke="#757575" d="M99.26,-319.37C196.6,-314.1 421.96,-303.13 611.5,-303.13 611.5,-303.13 611.5,-303.13 1388,-303.13 1730.63,-303.13 2139.27,-329.1 2304.36,-340.68"/>
<polygon fill="#757575" stroke="#757575" points="2304.18,-344.17 2314.4,-341.39 2304.67,-337.19 2304.18,-344.17"/>
</g>
<!-- models/site.ts -->
<g id="node8" class="node">
<title>models/site.ts</title>
<path fill="none" stroke="#c6c5fe" d="M2199.83,-393.63C2199.83,-393.63 2110.17,-393.63 2110.17,-393.63 2106.33,-393.63 2102.5,-389.8 2102.5,-385.97 2102.5,-385.97 2102.5,-378.3 2102.5,-378.3 2102.5,-374.47 2106.33,-370.63 2110.17,-370.63 2110.17,-370.63 2199.83,-370.63 2199.83,-370.63 2203.67,-370.63 2207.5,-374.47 2207.5,-378.3 2207.5,-378.3 2207.5,-385.97 2207.5,-385.97 2207.5,-389.8 2203.67,-393.63 2199.83,-393.63"/>
<text text-anchor="middle" x="2155" y="-378.43" font-family="Arial" font-size="14.00" fill="#c6c5fe">models/site.ts</text>
</g>
<!-- mapserver.ts&#45;&gt;models/site.ts -->
<g id="edge5" class="edge">
<title>mapserver.ts&#45;&gt;models/site.ts</title>
<path fill="none" stroke="#757575" d="M99.26,-324.89C196.6,-330.16 421.96,-341.13 611.5,-341.13 611.5,-341.13 611.5,-341.13 1388,-341.13 1650.25,-341.13 1962.28,-365.39 2092.34,-376.59"/>
<polygon fill="#757575" stroke="#757575" points="2092.23,-380.09 2102.5,-377.47 2092.84,-373.12 2092.23,-380.09"/>
</g>
<!-- models/tile.ts -->
<g id="node9" class="node">
<title>models/tile.ts</title>
<path fill="none" stroke="#cfffac" d="M2616.83,-119.63C2616.83,-119.63 2531.17,-119.63 2531.17,-119.63 2527.33,-119.63 2523.5,-115.8 2523.5,-111.97 2523.5,-111.97 2523.5,-104.3 2523.5,-104.3 2523.5,-100.47 2527.33,-96.63 2531.17,-96.63 2531.17,-96.63 2616.83,-96.63 2616.83,-96.63 2620.67,-96.63 2624.5,-100.47 2624.5,-104.3 2624.5,-104.3 2624.5,-111.97 2624.5,-111.97 2624.5,-115.8 2620.67,-119.63 2616.83,-119.63"/>
<text text-anchor="middle" x="2574" y="-104.43" font-family="Arial" font-size="14.00" fill="#cfffac">models/tile.ts</text>
</g>
<!-- mapserver.ts&#45;&gt;models/tile.ts -->
<g id="edge6" class="edge">
<title>mapserver.ts&#45;&gt;models/tile.ts</title>
<path fill="none" stroke="#757575" d="M53.72,-310.54C62.08,-282.74 87.21,-211.98 135,-177.13 310.22,-49.37 394.64,-72.13 611.5,-72.13 611.5,-72.13 611.5,-72.13 2156,-72.13 2283.7,-72.13 2432.58,-89.1 2513.39,-99.73"/>
<polygon fill="#757575" stroke="#757575" points="2513,-103.21 2523.37,-101.06 2513.92,-96.27 2513,-103.21"/>
</g>
<!-- service/address&#45;from&#45;geo.ts -->
<g id="node10" class="node">
<title>service/address&#45;from&#45;geo.ts</title>
<path fill="none" stroke="#c6c5fe" d="M2245.33,-237.63C2245.33,-237.63 2064.67,-237.63 2064.67,-237.63 2060.83,-237.63 2057,-233.8 2057,-229.97 2057,-229.97 2057,-222.3 2057,-222.3 2057,-218.47 2060.83,-214.63 2064.67,-214.63 2064.67,-214.63 2245.33,-214.63 2245.33,-214.63 2249.17,-214.63 2253,-218.47 2253,-222.3 2253,-222.3 2253,-229.97 2253,-229.97 2253,-233.8 2249.17,-237.63 2245.33,-237.63"/>
<text text-anchor="middle" x="2155" y="-222.43" font-family="Arial" font-size="14.00" fill="#c6c5fe">service/address&#45;from&#45;geo.ts</text>
</g>
<!-- mapserver.ts&#45;&gt;service/address&#45;from&#45;geo.ts -->
<g id="edge7" class="edge">
<title>mapserver.ts&#45;&gt;service/address&#45;from&#45;geo.ts</title>
<path fill="none" stroke="#757575" d="M54.57,-310.6C64.08,-285.64 90.4,-227.05 135,-204.13 238.57,-150.91 280.56,-203.49 397,-204.13 1118.81,-208.13 1299.33,-207.28 2021,-222.13 2029.3,-222.3 2037.89,-222.5 2046.53,-222.72"/>
<polygon fill="#757575" stroke="#757575" points="2046.58,-226.23 2056.67,-222.99 2046.77,-219.23 2046.58,-226.23"/>
</g>
<!-- service/image&#45;resolver.ts -->
<g id="node11" class="node">
<title>service/image&#45;resolver.ts</title>
<path fill="none" stroke="#c6c5fe" d="M1077.33,-256.63C1077.33,-256.63 916.67,-256.63 916.67,-256.63 912.83,-256.63 909,-252.8 909,-248.97 909,-248.97 909,-241.3 909,-241.3 909,-237.47 912.83,-233.63 916.67,-233.63 916.67,-233.63 1077.33,-233.63 1077.33,-233.63 1081.17,-233.63 1085,-237.47 1085,-241.3 1085,-241.3 1085,-248.97 1085,-248.97 1085,-252.8 1081.17,-256.63 1077.33,-256.63"/>
<text text-anchor="middle" x="997" y="-241.43" font-family="Arial" font-size="14.00" fill="#c6c5fe">service/image&#45;resolver.ts</text>
</g>
<!-- mapserver.ts&#45;&gt;service/image&#45;resolver.ts -->
<g id="edge8" class="edge">
<title>mapserver.ts&#45;&gt;service/image&#45;resolver.ts</title>
<path fill="none" stroke="#757575" d="M74.27,-310.47C90.86,-302.93 113.75,-293.7 135,-289.13 406.88,-230.7 737.64,-233.91 898.6,-240.06"/>
<polygon fill="#757575" stroke="#757575" points="898.82,-243.57 908.95,-240.47 899.1,-236.58 898.82,-243.57"/>
</g>
<!-- service/map&#45;attributes&#45;holder.ts -->
<g id="node12" class="node">
<title>service/map&#45;attributes&#45;holder.ts</title>
<path fill="none" stroke="#cfffac" d="M2884.33,-216.63C2884.33,-216.63 2684.67,-216.63 2684.67,-216.63 2680.83,-216.63 2677,-212.8 2677,-208.97 2677,-208.97 2677,-201.3 2677,-201.3 2677,-197.47 2680.83,-193.63 2684.67,-193.63 2684.67,-193.63 2884.33,-193.63 2884.33,-193.63 2888.17,-193.63 2892,-197.47 2892,-201.3 2892,-201.3 2892,-208.97 2892,-208.97 2892,-212.8 2888.17,-216.63 2884.33,-216.63"/>
<text text-anchor="middle" x="2784.5" y="-201.43" font-family="Arial" font-size="14.00" fill="#cfffac">service/map&#45;attributes&#45;holder.ts</text>
</g>
<!-- mapserver.ts&#45;&gt;service/map&#45;attributes&#45;holder.ts -->
<g id="edge9" class="edge">
<title>mapserver.ts&#45;&gt;service/map&#45;attributes&#45;holder.ts</title>
<path fill="none" stroke="#757575" d="M50.26,-310.6C50.11,-269.71 55.67,-130.81 135,-69.13 302.64,61.21 399.15,-34.13 611.5,-34.13 611.5,-34.13 611.5,-34.13 2381,-34.13 2498.93,-34.13 2534.62,-36.22 2641,-87.13 2692.73,-111.89 2741.61,-159.5 2766.46,-186.06"/>
<polygon fill="#757575" stroke="#757575" points="2764.03,-188.58 2773.38,-193.57 2769.18,-183.84 2764.03,-188.58"/>
</g>
<!-- service/mapping&#45;world&#45;map&#45;resolver.ts -->
<g id="node13" class="node">
<title>service/mapping&#45;world&#45;map&#45;resolver.ts</title>
<path fill="none" stroke="#cfffac" d="M389.33,-236.63C389.33,-236.63 142.67,-236.63 142.67,-236.63 138.83,-236.63 135,-232.8 135,-228.97 135,-228.97 135,-221.3 135,-221.3 135,-217.47 138.83,-213.63 142.67,-213.63 142.67,-213.63 389.33,-213.63 389.33,-213.63 393.17,-213.63 397,-217.47 397,-221.3 397,-221.3 397,-228.97 397,-228.97 397,-232.8 393.17,-236.63 389.33,-236.63"/>
<text text-anchor="middle" x="266" y="-221.43" font-family="Arial" font-size="14.00" fill="#cfffac">service/mapping&#45;world&#45;map&#45;resolver.ts</text>
</g>
<!-- mapserver.ts&#45;&gt;service/mapping&#45;world&#45;map&#45;resolver.ts -->
<g id="edge10" class="edge">
<title>mapserver.ts&#45;&gt;service/mapping&#45;world&#45;map&#45;resolver.ts</title>
<path fill="none" stroke="#757575" d="M60.69,-310.49C75.42,-294.46 104.26,-265.91 135,-251.13 144.95,-246.35 155.73,-242.45 166.68,-239.26"/>
<polygon fill="#757575" stroke="#757575" points="167.6,-242.64 176.34,-236.64 165.77,-235.88 167.6,-242.64"/>
</g>
<!-- service/minesweeper.ts -->
<g id="node14" class="node">
<title>service/minesweeper.ts</title>
<path fill="none" stroke="#c6c5fe" d="M341.83,-867.63C341.83,-867.63 190.17,-867.63 190.17,-867.63 186.33,-867.63 182.5,-863.8 182.5,-859.97 182.5,-859.97 182.5,-852.3 182.5,-852.3 182.5,-848.47 186.33,-844.63 190.17,-844.63 190.17,-844.63 341.83,-844.63 341.83,-844.63 345.67,-844.63 349.5,-848.47 349.5,-852.3 349.5,-852.3 349.5,-859.97 349.5,-859.97 349.5,-863.8 345.67,-867.63 341.83,-867.63"/>
<text text-anchor="middle" x="266" y="-852.43" font-family="Arial" font-size="14.00" fill="#c6c5fe">service/minesweeper.ts</text>
</g>
<!-- mapserver.ts&#45;&gt;service/minesweeper.ts -->
<g id="edge11" class="edge">
<title>mapserver.ts&#45;&gt;service/minesweeper.ts</title>
<path fill="none" stroke="#757575" d="M52.4,-333.7C59.55,-375.81 86.96,-524.34 135,-638.13 167.71,-715.6 223.89,-798.71 250.37,-836"/>
<polygon fill="#757575" stroke="#757575" points="247.77,-838.37 256.43,-844.47 253.46,-834.3 247.77,-838.37"/>
</g>
<!-- service/site&#45;adder.ts -->
<g id="node15" class="node">
<title>service/site&#45;adder.ts</title>
<path fill="none" stroke="#ff6c60" d="M1879.33,-510.63C1879.33,-510.63 1749.67,-510.63 1749.67,-510.63 1745.83,-510.63 1742,-506.8 1742,-502.97 1742,-502.97 1742,-495.3 1742,-495.3 1742,-491.47 1745.83,-487.63 1749.67,-487.63 1749.67,-487.63 1879.33,-487.63 1879.33,-487.63 1883.17,-487.63 1887,-491.47 1887,-495.3 1887,-495.3 1887,-502.97 1887,-502.97 1887,-506.8 1883.17,-510.63 1879.33,-510.63"/>
<text text-anchor="middle" x="1814.5" y="-495.43" font-family="Arial" font-size="14.00" fill="#ff6c60">service/site&#45;adder.ts</text>
</g>
<!-- mapserver.ts&#45;&gt;service/site&#45;adder.ts -->
<g id="edge12" class="edge">
<title>mapserver.ts&#45;&gt;service/site&#45;adder.ts</title>
<path fill="none" stroke="#757575" d="M60.96,-333.65C75.77,-349.13 104.48,-376.22 135,-389.13 258.02,-441.18 299.93,-416.58 433,-428.13 937.79,-471.94 1066.44,-443.25 1572,-477.13 1625.32,-480.71 1685.14,-486.14 1731.9,-490.72"/>
<polygon fill="#757575" stroke="#757575" points="1731.68,-494.21 1741.98,-491.71 1732.37,-487.25 1731.68,-494.21"/>
</g>
<!-- service/user&#45;map&#45;loader.ts -->
<g id="node16" class="node">
<title>service/user&#45;map&#45;loader.ts</title>
<path fill="none" stroke="#c6c5fe" d="M350.83,-506.63C350.83,-506.63 181.17,-506.63 181.17,-506.63 177.33,-506.63 173.5,-502.8 173.5,-498.97 173.5,-498.97 173.5,-491.3 173.5,-491.3 173.5,-487.47 177.33,-483.63 181.17,-483.63 181.17,-483.63 350.83,-483.63 350.83,-483.63 354.67,-483.63 358.5,-487.47 358.5,-491.3 358.5,-491.3 358.5,-498.97 358.5,-498.97 358.5,-502.8 354.67,-506.63 350.83,-506.63"/>
<text text-anchor="middle" x="266" y="-491.43" font-family="Arial" font-size="14.00" fill="#c6c5fe">service/user&#45;map&#45;loader.ts</text>
</g>
<!-- mapserver.ts&#45;&gt;service/user&#45;map&#45;loader.ts -->
<g id="edge13" class="edge">
<title>mapserver.ts&#45;&gt;service/user&#45;map&#45;loader.ts</title>
<path fill="none" stroke="#757575" d="M53.63,-333.94C61.78,-362.26 86.48,-434.25 135,-469.13 143.73,-475.41 153.6,-480.26 163.9,-483.99"/>
<polygon fill="#757575" stroke="#757575" points="162.88,-487.34 173.47,-487.12 165.05,-480.69 162.88,-487.34"/>
</g>
<!-- service/woirld&#45;map&#45;resolver.ts -->
<g id="node17" class="node">
<title>service/woirld&#45;map&#45;resolver.ts</title>
<path fill="none" stroke="#ff6c60" d="M1482.33,-428.63C1482.33,-428.63 1291.67,-428.63 1291.67,-428.63 1287.83,-428.63 1284,-424.8 1284,-420.97 1284,-420.97 1284,-413.3 1284,-413.3 1284,-409.47 1287.83,-405.63 1291.67,-405.63 1291.67,-405.63 1482.33,-405.63 1482.33,-405.63 1486.17,-405.63 1490,-409.47 1490,-413.3 1490,-413.3 1490,-420.97 1490,-420.97 1490,-424.8 1486.17,-428.63 1482.33,-428.63"/>
<text text-anchor="middle" x="1387" y="-413.43" font-family="Arial" font-size="14.00" fill="#ff6c60">service/woirld&#45;map&#45;resolver.ts</text>
</g>
<!-- mapserver.ts&#45;&gt;service/woirld&#45;map&#45;resolver.ts -->
<g id="edge14" class="edge">
<title>mapserver.ts&#45;&gt;service/woirld&#45;map&#45;resolver.ts</title>
<path fill="none" stroke="#757575" d="M73.9,-333.64C90.52,-341.21 113.59,-350.55 135,-355.13 547.08,-443.36 1052.19,-433.54 1273.31,-423.56"/>
<polygon fill="#757575" stroke="#757575" points="1273.8,-427.04 1283.62,-423.08 1273.47,-420.04 1273.8,-427.04"/>
</g>
<!-- mapserver.ts&#45;&gt;user/user.ts -->
<g id="edge15" class="edge">
<title>mapserver.ts&#45;&gt;user/user.ts</title>
<path fill="none" stroke="#757575" d="M51.82,-334.07C56.31,-368.5 74.25,-468.58 135,-516.13 199.89,-566.93 445.7,-587.46 556.62,-594.27"/>
<polygon fill="#757575" stroke="#757575" points="556.73,-597.78 566.92,-594.88 557.15,-590.79 556.73,-597.78"/>
</g>
<!-- models/location.ts&#45;&gt;models/tile.ts -->
<g id="edge19" class="edge">
<title>models/location.ts&#45;&gt;models/tile.ts</title>
<path fill="none" stroke="#757575" d="M2445.77,-339.32C2454.88,-336.29 2463.63,-332.04 2471,-326.13 2535.01,-274.8 2560.83,-173.96 2569.39,-129.76"/>
<polygon fill="#757575" stroke="#757575" points="2572.86,-130.27 2571.21,-119.8 2565.97,-129.01 2572.86,-130.27"/>
</g>
<!-- models/vector.ts -->
<g id="node21" class="node">
<title>models/vector.ts</title>
<path fill="none" stroke="#cfffac" d="M2837.83,-661.63C2837.83,-661.63 2731.17,-661.63 2731.17,-661.63 2727.33,-661.63 2723.5,-657.8 2723.5,-653.97 2723.5,-653.97 2723.5,-646.3 2723.5,-646.3 2723.5,-642.47 2727.33,-638.63 2731.17,-638.63 2731.17,-638.63 2837.83,-638.63 2837.83,-638.63 2841.67,-638.63 2845.5,-642.47 2845.5,-646.3 2845.5,-646.3 2845.5,-653.97 2845.5,-653.97 2845.5,-657.8 2841.67,-661.63 2837.83,-661.63"/>
<text text-anchor="middle" x="2784.5" y="-646.43" font-family="Arial" font-size="14.00" fill="#cfffac">models/vector.ts</text>
</g>
<!-- models/location.ts&#45;&gt;models/vector.ts -->
<g id="edge20" class="edge">
<title>models/location.ts&#45;&gt;models/vector.ts</title>
<path fill="none" stroke="#757575" d="M2438.9,-357.69C2495.12,-371.18 2580.59,-397.9 2641,-445.13 2707.42,-497.06 2755.17,-588.43 2774.28,-629.32"/>
<polygon fill="#757575" stroke="#757575" points="2771.17,-630.94 2778.52,-638.58 2777.54,-628.03 2771.17,-630.94"/>
</g>
<!-- models/tile&#45;pixel.ts -->
<g id="node22" class="node">
<title>models/tile&#45;pixel.ts</title>
<path fill="none" stroke="#c6c5fe" d="M2633.33,-476.63C2633.33,-476.63 2514.67,-476.63 2514.67,-476.63 2510.83,-476.63 2507,-472.8 2507,-468.97 2507,-468.97 2507,-461.3 2507,-461.3 2507,-457.47 2510.83,-453.63 2514.67,-453.63 2514.67,-453.63 2633.33,-453.63 2633.33,-453.63 2637.17,-453.63 2641,-457.47 2641,-461.3 2641,-461.3 2641,-468.97 2641,-468.97 2641,-472.8 2637.17,-476.63 2633.33,-476.63"/>
<text text-anchor="middle" x="2574" y="-461.43" font-family="Arial" font-size="14.00" fill="#c6c5fe">models/tile&#45;pixel.ts</text>
</g>
<!-- models/location.ts&#45;&gt;models/tile&#45;pixel.ts -->
<g id="edge18" class="edge">
<title>models/location.ts&#45;&gt;models/tile&#45;pixel.ts</title>
<path fill="none" stroke="#757575" d="M2400.2,-357.73C2418.84,-369.26 2447.65,-387.82 2471,-406.13 2488.08,-419.52 2488.59,-427.63 2507,-439.13 2513.25,-443.04 2520.18,-446.53 2527.13,-449.61"/>
<polygon fill="#757575" stroke="#757575" points="2525.99,-452.92 2536.57,-453.52 2528.67,-446.46 2525.99,-452.92"/>
</g>
<!-- models/site.ts&#45;&gt;models/location.ts -->
<g id="edge23" class="edge">
<title>models/site.ts&#45;&gt;models/location.ts</title>
<path fill="none" stroke="#757575" d="M2207.72,-373.78C2236.4,-369.15 2272.56,-363.31 2304.27,-358.2"/>
<polygon fill="#757575" stroke="#757575" points="2305.07,-361.61 2314.39,-356.56 2303.96,-354.7 2305.07,-361.61"/>
</g>
<!-- models/address.ts -->
<g id="node19" class="node">
<title>models/address.ts</title>
<path fill="none" stroke="#cfffac" d="M2439.33,-316.63C2439.33,-316.63 2320.67,-316.63 2320.67,-316.63 2316.83,-316.63 2313,-312.8 2313,-308.97 2313,-308.97 2313,-301.3 2313,-301.3 2313,-297.47 2316.83,-293.63 2320.67,-293.63 2320.67,-293.63 2439.33,-293.63 2439.33,-293.63 2443.17,-293.63 2447,-297.47 2447,-301.3 2447,-301.3 2447,-308.97 2447,-308.97 2447,-312.8 2443.17,-316.63 2439.33,-316.63"/>
<text text-anchor="middle" x="2380" y="-301.43" font-family="Arial" font-size="14.00" fill="#cfffac">models/address.ts</text>
</g>
<!-- models/site.ts&#45;&gt;models/address.ts -->
<g id="edge22" class="edge">
<title>models/site.ts&#45;&gt;models/address.ts</title>
<path fill="none" stroke="#757575" d="M2180.04,-370.55C2206.33,-358.23 2249.92,-338.82 2289,-326.13 2296.7,-323.63 2304.87,-321.3 2313.01,-319.17"/>
<polygon fill="#757575" stroke="#757575" points="2314.07,-322.51 2322.9,-316.67 2312.35,-315.73 2314.07,-322.51"/>
</g>
<!-- models/site&#45;tile&#45;position.ts -->
<g id="node24" class="node">
<title>models/site&#45;tile&#45;position.ts</title>
<path fill="none" stroke="#c6c5fe" d="M2463.33,-437.63C2463.33,-437.63 2296.67,-437.63 2296.67,-437.63 2292.83,-437.63 2289,-433.8 2289,-429.97 2289,-429.97 2289,-422.3 2289,-422.3 2289,-418.47 2292.83,-414.63 2296.67,-414.63 2296.67,-414.63 2463.33,-414.63 2463.33,-414.63 2467.17,-414.63 2471,-418.47 2471,-422.3 2471,-422.3 2471,-429.97 2471,-429.97 2471,-433.8 2467.17,-437.63 2463.33,-437.63"/>
<text text-anchor="middle" x="2380" y="-422.43" font-family="Arial" font-size="14.00" fill="#c6c5fe">models/site&#45;tile&#45;position.ts</text>
</g>
<!-- models/site.ts&#45;&gt;models/site&#45;tile&#45;position.ts -->
<g id="edge24" class="edge">
<title>models/site.ts&#45;&gt;models/site&#45;tile&#45;position.ts</title>
<path fill="none" stroke="#757575" d="M2207.72,-392.34C2238.27,-398.36 2277.32,-406.07 2310.42,-412.6"/>
<polygon fill="#757575" stroke="#757575" points="2309.99,-416.08 2320.48,-414.59 2311.35,-409.22 2309.99,-416.08"/>
</g>
<!-- service/address&#45;from&#45;geo.ts&#45;&gt;models/location.ts -->
<g id="edge29" class="edge">
<title>service/address&#45;from&#45;geo.ts&#45;&gt;models/location.ts</title>
<path fill="none" stroke="#757575" d="M2227.81,-237.76C2236.91,-241.35 2245.6,-246.03 2253,-252.13 2281.21,-275.41 2260.29,-303.47 2289,-326.13 2293.75,-329.88 2299.06,-332.96 2304.66,-335.48"/>
<polygon fill="#757575" stroke="#757575" points="2303.72,-338.87 2314.31,-339.23 2306.25,-332.35 2303.72,-338.87"/>
</g>
<!-- service/address&#45;from&#45;geo.ts&#45;&gt;service/map&#45;attributes&#45;holder.ts -->
<g id="edge31" class="edge">
<title>service/address&#45;from&#45;geo.ts&#45;&gt;service/map&#45;attributes&#45;holder.ts</title>
<path fill="none" stroke="#757575" d="M2253.01,-222.89C2364.5,-219.15 2547.37,-213.03 2666.6,-209.04"/>
<polygon fill="#757575" stroke="#757575" points="2666.98,-212.53 2676.86,-208.7 2666.75,-205.54 2666.98,-212.53"/>
</g>
<!-- service/address&#45;from&#45;geo.ts&#45;&gt;models/address.ts -->
<g id="edge27" class="edge">
<title>service/address&#45;from&#45;geo.ts&#45;&gt;models/address.ts</title>
<path fill="none" stroke="#757575" d="M2216.99,-237.68C2229.33,-241.33 2241.92,-246.05 2253,-252.13 2272.03,-262.57 2269.75,-275.1 2289,-285.13 2293.5,-287.48 2298.26,-289.55 2303.16,-291.37"/>
<polygon fill="#757575" stroke="#757575" points="2302.1,-294.71 2312.69,-294.6 2304.34,-288.08 2302.1,-294.71"/>
</g>
<!-- models/bounding&#45;box.ts -->
<g id="node20" class="node">
<title>models/bounding&#45;box.ts</title>
<path fill="none" stroke="#c6c5fe" d="M2456.83,-583.63C2456.83,-583.63 2303.17,-583.63 2303.17,-583.63 2299.33,-583.63 2295.5,-579.8 2295.5,-575.97 2295.5,-575.97 2295.5,-568.3 2295.5,-568.3 2295.5,-564.47 2299.33,-560.63 2303.17,-560.63 2303.17,-560.63 2456.83,-560.63 2456.83,-560.63 2460.67,-560.63 2464.5,-564.47 2464.5,-568.3 2464.5,-568.3 2464.5,-575.97 2464.5,-575.97 2464.5,-579.8 2460.67,-583.63 2456.83,-583.63"/>
<text text-anchor="middle" x="2380" y="-568.43" font-family="Arial" font-size="14.00" fill="#c6c5fe">models/bounding&#45;box.ts</text>
</g>
<!-- service/address&#45;from&#45;geo.ts&#45;&gt;models/bounding&#45;box.ts -->
<g id="edge28" class="edge">
<title>service/address&#45;from&#45;geo.ts&#45;&gt;models/bounding&#45;box.ts</title>
<path fill="none" stroke="#757575" d="M2165.77,-237.91C2184.42,-260.79 2225.67,-313.28 2253,-362.13 2273.03,-397.94 2268.89,-411.37 2289,-447.13 2311.18,-486.57 2343.36,-528.49 2362.63,-552.37"/>
<polygon fill="#757575" stroke="#757575" points="2360.08,-554.78 2369.1,-560.32 2365.5,-550.36 2360.08,-554.78"/>
</g>
<!-- service/json&#45;assign.ts -->
<g id="node25" class="node">
<title>service/json&#45;assign.ts</title>
<path fill="none" stroke="#cfffac" d="M2448.83,-275.63C2448.83,-275.63 2311.17,-275.63 2311.17,-275.63 2307.33,-275.63 2303.5,-271.8 2303.5,-267.97 2303.5,-267.97 2303.5,-260.3 2303.5,-260.3 2303.5,-256.47 2307.33,-252.63 2311.17,-252.63 2311.17,-252.63 2448.83,-252.63 2448.83,-252.63 2452.67,-252.63 2456.5,-256.47 2456.5,-260.3 2456.5,-260.3 2456.5,-267.97 2456.5,-267.97 2456.5,-271.8 2452.67,-275.63 2448.83,-275.63"/>
<text text-anchor="middle" x="2380" y="-260.43" font-family="Arial" font-size="14.00" fill="#cfffac">service/json&#45;assign.ts</text>
</g>
<!-- service/address&#45;from&#45;geo.ts&#45;&gt;service/json&#45;assign.ts -->
<g id="edge30" class="edge">
<title>service/address&#45;from&#45;geo.ts&#45;&gt;service/json&#45;assign.ts</title>
<path fill="none" stroke="#757575" d="M2223.51,-237.64C2248.07,-241.82 2276.02,-246.58 2301.38,-250.91"/>
<polygon fill="#757575" stroke="#757575" points="2300.89,-254.37 2311.33,-252.6 2302.06,-247.47 2300.89,-254.37"/>
</g>
<!-- service/image&#45;resolver.ts&#45;&gt;models/location.ts -->
<g id="edge46" class="edge">
<title>service/image&#45;resolver.ts&#45;&gt;models/location.ts</title>
<path fill="none" stroke="#757575" d="M1085.11,-240.09C1333.91,-226.98 2043.23,-198.81 2253,-290.13 2273.75,-299.16 2269.16,-315.24 2289,-326.13 2293.91,-328.83 2299.16,-331.16 2304.57,-333.18"/>
<polygon fill="#757575" stroke="#757575" points="2303.83,-336.62 2314.42,-336.48 2306.05,-329.99 2303.83,-336.62"/>
</g>
<!-- service/image&#45;resolver.ts&#45;&gt;models/tile.ts -->
<g id="edge47" class="edge">
<title>service/image&#45;resolver.ts&#45;&gt;models/tile.ts</title>
<path fill="none" stroke="#757575" d="M1038.34,-233.62C1156.44,-200.97 1512.14,-110.13 1813.5,-110.13 1813.5,-110.13 1813.5,-110.13 2156,-110.13 2283.23,-110.13 2432.28,-109.19 2513.25,-108.6"/>
<polygon fill="#757575" stroke="#757575" points="2513.28,-112.1 2523.25,-108.52 2513.23,-105.1 2513.28,-112.1"/>
</g>
<!-- service/image&#45;resolver.ts&#45;&gt;service/woirld&#45;map&#45;resolver.ts -->
<g id="edge48" class="edge">
<title>service/image&#45;resolver.ts&#45;&gt;service/woirld&#45;map&#45;resolver.ts</title>
<path fill="none" stroke="#757575" d="M1024.06,-256.68C1091.84,-286.73 1273.74,-367.37 1350.76,-401.51"/>
<polygon fill="#757575" stroke="#757575" points="1349.49,-404.78 1360.05,-405.63 1352.33,-398.38 1349.49,-404.78"/>
</g>
<!-- service/minesweeper.ts&#45;&gt;../../../jonny&#45;maps/scripts/index.d.ts -->
<g id="edge49" class="edge">
<title>service/minesweeper.ts&#45;&gt;../../../jonny&#45;maps/scripts/index.d.ts</title>
<path fill="none" stroke="#757575" d="M349.74,-846.12C376.33,-842.91 405.91,-839.36 433,-836.13 455.67,-833.43 479.97,-830.56 503.1,-827.84"/>
<polygon fill="#757575" stroke="#757575" points="503.77,-831.28 513.29,-826.64 502.95,-824.33 503.77,-831.28"/>
</g>
<!-- service/minesweeper.ts&#45;&gt;../../public/users.d.ts -->
<g id="edge50" class="edge">
<title>service/minesweeper.ts&#45;&gt;../../public/users.d.ts</title>
<path fill="none" stroke="#757575" d="M309.74,-867.71C337.13,-876.81 372.1,-891.75 397,-914.13 420.7,-935.43 406.61,-958.28 433,-976.13 461.33,-995.29 497.97,-1002.84 530.68,-1005.19"/>
<polygon fill="#757575" stroke="#757575" points="530.5,-1008.68 540.69,-1005.76 530.9,-1001.7 530.5,-1008.68"/>
</g>
<!-- service/minesweeper.ts&#45;&gt;user/user.ts -->
<g id="edge54" class="edge">
<title>service/minesweeper.ts&#45;&gt;user/user.ts</title>
<path fill="none" stroke="#757575" d="M282.7,-844.33C337.75,-802.94 522.25,-664.23 587.99,-614.81"/>
<polygon fill="#757575" stroke="#757575" points="590.21,-617.51 596.1,-608.71 586.01,-611.92 590.21,-617.51"/>
</g>
<!-- service/minesweeper.ts&#45;&gt;models/vector.ts -->
<g id="edge51" class="edge">
<title>service/minesweeper.ts&#45;&gt;models/vector.ts</title>
<path fill="none" stroke="#757575" d="M308.66,-867.64C342.06,-876.51 390.25,-888.5 433,-896.13 681.02,-940.39 744.06,-962.13 996,-962.13 996,-962.13 996,-962.13 2381,-962.13 2438.46,-962.13 2634.09,-881.7 2641,-876.13 2712.18,-818.69 2758.25,-715.65 2775.66,-671.34"/>
<polygon fill="#757575" stroke="#757575" points="2778.98,-672.46 2779.3,-661.87 2772.45,-669.95 2778.98,-672.46"/>
</g>
<!-- service/generic&#45;map&#45;factory/game&#45;map&#45;map&#45;factory.ts -->
<g id="node26" class="node">
<title>service/generic&#45;map&#45;factory/game&#45;map&#45;map&#45;factory.ts</title>
<path fill="none" stroke="#c6c5fe" d="M784.33,-867.63C784.33,-867.63 440.67,-867.63 440.67,-867.63 436.83,-867.63 433,-863.8 433,-859.97 433,-859.97 433,-852.3 433,-852.3 433,-848.47 436.83,-844.63 440.67,-844.63 440.67,-844.63 784.33,-844.63 784.33,-844.63 788.17,-844.63 792,-848.47 792,-852.3 792,-852.3 792,-859.97 792,-859.97 792,-863.8 788.17,-867.63 784.33,-867.63"/>
<text text-anchor="middle" x="612.5" y="-852.43" font-family="Arial" font-size="14.00" fill="#c6c5fe">service/generic&#45;map&#45;factory/game&#45;map&#45;map&#45;factory.ts</text>
</g>
<!-- service/minesweeper.ts&#45;&gt;service/generic&#45;map&#45;factory/game&#45;map&#45;map&#45;factory.ts -->
<g id="edge52" class="edge">
<title>service/minesweeper.ts&#45;&gt;service/generic&#45;map&#45;factory/game&#45;map&#45;map&#45;factory.ts</title>
<path fill="none" stroke="#757575" d="M349.52,-856.13C371.83,-856.13 396.94,-856.13 422.54,-856.13"/>
<polygon fill="#757575" stroke="#757575" points="422.76,-859.63 432.76,-856.13 422.76,-852.63 422.76,-859.63"/>
</g>
<!-- service/generic&#45;map&#45;factory/layer&#45;factory/layer&#45;factory.ts -->
<g id="node28" class="node">
<title>service/generic&#45;map&#45;factory/layer&#45;factory/layer&#45;factory.ts</title>
<path fill="none" stroke="#ff6c60" d="M1564.33,-857.63C1564.33,-857.63 1209.67,-857.63 1209.67,-857.63 1205.83,-857.63 1202,-853.8 1202,-849.97 1202,-849.97 1202,-842.3 1202,-842.3 1202,-838.47 1205.83,-834.63 1209.67,-834.63 1209.67,-834.63 1564.33,-834.63 1564.33,-834.63 1568.17,-834.63 1572,-838.47 1572,-842.3 1572,-842.3 1572,-849.97 1572,-849.97 1572,-853.8 1568.17,-857.63 1564.33,-857.63"/>
<text text-anchor="middle" x="1387" y="-842.43" font-family="Arial" font-size="14.00" fill="#ff6c60">service/generic&#45;map&#45;factory/layer&#45;factory/layer&#45;factory.ts</text>
</g>
<!-- service/minesweeper.ts&#45;&gt;service/generic&#45;map&#45;factory/layer&#45;factory/layer&#45;factory.ts -->
<g id="edge53" class="edge">
<title>service/minesweeper.ts&#45;&gt;service/generic&#45;map&#45;factory/layer&#45;factory/layer&#45;factory.ts</title>
<path fill="none" stroke="#757575" d="M342.01,-867.65C370.43,-871.48 403.14,-875.25 433,-877.13 758.18,-897.62 840.75,-884.38 1166,-865.13 1195.31,-863.4 1226.78,-861 1256.48,-858.49"/>
<polygon fill="#757575" stroke="#757575" points="1256.82,-861.98 1266.48,-857.64 1256.22,-855 1256.82,-861.98"/>
</g>
<!-- service/site&#45;adder.ts&#45;&gt;models/site.ts -->
<g id="edge57" class="edge">
<title>service/site&#45;adder.ts&#45;&gt;models/site.ts</title>
<path fill="none" stroke="#757575" d="M1862.17,-487.61C1904.19,-476.79 1967.39,-459.42 2021,-440.13 2055.62,-427.67 2094.03,-410.55 2120.64,-398.14"/>
<polygon fill="#757575" stroke="#757575" points="2122.31,-401.22 2129.88,-393.8 2119.34,-394.89 2122.31,-401.22"/>
</g>
<!-- service/site&#45;adder.ts&#45;&gt;service/map&#45;attributes&#45;holder.ts -->
<g id="edge60" class="edge">
<title>service/site&#45;adder.ts&#45;&gt;service/map&#45;attributes&#45;holder.ts</title>
<path fill="none" stroke="#757575" d="M1874.96,-487.63C2031.08,-457.35 2442.65,-377.11 2471,-367.13 2582.75,-327.79 2704.45,-255.13 2756.95,-222.18"/>
<polygon fill="#757575" stroke="#757575" points="2759.06,-224.99 2765.64,-216.69 2755.32,-219.07 2759.06,-224.99"/>
</g>
<!-- service/site&#45;adder.ts&#45;&gt;service/woirld&#45;map&#45;resolver.ts -->
<g id="edge62" class="edge">
<title>service/site&#45;adder.ts&#45;&gt;service/woirld&#45;map&#45;resolver.ts</title>
<path fill="none" stroke="#757575" d="M1741.93,-507.77C1701.18,-506.94 1650.05,-500.42 1608,-482.13 1588.9,-473.82 1591.04,-460.58 1572,-452.13 1546.65,-440.89 1517.59,-434.26 1490.16,-430.08"/>
<polygon fill="#757575" stroke="#757575" points="1490.53,-426.6 1480.13,-428.65 1489.54,-433.53 1490.53,-426.6"/>
</g>
<!-- service/site&#45;adder.ts&#45;&gt;models/bounding&#45;box.ts -->
<g id="edge55" class="edge">
<title>service/site&#45;adder.ts&#45;&gt;models/bounding&#45;box.ts</title>
<path fill="none" stroke="#757575" d="M1861.01,-510.73C1909.31,-522.58 1988.03,-540.54 2057,-550.13 2133.39,-560.75 2220.71,-566.31 2285.14,-569.18"/>
<polygon fill="#757575" stroke="#757575" points="2285.13,-572.69 2295.27,-569.62 2285.43,-565.69 2285.13,-572.69"/>
</g>
<!-- service/site&#45;adder.ts&#45;&gt;models/vector.ts -->
<g id="edge59" class="edge">
<title>service/site&#45;adder.ts&#45;&gt;models/vector.ts</title>
<path fill="none" stroke="#757575" d="M1855.78,-510.66C1897.3,-522.64 1963.85,-542.13 2021,-560.13 2037.09,-565.2 2040.52,-568.54 2057,-572.13 2088.81,-579.06 2536.77,-625.03 2713.01,-642.98"/>
<polygon fill="#757575" stroke="#757575" points="2712.91,-646.48 2723.21,-644.02 2713.62,-639.52 2712.91,-646.48"/>
</g>
<!-- service/site&#45;adder.ts&#45;&gt;models/tile&#45;pixel.ts -->
<g id="edge58" class="edge">
<title>service/site&#45;adder.ts&#45;&gt;models/tile&#45;pixel.ts</title>
<path fill="none" stroke="#757575" d="M1887.09,-499.51C1935.15,-499.74 1999.87,-500.01 2057,-500.13 2144.11,-500.31 2165.98,-504.12 2253,-500.13 2350.19,-495.68 2374.39,-491.66 2471,-480.13 2479.37,-479.13 2488.11,-478 2496.8,-476.8"/>
<polygon fill="#757575" stroke="#757575" points="2497.54,-480.23 2506.95,-475.38 2496.57,-473.3 2497.54,-480.23"/>
</g>
<!-- service/site&#45;adder.ts&#45;&gt;models/site&#45;tile&#45;position.ts -->
<g id="edge56" class="edge">
<title>service/site&#45;adder.ts&#45;&gt;models/site&#45;tile&#45;position.ts</title>
<path fill="none" stroke="#757575" d="M1887.24,-501.71C1974.65,-503.32 2126.34,-501.2 2253,-474.13 2285.54,-467.18 2320.78,-453.15 2345.7,-442.05"/>
<polygon fill="#757575" stroke="#757575" points="2347.39,-445.12 2355.05,-437.8 2344.5,-438.75 2347.39,-445.12"/>
</g>
<!-- service/map.d.ts -->
<g id="node30" class="node">
<title>service/map.d.ts</title>
<path fill="none" stroke="#cfffac" d="M2207.83,-739.63C2207.83,-739.63 2102.17,-739.63 2102.17,-739.63 2098.33,-739.63 2094.5,-735.8 2094.5,-731.97 2094.5,-731.97 2094.5,-724.3 2094.5,-724.3 2094.5,-720.47 2098.33,-716.63 2102.17,-716.63 2102.17,-716.63 2207.83,-716.63 2207.83,-716.63 2211.67,-716.63 2215.5,-720.47 2215.5,-724.3 2215.5,-724.3 2215.5,-731.97 2215.5,-731.97 2215.5,-735.8 2211.67,-739.63 2207.83,-739.63"/>
<text text-anchor="middle" x="2155" y="-724.43" font-family="Arial" font-size="14.00" fill="#cfffac">service/map.d.ts</text>
</g>
<!-- service/site&#45;adder.ts&#45;&gt;service/map.d.ts -->
<g id="edge61" class="edge">
<title>service/site&#45;adder.ts&#45;&gt;service/map.d.ts</title>
<path fill="none" stroke="#757575" d="M1847.16,-510.64C1889.06,-526.69 1964.25,-558.35 2021,-598.13 2068.2,-631.22 2114.25,-681.39 2137.8,-708.71"/>
<polygon fill="#757575" stroke="#757575" points="2135.21,-711.07 2144.36,-716.42 2140.54,-706.54 2135.21,-711.07"/>
</g>
<!-- service/user&#45;map&#45;loader.ts&#45;&gt;service/map&#45;attributes&#45;holder.ts -->
<g id="edge63" class="edge">
<title>service/user&#45;map&#45;loader.ts&#45;&gt;service/map&#45;attributes&#45;holder.ts</title>
<path fill="none" stroke="#757575" d="M313.01,-483.59C483.49,-441.18 1095.74,-292.16 1608,-209.13 1849.03,-170.06 1909.82,-148.13 2154,-148.13 2154,-148.13 2154,-148.13 2381,-148.13 2503.93,-148.13 2645.91,-174.52 2724.11,-191.39"/>
<polygon fill="#757575" stroke="#757575" points="2723.73,-194.89 2734.25,-193.6 2725.22,-188.05 2723.73,-194.89"/>
</g>
<!-- service/user&#45;map&#45;loader.ts&#45;&gt;user/user.ts -->
<g id="edge66" class="edge">
<title>service/user&#45;map&#45;loader.ts&#45;&gt;user/user.ts</title>
<path fill="none" stroke="#757575" d="M305.85,-506.63C369,-525.33 493.77,-562.27 562.77,-582.7"/>
<polygon fill="#757575" stroke="#757575" points="561.95,-586.11 572.53,-585.59 563.93,-579.4 561.95,-586.11"/>
</g>
<!-- service/user&#45;map&#45;loader.ts&#45;&gt;service/map.d.ts -->
<g id="edge64" class="edge">
<title>service/user&#45;map&#45;loader.ts&#45;&gt;service/map.d.ts</title>
<path fill="none" stroke="#757575" d="M281.54,-506.66C318.73,-536.03 415.63,-611.85 433,-618.13 765.37,-738.39 1669.42,-671.81 2021,-708.13 2041.56,-710.26 2063.81,-713.3 2084.12,-716.38"/>
<polygon fill="#757575" stroke="#757575" points="2083.82,-719.88 2094.23,-717.94 2084.88,-712.96 2083.82,-719.88"/>
</g>
<!-- user/user&#45;map&#45;attributes&#45;loader.ts -->
<g id="node32" class="node">
<title>user/user&#45;map&#45;attributes&#45;loader.ts</title>
<path fill="none" stroke="#c6c5fe" d="M719.83,-506.63C719.83,-506.63 505.17,-506.63 505.17,-506.63 501.33,-506.63 497.5,-502.8 497.5,-498.97 497.5,-498.97 497.5,-491.3 497.5,-491.3 497.5,-487.47 501.33,-483.63 505.17,-483.63 505.17,-483.63 719.83,-483.63 719.83,-483.63 723.67,-483.63 727.5,-487.47 727.5,-491.3 727.5,-491.3 727.5,-498.97 727.5,-498.97 727.5,-502.8 723.67,-506.63 719.83,-506.63"/>
<text text-anchor="middle" x="612.5" y="-491.43" font-family="Arial" font-size="14.00" fill="#c6c5fe">user/user&#45;map&#45;attributes&#45;loader.ts</text>
</g>
<!-- service/user&#45;map&#45;loader.ts&#45;&gt;user/user&#45;map&#45;attributes&#45;loader.ts -->
<g id="edge65" class="edge">
<title>service/user&#45;map&#45;loader.ts&#45;&gt;user/user&#45;map&#45;attributes&#45;loader.ts</title>
<path fill="none" stroke="#757575" d="M358.87,-495.13C398.26,-495.13 444.89,-495.13 487.3,-495.13"/>
<polygon fill="#757575" stroke="#757575" points="487.41,-498.63 497.41,-495.13 487.41,-491.63 487.41,-498.63"/>
</g>
<!-- service/woirld&#45;map&#45;resolver.ts&#45;&gt;models/location.ts -->
<g id="edge67" class="edge">
<title>service/woirld&#45;map&#45;resolver.ts&#45;&gt;models/location.ts</title>
<path fill="none" stroke="#757575" d="M1490.21,-407.69C1621.37,-395.82 1855.97,-375.39 2057,-362.13 2141.56,-356.56 2238.72,-351.98 2304.01,-349.17"/>
<polygon fill="#757575" stroke="#757575" points="2304.36,-352.66 2314.21,-348.73 2304.07,-345.66 2304.36,-352.66"/>
</g>
<!-- service/woirld&#45;map&#45;resolver.ts&#45;&gt;service/map&#45;attributes&#45;holder.ts -->
<g id="edge71" class="edge">
<title>service/woirld&#45;map&#45;resolver.ts&#45;&gt;service/map&#45;attributes&#45;holder.ts</title>
<path fill="none" stroke="#757575" d="M1414.37,-405.51C1502.9,-367.2 1798.43,-245.12 2057,-205.13 2270.02,-172.19 2522.39,-183.23 2666.65,-194.21"/>
<polygon fill="#757575" stroke="#757575" points="2666.6,-197.72 2676.84,-195 2667.14,-190.74 2666.6,-197.72"/>
</g>
<!-- service/woirld&#45;map&#45;resolver.ts&#45;&gt;service/site&#45;adder.ts -->
<g id="edge73" class="edge">
<title>service/woirld&#45;map&#45;resolver.ts&#45;&gt;service/site&#45;adder.ts</title>
<path fill="none" stroke="#757575" d="M1490.1,-412.76C1517.55,-416.25 1546.64,-422.88 1572,-434.13 1591.04,-442.58 1588.9,-455.82 1608,-464.13 1646.6,-480.92 1692.86,-487.79 1731.7,-491.17"/>
<polygon fill="#757575" stroke="#757575" points="1731.68,-494.68 1741.93,-491.99 1732.24,-487.7 1731.68,-494.68"/>
</g>
<!-- service/woirld&#45;map&#45;resolver.ts&#45;&gt;models/vector.ts -->
<g id="edge70" class="edge">
<title>service/woirld&#45;map&#45;resolver.ts&#45;&gt;models/vector.ts</title>
<path fill="none" stroke="#757575" d="M1451.55,-428.65C1488.93,-437.58 1535.81,-452.67 1572,-477.13 1592.65,-491.09 1586.35,-507.78 1608,-520.13 1769.58,-612.32 1838.83,-550.43 2021,-588.13 2037.15,-591.47 2040.76,-594.24 2057,-597.13 2159.1,-615.31 2185.67,-613.25 2289,-622.13 2385.73,-630.45 2410.07,-630.57 2507,-636.13 2577.13,-640.16 2657.31,-644.15 2713.2,-646.84"/>
<polygon fill="#757575" stroke="#757575" points="2713.19,-650.34 2723.35,-647.32 2713.53,-643.35 2713.19,-650.34"/>
</g>
<!-- service/woirld&#45;map&#45;resolver.ts&#45;&gt;models/tile&#45;pixel.ts -->
<g id="edge69" class="edge">
<title>service/woirld&#45;map&#45;resolver.ts&#45;&gt;models/tile&#45;pixel.ts</title>
<path fill="none" stroke="#757575" d="M1482.34,-428.63C1521.2,-432.94 1566.71,-437.44 1608,-440.13 1938.15,-461.63 2332.97,-464.84 2496.39,-465.18"/>
<polygon fill="#757575" stroke="#757575" points="2496.81,-468.68 2506.81,-465.2 2496.82,-461.68 2496.81,-468.68"/>
</g>
<!-- models/map&#45;cache.ts -->
<g id="node23" class="node">
<title>models/map&#45;cache.ts</title>
<path fill="none" stroke="#cfffac" d="M1883.33,-430.63C1883.33,-430.63 1745.67,-430.63 1745.67,-430.63 1741.83,-430.63 1738,-426.8 1738,-422.97 1738,-422.97 1738,-415.3 1738,-415.3 1738,-411.47 1741.83,-407.63 1745.67,-407.63 1745.67,-407.63 1883.33,-407.63 1883.33,-407.63 1887.17,-407.63 1891,-411.47 1891,-415.3 1891,-415.3 1891,-422.97 1891,-422.97 1891,-426.8 1887.17,-430.63 1883.33,-430.63"/>
<text text-anchor="middle" x="1814.5" y="-415.43" font-family="Arial" font-size="14.00" fill="#cfffac">models/map&#45;cache.ts</text>
</g>
<!-- service/woirld&#45;map&#45;resolver.ts&#45;&gt;models/map&#45;cache.ts -->
<g id="edge68" class="edge">
<title>service/woirld&#45;map&#45;resolver.ts&#45;&gt;models/map&#45;cache.ts</title>
<path fill="none" stroke="#757575" d="M1490.19,-417.61C1562.69,-417.95 1658.92,-418.41 1727.49,-418.73"/>
<polygon fill="#757575" stroke="#757575" points="1727.81,-422.23 1737.83,-418.78 1727.85,-415.23 1727.81,-422.23"/>
</g>
<!-- service/woirld&#45;map&#45;resolver.ts&#45;&gt;service/map.d.ts -->
<g id="edge72" class="edge">
<title>service/woirld&#45;map&#45;resolver.ts&#45;&gt;service/map.d.ts</title>
<path fill="none" stroke="#757575" d="M1477.09,-428.71C1510.63,-437.17 1546.72,-451.81 1572,-477.13 1608.64,-513.83 1567.88,-555.26 1608,-588.13 1679.47,-646.69 1935.49,-601.14 2021,-636.13 2039.76,-643.81 2040.53,-652.32 2057,-664.13 2080.18,-680.75 2107.33,-698.53 2127.01,-711.12"/>
<polygon fill="#757575" stroke="#757575" points="2125.16,-714.1 2135.48,-716.52 2128.92,-708.19 2125.16,-714.1"/>
</g>
<!-- user/friendship.ts -->
<g id="node33" class="node">
<title>user/friendship.ts</title>
<path fill="none" stroke="#ff6c60" d="M1051.83,-629.63C1051.83,-629.63 942.17,-629.63 942.17,-629.63 938.33,-629.63 934.5,-625.8 934.5,-621.97 934.5,-621.97 934.5,-614.3 934.5,-614.3 934.5,-610.47 938.33,-606.63 942.17,-606.63 942.17,-606.63 1051.83,-606.63 1051.83,-606.63 1055.67,-606.63 1059.5,-610.47 1059.5,-614.3 1059.5,-614.3 1059.5,-621.97 1059.5,-621.97 1059.5,-625.8 1055.67,-629.63 1051.83,-629.63"/>
<text text-anchor="middle" x="997" y="-614.43" font-family="Arial" font-size="14.00" fill="#ff6c60">user/friendship.ts</text>
</g>
<!-- user/user.ts&#45;&gt;user/friendship.ts -->
<g id="edge78" class="edge">
<title>user/user.ts&#45;&gt;user/friendship.ts</title>
<path fill="none" stroke="#757575" d="M658.13,-595.06C723.48,-596.01 845.91,-602.44 924.07,-608.77"/>
<polygon fill="#757575" stroke="#757575" points="924.06,-612.28 934.32,-609.62 924.64,-605.31 924.06,-612.28"/>
</g>
<!-- user/inventory/inventory&#45;item.ts -->
<g id="node35" class="node">
<title>user/inventory/inventory&#45;item.ts</title>
<path fill="none" stroke="#c6c5fe" d="M1094.83,-588.63C1094.83,-588.63 899.17,-588.63 899.17,-588.63 895.33,-588.63 891.5,-584.8 891.5,-580.97 891.5,-580.97 891.5,-573.3 891.5,-573.3 891.5,-569.47 895.33,-565.63 899.17,-565.63 899.17,-565.63 1094.83,-565.63 1094.83,-565.63 1098.67,-565.63 1102.5,-569.47 1102.5,-573.3 1102.5,-573.3 1102.5,-580.97 1102.5,-580.97 1102.5,-584.8 1098.67,-588.63 1094.83,-588.63"/>
<text text-anchor="middle" x="997" y="-573.43" font-family="Arial" font-size="14.00" fill="#c6c5fe">user/inventory/inventory&#45;item.ts</text>
</g>
<!-- user/user.ts&#45;&gt;user/inventory/inventory&#45;item.ts -->
<g id="edge79" class="edge">
<title>user/user.ts&#45;&gt;user/inventory/inventory&#45;item.ts</title>
<path fill="none" stroke="#757575" d="M658.13,-594.8C712.33,-591.96 805.81,-587.08 880.72,-583.16"/>
<polygon fill="#757575" stroke="#757575" points="881.36,-586.63 891.16,-582.61 880.99,-579.64 881.36,-586.63"/>
</g>
<!-- user/user&#45;attribute.ts -->
<g id="node37" class="node">
<title>user/user&#45;attribute.ts</title>
<path fill="none" stroke="#cfffac" d="M1062.33,-547.63C1062.33,-547.63 931.67,-547.63 931.67,-547.63 927.83,-547.63 924,-543.8 924,-539.97 924,-539.97 924,-532.3 924,-532.3 924,-528.47 927.83,-524.63 931.67,-524.63 931.67,-524.63 1062.33,-524.63 1062.33,-524.63 1066.17,-524.63 1070,-528.47 1070,-532.3 1070,-532.3 1070,-539.97 1070,-539.97 1070,-543.8 1066.17,-547.63 1062.33,-547.63"/>
<text text-anchor="middle" x="997" y="-532.43" font-family="Arial" font-size="14.00" fill="#cfffac">user/user&#45;attribute.ts</text>
</g>
<!-- user/user.ts&#45;&gt;user/user&#45;attribute.ts -->
<g id="edge80" class="edge">
<title>user/user.ts&#45;&gt;user/user&#45;attribute.ts</title>
<path fill="none" stroke="#757575" d="M658.15,-588C701.44,-579.33 769.05,-566.3 828,-557.13 855.94,-552.78 886.6,-548.74 913.99,-545.38"/>
<polygon fill="#757575" stroke="#757575" points="914.42,-548.86 923.92,-544.18 913.58,-541.91 914.42,-548.86"/>
</g>
<!-- models/bounding&#45;box.ts&#45;&gt;models/vector.ts -->
<g id="edge17" class="edge">
<title>models/bounding&#45;box.ts&#45;&gt;models/vector.ts</title>
<path fill="none" stroke="#757575" d="M2464.7,-575.18C2516.09,-578.36 2582.96,-584.86 2641,-598.13 2678.66,-606.74 2719.96,-622.56 2748.35,-634.5"/>
<polygon fill="#757575" stroke="#757575" points="2747.26,-637.84 2757.83,-638.54 2750,-631.4 2747.26,-637.84"/>
</g>
<!-- models/tile&#45;pixel.ts&#45;&gt;service/map&#45;attributes&#45;holder.ts -->
<g id="edge26" class="edge">
<title>models/tile&#45;pixel.ts&#45;&gt;service/map&#45;attributes&#45;holder.ts</title>
<path fill="none" stroke="#757575" d="M2588.02,-453.49C2601.8,-440.9 2623.87,-419.98 2641,-400.13 2692.81,-340.11 2745.83,-262.36 2770.01,-225.82"/>
<polygon fill="#757575" stroke="#757575" points="2773.2,-227.34 2775.77,-217.06 2767.35,-223.49 2773.2,-227.34"/>
</g>
<!-- models/tile&#45;pixel.ts&#45;&gt;models/vector.ts -->
<g id="edge25" class="edge">
<title>models/tile&#45;pixel.ts&#45;&gt;models/vector.ts</title>
<path fill="none" stroke="#757575" d="M2588.04,-476.7C2623.22,-507.92 2720.26,-594.02 2762.92,-631.87"/>
<polygon fill="#757575" stroke="#757575" points="2760.66,-634.54 2770.46,-638.56 2765.31,-629.31 2760.66,-634.54"/>
</g>
<!-- models/site&#45;tile&#45;position.ts&#45;&gt;models/tile&#45;pixel.ts -->
<g id="edge21" class="edge">
<title>models/site&#45;tile&#45;position.ts&#45;&gt;models/tile&#45;pixel.ts</title>
<path fill="none" stroke="#757575" d="M2437.83,-437.67C2459.31,-442.04 2483.94,-447.04 2506.25,-451.57"/>
<polygon fill="#757575" stroke="#757575" points="2505.82,-455.06 2516.32,-453.62 2507.22,-448.2 2505.82,-455.06"/>
</g>
<!-- service/generic&#45;map&#45;factory/game&#45;map&#45;map&#45;factory.ts&#45;&gt;models/vector.ts -->
<g id="edge32" class="edge">
<title>service/generic&#45;map&#45;factory/game&#45;map&#45;map&#45;factory.ts&#45;&gt;models/vector.ts</title>
<path fill="none" stroke="#757575" d="M770.58,-867.65C1049.1,-887.04 1647.86,-924.13 2154,-924.13 2154,-924.13 2154,-924.13 2381,-924.13 2440.8,-924.13 2636.89,-839.18 2641,-836.13 2703.37,-789.84 2751.97,-709.13 2772.65,-671.1"/>
<polygon fill="#757575" stroke="#757575" points="2775.9,-672.45 2777.51,-661.98 2769.72,-669.15 2775.9,-672.45"/>
</g>
<!-- service/generic&#45;map&#45;factory/generic&#45;map&#45;factory.ts -->
<g id="node27" class="node">
<title>service/generic&#45;map&#45;factory/generic&#45;map&#45;factory.ts</title>
<path fill="none" stroke="#c6c5fe" d="M1158.33,-760.63C1158.33,-760.63 835.67,-760.63 835.67,-760.63 831.83,-760.63 828,-756.8 828,-752.97 828,-752.97 828,-745.3 828,-745.3 828,-741.47 831.83,-737.63 835.67,-737.63 835.67,-737.63 1158.33,-737.63 1158.33,-737.63 1162.17,-737.63 1166,-741.47 1166,-745.3 1166,-745.3 1166,-752.97 1166,-752.97 1166,-756.8 1162.17,-760.63 1158.33,-760.63"/>
<text text-anchor="middle" x="997" y="-745.43" font-family="Arial" font-size="14.00" fill="#c6c5fe">service/generic&#45;map&#45;factory/generic&#45;map&#45;factory.ts</text>
</g>
<!-- service/generic&#45;map&#45;factory/game&#45;map&#45;map&#45;factory.ts&#45;&gt;service/generic&#45;map&#45;factory/generic&#45;map&#45;factory.ts -->
<g id="edge33" class="edge">
<title>service/generic&#45;map&#45;factory/game&#45;map&#45;map&#45;factory.ts&#45;&gt;service/generic&#45;map&#45;factory/generic&#45;map&#45;factory.ts</title>
<path fill="none" stroke="#757575" d="M752.61,-844.56C766.02,-842.24 779.33,-839.47 792,-836.13 856.19,-819.24 926.44,-785.65 965.47,-765.5"/>
<polygon fill="#757575" stroke="#757575" points="967.46,-768.42 974.7,-760.69 964.22,-762.21 967.46,-768.42"/>
</g>
<!-- service/generic&#45;map&#45;factory/game&#45;map&#45;map&#45;factory.ts&#45;&gt;service/generic&#45;map&#45;factory/layer&#45;factory/layer&#45;factory.ts -->
<g id="edge34" class="edge">
<title>service/generic&#45;map&#45;factory/game&#45;map&#45;map&#45;factory.ts&#45;&gt;service/generic&#45;map&#45;factory/layer&#45;factory/layer&#45;factory.ts</title>
<path fill="none" stroke="#757575" d="M792.18,-853.82C911.71,-852.27 1068.96,-850.24 1191.61,-848.65"/>
<polygon fill="#757575" stroke="#757575" points="1191.92,-852.14 1201.88,-848.52 1191.83,-845.15 1191.92,-852.14"/>
</g>
<!-- service/generic&#45;map&#45;factory/generic&#45;map&#45;factory.ts&#45;&gt;service/woirld&#45;map&#45;resolver.ts -->
<g id="edge39" class="edge">
<title>service/generic&#45;map&#45;factory/generic&#45;map&#45;factory.ts&#45;&gt;service/woirld&#45;map&#45;resolver.ts</title>
<path fill="none" stroke="#757575" d="M1028.71,-737.59C1067.04,-721.54 1131.7,-688.74 1166,-639.13 1207.94,-578.46 1152.42,-531.74 1202,-477.13 1222.6,-454.45 1251.87,-440.31 1281.02,-431.51"/>
<polygon fill="#757575" stroke="#757575" points="1282.21,-434.81 1290.89,-428.72 1280.31,-428.07 1282.21,-434.81"/>
</g>
<!-- service/generic&#45;map&#45;factory/generic&#45;map&#45;factory.ts&#45;&gt;models/vector.ts -->
<g id="edge35" class="edge">
<title>service/generic&#45;map&#45;factory/generic&#45;map&#45;factory.ts&#45;&gt;models/vector.ts</title>
<path fill="none" stroke="#757575" d="M1091.09,-737.62C1242.35,-719.94 1551.02,-688.13 1813.5,-688.13 1813.5,-688.13 1813.5,-688.13 2381,-688.13 2497.95,-688.13 2633.18,-672.03 2713.34,-660.79"/>
<polygon fill="#757575" stroke="#757575" points="2713.91,-664.25 2723.32,-659.38 2712.93,-657.32 2713.91,-664.25"/>
</g>
<!-- service/generic&#45;map&#45;factory/generic&#45;map&#45;factory.ts&#45;&gt;service/generic&#45;map&#45;factory/layer&#45;factory/layer&#45;factory.ts -->
<g id="edge37" class="edge">
<title>service/generic&#45;map&#45;factory/generic&#45;map&#45;factory.ts&#45;&gt;service/generic&#45;map&#45;factory/layer&#45;factory/layer&#45;factory.ts</title>
<path fill="none" stroke="#757575" d="M1044.03,-760.64C1115.4,-778.48 1252.55,-812.77 1329.71,-832.06"/>
<polygon fill="#757575" stroke="#757575" points="1329.18,-835.53 1339.73,-834.56 1330.87,-828.74 1329.18,-835.53"/>
</g>
<!-- service/generic&#45;map&#45;factory/generic&#45;map&#45;validator.ts -->
<g id="node29" class="node">
<title>service/generic&#45;map&#45;factory/generic&#45;map&#45;validator.ts</title>
<path fill="none" stroke="#c6c5fe" d="M1980.83,-739.63C1980.83,-739.63 1648.17,-739.63 1648.17,-739.63 1644.33,-739.63 1640.5,-735.8 1640.5,-731.97 1640.5,-731.97 1640.5,-724.3 1640.5,-724.3 1640.5,-720.47 1644.33,-716.63 1648.17,-716.63 1648.17,-716.63 1980.83,-716.63 1980.83,-716.63 1984.67,-716.63 1988.5,-720.47 1988.5,-724.3 1988.5,-724.3 1988.5,-731.97 1988.5,-731.97 1988.5,-735.8 1984.67,-739.63 1980.83,-739.63"/>
<text text-anchor="middle" x="1814.5" y="-724.43" font-family="Arial" font-size="14.00" fill="#c6c5fe">service/generic&#45;map&#45;factory/generic&#45;map&#45;validator.ts</text>
</g>
<!-- service/generic&#45;map&#45;factory/generic&#45;map&#45;factory.ts&#45;&gt;service/generic&#45;map&#45;factory/generic&#45;map&#45;validator.ts -->
<g id="edge36" class="edge">
<title>service/generic&#45;map&#45;factory/generic&#45;map&#45;factory.ts&#45;&gt;service/generic&#45;map&#45;factory/generic&#45;map&#45;validator.ts</title>
<path fill="none" stroke="#757575" d="M1166.48,-744.79C1301.62,-741.31 1491.02,-736.44 1629.98,-732.86"/>
<polygon fill="#757575" stroke="#757575" points="1630.41,-736.35 1640.32,-732.59 1630.23,-729.35 1630.41,-736.35"/>
</g>
<!-- service/generic&#45;map&#45;factory/generic&#45;map&#45;factory.ts&#45;&gt;service/map.d.ts -->
<g id="edge38" class="edge">
<title>service/generic&#45;map&#45;factory/generic&#45;map&#45;factory.ts&#45;&gt;service/map.d.ts</title>
<path fill="none" stroke="#757575" d="M1166.1,-752.69C1178.25,-752.87 1190.31,-753.02 1202,-753.13 1565.99,-756.7 1658.24,-779.22 2021,-749.13 2041.63,-747.42 2063.9,-744.38 2084.2,-741.14"/>
<polygon fill="#757575" stroke="#757575" points="2085.01,-744.55 2094.31,-739.48 2083.87,-737.64 2085.01,-744.55"/>
</g>
<!-- service/generic&#45;map&#45;factory/layer&#45;factory/layer&#45;factory.ts&#45;&gt;models/vector.ts -->
<g id="edge41" class="edge">
<title>service/generic&#45;map&#45;factory/layer&#45;factory/layer&#45;factory.ts&#45;&gt;models/vector.ts</title>
<path fill="none" stroke="#757575" d="M1495.04,-857.66C1530.91,-861.17 1571.15,-864.73 1608,-867.13 1850.3,-882.9 1911.19,-886.13 2154,-886.13 2154,-886.13 2154,-886.13 2381,-886.13 2552.01,-886.13 2714.7,-725.63 2766.49,-669.35"/>
<polygon fill="#757575" stroke="#757575" points="2769.18,-671.59 2773.32,-661.84 2764,-666.89 2769.18,-671.59"/>
</g>
<!-- service/generic&#45;map&#45;factory/layer&#45;factory/layer&#45;factory.ts&#45;&gt;service/map.d.ts -->
<g id="edge43" class="edge">
<title>service/generic&#45;map&#45;factory/layer&#45;factory/layer&#45;factory.ts&#45;&gt;service/map.d.ts</title>
<path fill="none" stroke="#757575" d="M1510.71,-834.63C1687.81,-817.9 1996.64,-788.18 2021,-782.13 2056.76,-773.26 2095.57,-756.62 2121.99,-744.15"/>
<polygon fill="#757575" stroke="#757575" points="2123.63,-747.25 2131.13,-739.77 2120.6,-740.94 2123.63,-747.25"/>
</g>
<!-- service/generic&#45;map&#45;factory/layer&#45;factory/object&#45;layer&#45;factory.ts -->
<g id="node31" class="node">
<title>service/generic&#45;map&#45;factory/layer&#45;factory/object&#45;layer&#45;factory.ts</title>
<path fill="none" stroke="#ff6c60" d="M2013.33,-857.63C2013.33,-857.63 1615.67,-857.63 1615.67,-857.63 1611.83,-857.63 1608,-853.8 1608,-849.97 1608,-849.97 1608,-842.3 1608,-842.3 1608,-838.47 1611.83,-834.63 1615.67,-834.63 1615.67,-834.63 2013.33,-834.63 2013.33,-834.63 2017.17,-834.63 2021,-838.47 2021,-842.3 2021,-842.3 2021,-849.97 2021,-849.97 2021,-853.8 2017.17,-857.63 2013.33,-857.63"/>
<text text-anchor="middle" x="1814.5" y="-842.43" font-family="Arial" font-size="14.00" fill="#ff6c60">service/generic&#45;map&#45;factory/layer&#45;factory/object&#45;layer&#45;factory.ts</text>
</g>
<!-- service/generic&#45;map&#45;factory/layer&#45;factory/layer&#45;factory.ts&#45;&gt;service/generic&#45;map&#45;factory/layer&#45;factory/object&#45;layer&#45;factory.ts -->
<g id="edge42" class="edge">
<title>service/generic&#45;map&#45;factory/layer&#45;factory/layer&#45;factory.ts&#45;&gt;service/generic&#45;map&#45;factory/layer&#45;factory/object&#45;layer&#45;factory.ts</title>
<path fill="none" stroke="#757575" d="M1572.16,-839.44C1580.63,-839.4 1589.17,-839.39 1597.71,-839.38"/>
<polygon fill="#757575" stroke="#757575" points="1597.74,-842.88 1607.74,-839.39 1597.74,-835.88 1597.74,-842.88"/>
</g>
<!-- service/generic&#45;map&#45;factory/generic&#45;map&#45;validator.ts&#45;&gt;service/map.d.ts -->
<g id="edge40" class="edge">
<title>service/generic&#45;map&#45;factory/generic&#45;map&#45;validator.ts&#45;&gt;service/map.d.ts</title>
<path fill="none" stroke="#757575" d="M1988.72,-728.13C2022.62,-728.13 2056.3,-728.13 2084.33,-728.13"/>
<polygon fill="#757575" stroke="#757575" points="2084.4,-731.63 2094.4,-728.13 2084.4,-724.63 2084.4,-731.63"/>
</g>
<!-- service/generic&#45;map&#45;factory/layer&#45;factory/object&#45;layer&#45;factory.ts&#45;&gt;service/generic&#45;map&#45;factory/layer&#45;factory/layer&#45;factory.ts -->
<g id="edge44" class="edge">
<title>service/generic&#45;map&#45;factory/layer&#45;factory/object&#45;layer&#45;factory.ts&#45;&gt;service/generic&#45;map&#45;factory/layer&#45;factory/layer&#45;factory.ts</title>
<path fill="none" stroke="#757575" d="M1607.74,-852.88C1599.29,-852.89 1590.83,-852.88 1582.41,-852.86"/>
<polygon fill="#757575" stroke="#757575" points="1582.17,-849.36 1572.16,-852.83 1582.14,-856.36 1582.17,-849.36"/>
</g>
<!-- service/generic&#45;map&#45;factory/layer&#45;factory/object&#45;layer&#45;factory.ts&#45;&gt;service/map.d.ts -->
<g id="edge45" class="edge">
<title>service/generic&#45;map&#45;factory/layer&#45;factory/object&#45;layer&#45;factory.ts&#45;&gt;service/map.d.ts</title>
<path fill="none" stroke="#757575" d="M1970.93,-834.58C1988.12,-830.92 2005.13,-826.2 2021,-820.13 2065.53,-803.09 2109.5,-768.18 2134.06,-746.6"/>
<polygon fill="#757575" stroke="#757575" points="2136.5,-749.12 2141.62,-739.84 2131.84,-743.9 2136.5,-749.12"/>
</g>
<!-- user/user&#45;map&#45;attributes.ts -->
<g id="node38" class="node">
<title>user/user&#45;map&#45;attributes.ts</title>
<path fill="none" stroke="#c6c5fe" d="M1081.83,-506.63C1081.83,-506.63 912.17,-506.63 912.17,-506.63 908.33,-506.63 904.5,-502.8 904.5,-498.97 904.5,-498.97 904.5,-491.3 904.5,-491.3 904.5,-487.47 908.33,-483.63 912.17,-483.63 912.17,-483.63 1081.83,-483.63 1081.83,-483.63 1085.67,-483.63 1089.5,-487.47 1089.5,-491.3 1089.5,-491.3 1089.5,-498.97 1089.5,-498.97 1089.5,-502.8 1085.67,-506.63 1081.83,-506.63"/>
<text text-anchor="middle" x="997" y="-491.43" font-family="Arial" font-size="14.00" fill="#c6c5fe">user/user&#45;map&#45;attributes.ts</text>
</g>
<!-- user/user&#45;map&#45;attributes&#45;loader.ts&#45;&gt;user/user&#45;map&#45;attributes.ts -->
<g id="edge76" class="edge">
<title>user/user&#45;map&#45;attributes&#45;loader.ts&#45;&gt;user/user&#45;map&#45;attributes.ts</title>
<path fill="none" stroke="#757575" d="M727.74,-495.13C780.68,-495.13 843.07,-495.13 894.35,-495.13"/>
<polygon fill="#757575" stroke="#757575" points="894.45,-498.63 904.45,-495.13 894.45,-491.63 894.45,-498.63"/>
</g>
<!-- user/friendship.ts&#45;&gt;user/user.ts -->
<g id="edge74" class="edge">
<title>user/friendship.ts&#45;&gt;user/user.ts</title>
<path fill="none" stroke="#757575" d="M934.32,-619.87C860.64,-618.07 738.54,-611.29 668.13,-605.03"/>
<polygon fill="#757575" stroke="#757575" points="668.4,-601.54 658.13,-604.11 667.76,-608.51 668.4,-601.54"/>
</g>
<!-- user/inventory/inventory&#45;item&#45;type.ts -->
<g id="node34" class="node">
<title>user/inventory/inventory&#45;item&#45;type.ts</title>
<path fill="none" stroke="#cfffac" d="M1500.33,-588.63C1500.33,-588.63 1273.67,-588.63 1273.67,-588.63 1269.83,-588.63 1266,-584.8 1266,-580.97 1266,-580.97 1266,-573.3 1266,-573.3 1266,-569.47 1269.83,-565.63 1273.67,-565.63 1273.67,-565.63 1500.33,-565.63 1500.33,-565.63 1504.17,-565.63 1508,-569.47 1508,-573.3 1508,-573.3 1508,-580.97 1508,-580.97 1508,-584.8 1504.17,-588.63 1500.33,-588.63"/>
<text text-anchor="middle" x="1387" y="-573.43" font-family="Arial" font-size="14.00" fill="#cfffac">user/inventory/inventory&#45;item&#45;type.ts</text>
</g>
<!-- user/inventory/inventory&#45;item.ts&#45;&gt;user/inventory/inventory&#45;item&#45;type.ts -->
<g id="edge75" class="edge">
<title>user/inventory/inventory&#45;item.ts&#45;&gt;user/inventory/inventory&#45;item&#45;type.ts</title>
<path fill="none" stroke="#757575" d="M1102.74,-577.13C1149.78,-577.13 1205.76,-577.13 1255.49,-577.13"/>
<polygon fill="#757575" stroke="#757575" points="1255.68,-580.63 1265.68,-577.13 1255.68,-573.63 1255.68,-580.63"/>
</g>
<!-- user/private&#45;map&#45;override.ts -->
<g id="node36" class="node">
<title>user/private&#45;map&#45;override.ts</title>
<path fill="none" stroke="#cfffac" d="M1476.33,-508.63C1476.33,-508.63 1297.67,-508.63 1297.67,-508.63 1293.83,-508.63 1290,-504.8 1290,-500.97 1290,-500.97 1290,-493.3 1290,-493.3 1290,-489.47 1293.83,-485.63 1297.67,-485.63 1297.67,-485.63 1476.33,-485.63 1476.33,-485.63 1480.17,-485.63 1484,-489.47 1484,-493.3 1484,-493.3 1484,-500.97 1484,-500.97 1484,-504.8 1480.17,-508.63 1476.33,-508.63"/>
<text text-anchor="middle" x="1387" y="-493.43" font-family="Arial" font-size="14.00" fill="#cfffac">user/private&#45;map&#45;override.ts</text>
</g>
<!-- user/user&#45;map&#45;attributes.ts&#45;&gt;user/private&#45;map&#45;override.ts -->
<g id="edge77" class="edge">
<title>user/user&#45;map&#45;attributes.ts&#45;&gt;user/private&#45;map&#45;override.ts</title>
<path fill="none" stroke="#757575" d="M1089.95,-495.61C1146.94,-495.9 1220.34,-496.28 1279.8,-496.58"/>
<polygon fill="#757575" stroke="#757575" points="1279.96,-500.09 1289.98,-496.64 1280,-493.09 1279.96,-500.09"/>
</g>
</g>
</svg>
