<?xml version="1.0" encoding="UTF-8" standalone="no"?>
<!DOCTYPE svg PUBLIC "-//W3C//DTD SVG 1.1//EN"
 "http://www.w3.org/Graphics/SVG/1.1/DTD/svg11.dtd">
<!-- Generated by graphviz version 2.47.2 (20210527.0053)
 -->
<!-- Title: G Pages: 1 -->
<svg width="2370pt" height="1066pt"
 viewBox="0.00 0.00 2370.20 1065.55" xmlns="http://www.w3.org/2000/svg" xmlns:xlink="http://www.w3.org/1999/xlink">
<g id="graph0" class="graph" transform="scale(1 1) rotate(0) translate(21.6 1043.95)">
<title>G</title>
<polygon fill="#111111" stroke="transparent" points="-21.6,21.6 -21.6,-1043.95 2348.6,-1043.95 2348.6,21.6 -21.6,21.6"/>
<!-- ../public/users.d.ts -->
<g id="node1" class="node">
<title>../public/users.d.ts</title>
<path fill="none" stroke="#cfffac" d="M394.83,-942.35C394.83,-942.35 279.17,-942.35 279.17,-942.35 275.33,-942.35 271.5,-938.52 271.5,-934.68 271.5,-934.68 271.5,-927.02 271.5,-927.02 271.5,-923.18 275.33,-919.35 279.17,-919.35 279.17,-919.35 394.83,-919.35 394.83,-919.35 398.67,-919.35 402.5,-923.18 402.5,-927.02 402.5,-927.02 402.5,-934.68 402.5,-934.68 402.5,-938.52 398.67,-942.35 394.83,-942.35"/>
<text text-anchor="middle" x="337" y="-927.15" font-family="Arial" font-size="14.00" fill="#cfffac">../public/users.d.ts</text>
</g>
<!-- ../util/memory&#45;cache.ts -->
<g id="node2" class="node">
<title>../util/memory&#45;cache.ts</title>
<path fill="none" stroke="#cfffac" d="M408.33,-901.35C408.33,-901.35 265.67,-901.35 265.67,-901.35 261.83,-901.35 258,-897.52 258,-893.68 258,-893.68 258,-886.02 258,-886.02 258,-882.18 261.83,-878.35 265.67,-878.35 265.67,-878.35 408.33,-878.35 408.33,-878.35 412.17,-878.35 416,-882.18 416,-886.02 416,-886.02 416,-893.68 416,-893.68 416,-897.52 412.17,-901.35 408.33,-901.35"/>
<text text-anchor="middle" x="337" y="-886.15" font-family="Arial" font-size="14.00" fill="#cfffac">../util/memory&#45;cache.ts</text>
</g>
<!-- mapserver/api.proxy.ts -->
<g id="node3" class="node">
<title>mapserver/api.proxy.ts</title>
<path fill="none" stroke="#c6c5fe" d="M157.33,-901.35C157.33,-901.35 12.67,-901.35 12.67,-901.35 8.83,-901.35 5,-897.52 5,-893.68 5,-893.68 5,-886.02 5,-886.02 5,-882.18 8.83,-878.35 12.67,-878.35 12.67,-878.35 157.33,-878.35 157.33,-878.35 161.17,-878.35 165,-882.18 165,-886.02 165,-886.02 165,-893.68 165,-893.68 165,-897.52 161.17,-901.35 157.33,-901.35"/>
<text text-anchor="middle" x="85" y="-886.15" font-family="Arial" font-size="14.00" fill="#c6c5fe">mapserver/api.proxy.ts</text>
</g>
<!-- mapserver/api.proxy.ts&#45;&gt;../public/users.d.ts -->
<g id="edge1" class="edge">
<title>mapserver/api.proxy.ts&#45;&gt;../public/users.d.ts</title>
<path fill="none" stroke="#757575" d="M154.84,-901.38C171.58,-904.17 189.43,-907.13 206,-909.85 223.89,-912.79 243.18,-915.92 261.27,-918.84"/>
<polygon fill="#757575" stroke="#757575" points="260.76,-922.31 271.19,-920.44 261.87,-915.39 260.76,-922.31"/>
</g>
<!-- mapserver/api.proxy.ts&#45;&gt;../util/memory&#45;cache.ts -->
<g id="edge2" class="edge">
<title>mapserver/api.proxy.ts&#45;&gt;../util/memory&#45;cache.ts</title>
<path fill="none" stroke="#757575" d="M165.1,-889.85C191.36,-889.85 220.75,-889.85 247.66,-889.85"/>
<polygon fill="#757575" stroke="#757575" points="247.84,-893.35 257.84,-889.85 247.84,-886.35 247.84,-893.35"/>
</g>
<!-- mapserver/message&#45;communication.ts -->
<g id="node4" class="node">
<title>mapserver/message&#45;communication.ts</title>
<path fill="none" stroke="#c6c5fe" d="M460.33,-759.35C460.33,-759.35 213.67,-759.35 213.67,-759.35 209.83,-759.35 206,-755.52 206,-751.68 206,-751.68 206,-744.02 206,-744.02 206,-740.18 209.83,-736.35 213.67,-736.35 213.67,-736.35 460.33,-736.35 460.33,-736.35 464.17,-736.35 468,-740.18 468,-744.02 468,-744.02 468,-751.68 468,-751.68 468,-755.52 464.17,-759.35 460.33,-759.35"/>
<text text-anchor="middle" x="337" y="-744.15" font-family="Arial" font-size="14.00" fill="#c6c5fe">mapserver/message&#45;communication.ts</text>
</g>
<!-- mapserver/api.proxy.ts&#45;&gt;mapserver/message&#45;communication.ts -->
<g id="edge3" class="edge">
<title>mapserver/api.proxy.ts&#45;&gt;mapserver/message&#45;communication.ts</title>
<path fill="none" stroke="#757575" d="M106.46,-878.23C150.7,-853.1 255.41,-793.62 306.68,-764.5"/>
<polygon fill="#757575" stroke="#757575" points="308.64,-767.41 315.61,-759.43 305.19,-761.33 308.64,-767.41"/>
</g>
<!-- mapserver/user/user.ts -->
<g id="node15" class="node">
<title>mapserver/user/user.ts</title>
<path fill="none" stroke="#ff6c60" d="M727.83,-739.35C727.83,-739.35 581.17,-739.35 581.17,-739.35 577.33,-739.35 573.5,-735.52 573.5,-731.68 573.5,-731.68 573.5,-724.02 573.5,-724.02 573.5,-720.18 577.33,-716.35 581.17,-716.35 581.17,-716.35 727.83,-716.35 727.83,-716.35 731.67,-716.35 735.5,-720.18 735.5,-724.02 735.5,-724.02 735.5,-731.68 735.5,-731.68 735.5,-735.52 731.67,-739.35 727.83,-739.35"/>
<text text-anchor="middle" x="654.5" y="-724.15" font-family="Arial" font-size="14.00" fill="#ff6c60">mapserver/user/user.ts</text>
</g>
<!-- mapserver/message&#45;communication.ts&#45;&gt;mapserver/user/user.ts -->
<g id="edge14" class="edge">
<title>mapserver/message&#45;communication.ts&#45;&gt;mapserver/user/user.ts</title>
<path fill="none" stroke="#757575" d="M468.15,-739.6C500.03,-737.58 533.47,-735.46 563.03,-733.58"/>
<polygon fill="#757575" stroke="#757575" points="563.56,-737.06 573.32,-732.93 563.12,-730.07 563.56,-737.06"/>
</g>
<!-- mapserver/mapserver.ts -->
<g id="node5" class="node">
<title>mapserver/mapserver.ts</title>
<path fill="none" stroke="#c6c5fe" d="M162.33,-297.35C162.33,-297.35 7.67,-297.35 7.67,-297.35 3.83,-297.35 0,-293.52 0,-289.68 0,-289.68 0,-282.02 0,-282.02 0,-278.18 3.83,-274.35 7.67,-274.35 7.67,-274.35 162.33,-274.35 162.33,-274.35 166.17,-274.35 170,-278.18 170,-282.02 170,-282.02 170,-289.68 170,-289.68 170,-293.52 166.17,-297.35 162.33,-297.35"/>
<text text-anchor="middle" x="85" y="-282.15" font-family="Arial" font-size="14.00" fill="#c6c5fe">mapserver/mapserver.ts</text>
</g>
<!-- mapserver/models/location.ts -->
<g id="node6" class="node">
<title>mapserver/models/location.ts</title>
<path fill="none" stroke="#c6c5fe" d="M1729.33,-182.35C1729.33,-182.35 1541.67,-182.35 1541.67,-182.35 1537.83,-182.35 1534,-178.52 1534,-174.68 1534,-174.68 1534,-167.02 1534,-167.02 1534,-163.18 1537.83,-159.35 1541.67,-159.35 1541.67,-159.35 1729.33,-159.35 1729.33,-159.35 1733.17,-159.35 1737,-163.18 1737,-167.02 1737,-167.02 1737,-174.68 1737,-174.68 1737,-178.52 1733.17,-182.35 1729.33,-182.35"/>
<text text-anchor="middle" x="1635.5" y="-167.15" font-family="Arial" font-size="14.00" fill="#c6c5fe">mapserver/models/location.ts</text>
</g>
<!-- mapserver/mapserver.ts&#45;&gt;mapserver/models/location.ts -->
<g id="edge4" class="edge">
<title>mapserver/mapserver.ts&#45;&gt;mapserver/models/location.ts</title>
<path fill="none" stroke="#757575" d="M89.87,-274.28C101.4,-241.91 138.96,-150.59 206,-115.85 443.15,7.03 1291.28,-115.59 1555.4,-157.76"/>
<polygon fill="#757575" stroke="#757575" points="1554.87,-161.22 1565.3,-159.35 1555.98,-154.31 1554.87,-161.22"/>
</g>
<!-- mapserver/models/site.ts -->
<g id="node7" class="node">
<title>mapserver/models/site.ts</title>
<path fill="none" stroke="#c6c5fe" d="M1396.33,-267.35C1396.33,-267.35 1235.67,-267.35 1235.67,-267.35 1231.83,-267.35 1228,-263.52 1228,-259.68 1228,-259.68 1228,-252.02 1228,-252.02 1228,-248.18 1231.83,-244.35 1235.67,-244.35 1235.67,-244.35 1396.33,-244.35 1396.33,-244.35 1400.17,-244.35 1404,-248.18 1404,-252.02 1404,-252.02 1404,-259.68 1404,-259.68 1404,-263.52 1400.17,-267.35 1396.33,-267.35"/>
<text text-anchor="middle" x="1316" y="-252.15" font-family="Arial" font-size="14.00" fill="#c6c5fe">mapserver/models/site.ts</text>
</g>
<!-- mapserver/mapserver.ts&#45;&gt;mapserver/models/site.ts -->
<g id="edge5" class="edge">
<title>mapserver/mapserver.ts&#45;&gt;mapserver/models/site.ts</title>
<path fill="none" stroke="#757575" d="M170.47,-283.79C391.04,-278.4 983.37,-263.94 1217.67,-258.22"/>
<polygon fill="#757575" stroke="#757575" points="1217.97,-261.72 1227.88,-257.98 1217.8,-254.72 1217.97,-261.72"/>
</g>
<!-- mapserver/models/tile.ts -->
<g id="node8" class="node">
<title>mapserver/models/tile.ts</title>
<path fill="none" stroke="#cfffac" d="M1979.33,-72.35C1979.33,-72.35 1822.67,-72.35 1822.67,-72.35 1818.83,-72.35 1815,-68.52 1815,-64.68 1815,-64.68 1815,-57.02 1815,-57.02 1815,-53.18 1818.83,-49.35 1822.67,-49.35 1822.67,-49.35 1979.33,-49.35 1979.33,-49.35 1983.17,-49.35 1987,-53.18 1987,-57.02 1987,-57.02 1987,-64.68 1987,-64.68 1987,-68.52 1983.17,-72.35 1979.33,-72.35"/>
<text text-anchor="middle" x="1901" y="-57.15" font-family="Arial" font-size="14.00" fill="#cfffac">mapserver/models/tile.ts</text>
</g>
<!-- mapserver/mapserver.ts&#45;&gt;mapserver/models/tile.ts -->
<g id="edge6" class="edge">
<title>mapserver/mapserver.ts&#45;&gt;mapserver/models/tile.ts</title>
<path fill="none" stroke="#757575" d="M88.21,-274.2C96.14,-236 127,-113.94 206,-61.85 372.67,48.05 453.86,-22.85 653.5,-22.85 653.5,-22.85 653.5,-22.85 1317,-22.85 1489.06,-22.85 1689.07,-39.53 1804.45,-50.79"/>
<polygon fill="#757575" stroke="#757575" points="1804.37,-54.3 1814.66,-51.8 1805.05,-47.33 1804.37,-54.3"/>
</g>
<!-- mapserver/service/address&#45;from&#45;geo.ts -->
<g id="node9" class="node">
<title>mapserver/service/address&#45;from&#45;geo.ts</title>
<path fill="none" stroke="#c6c5fe" d="M1441.83,-226.35C1441.83,-226.35 1190.17,-226.35 1190.17,-226.35 1186.33,-226.35 1182.5,-222.52 1182.5,-218.68 1182.5,-218.68 1182.5,-211.02 1182.5,-211.02 1182.5,-207.18 1186.33,-203.35 1190.17,-203.35 1190.17,-203.35 1441.83,-203.35 1441.83,-203.35 1445.67,-203.35 1449.5,-207.18 1449.5,-211.02 1449.5,-211.02 1449.5,-218.68 1449.5,-218.68 1449.5,-222.52 1445.67,-226.35 1441.83,-226.35"/>
<text text-anchor="middle" x="1316" y="-211.15" font-family="Arial" font-size="14.00" fill="#c6c5fe">mapserver/service/address&#45;from&#45;geo.ts</text>
</g>
<!-- mapserver/mapserver.ts&#45;&gt;mapserver/service/address&#45;from&#45;geo.ts -->
<g id="edge7" class="edge">
<title>mapserver/mapserver.ts&#45;&gt;mapserver/service/address&#45;from&#45;geo.ts</title>
<path fill="none" stroke="#757575" d="M170.19,-276.13C182.2,-274.92 194.41,-273.78 206,-272.85 552.26,-245.06 960.45,-227.66 1171.89,-219.79"/>
<polygon fill="#757575" stroke="#757575" points="1172.25,-223.27 1182.12,-219.41 1171.99,-216.28 1172.25,-223.27"/>
</g>
<!-- mapserver/service/image&#45;resolver.ts -->
<g id="node10" class="node">
<title>mapserver/service/image&#45;resolver.ts</title>
<path fill="none" stroke="#c6c5fe" d="M452.83,-148.35C452.83,-148.35 221.17,-148.35 221.17,-148.35 217.33,-148.35 213.5,-144.52 213.5,-140.68 213.5,-140.68 213.5,-133.02 213.5,-133.02 213.5,-129.18 217.33,-125.35 221.17,-125.35 221.17,-125.35 452.83,-125.35 452.83,-125.35 456.67,-125.35 460.5,-129.18 460.5,-133.02 460.5,-133.02 460.5,-140.68 460.5,-140.68 460.5,-144.52 456.67,-148.35 452.83,-148.35"/>
<text text-anchor="middle" x="337" y="-133.15" font-family="Arial" font-size="14.00" fill="#c6c5fe">mapserver/service/image&#45;resolver.ts</text>
</g>
<!-- mapserver/mapserver.ts&#45;&gt;mapserver/service/image&#45;resolver.ts -->
<g id="edge8" class="edge">
<title>mapserver/mapserver.ts&#45;&gt;mapserver/service/image&#45;resolver.ts</title>
<path fill="none" stroke="#757575" d="M93.69,-274.11C110.69,-249.2 154.09,-191.04 206,-162.85 214.41,-158.28 223.51,-154.51 232.86,-151.4"/>
<polygon fill="#757575" stroke="#757575" points="234.14,-154.67 242.68,-148.4 232.09,-147.98 234.14,-154.67"/>
</g>
<!-- mapserver/service/map&#45;attributes&#45;holder.ts -->
<g id="node11" class="node">
<title>mapserver/service/map&#45;attributes&#45;holder.ts</title>
<path fill="none" stroke="#cfffac" d="M2319.33,-578.35C2319.33,-578.35 2047.67,-578.35 2047.67,-578.35 2043.83,-578.35 2040,-574.52 2040,-570.68 2040,-570.68 2040,-563.02 2040,-563.02 2040,-559.18 2043.83,-555.35 2047.67,-555.35 2047.67,-555.35 2319.33,-555.35 2319.33,-555.35 2323.17,-555.35 2327,-559.18 2327,-563.02 2327,-563.02 2327,-570.68 2327,-570.68 2327,-574.52 2323.17,-578.35 2319.33,-578.35"/>
<text text-anchor="middle" x="2183.5" y="-563.15" font-family="Arial" font-size="14.00" fill="#cfffac">mapserver/service/map&#45;attributes&#45;holder.ts</text>
</g>
<!-- mapserver/mapserver.ts&#45;&gt;mapserver/service/map&#45;attributes&#45;holder.ts -->
<g id="edge9" class="edge">
<title>mapserver/mapserver.ts&#45;&gt;mapserver/service/map&#45;attributes&#45;holder.ts</title>
<path fill="none" stroke="#757575" d="M87.22,-297.65C94.45,-364.99 133.71,-699.96 206,-767.85 353.39,-906.27 451.3,-849.85 653.5,-849.85 653.5,-849.85 653.5,-849.85 1636.5,-849.85 1866.83,-849.85 2096.7,-648.88 2163.32,-585.65"/>
<polygon fill="#757575" stroke="#757575" points="2165.83,-588.1 2170.62,-578.65 2160.98,-583.04 2165.83,-588.1"/>
</g>
<!-- mapserver/service/site&#45;adder.ts -->
<g id="node12" class="node">
<title>mapserver/service/site&#45;adder.ts</title>
<path fill="none" stroke="#ff6c60" d="M1082.33,-425.35C1082.33,-425.35 881.67,-425.35 881.67,-425.35 877.83,-425.35 874,-421.52 874,-417.68 874,-417.68 874,-410.02 874,-410.02 874,-406.18 877.83,-402.35 881.67,-402.35 881.67,-402.35 1082.33,-402.35 1082.33,-402.35 1086.17,-402.35 1090,-406.18 1090,-410.02 1090,-410.02 1090,-417.68 1090,-417.68 1090,-421.52 1086.17,-425.35 1082.33,-425.35"/>
<text text-anchor="middle" x="982" y="-410.15" font-family="Arial" font-size="14.00" fill="#ff6c60">mapserver/service/site&#45;adder.ts</text>
</g>
<!-- mapserver/mapserver.ts&#45;&gt;mapserver/service/site&#45;adder.ts -->
<g id="edge10" class="edge">
<title>mapserver/mapserver.ts&#45;&gt;mapserver/service/site&#45;adder.ts</title>
<path fill="none" stroke="#757575" d="M115.62,-297.52C139.63,-306.55 174.53,-318.67 206,-325.85 435.4,-378.18 710.43,-400.01 863.46,-408.64"/>
<polygon fill="#757575" stroke="#757575" points="863.64,-412.16 873.81,-409.21 864.02,-405.17 863.64,-412.16"/>
</g>
<!-- mapserver/service/user&#45;map&#45;loader.ts -->
<g id="node13" class="node">
<title>mapserver/service/user&#45;map&#45;loader.ts</title>
<path fill="none" stroke="#c6c5fe" d="M457.83,-658.35C457.83,-658.35 216.17,-658.35 216.17,-658.35 212.33,-658.35 208.5,-654.52 208.5,-650.68 208.5,-650.68 208.5,-643.02 208.5,-643.02 208.5,-639.18 212.33,-635.35 216.17,-635.35 216.17,-635.35 457.83,-635.35 457.83,-635.35 461.67,-635.35 465.5,-639.18 465.5,-643.02 465.5,-643.02 465.5,-650.68 465.5,-650.68 465.5,-654.52 461.67,-658.35 457.83,-658.35"/>
<text text-anchor="middle" x="337" y="-643.15" font-family="Arial" font-size="14.00" fill="#c6c5fe">mapserver/service/user&#45;map&#45;loader.ts</text>
</g>
<!-- mapserver/mapserver.ts&#45;&gt;mapserver/service/user&#45;map&#45;loader.ts -->
<g id="edge11" class="edge">
<title>mapserver/mapserver.ts&#45;&gt;mapserver/service/user&#45;map&#45;loader.ts</title>
<path fill="none" stroke="#757575" d="M94.03,-297.45C129.95,-349.32 276.07,-560.31 322.07,-626.73"/>
<polygon fill="#757575" stroke="#757575" points="319.3,-628.88 327.87,-635.11 325.05,-624.89 319.3,-628.88"/>
</g>
<!-- mapserver/service/woirld&#45;map&#45;resolver.ts -->
<g id="node14" class="node">
<title>mapserver/service/woirld&#45;map&#45;resolver.ts</title>
<path fill="none" stroke="#ff6c60" d="M785.33,-355.35C785.33,-355.35 523.67,-355.35 523.67,-355.35 519.83,-355.35 516,-351.52 516,-347.68 516,-347.68 516,-340.02 516,-340.02 516,-336.18 519.83,-332.35 523.67,-332.35 523.67,-332.35 785.33,-332.35 785.33,-332.35 789.17,-332.35 793,-336.18 793,-340.02 793,-340.02 793,-347.68 793,-347.68 793,-351.52 789.17,-355.35 785.33,-355.35"/>
<text text-anchor="middle" x="654.5" y="-340.15" font-family="Arial" font-size="14.00" fill="#ff6c60">mapserver/service/woirld&#45;map&#45;resolver.ts</text>
</g>
<!-- mapserver/mapserver.ts&#45;&gt;mapserver/service/woirld&#45;map&#45;resolver.ts -->
<g id="edge12" class="edge">
<title>mapserver/mapserver.ts&#45;&gt;mapserver/service/woirld&#45;map&#45;resolver.ts</title>
<path fill="none" stroke="#757575" d="M170.04,-294.44C265.41,-304.19 421.84,-320.17 530.84,-331.31"/>
<polygon fill="#757575" stroke="#757575" points="530.6,-334.81 540.9,-332.34 531.31,-327.84 530.6,-334.81"/>
</g>
<!-- mapserver/mapserver.ts&#45;&gt;mapserver/user/user.ts -->
<g id="edge13" class="edge">
<title>mapserver/mapserver.ts&#45;&gt;mapserver/user/user.ts</title>
<path fill="none" stroke="#757575" d="M85.59,-297.53C84.44,-350.11 87.25,-566.71 206,-666.85 258.44,-711.07 448.24,-723.34 563.14,-726.67"/>
<polygon fill="#757575" stroke="#757575" points="563.24,-730.18 573.33,-726.95 563.43,-723.18 563.24,-730.18"/>
</g>
<!-- mapserver/models/location.ts&#45;&gt;mapserver/models/tile.ts -->
<g id="edge17" class="edge">
<title>mapserver/models/location.ts&#45;&gt;mapserver/models/tile.ts</title>
<path fill="none" stroke="#757575" d="M1664.2,-159.28C1711.84,-139.4 1809.32,-98.7 1862.82,-76.37"/>
<polygon fill="#757575" stroke="#757575" points="1864.39,-79.51 1872.27,-72.42 1861.7,-73.05 1864.39,-79.51"/>
</g>
<!-- mapserver/models/vector.ts -->
<g id="node18" class="node">
<title>mapserver/models/vector.ts</title>
<path fill="none" stroke="#cfffac" d="M2272.33,-344.35C2272.33,-344.35 2094.67,-344.35 2094.67,-344.35 2090.83,-344.35 2087,-340.52 2087,-336.68 2087,-336.68 2087,-329.02 2087,-329.02 2087,-325.18 2090.83,-321.35 2094.67,-321.35 2094.67,-321.35 2272.33,-321.35 2272.33,-321.35 2276.17,-321.35 2280,-325.18 2280,-329.02 2280,-329.02 2280,-336.68 2280,-336.68 2280,-340.52 2276.17,-344.35 2272.33,-344.35"/>
<text text-anchor="middle" x="2183.5" y="-329.15" font-family="Arial" font-size="14.00" fill="#cfffac">mapserver/models/vector.ts</text>
</g>
<!-- mapserver/models/location.ts&#45;&gt;mapserver/models/vector.ts -->
<g id="edge18" class="edge">
<title>mapserver/models/location.ts&#45;&gt;mapserver/models/vector.ts</title>
<path fill="none" stroke="#757575" d="M1721.27,-182.37C1734.97,-184.8 1748.93,-187.63 1762,-190.85 1905.97,-226.36 2071.12,-288.73 2144.24,-317.51"/>
<polygon fill="#757575" stroke="#757575" points="2143.35,-320.92 2153.94,-321.34 2145.92,-314.41 2143.35,-320.92"/>
</g>
<!-- mapserver/models/tile&#45;pixel.ts -->
<g id="node19" class="node">
<title>mapserver/models/tile&#45;pixel.ts</title>
<path fill="none" stroke="#c6c5fe" d="M1996.33,-462.35C1996.33,-462.35 1805.67,-462.35 1805.67,-462.35 1801.83,-462.35 1798,-458.52 1798,-454.68 1798,-454.68 1798,-447.02 1798,-447.02 1798,-443.18 1801.83,-439.35 1805.67,-439.35 1805.67,-439.35 1996.33,-439.35 1996.33,-439.35 2000.17,-439.35 2004,-443.18 2004,-447.02 2004,-447.02 2004,-454.68 2004,-454.68 2004,-458.52 2000.17,-462.35 1996.33,-462.35"/>
<text text-anchor="middle" x="1901" y="-447.15" font-family="Arial" font-size="14.00" fill="#c6c5fe">mapserver/models/tile&#45;pixel.ts</text>
</g>
<!-- mapserver/models/location.ts&#45;&gt;mapserver/models/tile&#45;pixel.ts -->
<g id="edge16" class="edge">
<title>mapserver/models/location.ts&#45;&gt;mapserver/models/tile&#45;pixel.ts</title>
<path fill="none" stroke="#757575" d="M1737.17,-178.12C1746.02,-181.3 1754.46,-185.46 1762,-190.85 1805.15,-221.69 1869.06,-373.46 1891.69,-429.77"/>
<polygon fill="#757575" stroke="#757575" points="1888.46,-431.13 1895.42,-439.13 1894.97,-428.54 1888.46,-431.13"/>
</g>
<!-- mapserver/models/site.ts&#45;&gt;mapserver/models/location.ts -->
<g id="edge21" class="edge">
<title>mapserver/models/site.ts&#45;&gt;mapserver/models/location.ts</title>
<path fill="none" stroke="#757575" d="M1404.06,-255.64C1427.58,-252.58 1452.24,-246.44 1473,-234.85 1495.06,-222.53 1487.09,-203.44 1509,-190.85 1513.84,-188.07 1518.95,-185.64 1524.23,-183.52"/>
<polygon fill="#757575" stroke="#757575" points="1525.68,-186.72 1533.9,-180.04 1523.31,-180.14 1525.68,-186.72"/>
</g>
<!-- mapserver/models/address.ts -->
<g id="node16" class="node">
<title>mapserver/models/address.ts</title>
<path fill="none" stroke="#cfffac" d="M1730.83,-264.35C1730.83,-264.35 1540.17,-264.35 1540.17,-264.35 1536.33,-264.35 1532.5,-260.52 1532.5,-256.68 1532.5,-256.68 1532.5,-249.02 1532.5,-249.02 1532.5,-245.18 1536.33,-241.35 1540.17,-241.35 1540.17,-241.35 1730.83,-241.35 1730.83,-241.35 1734.67,-241.35 1738.5,-245.18 1738.5,-249.02 1738.5,-249.02 1738.5,-256.68 1738.5,-256.68 1738.5,-260.52 1734.67,-264.35 1730.83,-264.35"/>
<text text-anchor="middle" x="1635.5" y="-249.15" font-family="Arial" font-size="14.00" fill="#cfffac">mapserver/models/address.ts</text>
</g>
<!-- mapserver/models/site.ts&#45;&gt;mapserver/models/address.ts -->
<g id="edge20" class="edge">
<title>mapserver/models/site.ts&#45;&gt;mapserver/models/address.ts</title>
<path fill="none" stroke="#757575" d="M1404.18,-255.03C1440.58,-254.68 1483.33,-254.28 1522.05,-253.91"/>
<polygon fill="#757575" stroke="#757575" points="1522.36,-257.41 1532.33,-253.81 1522.29,-250.41 1522.36,-257.41"/>
</g>
<!-- mapserver/models/site&#45;tile&#45;position.ts -->
<g id="node21" class="node">
<title>mapserver/models/site&#45;tile&#45;position.ts</title>
<path fill="none" stroke="#c6c5fe" d="M1754.33,-462.35C1754.33,-462.35 1516.67,-462.35 1516.67,-462.35 1512.83,-462.35 1509,-458.52 1509,-454.68 1509,-454.68 1509,-447.02 1509,-447.02 1509,-443.18 1512.83,-439.35 1516.67,-439.35 1516.67,-439.35 1754.33,-439.35 1754.33,-439.35 1758.17,-439.35 1762,-443.18 1762,-447.02 1762,-447.02 1762,-454.68 1762,-454.68 1762,-458.52 1758.17,-462.35 1754.33,-462.35"/>
<text text-anchor="middle" x="1635.5" y="-447.15" font-family="Arial" font-size="14.00" fill="#c6c5fe">mapserver/models/site&#45;tile&#45;position.ts</text>
</g>
<!-- mapserver/models/site.ts&#45;&gt;mapserver/models/site&#45;tile&#45;position.ts -->
<g id="edge22" class="edge">
<title>mapserver/models/site.ts&#45;&gt;mapserver/models/site&#45;tile&#45;position.ts</title>
<path fill="none" stroke="#757575" d="M1335.91,-267.46C1389.73,-300.52 1543.94,-395.23 1607.06,-434"/>
<polygon fill="#757575" stroke="#757575" points="1605.34,-437.04 1615.69,-439.3 1609,-431.08 1605.34,-437.04"/>
</g>
<!-- mapserver/service/address&#45;from&#45;geo.ts&#45;&gt;mapserver/models/location.ts -->
<g id="edge27" class="edge">
<title>mapserver/service/address&#45;from&#45;geo.ts&#45;&gt;mapserver/models/location.ts</title>
<path fill="none" stroke="#757575" d="M1400,-203.35C1443.39,-197.33 1496.64,-189.95 1541.42,-183.75"/>
<polygon fill="#757575" stroke="#757575" points="1542,-187.2 1551.43,-182.36 1541.04,-180.27 1542,-187.2"/>
</g>
<!-- mapserver/service/address&#45;from&#45;geo.ts&#45;&gt;mapserver/models/address.ts -->
<g id="edge25" class="edge">
<title>mapserver/service/address&#45;from&#45;geo.ts&#45;&gt;mapserver/models/address.ts</title>
<path fill="none" stroke="#757575" d="M1413.12,-226.35C1449.32,-230.69 1490.7,-235.64 1527.81,-240.08"/>
<polygon fill="#757575" stroke="#757575" points="1527.81,-243.6 1538.16,-241.32 1528.64,-236.65 1527.81,-243.6"/>
</g>
<!-- mapserver/models/bounding&#45;box.ts -->
<g id="node17" class="node">
<title>mapserver/models/bounding&#45;box.ts</title>
<path fill="none" stroke="#c6c5fe" d="M1747.83,-344.35C1747.83,-344.35 1523.17,-344.35 1523.17,-344.35 1519.33,-344.35 1515.5,-340.52 1515.5,-336.68 1515.5,-336.68 1515.5,-329.02 1515.5,-329.02 1515.5,-325.18 1519.33,-321.35 1523.17,-321.35 1523.17,-321.35 1747.83,-321.35 1747.83,-321.35 1751.67,-321.35 1755.5,-325.18 1755.5,-329.02 1755.5,-329.02 1755.5,-336.68 1755.5,-336.68 1755.5,-340.52 1751.67,-344.35 1747.83,-344.35"/>
<text text-anchor="middle" x="1635.5" y="-329.15" font-family="Arial" font-size="14.00" fill="#c6c5fe">mapserver/models/bounding&#45;box.ts</text>
</g>
<!-- mapserver/service/address&#45;from&#45;geo.ts&#45;&gt;mapserver/models/bounding&#45;box.ts -->
<g id="edge26" class="edge">
<title>mapserver/service/address&#45;from&#45;geo.ts&#45;&gt;mapserver/models/bounding&#45;box.ts</title>
<path fill="none" stroke="#757575" d="M1449.6,-225.29C1457.7,-227.92 1465.57,-231.08 1473,-234.85 1493.74,-245.38 1490.19,-259.16 1509,-272.85 1534.8,-291.63 1567.39,-307 1592.9,-317.49"/>
<polygon fill="#757575" stroke="#757575" points="1591.72,-320.78 1602.3,-321.26 1594.33,-314.29 1591.72,-320.78"/>
</g>
<!-- mapserver/service/json&#45;assign.ts -->
<g id="node22" class="node">
<title>mapserver/service/json&#45;assign.ts</title>
<path fill="none" stroke="#cfffac" d="M1739.83,-223.35C1739.83,-223.35 1531.17,-223.35 1531.17,-223.35 1527.33,-223.35 1523.5,-219.52 1523.5,-215.68 1523.5,-215.68 1523.5,-208.02 1523.5,-208.02 1523.5,-204.18 1527.33,-200.35 1531.17,-200.35 1531.17,-200.35 1739.83,-200.35 1739.83,-200.35 1743.67,-200.35 1747.5,-204.18 1747.5,-208.02 1747.5,-208.02 1747.5,-215.68 1747.5,-215.68 1747.5,-219.52 1743.67,-223.35 1739.83,-223.35"/>
<text text-anchor="middle" x="1635.5" y="-208.15" font-family="Arial" font-size="14.00" fill="#cfffac">mapserver/service/json&#45;assign.ts</text>
</g>
<!-- mapserver/service/address&#45;from&#45;geo.ts&#45;&gt;mapserver/service/json&#45;assign.ts -->
<g id="edge28" class="edge">
<title>mapserver/service/address&#45;from&#45;geo.ts&#45;&gt;mapserver/service/json&#45;assign.ts</title>
<path fill="none" stroke="#757575" d="M1449.81,-213.59C1470.84,-213.4 1492.49,-213.19 1513.24,-212.99"/>
<polygon fill="#757575" stroke="#757575" points="1513.38,-216.49 1523.34,-212.9 1513.31,-209.49 1513.38,-216.49"/>
</g>
<!-- mapserver/service/image&#45;resolver.ts&#45;&gt;mapserver/models/location.ts -->
<g id="edge29" class="edge">
<title>mapserver/service/image&#45;resolver.ts&#45;&gt;mapserver/models/location.ts</title>
<path fill="none" stroke="#757575" d="M460.56,-140.06C711.96,-146.66 1282.6,-161.62 1523.69,-167.94"/>
<polygon fill="#757575" stroke="#757575" points="1523.79,-171.45 1533.87,-168.21 1523.97,-164.45 1523.79,-171.45"/>
</g>
<!-- mapserver/service/image&#45;resolver.ts&#45;&gt;mapserver/models/tile.ts -->
<g id="edge30" class="edge">
<title>mapserver/service/image&#45;resolver.ts&#45;&gt;mapserver/models/tile.ts</title>
<path fill="none" stroke="#757575" d="M460.57,-130.89C761.99,-116.22 1534.45,-78.63 1804.82,-65.48"/>
<polygon fill="#757575" stroke="#757575" points="1805.18,-68.97 1815,-64.98 1804.84,-61.97 1805.18,-68.97"/>
</g>
<!-- mapserver/service/image&#45;resolver.ts&#45;&gt;mapserver/service/woirld&#45;map&#45;resolver.ts -->
<g id="edge31" class="edge">
<title>mapserver/service/image&#45;resolver.ts&#45;&gt;mapserver/service/woirld&#45;map&#45;resolver.ts</title>
<path fill="none" stroke="#757575" d="M355.87,-148.57C408.8,-183.3 564.96,-285.76 627.33,-326.68"/>
<polygon fill="#757575" stroke="#757575" points="625.55,-329.7 635.83,-332.26 629.39,-323.84 625.55,-329.7"/>
</g>
<!-- mapserver/service/site&#45;adder.ts&#45;&gt;mapserver/models/site.ts -->
<g id="edge34" class="edge">
<title>mapserver/service/site&#45;adder.ts&#45;&gt;mapserver/models/site.ts</title>
<path fill="none" stroke="#757575" d="M1018.88,-402.26C1048.19,-391.93 1090.01,-375.15 1123,-353.85 1141.23,-342.07 1140.71,-332.53 1159,-320.85 1193.06,-299.09 1235.64,-281.93 1267.7,-270.72"/>
<polygon fill="#757575" stroke="#757575" points="1268.96,-273.98 1277.29,-267.43 1266.7,-267.36 1268.96,-273.98"/>
</g>
<!-- mapserver/service/site&#45;adder.ts&#45;&gt;mapserver/service/map&#45;attributes&#45;holder.ts -->
<g id="edge37" class="edge">
<title>mapserver/service/site&#45;adder.ts&#45;&gt;mapserver/service/map&#45;attributes&#45;holder.ts</title>
<path fill="none" stroke="#757575" d="M1008.31,-425.45C1041.95,-440.31 1103.6,-465.59 1159,-477.85 1200.77,-487.09 1754.92,-532.48 2029.89,-554.63"/>
<polygon fill="#757575" stroke="#757575" points="2029.71,-558.13 2039.96,-555.45 2030.27,-551.15 2029.71,-558.13"/>
</g>
<!-- mapserver/service/site&#45;adder.ts&#45;&gt;mapserver/service/woirld&#45;map&#45;resolver.ts -->
<g id="edge39" class="edge">
<title>mapserver/service/site&#45;adder.ts&#45;&gt;mapserver/service/woirld&#45;map&#45;resolver.ts</title>
<path fill="none" stroke="#757575" d="M873.88,-403.47C862.76,-401.34 851.64,-399.1 841,-396.85 812.55,-390.84 735.76,-372.35 690.4,-358.43"/>
<polygon fill="#757575" stroke="#757575" points="691.27,-355.04 680.68,-355.36 689.16,-361.71 691.27,-355.04"/>
</g>
<!-- mapserver/service/site&#45;adder.ts&#45;&gt;mapserver/models/bounding&#45;box.ts -->
<g id="edge32" class="edge">
<title>mapserver/service/site&#45;adder.ts&#45;&gt;mapserver/models/bounding&#45;box.ts</title>
<path fill="none" stroke="#757575" d="M1075.65,-402.33C1196.31,-387.33 1406.56,-361.19 1531.91,-345.6"/>
<polygon fill="#757575" stroke="#757575" points="1532.41,-349.07 1541.9,-344.36 1531.55,-342.12 1532.41,-349.07"/>
</g>
<!-- mapserver/service/site&#45;adder.ts&#45;&gt;mapserver/models/vector.ts -->
<g id="edge36" class="edge">
<title>mapserver/service/site&#45;adder.ts&#45;&gt;mapserver/models/vector.ts</title>
<path fill="none" stroke="#757575" d="M1090.09,-408.57C1189.39,-403.53 1341.22,-395.44 1473,-386.85 1709.17,-371.45 1768.03,-364.99 2004,-346.85 2027.46,-345.05 2052.65,-343.08 2076.5,-341.22"/>
<polygon fill="#757575" stroke="#757575" points="2076.93,-344.69 2086.62,-340.42 2076.38,-337.72 2076.93,-344.69"/>
</g>
<!-- mapserver/service/site&#45;adder.ts&#45;&gt;mapserver/models/tile&#45;pixel.ts -->
<g id="edge35" class="edge">
<title>mapserver/service/site&#45;adder.ts&#45;&gt;mapserver/models/tile&#45;pixel.ts</title>
<path fill="none" stroke="#757575" d="M1033.56,-425.36C1068.59,-432.91 1116.41,-442.36 1159,-447.85 1424.99,-482.14 1494.5,-490.13 1762,-470.85 1782.24,-469.39 1804.03,-466.74 1824.17,-463.84"/>
<polygon fill="#757575" stroke="#757575" points="1824.85,-467.28 1834.23,-462.35 1823.82,-460.35 1824.85,-467.28"/>
</g>
<!-- mapserver/service/site&#45;adder.ts&#45;&gt;mapserver/models/site&#45;tile&#45;position.ts -->
<g id="edge33" class="edge">
<title>mapserver/service/site&#45;adder.ts&#45;&gt;mapserver/models/site&#45;tile&#45;position.ts</title>
<path fill="none" stroke="#757575" d="M1090.03,-420.67C1112.79,-422.09 1136.69,-423.54 1159,-424.85 1273.47,-431.56 1403.48,-438.63 1498.59,-443.7"/>
<polygon fill="#757575" stroke="#757575" points="1498.67,-447.21 1508.84,-444.25 1499.04,-440.22 1498.67,-447.21"/>
</g>
<!-- mapserver/service/map.d.ts -->
<g id="node23" class="node">
<title>mapserver/service/map.d.ts</title>
<path fill="none" stroke="#cfffac" d="M1404.33,-618.35C1404.33,-618.35 1227.67,-618.35 1227.67,-618.35 1223.83,-618.35 1220,-614.52 1220,-610.68 1220,-610.68 1220,-603.02 1220,-603.02 1220,-599.18 1223.83,-595.35 1227.67,-595.35 1227.67,-595.35 1404.33,-595.35 1404.33,-595.35 1408.17,-595.35 1412,-599.18 1412,-603.02 1412,-603.02 1412,-610.68 1412,-610.68 1412,-614.52 1408.17,-618.35 1404.33,-618.35"/>
<text text-anchor="middle" x="1316" y="-603.15" font-family="Arial" font-size="14.00" fill="#cfffac">mapserver/service/map.d.ts</text>
</g>
<!-- mapserver/service/site&#45;adder.ts&#45;&gt;mapserver/service/map.d.ts -->
<g id="edge38" class="edge">
<title>mapserver/service/site&#45;adder.ts&#45;&gt;mapserver/service/map.d.ts</title>
<path fill="none" stroke="#757575" d="M996.36,-425.43C1024.77,-449.64 1093.9,-506.36 1159,-542.85 1194.99,-563.02 1238.62,-580.38 1270.59,-591.91"/>
<polygon fill="#757575" stroke="#757575" points="1269.51,-595.24 1280.11,-595.29 1271.86,-588.64 1269.51,-595.24"/>
</g>
<!-- mapserver/service/user&#45;map&#45;loader.ts&#45;&gt;mapserver/service/map&#45;attributes&#45;holder.ts -->
<g id="edge40" class="edge">
<title>mapserver/service/user&#45;map&#45;loader.ts&#45;&gt;mapserver/service/map&#45;attributes&#45;holder.ts</title>
<path fill="none" stroke="#757575" d="M465.79,-646.85C595.55,-646.85 802.25,-646.85 981,-646.85 981,-646.85 981,-646.85 1636.5,-646.85 1816.88,-646.85 2027.28,-603.57 2125.96,-580.68"/>
<polygon fill="#757575" stroke="#757575" points="2126.79,-584.08 2135.73,-578.4 2125.2,-577.27 2126.79,-584.08"/>
</g>
<!-- mapserver/service/user&#45;map&#45;loader.ts&#45;&gt;mapserver/user/user.ts -->
<g id="edge43" class="edge">
<title>mapserver/service/user&#45;map&#45;loader.ts&#45;&gt;mapserver/user/user.ts</title>
<path fill="none" stroke="#757575" d="M369.96,-658.4C418.12,-675.82 503.79,-706.8 504,-706.85 523.04,-711.57 543.73,-715.33 563.47,-718.28"/>
<polygon fill="#757575" stroke="#757575" points="562.99,-721.75 573.39,-719.71 563.99,-714.82 562.99,-721.75"/>
</g>
<!-- mapserver/service/user&#45;map&#45;loader.ts&#45;&gt;mapserver/service/map.d.ts -->
<g id="edge41" class="edge">
<title>mapserver/service/user&#45;map&#45;loader.ts&#45;&gt;mapserver/service/map.d.ts</title>
<path fill="none" stroke="#757575" d="M465.74,-635.4C478.66,-634.45 491.58,-633.57 504,-632.85 756.78,-618.15 1054.4,-611.27 1209.28,-608.48"/>
<polygon fill="#757575" stroke="#757575" points="1209.79,-611.97 1219.73,-608.3 1209.67,-604.97 1209.79,-611.97"/>
</g>
<!-- mapserver/user/user&#45;map&#45;attributes&#45;loader.ts -->
<g id="node24" class="node">
<title>mapserver/user/user&#45;map&#45;attributes&#45;loader.ts</title>
<path fill="none" stroke="#c6c5fe" d="M797.33,-698.35C797.33,-698.35 511.67,-698.35 511.67,-698.35 507.83,-698.35 504,-694.52 504,-690.68 504,-690.68 504,-683.02 504,-683.02 504,-679.18 507.83,-675.35 511.67,-675.35 511.67,-675.35 797.33,-675.35 797.33,-675.35 801.17,-675.35 805,-679.18 805,-683.02 805,-683.02 805,-690.68 805,-690.68 805,-694.52 801.17,-698.35 797.33,-698.35"/>
<text text-anchor="middle" x="654.5" y="-683.15" font-family="Arial" font-size="14.00" fill="#c6c5fe">mapserver/user/user&#45;map&#45;attributes&#45;loader.ts</text>
</g>
<!-- mapserver/service/user&#45;map&#45;loader.ts&#45;&gt;mapserver/user/user&#45;map&#45;attributes&#45;loader.ts -->
<g id="edge42" class="edge">
<title>mapserver/service/user&#45;map&#45;loader.ts&#45;&gt;mapserver/user/user&#45;map&#45;attributes&#45;loader.ts</title>
<path fill="none" stroke="#757575" d="M428.83,-658.36C467.6,-663.28 512.98,-669.03 552.77,-674.08"/>
<polygon fill="#757575" stroke="#757575" points="552.4,-677.56 562.76,-675.34 553.28,-670.61 552.4,-677.56"/>
</g>
<!-- mapserver/service/woirld&#45;map&#45;resolver.ts&#45;&gt;mapserver/models/location.ts -->
<g id="edge44" class="edge">
<title>mapserver/service/woirld&#45;map&#45;resolver.ts&#45;&gt;mapserver/models/location.ts</title>
<path fill="none" stroke="#757575" d="M686.8,-332.32C723.5,-318.97 786.29,-296.66 841,-279.85 980.95,-236.84 1014.37,-216.63 1159,-193.85 1282.8,-174.35 1426.76,-169.88 1523.58,-169.48"/>
<polygon fill="#757575" stroke="#757575" points="1523.68,-172.98 1533.67,-169.45 1523.66,-165.98 1523.68,-172.98"/>
</g>
<!-- mapserver/service/woirld&#45;map&#45;resolver.ts&#45;&gt;mapserver/service/map&#45;attributes&#45;holder.ts -->
<g id="edge48" class="edge">
<title>mapserver/service/woirld&#45;map&#45;resolver.ts&#45;&gt;mapserver/service/map&#45;attributes&#45;holder.ts</title>
<path fill="none" stroke="#757575" d="M675.44,-355.39C708.73,-374.24 778.2,-411.73 841,-433.85 1245.26,-576.25 1369.84,-533.2 1798,-552.85 1874.16,-556.34 1958.84,-559.5 2029.3,-561.94"/>
<polygon fill="#757575" stroke="#757575" points="2029.48,-565.44 2039.59,-562.29 2029.72,-558.45 2029.48,-565.44"/>
</g>
<!-- mapserver/service/woirld&#45;map&#45;resolver.ts&#45;&gt;mapserver/service/site&#45;adder.ts -->
<g id="edge50" class="edge">
<title>mapserver/service/woirld&#45;map&#45;resolver.ts&#45;&gt;mapserver/service/site&#45;adder.ts</title>
<path fill="none" stroke="#757575" d="M736.1,-355.41C776.42,-364.07 820.84,-374.59 841,-378.85 875.57,-386.16 915.19,-393.41 943.43,-399.96"/>
<polygon fill="#757575" stroke="#757575" points="942.75,-403.39 953.29,-402.34 944.39,-396.59 942.75,-403.39"/>
</g>
<!-- mapserver/service/woirld&#45;map&#45;resolver.ts&#45;&gt;mapserver/models/vector.ts -->
<g id="edge47" class="edge">
<title>mapserver/service/woirld&#45;map&#45;resolver.ts&#45;&gt;mapserver/models/vector.ts</title>
<path fill="none" stroke="#757575" d="M709.99,-332.32C746.8,-325.13 796.59,-316.57 841,-312.85 1248.91,-278.69 1352.79,-301.64 1762,-311.85 1869.26,-314.53 1991.76,-321.04 2076.76,-326.1"/>
<polygon fill="#757575" stroke="#757575" points="2076.75,-329.61 2086.94,-326.72 2077.17,-322.62 2076.75,-329.61"/>
</g>
<!-- mapserver/service/woirld&#45;map&#45;resolver.ts&#45;&gt;mapserver/models/tile&#45;pixel.ts -->
<g id="edge46" class="edge">
<title>mapserver/service/woirld&#45;map&#45;resolver.ts&#45;&gt;mapserver/models/tile&#45;pixel.ts</title>
<path fill="none" stroke="#757575" d="M793.38,-351.3C1003.03,-363.37 1414.33,-389.94 1762,-429.85 1781.17,-432.05 1801.76,-434.91 1821.04,-437.81"/>
<polygon fill="#757575" stroke="#757575" points="1820.58,-441.28 1830.99,-439.33 1821.63,-434.36 1820.58,-441.28"/>
</g>
<!-- mapserver/models/map&#45;cache.ts -->
<g id="node20" class="node">
<title>mapserver/models/map&#45;cache.ts</title>
<path fill="none" stroke="#cfffac" d="M1086.33,-345.35C1086.33,-345.35 877.67,-345.35 877.67,-345.35 873.83,-345.35 870,-341.52 870,-337.68 870,-337.68 870,-330.02 870,-330.02 870,-326.18 873.83,-322.35 877.67,-322.35 877.67,-322.35 1086.33,-322.35 1086.33,-322.35 1090.17,-322.35 1094,-326.18 1094,-330.02 1094,-330.02 1094,-337.68 1094,-337.68 1094,-341.52 1090.17,-345.35 1086.33,-345.35"/>
<text text-anchor="middle" x="982" y="-330.15" font-family="Arial" font-size="14.00" fill="#cfffac">mapserver/models/map&#45;cache.ts</text>
</g>
<!-- mapserver/service/woirld&#45;map&#45;resolver.ts&#45;&gt;mapserver/models/map&#45;cache.ts -->
<g id="edge45" class="edge">
<title>mapserver/service/woirld&#45;map&#45;resolver.ts&#45;&gt;mapserver/models/map&#45;cache.ts</title>
<path fill="none" stroke="#757575" d="M793.07,-339.62C815.16,-338.94 837.89,-338.25 859.57,-337.58"/>
<polygon fill="#757575" stroke="#757575" points="859.9,-341.07 869.79,-337.27 859.68,-334.07 859.9,-341.07"/>
</g>
<!-- mapserver/service/woirld&#45;map&#45;resolver.ts&#45;&gt;mapserver/service/map.d.ts -->
<g id="edge49" class="edge">
<title>mapserver/service/woirld&#45;map&#45;resolver.ts&#45;&gt;mapserver/service/map.d.ts</title>
<path fill="none" stroke="#757575" d="M662.09,-355.65C682.9,-391.62 751.14,-500.28 841,-546.85 873.01,-563.44 1080.13,-585.17 1209.77,-597.4"/>
<polygon fill="#757575" stroke="#757575" points="1209.46,-600.89 1219.74,-598.34 1210.12,-593.92 1209.46,-600.89"/>
</g>
<!-- mapserver/user/friendship.ts -->
<g id="node25" class="node">
<title>mapserver/user/friendship.ts</title>
<path fill="none" stroke="#ff6c60" d="M1072.83,-739.35C1072.83,-739.35 891.17,-739.35 891.17,-739.35 887.33,-739.35 883.5,-735.52 883.5,-731.68 883.5,-731.68 883.5,-724.02 883.5,-724.02 883.5,-720.18 887.33,-716.35 891.17,-716.35 891.17,-716.35 1072.83,-716.35 1072.83,-716.35 1076.67,-716.35 1080.5,-720.18 1080.5,-724.02 1080.5,-724.02 1080.5,-731.68 1080.5,-731.68 1080.5,-735.52 1076.67,-739.35 1072.83,-739.35"/>
<text text-anchor="middle" x="982" y="-724.15" font-family="Arial" font-size="14.00" fill="#ff6c60">mapserver/user/friendship.ts</text>
</g>
<!-- mapserver/user/user.ts&#45;&gt;mapserver/user/friendship.ts -->
<g id="edge55" class="edge">
<title>mapserver/user/user.ts&#45;&gt;mapserver/user/friendship.ts</title>
<path fill="none" stroke="#757575" d="M735.54,-721.94C777.02,-721.02 828.25,-720.85 873.17,-721.45"/>
<polygon fill="#757575" stroke="#757575" points="873.19,-724.95 883.24,-721.6 873.3,-717.95 873.19,-724.95"/>
</g>
<!-- mapserver/user/inventory/inventory&#45;item.ts -->
<g id="node27" class="node">
<title>mapserver/user/inventory/inventory&#45;item.ts</title>
<path fill="none" stroke="#c6c5fe" d="M1115.33,-821.35C1115.33,-821.35 848.67,-821.35 848.67,-821.35 844.83,-821.35 841,-817.52 841,-813.68 841,-813.68 841,-806.02 841,-806.02 841,-802.18 844.83,-798.35 848.67,-798.35 848.67,-798.35 1115.33,-798.35 1115.33,-798.35 1119.17,-798.35 1123,-802.18 1123,-806.02 1123,-806.02 1123,-813.68 1123,-813.68 1123,-817.52 1119.17,-821.35 1115.33,-821.35"/>
<text text-anchor="middle" x="982" y="-806.15" font-family="Arial" font-size="14.00" fill="#c6c5fe">mapserver/user/inventory/inventory&#45;item.ts</text>
</g>
<!-- mapserver/user/user.ts&#45;&gt;mapserver/user/inventory/inventory&#45;item.ts -->
<g id="edge56" class="edge">
<title>mapserver/user/user.ts&#45;&gt;mapserver/user/inventory/inventory&#45;item.ts</title>
<path fill="none" stroke="#757575" d="M685.25,-739.36C721.53,-753 784.93,-775.53 841,-788.85 853.29,-791.77 866.29,-794.36 879.22,-796.64"/>
<polygon fill="#757575" stroke="#757575" points="878.63,-800.1 889.07,-798.33 879.81,-793.19 878.63,-800.1"/>
</g>
<!-- mapserver/user/user&#45;attribute.ts -->
<g id="node29" class="node">
<title>mapserver/user/user&#45;attribute.ts</title>
<path fill="none" stroke="#cfffac" d="M1082.83,-780.35C1082.83,-780.35 881.17,-780.35 881.17,-780.35 877.33,-780.35 873.5,-776.52 873.5,-772.68 873.5,-772.68 873.5,-765.02 873.5,-765.02 873.5,-761.18 877.33,-757.35 881.17,-757.35 881.17,-757.35 1082.83,-757.35 1082.83,-757.35 1086.67,-757.35 1090.5,-761.18 1090.5,-765.02 1090.5,-765.02 1090.5,-772.68 1090.5,-772.68 1090.5,-776.52 1086.67,-780.35 1082.83,-780.35"/>
<text text-anchor="middle" x="982" y="-765.15" font-family="Arial" font-size="14.00" fill="#cfffac">mapserver/user/user&#45;attribute.ts</text>
</g>
<!-- mapserver/user/user.ts&#45;&gt;mapserver/user/user&#45;attribute.ts -->
<g id="edge57" class="edge">
<title>mapserver/user/user.ts&#45;&gt;mapserver/user/user&#45;attribute.ts</title>
<path fill="none" stroke="#757575" d="M735.54,-737.93C778.95,-743.4 833.04,-750.21 879.39,-756.05"/>
<polygon fill="#757575" stroke="#757575" points="879.1,-759.54 889.46,-757.32 879.98,-752.6 879.1,-759.54"/>
</g>
<!-- mapserver/models/bounding&#45;box.ts&#45;&gt;mapserver/models/vector.ts -->
<g id="edge15" class="edge">
<title>mapserver/models/bounding&#45;box.ts&#45;&gt;mapserver/models/vector.ts</title>
<path fill="none" stroke="#757575" d="M1755.65,-332.85C1851.37,-332.85 1984.56,-332.85 2076.59,-332.85"/>
<polygon fill="#757575" stroke="#757575" points="2076.76,-336.35 2086.76,-332.85 2076.76,-329.35 2076.76,-336.35"/>
</g>
<!-- mapserver/models/tile&#45;pixel.ts&#45;&gt;mapserver/service/map&#45;attributes&#45;holder.ts -->
<g id="edge24" class="edge">
<title>mapserver/models/tile&#45;pixel.ts&#45;&gt;mapserver/service/map&#45;attributes&#45;holder.ts</title>
<path fill="none" stroke="#757575" d="M1929.92,-462.4C1980.62,-483.36 2087.82,-527.69 2144.89,-551.3"/>
<polygon fill="#757575" stroke="#757575" points="2143.7,-554.59 2154.28,-555.18 2146.37,-548.12 2143.7,-554.59"/>
</g>
<!-- mapserver/models/tile&#45;pixel.ts&#45;&gt;mapserver/models/vector.ts -->
<g id="edge23" class="edge">
<title>mapserver/models/tile&#45;pixel.ts&#45;&gt;mapserver/models/vector.ts</title>
<path fill="none" stroke="#757575" d="M1956.7,-439.33C1972.21,-435.41 1988.96,-430.56 2004,-424.85 2059.57,-403.76 2120.28,-369.96 2154.65,-349.73"/>
<polygon fill="#757575" stroke="#757575" points="2156.8,-352.52 2163.62,-344.41 2153.23,-346.5 2156.8,-352.52"/>
</g>
<!-- mapserver/models/site&#45;tile&#45;position.ts&#45;&gt;mapserver/models/tile&#45;pixel.ts -->
<g id="edge19" class="edge">
<title>mapserver/models/site&#45;tile&#45;position.ts&#45;&gt;mapserver/models/tile&#45;pixel.ts</title>
<path fill="none" stroke="#757575" d="M1762.08,-450.85C1770.56,-450.85 1779.07,-450.85 1787.48,-450.85"/>
<polygon fill="#757575" stroke="#757575" points="1787.68,-454.35 1797.68,-450.85 1787.68,-447.35 1787.68,-454.35"/>
</g>
<!-- mapserver/user/user&#45;map&#45;attributes.ts -->
<g id="node30" class="node">
<title>mapserver/user/user&#45;map&#45;attributes.ts</title>
<path fill="none" stroke="#c6c5fe" d="M1102.83,-698.35C1102.83,-698.35 861.17,-698.35 861.17,-698.35 857.33,-698.35 853.5,-694.52 853.5,-690.68 853.5,-690.68 853.5,-683.02 853.5,-683.02 853.5,-679.18 857.33,-675.35 861.17,-675.35 861.17,-675.35 1102.83,-675.35 1102.83,-675.35 1106.67,-675.35 1110.5,-679.18 1110.5,-683.02 1110.5,-683.02 1110.5,-690.68 1110.5,-690.68 1110.5,-694.52 1106.67,-698.35 1102.83,-698.35"/>
<text text-anchor="middle" x="982" y="-683.15" font-family="Arial" font-size="14.00" fill="#c6c5fe">mapserver/user/user&#45;map&#45;attributes.ts</text>
</g>
<!-- mapserver/user/user&#45;map&#45;attributes&#45;loader.ts&#45;&gt;mapserver/user/user&#45;map&#45;attributes.ts -->
<g id="edge53" class="edge">
<title>mapserver/user/user&#45;map&#45;attributes&#45;loader.ts&#45;&gt;mapserver/user/user&#45;map&#45;attributes.ts</title>
<path fill="none" stroke="#757575" d="M805.39,-686.85C818.03,-686.85 830.77,-686.85 843.31,-686.85"/>
<polygon fill="#757575" stroke="#757575" points="843.32,-690.35 853.32,-686.85 843.32,-683.35 843.32,-690.35"/>
</g>
<!-- mapserver/user/friendship.ts&#45;&gt;mapserver/user/user.ts -->
<g id="edge51" class="edge">
<title>mapserver/user/friendship.ts&#45;&gt;mapserver/user/user.ts</title>
<path fill="none" stroke="#757575" d="M883.24,-734.1C839.56,-734.81 788.41,-734.76 745.65,-733.96"/>
<polygon fill="#757575" stroke="#757575" points="745.61,-730.46 735.54,-733.76 745.47,-737.46 745.61,-730.46"/>
</g>
<!-- mapserver/user/inventory/inventory&#45;item&#45;type.ts -->
<g id="node26" class="node">
<title>mapserver/user/inventory/inventory&#45;item&#45;type.ts</title>
<path fill="none" stroke="#cfffac" d="M1465.33,-821.35C1465.33,-821.35 1166.67,-821.35 1166.67,-821.35 1162.83,-821.35 1159,-817.52 1159,-813.68 1159,-813.68 1159,-806.02 1159,-806.02 1159,-802.18 1162.83,-798.35 1166.67,-798.35 1166.67,-798.35 1465.33,-798.35 1465.33,-798.35 1469.17,-798.35 1473,-802.18 1473,-806.02 1473,-806.02 1473,-813.68 1473,-813.68 1473,-817.52 1469.17,-821.35 1465.33,-821.35"/>
<text text-anchor="middle" x="1316" y="-806.15" font-family="Arial" font-size="14.00" fill="#cfffac">mapserver/user/inventory/inventory&#45;item&#45;type.ts</text>
</g>
<!-- mapserver/user/inventory/inventory&#45;item.ts&#45;&gt;mapserver/user/inventory/inventory&#45;item&#45;type.ts -->
<g id="edge52" class="edge">
<title>mapserver/user/inventory/inventory&#45;item.ts&#45;&gt;mapserver/user/inventory/inventory&#45;item&#45;type.ts</title>
<path fill="none" stroke="#757575" d="M1123.32,-809.85C1131.78,-809.85 1140.33,-809.85 1148.88,-809.85"/>
<polygon fill="#757575" stroke="#757575" points="1148.91,-813.35 1158.91,-809.85 1148.91,-806.35 1148.91,-813.35"/>
</g>
<!-- mapserver/user/private&#45;map&#45;override.ts -->
<g id="node28" class="node">
<title>mapserver/user/private&#45;map&#45;override.ts</title>
<path fill="none" stroke="#cfffac" d="M1440.83,-698.35C1440.83,-698.35 1191.17,-698.35 1191.17,-698.35 1187.33,-698.35 1183.5,-694.52 1183.5,-690.68 1183.5,-690.68 1183.5,-683.02 1183.5,-683.02 1183.5,-679.18 1187.33,-675.35 1191.17,-675.35 1191.17,-675.35 1440.83,-675.35 1440.83,-675.35 1444.67,-675.35 1448.5,-679.18 1448.5,-683.02 1448.5,-683.02 1448.5,-690.68 1448.5,-690.68 1448.5,-694.52 1444.67,-698.35 1440.83,-698.35"/>
<text text-anchor="middle" x="1316" y="-683.15" font-family="Arial" font-size="14.00" fill="#cfffac">mapserver/user/private&#45;map&#45;override.ts</text>
</g>
<!-- mapserver/user/user&#45;map&#45;attributes.ts&#45;&gt;mapserver/user/private&#45;map&#45;override.ts -->
<g id="edge54" class="edge">
<title>mapserver/user/user&#45;map&#45;attributes.ts&#45;&gt;mapserver/user/private&#45;map&#45;override.ts</title>
<path fill="none" stroke="#757575" d="M1110.88,-686.85C1131.29,-686.85 1152.51,-686.85 1173.22,-686.85"/>
<polygon fill="#757575" stroke="#757575" points="1173.34,-690.35 1183.34,-686.85 1173.34,-683.35 1173.34,-690.35"/>
</g>
<!-- nue/nue&#45;user.ts -->
<g id="node31" class="node">
<title>nue/nue&#45;user.ts</title>
<path fill="none" stroke="#c6c5fe" d="M386.33,-1022.35C386.33,-1022.35 287.67,-1022.35 287.67,-1022.35 283.83,-1022.35 280,-1018.52 280,-1014.68 280,-1014.68 280,-1007.02 280,-1007.02 280,-1003.18 283.83,-999.35 287.67,-999.35 287.67,-999.35 386.33,-999.35 386.33,-999.35 390.17,-999.35 394,-1003.18 394,-1007.02 394,-1007.02 394,-1014.68 394,-1014.68 394,-1018.52 390.17,-1022.35 386.33,-1022.35"/>
<text text-anchor="middle" x="337" y="-1007.15" font-family="Arial" font-size="14.00" fill="#c6c5fe">nue/nue&#45;user.ts</text>
</g>
<!-- nue/nue&#45;visits.ts -->
<g id="node32" class="node">
<title>nue/nue&#45;visits.ts</title>
<path fill="none" stroke="#cfffac" d="M705.83,-1002.35C705.83,-1002.35 603.17,-1002.35 603.17,-1002.35 599.33,-1002.35 595.5,-998.52 595.5,-994.68 595.5,-994.68 595.5,-987.02 595.5,-987.02 595.5,-983.18 599.33,-979.35 603.17,-979.35 603.17,-979.35 705.83,-979.35 705.83,-979.35 709.67,-979.35 713.5,-983.18 713.5,-987.02 713.5,-987.02 713.5,-994.68 713.5,-994.68 713.5,-998.52 709.67,-1002.35 705.83,-1002.35"/>
<text text-anchor="middle" x="654.5" y="-987.15" font-family="Arial" font-size="14.00" fill="#cfffac">nue/nue&#45;visits.ts</text>
</g>
<!-- nue/nue&#45;user.ts&#45;&gt;nue/nue&#45;visits.ts -->
<g id="edge58" class="edge">
<title>nue/nue&#45;user.ts&#45;&gt;nue/nue&#45;visits.ts</title>
<path fill="none" stroke="#757575" d="M394.04,-1007.3C447.5,-1003.91 528.11,-998.8 585.28,-995.17"/>
<polygon fill="#757575" stroke="#757575" points="585.55,-998.66 595.31,-994.54 585.11,-991.68 585.55,-998.66"/>
</g>
<!-- nue/nuedigital&#45;counter.ts -->
<g id="node33" class="node">
<title>nue/nuedigital&#45;counter.ts</title>
<path fill="none" stroke="#c6c5fe" d="M162.33,-1002.35C162.33,-1002.35 7.67,-1002.35 7.67,-1002.35 3.83,-1002.35 0,-998.52 0,-994.68 0,-994.68 0,-987.02 0,-987.02 0,-983.18 3.83,-979.35 7.67,-979.35 7.67,-979.35 162.33,-979.35 162.33,-979.35 166.17,-979.35 170,-983.18 170,-987.02 170,-987.02 170,-994.68 170,-994.68 170,-998.52 166.17,-1002.35 162.33,-1002.35"/>
<text text-anchor="middle" x="85" y="-987.15" font-family="Arial" font-size="14.00" fill="#c6c5fe">nue/nuedigital&#45;counter.ts</text>
</g>
<!-- nue/nuedigital&#45;counter.ts&#45;&gt;nue/nue&#45;user.ts -->
<g id="edge59" class="edge">
<title>nue/nuedigital&#45;counter.ts&#45;&gt;nue/nue&#45;user.ts</title>
<path fill="none" stroke="#757575" d="M170.29,-997.59C202.77,-1000.19 239.36,-1003.12 269.88,-1005.56"/>
<polygon fill="#757575" stroke="#757575" points="269.73,-1009.06 279.98,-1006.37 270.29,-1002.08 269.73,-1009.06"/>
</g>
<!-- nue/nuedigital&#45;counter.ts&#45;&gt;nue/nue&#45;visits.ts -->
<g id="edge60" class="edge">
<title>nue/nuedigital&#45;counter.ts&#45;&gt;nue/nue&#45;visits.ts</title>
<path fill="none" stroke="#757575" d="M170.04,-990.85C282.91,-990.85 481.3,-990.85 585.38,-990.85"/>
<polygon fill="#757575" stroke="#757575" points="585.45,-994.35 595.45,-990.85 585.45,-987.35 585.45,-994.35"/>
</g>
</g>
</svg>
